<svg xmlns="http://www.w3.org/2000/svg" viewBox="0 0 150.22 84.12"><defs><style>.cls-1{fill:#19a2a1;}</style></defs><title>Asset 1</title><g id="Layer_2" data-name="Layer 2"><g id="Layer_1-2" data-name="Layer 1"><path class="cls-1" d="M4.49,53.26H1.93V35.7H4.49Z"/><path class="cls-1" d="M16.23,47.76H8.42V45.88h7.81Z"/><path class="cls-1" d="M33.05,35.7V53.26H30.48V45H22.72v8.27H20.16V35.7h2.56v7.1h7.76V35.7Z"/><path class="cls-1" d="M48.25,51.15l.13,2c-1.56.14-4.09.2-7.6.2a3.75,3.75,0,0,1-2.6-.85,3,3,0,0,1-1-2.3V38.8a3,3,0,0,1,1-2.3,3.75,3.75,0,0,1,2.6-.85c3.51,0,6,.06,7.6.2l-.13,2h-7a1.42,1.42,0,0,0-1.09.36,2,2,0,0,0-.32,1.27V43h7.47V45H39.8v4.48a2,2,0,0,0,.32,1.26,1.38,1.38,0,0,0,1.09.37Z"/><path class="cls-1" d="M61.19,48H54.13l-1.64,5.29H49.87l5.54-16.88a.91.91,0,0,1,1-.68H59a.84.84,0,0,1,.93.68l5.57,16.88H62.83Zm-.67-2.22-2.08-6.67c0-.15-.12-.39-.21-.71s-.17-.56-.22-.71h-.7l-.41,1.42-2.08,6.67Z"/><path class="cls-1" d="M70.38,35.7V49.5a1.79,1.79,0,0,0,.36,1.26,1.76,1.76,0,0,0,1.26.36h6.29l.13,2c-1.66.16-3.94.23-6.83.23-2.52,0-3.77-1.15-3.77-3.46V35.7Z"/><path class="cls-1" d="M90.8,38H85.18v15.3h-2.6V38H77V35.7H90.8Z"/><path class="cls-1" d="M106.44,35.7V53.26h-2.57V45H96.11v8.27H93.55V35.7h2.56v7.1h7.76V35.7Z"/><path class="cls-1" d="M11.32,78.52H4.26L2.62,83.81H0L5.55,66.93a.89.89,0,0,1,1-.68H9.12a.83.83,0,0,1,.92.68l5.57,16.88H13Zm-.66-2.22L8.58,69.63c-.05-.15-.13-.39-.22-.71s-.17-.56-.22-.71H7.45L7,69.63,5,76.3Z"/><path class="cls-1" d="M28.73,68.38H22.16a1.8,1.8,0,0,0-1.27.37A1.74,1.74,0,0,0,20.52,70v3.8h7.24v2.06H20.52v7.94H18V69.48a3.09,3.09,0,0,1,1-2.42,3.74,3.74,0,0,1,2.61-.86q5.09,0,7.34.22Z"/><path class="cls-1" d="M44.55,83.81H41.8l-1.51-5.47a2.22,2.22,0,0,0-2.23-1.76l-3.65,0v7.25H31.87V66.25A60.89,60.89,0,0,1,38.06,66c2.14,0,3.65.36,4.53,1.09s1.32,2.06,1.32,4a5.45,5.45,0,0,1-.76,3.18,3.43,3.43,0,0,1-2.5,1.3v.13a3.2,3.2,0,0,1,2.23,2.54ZM34.41,74.39H38a4,4,0,0,0,2.61-.67,3.3,3.3,0,0,0,.71-2.46,3.22,3.22,0,0,0-.71-2.42A4,4,0,0,0,38,68.21l-3.59,0Z"/><path class="cls-1" d="M50.36,83.81H47.79V66.25h2.57Z"/><path class="cls-1" d="M66,81.57l.26,1.94a19.64,19.64,0,0,1-5.26.61c-2.59,0-4.4-.68-5.45-2S54,78.37,54,75s.52-5.69,1.56-7,2.86-2,5.45-2a21.14,21.14,0,0,1,4.9.51l-.26,2a46,46,0,0,0-4.64-.2,3.7,3.7,0,0,0-3.38,1.47c-.62,1-.94,2.77-.94,5.35s.32,4.36.94,5.35A3.7,3.7,0,0,0,61,81.85,33.25,33.25,0,0,0,66,81.57Z"/><path class="cls-1" d="M78.75,78.52H71.69l-1.64,5.29H67.43L73,66.93a.89.89,0,0,1,1-.68h2.62a.83.83,0,0,1,.92.68L83,83.81H80.4Zm-.66-2.22L76,69.63c-.05-.15-.13-.39-.22-.71s-.17-.56-.22-.71h-.69l-.41,1.42L72.39,76.3Z"/><path class="cls-1" d="M119.9,70.57a1.3,1.3,0,0,1-.49-2.5A36.65,36.65,0,0,0,133,58.37a1.3,1.3,0,1,1,2,1.71,39.2,39.2,0,0,1-14.61,10.4,1.36,1.36,0,0,1-.48.09m-1.42-6.2a1.3,1.3,0,0,1-.53-2.48A30.1,30.1,0,0,0,94.41,6.49a1.3,1.3,0,0,1-1-2.4A32.69,32.69,0,0,1,119,64.26a1.22,1.22,0,0,1-.52.11M117,58.11a1.3,1.3,0,0,1-.58-2.46A23.79,23.79,0,1,0,89.3,17.17a1.3,1.3,0,0,1-1.84,0,1.32,1.32,0,0,1,0-1.84A26.39,26.39,0,1,1,117.57,58a1.38,1.38,0,0,1-.59.14m-2.36-6a1.3,1.3,0,0,1-.62-2.44A17.37,17.37,0,1,0,90.75,25.57a1.3,1.3,0,0,1-2.24-1.32,20,20,0,1,1,26.73,27.69,1.39,1.39,0,0,1-.62.16m1.1-8.75a1.32,1.32,0,0,1-.79-.27,1.3,1.3,0,0,1-.24-1.82A11.18,11.18,0,0,0,117,34.38,11.31,11.31,0,0,0,95.1,30.5a1.3,1.3,0,0,1-2.44-.89,13.9,13.9,0,0,1,27,4.77,13.8,13.8,0,0,1-2.86,8.46,1.3,1.3,0,0,1-1,.51M112,36.64l-.19,0a1.3,1.3,0,0,1-1.09-1.48,6.33,6.33,0,0,0,0-.76,5,5,0,0,0-9.11-2.93,1.3,1.3,0,0,1-2.11-1.52,7.62,7.62,0,0,1,13.82,4.45,7.33,7.33,0,0,1-.09,1.15A1.3,1.3,0,0,1,112,36.64m31.33-3.13a1.31,1.31,0,0,1-1.3-1.23,36.25,36.25,0,0,0-5.71-17.56A36.62,36.62,0,0,0,123.09,2.44a1.29,1.29,0,0,1-.52-1.76,1.29,1.29,0,0,1,1.76-.52,39,39,0,0,1,20.28,32,1.3,1.3,0,0,1-1.23,1.37h-.07m5.61-5.3a1.29,1.29,0,0,1-1.28-1.08,44.46,44.46,0,0,0-1.09-4.7A1.3,1.3,0,0,1,149,21.7a44.58,44.58,0,0,1,1.16,5,1.3,1.3,0,0,1-1.06,1.5.86.86,0,0,1-.22,0"/></g></g></svg>