<svg id="doc-nurse-2" xmlns="http://www.w3.org/2000/svg" width="121.38" height="375.957" viewBox="0 0 121.38 375.957">
  <g id="BODY" transform="translate(0 48.242)">
    <path id="_Clothes" data-name="ðŸ‘• Clothes" d="M96.959,321.128a69.278,69.278,0,0,0,12.948-1.648l.15-.034a24.382,24.382,0,0,0,5.186-1.573,8.248,8.248,0,0,0,4.1-5.119,11.31,11.31,0,0,0-.781-8.449q-.431-.663-.866-1.325c-2.712-4.139-5.516-8.419-6.819-13.436l-.458-1.762,1.577.849a.169.169,0,0,0,.087.02c.328,0,1.057-.492,1.887-1.572,3.265-5.413,2.789-12.2,2.328-18.76-.129-1.835-.251-3.569-.3-5.288-1.358-17.987-6.252-35.649-10.985-52.729l-.689-2.488A186.734,186.734,0,0,1,98.3,166.531a31.338,31.338,0,0,0-1.415-9.376l-.213-.59.51-.351c2.166-1.488,2.825-4.445,3.407-7.054l.042-.19c1-4.421,1.711-9.951-1.683-13.518l-.541-.568,1.262-1.277.549.6a.271.271,0,0,0,.141.074c5.711-14.563,8.78-30.841,9.384-49.76.6-18.692-1.341-37.148-3.1-51.14-.976-6.142-1.764-10.418-3.739-13.758-2.088-3.53-5.544-5.891-11.206-7.657l-.031-.011c-1.371-.493-2.8-.961-4.19-1.414C80.886,8.394,74.07,6.168,69.653.084A.415.415,0,0,0,69.572,0a35.445,35.445,0,0,1-13.2,2.226c-2.17,0-4.514-.127-7.348-.4-1.885,2.134-6.129,6.357-10.177,6.357-.148,0-.3-.006-.44-.017-.445-.03-.9-.045-1.348-.045-6.6,0-12.251,3.29-16.8,9.778-3.548,5.057-6.359,12.1-7.917,19.833l-.008.035c-2.075,8.374-2.721,17.132-3.346,25.6-.108,1.468-.22,2.985-.338,4.477l0,.024c-.488,4.482-1.412,8.944-2.306,13.258-.417,2.011-.847,4.091-1.227,6.14-.319,2.258-.946,5.163-1.673,8.526-1.983,9.176-4.7,21.743-1.84,26.9l.082.149.016.17a23.954,23.954,0,0,0,.921,5.253l.069.2-.041.212c-.072.372.269.66,1.062,1.166.114.073.224.143.328.213l.406.273-.06.494A26.869,26.869,0,0,0,6.5,145.223c.82,1.638,2.189,4.366,4.085,4.366a2.264,2.264,0,0,0,.581-.079l.332-.088.288.191a1.923,1.923,0,0,0,1.083.265,8.886,8.886,0,0,0,1.583-.2c.15-.028.3-.056.438-.08l.732-.127.161.741a420.415,420.415,0,0,1,7.3,48.166c1.585,16.01,2.544,32.114,3.466,48.579.879,10.579,2.008,21.776,5.236,32.164l.152.489-.371.345c-2.894,2.692-6.522,4.094-10.03,5.451a34.768,34.768,0,0,0-8.313,4.1l-.02.014c-5.036,3.5-10.743,7.471-12.875,13.532A6.133,6.133,0,0,0,1,308.51c1.595,2.169,5.235,3.479,9.737,3.505h.03l.03,0c2.886.243,5.764.366,8.553.366a87.508,87.508,0,0,0,13.353-.995l.02,0a96.224,96.224,0,0,0,11.194-2.357c2.064-.521,4.2-1.059,6.3-1.5a12.563,12.563,0,0,0,6.72-4.17,11.32,11.32,0,0,0,2.736-7.409c-.035-2.816-1.185-6.209-3.675-7.447l-1.724-.857,1.819-.621c1.026-.35,1.479-1.412,2-2.643a14.249,14.249,0,0,1,.708-1.5,73.557,73.557,0,0,0,5.086-15.484l.007-.031C67.234,254.237,65,240.848,62.835,227.9c-1.882-11.266-3.828-22.916-2.167-34.487l1.53-.086c2.344,9.159,4.019,18.809,5.639,28.142,1.964,11.312,3.995,23.009,7.238,34,3.628,12.3,8.419,22.367,14.645,30.784l.33.446-.3.47a.372.372,0,0,0-.042.083,1.824,1.824,0,0,0,1.146.529l.331.044.2.276c.99,1.382-.163,3.14-.851,4.191-.12.183-.233.355-.313.492-.955,1.623-1.829,3.263-2.484,4.511l-.235.434c-1.767,3.261-3.966,7.32-4.82,11.225-.96,4.388-.023,7.714,2.864,10.166a6.608,6.608,0,0,0,3.873,1.4,4.757,4.757,0,0,0,.948-.094l.167-.034.166.041a26.208,26.208,0,0,0,6.257.7" transform="translate(0.775 5.798)" fill="#8fa7df"/>
    <path id="_Skin" data-name="âœ‹ Skin" d="M18.772,0c-1.519,0-3.062.04-4.555.079h0L13.257.1A15.153,15.153,0,0,1,11.58.181c-.442,0-.9-.011-1.338-.021H10.23C9.785.15,9.325.139,8.869.139c-.656,0-1.189.022-1.679.07A8.747,8.747,0,0,0,5.594.5a5.178,5.178,0,0,0-2.689,1.74,29.211,29.211,0,0,0-1.745,4.5A28.2,28.2,0,0,0,.113,11.935a18.335,18.335,0,0,0,.146,5.154,10.3,10.3,0,0,0,1.835,4.386,2.746,2.746,0,0,0,.795.591,3.7,3.7,0,0,0,.924.309,10.737,10.737,0,0,0,2.019.147c.407,0,.791.008,1.159.038.886.065,1.8.174,2.721.322.871.141,1.774.322,2.683.54a49.128,49.128,0,0,1,5.245,1.589.263.263,0,0,0,.045.194.1.1,0,0,0,.074.031.329.329,0,0,0,.255-.26,1.247,1.247,0,0,0,.7-.53,1.12,1.12,0,0,0,.167-.853c.58-.825,1.247-1.627,1.892-2.4h0a27.537,27.537,0,0,0,2.509-3.349,10.328,10.328,0,0,0,.888-1.853,8.052,8.052,0,0,0,.449-2.067l.007-.191c.045-1.479-.115-2.244-.571-2.73a5.261,5.261,0,0,0-2.441-1.033l-.356-.1c-.031-.6-.064-1.216-.1-1.809l0-.034c-.119-2.233-.241-4.542-.329-6.819a1.286,1.286,0,0,0-.352-.844A1.151,1.151,0,0,0,19.656,0C19.371,0,19.074,0,18.772,0ZM88.748,7.591a2.085,2.085,0,0,0-1.828.9,2.284,2.284,0,0,0-.346,1.233,3.814,3.814,0,0,0,.363,1.575,17.36,17.36,0,0,1,.546,2.873,23.2,23.2,0,0,1,.117,2.9,53.535,53.535,0,0,1-.513,5.8.8.8,0,0,0-.1.882,1.138,1.138,0,0,0,.361.436.876.876,0,0,0,.51.178.726.726,0,0,0,.541-.253,11.324,11.324,0,0,1,1.3-.076,10.215,10.215,0,0,1,2.641.341,12,12,0,0,1,2.037.75c.357.166.685.334.975.482a4.283,4.283,0,0,0,1.582.609.631.631,0,0,0,.416-.141,1.116,1.116,0,0,0,.308-.473,4.572,4.572,0,0,0,.05-2.239,16.064,16.064,0,0,0-.665-2.234c-.12-.341-.233-.663-.332-.981-.347-.951-.64-1.968-.951-3.046A29.448,29.448,0,0,0,93.8,11.663a9.729,9.729,0,0,0-1.58-2.256,7.367,7.367,0,0,0-1.036-.9A7.069,7.069,0,0,0,89.944,7.8,3.785,3.785,0,0,0,88.748,7.591Zm-42.7,146.951c-.692,0-1.42.039-2.224.119-.676.067-1.4.163-2.284.3l-.377.028-.8.056h-.02c-2.735.188-5.563.383-8.062,1.6a.968.968,0,0,0-.359.94,4.811,4.811,0,0,0,.342,1.155,4.36,4.36,0,0,1,.306,1.011l.028.13a6.562,6.562,0,0,0,.292.985,3.312,3.312,0,0,0,.467.843,2.079,2.079,0,0,0,.709.588,2.274,2.274,0,0,0,1.019.221h.092l.342.031c2.505.223,4.422.322,6.215.322a31.914,31.914,0,0,0,7.429-.779,3.689,3.689,0,0,0,.894-.74,5.121,5.121,0,0,0,.659-.95,14.866,14.866,0,0,0,.92-2.234,16.5,16.5,0,0,1,.764-1.923.585.585,0,0,0-.045-.558.722.722,0,0,0-.595-.29.691.691,0,0,0-.393.117,13.524,13.524,0,0,0-2.676-.751A15.349,15.349,0,0,0,46.052,154.542Z" transform="translate(102.171 162.868) rotate(180)" fill="#d08b5b"/>
    <path id="_Shoes" data-name="ðŸ‘Ÿ Shoes" d="M28.154,0a6.252,6.252,0,0,0-.633.033A107.035,107.035,0,0,0,16.569.618c-1.888.21-3.712.487-5.421.821A53.294,53.294,0,0,0,5.821,2.762a2.386,2.386,0,0,0-.635-.085,3.08,3.08,0,0,0-1.218.272,5.153,5.153,0,0,0-1.138.7A7.73,7.73,0,0,0,1.11,5.578,7.338,7.338,0,0,0,.426,7.017a7.646,7.646,0,0,0-.353,1.5,9.865,9.865,0,0,0,.109,3.07A19.805,19.805,0,0,0,2.407,17.4a57.406,57.406,0,0,1,2.827,5.554c.8,1.8,1.551,3.7,2.294,5.806a1.084,1.084,0,0,0-.152,1.016.672.672,0,0,0,.54.442,11.23,11.23,0,0,1,1.378.223,8.734,8.734,0,0,0,1.757.237c.073,0,.147,0,.218-.005,3.036.369,6.118.635,8.768.856.067,0,.136,0,.207,0a13.469,13.469,0,0,1,1.814.175l.039.005a14.283,14.283,0,0,0,1.924.18,3.182,3.182,0,0,0,2.359-.806.118.118,0,0,0,.069.021A.171.171,0,0,0,26.6,31c.416-1.009.913-2.015,1.394-2.988L28,28c.1-.212.214-.432.319-.647.78-1.744,1.738-3.451,2.666-5.1.97-1.727,1.973-3.512,2.771-5.341A23.478,23.478,0,0,0,34.789,14.1a17.509,17.509,0,0,0,.608-2.973A11.331,11.331,0,0,0,35.4,8.806a13.245,13.245,0,0,0-.46-2.406,12.314,12.314,0,0,0-.909-2.285,9.568,9.568,0,0,0-1.341-1.959A6.76,6.76,0,0,0,30.677.588,5.632,5.632,0,0,0,28.154,0Zm80.5,8.772c-1.3,0-2.6.066-3.934.139l-.261.014h0c-1.159.064-2.253.125-3.194.125-.274,0-.52,0-.751-.015l-.843.037c-.712.03-1.436.059-2.136.087-4.145.165-8.431.336-12.6.875a55.737,55.737,0,0,0-6.187,1.132c-1.041.256-2.062.545-3.035.861-1.022.331-2.026.7-2.985,1.1a4.288,4.288,0,0,0-1.5-.25,7.377,7.377,0,0,0-2.76.6,11.857,11.857,0,0,0-2.452.988,10.212,10.212,0,0,0-2.109,1.511A8.9,8.9,0,0,0,62.292,18a8.661,8.661,0,0,0-.973,2.511,13.9,13.9,0,0,0-.021,6.822,12.021,12.021,0,0,0,.548,1.722,8.537,8.537,0,0,0,.788,1.509,4.744,4.744,0,0,0,2.335,1.945,21.167,21.167,0,0,0,2.944.656,18.363,18.363,0,0,1,3.4.816,49.864,49.864,0,0,1,5.976,2.534l.015.007c.766.31,1.531.681,2.342,1.074,2.044.992,4.158,2.018,6.321,2.018a6.448,6.448,0,0,0,1.069-.088,1.717,1.717,0,0,0,.382.556.6.6,0,0,0,.4.166,1.235,1.235,0,0,0,.822-.494,9.475,9.475,0,0,0,.771-1.008,7.731,7.731,0,0,1,.528-.706,11.623,11.623,0,0,1,1.486-1.025,16.143,16.143,0,0,1,1.6-.817c1.1-.491,2.275-.9,3.411-1.288s2.285-.788,3.382-1.273a16.752,16.752,0,0,0,1.6-.806,12.137,12.137,0,0,0,1.5-1.009l.253-.165.339-.219c.705-.456,1.435-.927,2.105-1.458a8.234,8.234,0,0,0,1.749-1.81l.256-.178c.987-.688,2.148-1.512,3.279-2.406a30.4,30.4,0,0,0,3.163-2.836,19.581,19.581,0,0,0,1.371-1.591,14.8,14.8,0,0,0,1.141-1.712,11.647,11.647,0,0,0,.845-1.838,9.916,9.916,0,0,0,.481-1.969,1.621,1.621,0,0,0,.312-.824,6.87,6.87,0,0,0-.244-1.732,5.035,5.035,0,0,0-.619-1.376,4.818,4.818,0,0,0-.942-1.058,5.964,5.964,0,0,0-1.214-.779,8.576,8.576,0,0,0-1.435-.538,12.987,12.987,0,0,0-1.6-.337A23.978,23.978,0,0,0,108.649,8.772Z" transform="translate(119.673 325.809) rotate(180)" fill="#fff"/>
    <path id="_Ink" data-name="ðŸ– Ink" d="M24.638,0c-.374,0-.759.009-1.145.026a62.143,62.143,0,0,0-6.512.5c-2.086.268-4.252.647-6.438,1.127l-.605.136A22.989,22.989,0,0,0,5.03,3.318a8.26,8.26,0,0,0-2.817,2.3A9.986,9.986,0,0,0,.54,8.846a12.255,12.255,0,0,0-.491,4.7,12.048,12.048,0,0,0,.438,2.328,10.742,10.742,0,0,0,.89,2.153A26.534,26.534,0,0,0,3.3,21.006c.413.58.839,1.18,1.229,1.792a38.242,38.242,0,0,1,2.56,4.728,39.187,39.187,0,0,1,1.886,5.051.777.777,0,0,0-.454-.147.921.921,0,0,0-.438.118A7.47,7.47,0,0,0,6.208,34.2a9.915,9.915,0,0,0-1.341,2.214,15.344,15.344,0,0,0-.888,2.654,24.431,24.431,0,0,0-.513,2.972,46.572,46.572,0,0,0-.218,6.409c.054,2.158.2,4.315.333,6.218h0v0c.107,1.557.208,3.027.241,4.258.166,2.2.391,4.472.668,6.754.264,2.174.585,4.429.953,6.7.679,4.195,1.529,8.537,2.6,13.276.89,3.949,1.951,8.248,3.243,13.143,1.152,4.362,2.376,8.781,3.56,13.053l0,.006.681,2.458c.873,3.361,1.664,6.768,2.35,10.128.7,3.405,1.3,6.851,1.8,10.242.507,3.438.92,6.913,1.226,10.329.311,3.463.52,6.959.623,10.39l.013.326c.036.912.078,1.665.13,2.37.064.857.143,1.628.243,2.358a22.31,22.31,0,0,0,1.077,4.574,7.105,7.105,0,0,0-2.427,3.089A20.978,20.978,0,0,0,19.385,172l-.171.764a35.8,35.8,0,0,0-.7,4.037c-.078.722-.123,1.42-.133,2.076a16.875,16.875,0,0,0,.088,2.053.282.282,0,0,0-.1.266l.079.639a13.031,13.031,0,0,0,.6,2.851c.19.529.415,1.144.677,1.741l.1.226c.025.056.063.14.1.224a.694.694,0,0,0-.379.381c-1.083,2.626-2.083,5.368-2.971,8.152-.857,2.684-1.637,5.486-2.317,8.328-.653,2.729-1.235,5.578-1.729,8.468-.472,2.763-.878,5.648-1.208,8.575-.313,2.781-.566,5.691-.753,8.647-.176,2.787-.3,5.709-.365,8.685-.119,5.349-.064,11.023.168,17.345l.023.829c.1,3.674.242,7,.422,10.159.2,3.6.46,6.914.779,10.141.345,3.491.771,6.883,1.265,10.082.532,3.44,1.165,6.8,1.881,9.982a18.578,18.578,0,0,0,.692,2.8,15.745,15.745,0,0,0,1.049,2.442,14.73,14.73,0,0,0,1.378,2.112,15.3,15.3,0,0,0,1.678,1.813,17.418,17.418,0,0,0,1.949,1.545,21.356,21.356,0,0,0,2.191,1.309,31.237,31.237,0,0,0,4.994,2.032c1.378.5,2.813.964,4.2,1.418l.009,0c1.79.584,3.641,1.189,5.422,1.867a38.181,38.181,0,0,1,5.154,2.359l.047.085a3.361,3.361,0,0,0,.57.779,1.943,1.943,0,0,0,1.362.561,1.892,1.892,0,0,0,.25-.017,21.008,21.008,0,0,1,2.462,2.04,19.285,19.285,0,0,1,2.17,2.5,1.163,1.163,0,0,0,.308.3.73.73,0,0,0,.4.125.635.635,0,0,0,.215-.038,28.32,28.32,0,0,1,3.177-1.047,32.033,32.033,0,0,1,3.234-.679,41.818,41.818,0,0,1,6.558-.476c2.233,0,4.677.138,7.691.434a21.05,21.05,0,0,1,8.1-6.147,4.077,4.077,0,0,0,.694.06,3.963,3.963,0,0,0,.593-.045,8.312,8.312,0,0,0,1.015-.24c.312.014.629.021.942.021A20.631,20.631,0,0,0,88.063,314a19.967,19.967,0,0,0,4.561-1.7,23.006,23.006,0,0,0,3.45-2.335,25.345,25.345,0,0,0,2.95-2.85,30.1,30.1,0,0,0,2.5-3.273,37.451,37.451,0,0,0,2.1-3.6c.613-1.2,1.2-2.489,1.751-3.844.505-1.248.994-2.591,1.452-3.992.776-2.373,1.5-5.009,2.208-8.058.5-2.029.934-4.112,1.318-6.369.343-2.011.641-4.113.91-6.427.5-4.3.825-8.7,1.139-12.947h0v-.01c.108-1.461.219-2.972.337-4.457.217-1.994.541-4.158.989-6.618.4-2.19.858-4.407,1.3-6.552l0-.011,0-.011c.418-2.017.849-4.1,1.23-6.162.3-2.122.91-4.941,1.612-8.206l0-.01c.532-2.474,1.082-5.032,1.585-7.675.576-3.027.981-5.6,1.235-7.861.149-1.319.248-2.557.3-3.68a31.572,31.572,0,0,0-.019-3.345,17.072,17.072,0,0,0-.411-2.884,8.635,8.635,0,0,0-.878-2.3l-.029-.311a23.346,23.346,0,0,0-.93-5.128,1.274,1.274,0,0,0-.236-1.036,3.293,3.293,0,0,0-.83-.738,5.431,5.431,0,0,0,.006-1.35c-.017-.217-.032-.423-.034-.6a15.113,15.113,0,0,0-.2-2.636.3.3,0,0,0-.232-.264,28.139,28.139,0,0,0-.673-5.341,25.309,25.309,0,0,0-1.719-5.074l-.163-.324a15.031,15.031,0,0,0-1.844-2.952,5.18,5.18,0,0,0-1.261-1.1,2.959,2.959,0,0,0-1.518-.436,3.036,3.036,0,0,0-.778.1,2.809,2.809,0,0,0-.793-.308,4.016,4.016,0,0,0-.917-.1,3.266,3.266,0,0,0-1.914.539l-.238-1.217c-1.046-5.37-1.949-10.256-2.762-14.937-.917-5.285-1.7-10.191-2.389-15-.744-5.18-1.378-10.251-1.884-15.07-.543-5.17-.963-10.269-1.248-15.157-.481-5.967-.819-12.046-1.146-17.924-.319-5.73-.648-11.655-1.11-17.475-.248-3.131-.514-5.981-.812-8.712-.334-3.065-.7-5.9-1.121-8.681l-.092-.563c-.636-3.854-1.058-5.928-1.355-7.305a71.085,71.085,0,0,0-1.9-7.166A11.825,11.825,0,0,1,91.385,41a16.677,16.677,0,0,1,2.058-1.219,43.343,43.343,0,0,1,4.423-1.841l.031-.012.224-.084c1.748-.653,3.423-1.369,4.981-2.129a47.392,47.392,0,0,0,4.739-2.65l.781-.544c1.2-.837,2.481-1.746,3.741-2.721a40.066,40.066,0,0,0,3.541-3.049,19.9,19.9,0,0,0,5.117-7.636c.681-2.532.394-4.648-.853-6.289A7.162,7.162,0,0,0,118.23,11.1a11.323,11.323,0,0,0-2.536-1.143,20.2,20.2,0,0,0-5.818-.858c-2.905-.244-5.8-.368-8.615-.368-2.283,0-4.558.082-6.761.243-2.274.167-4.533.422-6.712.76a118.433,118.433,0,0,0-13.239,2.842l-.384.107c-.121.034-.246.067-.367.1l-.007,0a6.028,6.028,0,0,0-1.518.55,10.371,10.371,0,0,0-2.043.275A12.919,12.919,0,0,0,66.3,15.244a13.615,13.615,0,0,0-3.224,2.8,12.712,12.712,0,0,0-2.168,3.674,11.523,11.523,0,0,0-.757,4.268,12.008,12.008,0,0,0,1.007,4.693A8.214,8.214,0,0,0,62.435,32.7a5.959,5.959,0,0,0,1.835,1.44,2.546,2.546,0,0,0-1.249.838,5.079,5.079,0,0,0-.77,1.335c-.391.775-.773,1.567-1.134,2.353A70.894,70.894,0,0,0,58.1,46.356a78.305,78.305,0,0,0-2.143,8c-.412,1.617-.755,3.293-1.019,4.983-.251,1.61-.44,3.285-.559,4.979a75.058,75.058,0,0,0,0,9.951c.182,2.975.525,6.228,1.048,9.945.466,3.315,1.029,6.685,1.573,9.944.687,4.111,1.4,8.363,1.92,12.548.282,2.253.488,4.307.632,6.28.161,2.214.238,4.271.237,6.286-.091.562-.16,1.124-.216,1.6s-.073.948-.091,1.411v0c-.02.524-.041,1.066-.115,1.6a10.029,10.029,0,0,1-.7,2.516c-.932-3.817-1.838-8.048-2.771-12.936-.832-4.362-1.608-8.832-2.359-13.155-.983-5.662-2-11.517-3.158-17.221-.623-3.071-1.236-5.852-1.874-8.5-.716-2.976-1.445-5.712-2.227-8.365-.841-2.849-1.748-5.6-2.7-8.173-1.015-2.755-2.12-5.424-3.283-7.931-1.23-2.652-2.571-5.221-3.986-7.637a81.838,81.838,0,0,0-4.805-7.291.853.853,0,0,0,.093-.854,1.56,1.56,0,0,0-.735-.666,3.308,3.308,0,0,0-1.019-.319,1.281,1.281,0,0,1-.234-.768,2.433,2.433,0,0,1,.182-.855,9.16,9.16,0,0,1,.922-1.649c.125-.191.243-.371.334-.525.756-1.287,1.528-2.688,2.5-4.545l.554-1.023c.862-1.595,1.854-3.457,2.707-5.38a27.853,27.853,0,0,0,1.944-5.816,15.288,15.288,0,0,0,.31-2.89,10.834,10.834,0,0,0-.333-2.781,9.176,9.176,0,0,0-1.126-2.6,10.325,10.325,0,0,0-2.069-2.344A7.943,7.943,0,0,0,33.487,1.03,6.607,6.607,0,0,0,31.187.6a5.534,5.534,0,0,0-1.1.109,18.523,18.523,0,0,0-2.7-.542A22.1,22.1,0,0,0,24.638,0ZM16.449,32.874a30.156,30.156,0,0,1-3.6-.19,17.537,17.537,0,0,1-3.508-.765A19.469,19.469,0,0,0,7.529,24.18,35.525,35.525,0,0,0,5.7,20.635c-.729-1.249-1.516-2.468-2.121-3.391a9.09,9.09,0,0,1-1.128-4.037A9.955,9.955,0,0,1,2.57,11.07a9,9,0,0,1,.584-2.023A7.117,7.117,0,0,1,4.828,6.6,6.044,6.044,0,0,1,7.479,5.151a40.1,40.1,0,0,1,4.562-1.217c1.446-.3,2.965-.545,4.642-.748,3.114-.378,6.305-.549,9.392-.715.844-.045,1.8-.1,2.727-.152a1.089,1.089,0,0,0,.537.7,1.781,1.781,0,0,0,.882.223,1.9,1.9,0,0,0,.231-.014,4.073,4.073,0,0,1,.7-.061,4.759,4.759,0,0,1,2.312.632,5.6,5.6,0,0,1,1.811,1.624,8.854,8.854,0,0,1,.9,1.925,9.052,9.052,0,0,1,.407,1.994,10.977,10.977,0,0,1-.015,2.046,14.919,14.919,0,0,1-.362,2.082,42.268,42.268,0,0,1-3.445,8.36,45.031,45.031,0,0,0-2.706,6.158l-.052.125c-.058.138-.121.284-.188.438h0a13.388,13.388,0,0,0-.861,2.4,3.911,3.911,0,0,0-.094,1.22,2.017,2.017,0,0,0,.394,1.047,20.972,20.972,0,0,0-2.813-.423c-.861-.074-1.789-.11-2.838-.11-1.193,0-2.4.046-3.571.091H20c-.406.016-.826.032-1.238.045a22.609,22.609,0,0,1-1.371-3.31c-.34-1.026-.65-2.158-.95-3.46a4.91,4.91,0,0,0-.518-1.7c-.2-.34-.431-.527-.653-.527a.446.446,0,0,0-.368.222,1.649,1.649,0,0,0-.2.949,4.769,4.769,0,0,0,.361,1.566,20.242,20.242,0,0,0,3.466,6.267l-.29.009C17.555,32.864,16.988,32.874,16.449,32.874ZM72,16.584a.692.692,0,0,0,.6-.285.807.807,0,0,0-.006-.8l.014-.025.009-.014c.15-.044.318-.079.5-.115.594-.122,1.268-.259,1.461-.834,2.2-.6,4.495-1.134,6.814-1.578,2.237-.428,4.561-.786,6.908-1.066,2.258-.269,4.6-.472,6.965-.6,2.266-.126,4.616-.19,6.985-.19.363,0,.731,0,1.094,0,.862.075,1.96.093,3.123.112,1.139.019,2.429.04,3.7.118a25.656,25.656,0,0,1,3.723.464,13.082,13.082,0,0,1,1.681.467,8.123,8.123,0,0,1,1.46.679,5.294,5.294,0,0,1,1.163.934,4.2,4.2,0,0,1,.791,1.23,6.7,6.7,0,0,1,.227,1.945A7.3,7.3,0,0,1,118.9,18.9a9.593,9.593,0,0,1-.754,1.786,13.785,13.785,0,0,1-1.1,1.694,36.99,36.99,0,0,1-5.8,5.7c-.243.2-.472.4-.7.59a47.828,47.828,0,0,1-7.746,5.026c-1.132.588-2.348,1.129-3.525,1.653h0a42.851,42.851,0,0,0-5.467,2.75,16.1,16.1,0,0,0-2.4,1.824,12.135,12.135,0,0,0-1.978,2.352,9.825,9.825,0,0,0-.647-.993c-.068-.1-.153-.215-.231-.329a.986.986,0,0,0-.812-.425.892.892,0,0,0-.632.251.873.873,0,0,0-.24.64,8.224,8.224,0,0,0,.11,2.128,13.419,13.419,0,0,0,.55,2.058c.512,1.9.993,3.871,1.429,5.869.416,1.9.8,3.893,1.156,5.912.648,3.725,1.187,7.625,1.647,11.925.383,3.582.718,7.514,1.022,12.019.271,4.02.494,8.11.709,12.065.4,7.285.806,14.818,1.534,22.175l.209,2.272c.495,5.356,1.044,11.092,1.712,16.749.728,6.171,1.522,11.618,2.427,16.65.417,2.022.84,4,1.249,5.918v.006c.866,4.058,1.685,7.891,2.356,11.675.36,2.026.648,3.869.88,5.635.259,1.967.445,3.8.568,5.609a68.482,68.482,0,0,1-.138,11.466c-.2,2-.491,4.023-.876,6.02-.4,2.077-.914,4.2-1.526,6.321l-.559-.122a21.3,21.3,0,0,0-4.5-.626,9.506,9.506,0,0,0-1.657.138.072.072,0,0,0-.057.073.082.082,0,0,0,.057.084c.671.17,1.366.292,2.038.409h0a22.139,22.139,0,0,1,2.591.562c-.476.352-.4,1-.33,1.565v0c.012.1.024.2.032.291l-.4-.052c-2.793-.363-4.346-.525-5.034-.525-.275,0-.413.026-.421.079-.018.111.515.338,1.782.759l-.062-.005h0l-.084-.006h-.005a.061.061,0,0,0-.064.053.085.085,0,0,0,.05.095c.629.242,1.28.453,1.911.657h0c.388.125.789.255,1.183.391.487.169.985.353,1.478.547l.047.019c.651,2.825,1.2,5.762,1.625,8.729.407,2.827.718,5.774.925,8.761.2,2.823.305,5.778.325,8.785.019,2.809-.039,5.769-.174,8.8-.125,2.822-.312,5.7-.572,8.807-.232,2.767-.516,5.648-.87,8.806-.657,5.865-1.457,11.814-2.231,17.566v.019c-.672,5-1.368,10.167-1.96,15.223a.085.085,0,0,0,.021.067.1.1,0,0,0,.172-.04c1.882-7.6,3.379-14.5,4.576-21.071.664-3.648,1.243-7.247,1.719-10.7.505-3.66.913-7.281,1.213-10.762.315-3.664.521-7.294.611-10.789.094-3.658.066-7.285-.086-10.782-.158-3.642-.453-7.255-.878-10.74-.441-3.615-1.035-7.2-1.766-10.663a2.32,2.32,0,0,0,.723.142,10.264,10.264,0,0,0,1.428,1.536l.164.153a7.072,7.072,0,0,0,1.819,1.313,9.99,9.99,0,0,0,3.448,1.7l.109.029a5.414,5.414,0,0,0,1.311.214,1.82,1.82,0,0,0,1.046-.287,1.71,1.71,0,0,0,.55-.667,1.294,1.294,0,0,0,.081-.733c-.187-1.126-1.635-2.326-2.817-3.134a21.033,21.033,0,0,0-2.047-1.227,12.108,12.108,0,0,0-1.507-.687,9.775,9.775,0,0,0,2.262-1.333,5.84,5.84,0,0,0,1.8-2.14,2.149,2.149,0,0,0,.026-1.731,1.463,1.463,0,0,0-1.392-.936,2.889,2.889,0,0,0-1.035.224,6.1,6.1,0,0,0-.971.5c-.529.346-1.064.662-1.581.968-.642.379-1.3.771-1.958,1.221a2.642,2.642,0,0,0-.454-.216,79.844,79.844,0,0,0,2.038-8.478,9.148,9.148,0,0,0,1.184.133h0c.235.016.477.033.706.06.254.03.514.06.743.085.707.08,1.438.162,2.153.281a27.883,27.883,0,0,1,2.926.635l.126.036.323.1.012,0h0a5.554,5.554,0,0,0,1.612.322,2.589,2.589,0,0,0,.573-.062.518.518,0,0,0,.344-.332.447.447,0,0,0-.041-.43,2.823,2.823,0,0,0-1.121-.883,7.935,7.935,0,0,0-1.373-.442,20.778,20.778,0,0,0-3.05-.546,17.082,17.082,0,0,0-1.723-.094,11.587,11.587,0,0,0-1.385.078l-.406.047A7.576,7.576,0,0,0,105.7,194a64.5,64.5,0,0,0,.841-7.534,55.6,55.6,0,0,0-.128-7.6l.019.135a22.583,22.583,0,0,0,1.069,4.319,10.033,10.033,0,0,0,1.008,2.068,3.506,3.506,0,0,0,1.357,1.288.124.124,0,0,0,.1-.061c.157-.26-.287-1.281-.678-2.183a6.808,6.808,0,0,1-.491-1.3c-.3-1.1-.575-2.234-.841-3.328v0a60.285,60.285,0,0,0-2.033-7.08l.109-.029a4.664,4.664,0,0,1,1.164-.166,2.609,2.609,0,0,1,1.331.335.989.989,0,0,0,.317.727,1.1,1.1,0,0,0,.748.277,1.34,1.34,0,0,0,.3-.035.9.9,0,0,1,.143-.011,1.408,1.408,0,0,1,.854.357,4.678,4.678,0,0,1,.81.879,17.967,17.967,0,0,1,1.3,2.172v0c.1.2.2.365.273.5a19.254,19.254,0,0,1,.985,2.3c.263.736.5,1.516.722,2.383.413,1.61.714,3.284,1,4.9v0c.218,1.214.443,2.469.714,3.685a15,15,0,0,0-3.364-1.455,12.944,12.944,0,0,0-3.626-.538,10.527,10.527,0,0,0-3.169.473.128.128,0,0,0-.09.142.13.13,0,0,0,.124.116,20.4,20.4,0,0,1,5.516.918,15.308,15.308,0,0,1,2.573,1.09,13.3,13.3,0,0,1,2.331,1.6c-.448.393-.051,2.007.3,3.431a11.676,11.676,0,0,1,.379,1.913,2.4,2.4,0,0,0,.492,1.387,10.9,10.9,0,0,1,.616,2.345,21.236,21.236,0,0,1,.234,2.852c.02.983-.009,2.076-.086,3.25-.072,1.086-.188,2.276-.344,3.539-.6,4.862-1.721,10.18-2.708,14.873v0c-.683,3.249-1.274,6.054-1.6,8.241-.437,1.475-.83,3.114-1.2,5.012-.331,1.7-.638,3.579-.939,5.744-.56,4.037-1.006,8.41-1.478,13.039v0c-.618,6.063-1.257,12.333-2.217,18.445-.52,3.306-1.08,6.236-1.715,8.956-.345,1.481-.716,2.911-1.1,4.252-.408,1.412-.846,2.771-1.3,4.04-.478,1.328-.993,2.6-1.53,3.783-.559,1.231-1.159,2.4-1.784,3.48a31.421,31.421,0,0,1-2.065,3.132,25.6,25.6,0,0,1-2.373,2.738,21.97,21.97,0,0,1-2.708,2.3,20.37,20.37,0,0,1-3.07,1.813,20.793,20.793,0,0,1-3.459,1.282,23.434,23.434,0,0,1-3.875.706,3.565,3.565,0,0,0-.7-.087c.012-.007.016-.013.015-.018s-.023-.012-.062-.012a2.636,2.636,0,0,0-.3.028c-.172,0-.341.012-.521.021h0l-.325.015-.1,0-.149,0a2.72,2.72,0,0,1-.648-.066,1.567,1.567,0,0,1-.593-.277c-.075-.057-.141-.112-.2-.16a.979.979,0,0,0-.694-.315,1.574,1.574,0,0,0-.232.019.593.593,0,0,0-.426.549v.024l0,.135a.749.749,0,0,0,.364.649,3.957,3.957,0,0,0,.394.169,18.93,18.93,0,0,0-4.32,2.095,18.6,18.6,0,0,0-3.679,3.163c-.883-.193-1.79-.357-2.694-.487a1.7,1.7,0,0,0-.161-.241.991.991,0,0,1-.143-.223,4.218,4.218,0,0,1-.075-1.545h0l0-.035a14.446,14.446,0,0,0,.368-1.529l.01-.05.021-.1.109-.538a15.8,15.8,0,0,0,.39-3.022c0-.724-.03-1.5-.093-2.32.961-6.738,1.843-13.6,2.7-20.244,1.284-9.993,2.611-20.326,4.237-30.443a1.552,1.552,0,0,0,.717-1.379l.059-.025a1.854,1.854,0,0,0,.945-1.119,4.358,4.358,0,0,0,.2-1.516v-.046a5.911,5.911,0,0,0-.221-1.543,2.592,2.592,0,0,0-.8-1.292,1.945,1.945,0,0,0-.665-.348,2.668,2.668,0,0,0-.784-.112,3.258,3.258,0,0,0-1.2.231h-.035a.983.983,0,0,0-.811.464c-.034.049-.066.1-.1.155a1.819,1.819,0,0,0-.531,1.4,1.664,1.664,0,0,0,.055.315,3.934,3.934,0,0,0,.393,1.8,3.223,3.223,0,0,0,1.2,1.352c-1.47,8.844-2.658,16.78-3.632,24.262-.543,4.17-1.028,8.276-1.442,12.2-.439,4.164-.813,8.279-1.112,12.233-.375,2.623-.6,4.776-.7,6.777l-.015.31c-.015.329-.033.668-.05,1v.022c-.008.151-.018.331-.027.511-.082.5-.175,1.012-.266,1.5v0l0,.019c-.029.16-.06.325-.089.487l-.072.4c-.018.1-.034.207-.05.307h0a2.153,2.153,0,0,1-.766,1.636.1.1,0,0,0-.015.014l0,0c-.973-.076-1.96-.114-2.933-.114a37.409,37.409,0,0,0-6.007.485,36.568,36.568,0,0,0-5.868,1.464,16.6,16.6,0,0,0-1.962-2.383,19.141,19.141,0,0,0-2.309-1.974l.034-.045.018-.021a.588.588,0,0,1,.411-.153,1.277,1.277,0,0,0,.282-.052.61.61,0,0,0,.369-.369.494.494,0,0,0-.048-.439,1.032,1.032,0,0,0-.393-.367,1.051,1.051,0,0,0-.491-.116,1.484,1.484,0,0,0-.683.179,1.774,1.774,0,0,0-.6.5.714.714,0,0,0-.055.089c-3.572-2.28-7.872-3.687-12.03-5.048h0c-1.756-.575-3.571-1.169-5.261-1.811-.909-.345-1.715-.678-2.465-1.017-.84-.38-1.588-.759-2.288-1.158a16.313,16.313,0,0,1-3.849-2.942,12.2,12.2,0,0,1-1.463-1.885,11.956,11.956,0,0,1-1.09-2.227c-.542-1.9-1.043-3.883-1.491-5.9-.427-1.919-.818-3.927-1.163-5.967-.638-3.77-1.137-7.723-1.527-12.086-.326-3.653-.578-7.64-.768-12.19-.166-3.968-.268-7.861-.375-12.173-.09-2.726-.137-5.427-.139-8.028,0-2.724.046-5.426.142-8.031.1-2.716.255-5.412.46-8.012.214-2.7.489-5.383.817-7.972.34-2.678.748-5.34,1.213-7.909.48-2.652,1.034-5.284,1.647-7.824.631-2.616,1.345-5.213,2.12-7.718.8-2.575,1.681-5.128,2.631-7.59l.387-.028c1.1-.08,2.024-.133,2.962-.133.382,0,.739.009,1.092.027l.353.02c1.011.081,2,.208,2.943.376a25.913,25.913,0,0,1,2.878.683,22.442,22.442,0,0,1,2.772,1.033,20.221,20.221,0,0,1,2.625,1.426.675.675,0,0,0-.137-.014.737.737,0,0,0-.694.536,2.044,2.044,0,0,0-.155.741,2.467,2.467,0,0,0,.1.714,7.151,7.151,0,0,0,.609,1.379v0a7.843,7.843,0,0,1,.565,1.239,30.1,30.1,0,0,1,1.282,3.387,33.511,33.511,0,0,1,.874,3.464,43.21,43.21,0,0,1,.762,7.09,113.926,113.926,0,0,1-.779,14.361l-.039.4c-.241,3.513-.411,6.988-.507,10.329-.1,3.514-.122,6.995-.063,10.346.061,3.5.212,6.981.448,10.332.245,3.487.591,6.948,1.027,10.288l.166,1.246a53.279,53.279,0,0,0,1.263,6.944.127.127,0,0,0,.126.1A.135.135,0,0,0,42,274.43c-.008-.764-.025-1.554-.053-2.415a8.467,8.467,0,0,0,.592,1.145,3.392,3.392,0,0,0,.853.935.284.284,0,0,0,.17.056.389.389,0,0,0,.306-.168.335.335,0,0,0,.053-.3,8.22,8.22,0,0,0-.665-1.371,11.053,11.053,0,0,1-.528-1.017,18.455,18.455,0,0,1-.839-2.54c-.022-.081-.043-.164-.063-.244l0-.01-.029-.113c-.06-1.177-.13-2.409-.192-3.5v0c-.173-3.032-.352-6.167-.395-9.252-.144-2.14-.223-4.324-.243-6.675-.018-2.095.013-4.275.093-6.666.149-4.442.453-8.952.747-13.314v0c.248-3.688.505-7.5.667-11.25.182-4.205.222-7.886.124-11.253a13.5,13.5,0,0,0,1.767.109,33.1,33.1,0,0,0,4.279-.375c.862-.113,1.752-.231,2.627-.3,2.356-.257,4.714-.454,7.009-.585,2.365-.135,4.73-.2,7.03-.2,3.06,0,6.1.121,9.045.359,3.046.247,6.071.627,8.989,1.13a2.677,2.677,0,0,0,.8.11,2.625,2.625,0,0,0,.827-.122.926.926,0,0,0,.548-.4.844.844,0,0,0-.148-.875,2.873,2.873,0,0,0-1.873-.712h-.007c-.122-.016-.249-.032-.374-.051-2.439-.369-4.846-.658-7.152-.857-3.105-.264-6.217-.4-9.248-.4-2.785,0-5.569.113-8.275.336-2.775.229-5.541.579-8.219,1.042-.759.145-1.529.3-2.273.454-1.76.359-3.58.73-5.389.977-.1-.826-.225-1.675-.393-2.595a45.1,45.1,0,0,1,4.882-1.49c1.585-.388,3.255-.71,4.965-.955a70.651,70.651,0,0,1,10.089-.658c4.822,0,9.649.364,14.581.77a.643.643,0,0,0,.6-.621.544.544,0,0,0-.44-.619l-1.388-.124c-4.487-.4-8.882-.756-13.316-.756a57.647,57.647,0,0,0-10.28.829,40.325,40.325,0,0,0-4.981,1.22,34.531,34.531,0,0,0-4.807,1.92,39.15,39.15,0,0,0-1.419-5.273,39.639,39.639,0,0,0-2.13-5.017,1.115,1.115,0,0,0,.841.333,1.05,1.05,0,0,0,.853-.363.7.7,0,0,0,.067-.66c0-.632-.685-1.087-1.428-1.486l-.006-.074c-.015-.172-.037-.344-.053-.47v0c-.012-.094-.022-.175-.024-.211a5.209,5.209,0,0,1,.2-1.446h0a8.481,8.481,0,0,0,.175-.856,24.586,24.586,0,0,1,1.773-1.783h0l0,0c.464-.436.944-.886,1.379-1.349a9.672,9.672,0,0,0,1.447-2.1,9.791,9.791,0,0,0,.856-2.407,8.719,8.719,0,0,0-.381-5.052,1.065,1.065,0,0,0-.317-.458.952.952,0,0,0-.518-.192h-.01a2.487,2.487,0,0,1-1.051-.336l-.01,0a2.458,2.458,0,0,0-1.021-.332.983.983,0,0,0-.3.045c.182-1.99.279-4,.349-5.695l.021-.218c.122-1.316.131-2.771-.73-3.583a.609.609,0,0,0-.382-.293l-.038-.01a2.273,2.273,0,0,0-.261-.121l-.071.051a11.233,11.233,0,0,0-2.235-.229c-.3,0-.608.013-.909.039l-.126-.016a24.943,24.943,0,0,0-2.524-.131h0c-.266,0-.476-.007-.6-.015-.688.036-1.4.052-2.09.067-2.732.06-5.557.122-7.979,1.391a22.349,22.349,0,0,1-.456-2.481c-.1-.786-.173-1.61-.218-2.519-.083-1.687-.06-3.411-.038-5.079v-.006c.015-1.107.03-2.251.014-3.367-.032-2.228-.128-4.52-.285-6.812-.151-2.216-.364-4.5-.632-6.787-.3-2.842-.716-5.721-1.258-8.8-.483-2.746-1.06-5.59-1.762-8.694-1.305-5.768-2.86-11.582-4.363-17.2v0C12.776,96.861,11.076,90.5,9.7,84.177c-.759-3.6-1.389-6.9-1.928-10.084-.605-3.579-1.077-6.91-1.443-10.183-.393-3.523-.656-6.97-.781-10.246-.134-3.515-.115-6.972.056-10.273a24.859,24.859,0,0,1,.324-2.664,16.87,16.87,0,0,1,.671-2.593A11.017,11.017,0,0,1,7.68,35.922a19.714,19.714,0,0,1,1.446-1.991.951.951,0,0,0,.213-.745A1.537,1.537,0,0,0,9.37,32.6v0a2.777,2.777,0,0,1-.009-.338,13.874,13.874,0,0,0,2.653,1.054,18.43,18.43,0,0,0,2.75.553,48.115,48.115,0,0,0,5.666.272c1.443.012,2.935.025,4.387.139.781.061,1.488.147,2.161.26a17.394,17.394,0,0,1,2.121.489,6.046,6.046,0,0,0,.526,1.88c1.323,1.832,2.6,3.776,3.8,5.778,1.161,1.937,2.28,3.981,3.326,6.076,1.01,2.023,1.979,4.147,2.88,6.315.868,2.089,1.7,4.274,2.464,6.495,1.067,3.071,2.04,6.238,2.973,9.681.832,3.068,1.613,6.285,2.387,9.834,1.44,6.6,2.638,13.368,3.8,19.918.95,5.369,1.932,10.92,3.043,16.345.49,2.364,1.006,4.7,1.534,6.94.553,2.346,1.136,4.668,1.736,6.9.624,2.327,1.284,4.629,1.96,6.842.7,2.3,1.446,4.572,2.209,6.759.789,2.262,1.624,4.5,2.481,6.653.884,2.221,1.818,4.416,2.776,6.524.986,2.171,2.027,4.315,3.095,6.373,1.1,2.115,2.253,4.2,3.437,6.2a.1.1,0,0,0,.083.053.108.108,0,0,0,.087-.05.116.116,0,0,0,.009-.111l-.488-1.2c-2.361-5.8-5.106-12.66-7.558-19.525-2.593-7.258-4.608-13.806-6.16-20.018.389-1.56.717-3.17.975-4.784.245-1.54.435-3.136.563-4.742a74.552,74.552,0,0,0,.124-9.389c-.128-2.794-.4-5.838-.821-9.308-.378-3.094-.844-6.239-1.294-9.28v-.006c-.566-3.822-1.151-7.775-1.575-11.7-.228-2.111-.392-4.042-.5-5.9-.123-2.091-.174-4.041-.157-5.961.019-2.063.121-4.092.3-6.031.2-2.076.491-4.134.879-6.116a59.041,59.041,0,0,1,1.57-6.216,59.932,59.932,0,0,1,2.377-6.329c.563-1.4,1.187-2.819,1.856-4.223a10.572,10.572,0,0,1,.748-1.495,5.6,5.6,0,0,0,1.016-2.682,9.023,9.023,0,0,1,1.82-.186c3.276,0,6.228,1.772,9.082,3.486h0c.906.544,1.842,1.106,2.759,1.59l.132.058c.183.082.386.176.6.276l.014.007c.577.269,1.231.574,1.9.817A5.87,5.87,0,0,0,83.813,42a2.044,2.044,0,0,0,1.014-.235,1.235,1.235,0,0,0,.451-.531,1.447,1.447,0,0,0,.12-.658,1.38,1.38,0,0,0-.656-1.156,25.164,25.164,0,0,0,2.7-2.9l.11-.142c.2-.259.408-.513.611-.759a16.107,16.107,0,0,0,.99-1.285,5.48,5.48,0,0,0,.714-1.466.494.494,0,0,0-.077-.447.566.566,0,0,0-.445-.226.5.5,0,0,0-.249.066A7.9,7.9,0,0,0,86.573,35.1l-.016.025c-.083.13-.169.265-.253.4a16.839,16.839,0,0,0-1.812,3.807c-2.489-.1-4.912-1.486-7.255-2.823l0,0c-1.1-.626-2.135-1.217-3.175-1.683a14.162,14.162,0,0,1-1.122-2.487,17.442,17.442,0,0,1-.666-2.629,27.5,27.5,0,0,1-.336-5.446c-.172-.339-.354-.511-.544-.511a.45.45,0,0,0-.33.184,1.786,1.786,0,0,0-.289.516,6.749,6.749,0,0,0-.371,1.937,11.915,11.915,0,0,0,.139,2.655,10.806,10.806,0,0,0,.87,2.853,8.15,8.15,0,0,0,1.823,2.531l-.159-.066a15.583,15.583,0,0,0-2.372-.777,10.78,10.78,0,0,0-2.451-.3,8.3,8.3,0,0,0-2.858.493.4.4,0,0,0,0-.3.07.07,0,0,0-.061-.037.143.143,0,0,0-.079.031.252.252,0,0,1-.2.1.762.762,0,0,1-.481-.311,4.871,4.871,0,0,1-.51-.705,12.525,12.525,0,0,1-.658-1.23,11.313,11.313,0,0,1-.86-2.431,10.613,10.613,0,0,1,.792-6.982,10.993,10.993,0,0,1,1.3-2.076,11.157,11.157,0,0,1,1.749-1.754,11.287,11.287,0,0,1,2.141-1.351,11.562,11.562,0,0,1,2.479-.865,1.139,1.139,0,0,0,.429.54A1.05,1.05,0,0,0,72,16.584Zm-39.336,148.8c.767,0,1.339-.016,1.856-.051.288-.034.652-.05,1.037-.068a15.535,15.535,0,0,0,1.766-.147h.008l.131.049c.589.235,1.188.507,1.829.83a.789.789,0,0,1,.043.136c.042.9.031,1.832.02,2.73v.006c-.011.9-.023,1.838.02,2.753l.005.231c.025,1.034.1,2.761.208,4.221.065.841.137,1.5.215,1.971.091.551.19.831.294.831.212,0,.447-1.155.7-3.434a4.194,4.194,0,0,0,2.086.5h0a8.2,8.2,0,0,1,.421,1.432,6.515,6.515,0,0,1,.12,1.311,6.238,6.238,0,0,1-.49,2.327,10.16,10.16,0,0,1-1.173,2.046c-.466.65-1,1.285-1.509,1.9s-1.046,1.252-1.508,1.9h-.013a.347.347,0,0,0-.2.061,1.969,1.969,0,0,0-.68.843,3.028,3.028,0,0,0-.237,1.086,6.317,6.317,0,0,0-.28.871,24.784,24.784,0,0,0-4.428-1.9,9.375,9.375,0,0,0-2.354-.61,20.249,20.249,0,0,0-2.435-.339c-.409-.048-.85-.1-1.347-.148l-.62-.063c-.654-.065-1.417-.134-2.19-.134a7.61,7.61,0,0,0-2.621.391,8.556,8.556,0,0,0-.349-1.558l-.036-.121-.085-.295a12.55,12.55,0,0,0-.71-1.983c-.214-.442-.47-.867-.692-1.23a19.1,19.1,0,0,1,.372-4.978c.322-1.69.8-3.377,1.217-4.826l.128-.456a16.336,16.336,0,0,1,.915-2.589,5.674,5.674,0,0,1,1.622-2.124l.012.021c.017.031.042.082.073.147l0,.008c.129.266.344.712.463.712.042,0,.069-.058.08-.173-.129-.287-.255-.591-.372-.9a8.468,8.468,0,0,1,3.066-1,23.519,23.519,0,0,1,3.432-.2c.363,0,.725,0,1.076.006h.057C31.962,165.384,32.321,165.387,32.668,165.387Zm73.6,11.729-.03-.319c-.021-.222-.042-.432-.064-.642.028.229.053.481.078.771Zm-.842,29.481a2.817,2.817,0,0,0-.326-2.091c.649-.39,1.3-.8,1.9-1.186l.315-.2c.062-.04.156-.107.275-.193h0c.245-.176.579-.418.921-.617a2.119,2.119,0,0,1,.948-.356.386.386,0,0,1,.408.334,2.638,2.638,0,0,1-.923,1.926,16.178,16.178,0,0,1-1.941,1.661c-.3.227-.576.442-.79.625-.05,0-.1-.007-.15-.007a2.238,2.238,0,0,0-.643.106Zm-2.621,1.1a1.431,1.431,0,0,1-.319-.035c.183-.928.409-1.934.692-3.073a1.52,1.52,0,0,1,.936.66,1.611,1.611,0,0,1,.23.544,1.477,1.477,0,0,1,.008.6,1.455,1.455,0,0,1-.618,1,.384.384,0,0,0-.286-.123.545.545,0,0,0-.514.419C102.892,207.7,102.849,207.7,102.806,207.7Zm-1.165-2.547h0c-.025-.058-.051-.118-.081-.183l.107.042-.026.141Zm9.79,6.644a8.081,8.081,0,0,1-3.655-.978,12.065,12.065,0,0,1-1.643-1.035,14.881,14.881,0,0,1-1.466-1.252c-.115-.155-.212-.282-.3-.4a2.269,2.269,0,0,0,.473-.4c.053.058.1.116.154.172a2.214,2.214,0,0,0,.7.6A14.151,14.151,0,0,1,111.431,211.8ZM75.72,255.465a.79.79,0,0,1-.708-.51,1.117,1.117,0,0,1-.079-.381.459.459,0,0,1,.349-.473.444.444,0,0,1,.1-.012.458.458,0,0,1,.395.24.781.781,0,0,1,.037.077h0l.016.037.013.025,0,0,.006.011.01.024,0,.005a.448.448,0,0,1,.107.252.375.375,0,0,1,.139.3.4.4,0,0,1-.387.4Zm-8.3,63.733h0c-.087-.01-.175-.018-.26-.026h-.006l-.166-.016a1.533,1.533,0,0,0,.429-.33c0,.016.009.038.015.062l-.013.31ZM101.749,20.771a1.2,1.2,0,0,0-.911.448,2.784,2.784,0,0,0-.534.986,1.942,1.942,0,0,0-.062,1.362.156.156,0,0,0,.129.072.455.455,0,0,0,.292-.186,3.277,3.277,0,0,1,.577-1.161l.064-.076c.06-.069.148-.153.241-.243h0c.3-.293.684-.659.62-.93-.028-.117-.139-.207-.332-.267C101.805,20.772,101.777,20.771,101.749,20.771Zm-79.229,4.9a.481.481,0,0,0-.4.209,5.052,5.052,0,0,0-.629,1.211A6.131,6.131,0,0,0,21.16,28.5a5.5,5.5,0,0,0,.017,1.441,4.007,4.007,0,0,0,.421,1.31.067.067,0,0,0,.061.036.08.08,0,0,0,.056-.023.067.067,0,0,0,.019-.05c0-.1-.007-.2-.01-.294V30.89a7.686,7.686,0,0,1,.138-2.225,7.333,7.333,0,0,1,1.074-2.295.414.414,0,0,0,.036-.439A.52.52,0,0,0,22.52,25.676Zm59.711,1.839a.973.973,0,0,0-.762.4,3.027,3.027,0,0,0-.493.989,14.962,14.962,0,0,0-.485,2.554h0c-.051.394-.1.734-.146.971l-.022.2a20.835,20.835,0,0,0-.144,2.8,8.961,8.961,0,0,0,.471,2.738.107.107,0,0,0,.108.08.1.1,0,0,0,.1-.081,27.844,27.844,0,0,0,.731-3.411h0c.132-.771.268-1.568.447-2.341a7.525,7.525,0,0,1,.357-1.369h0c.357-1.132.8-2.541.4-3.186a.747.747,0,0,0-.55-.34ZM16.7,32.537a.063.063,0,1,0,.059.062A.058.058,0,0,0,16.7,32.537Zm2.217,2.1a.667.667,0,0,0-.539.307,1.978,1.978,0,0,0-.31,1.081,5.168,5.168,0,0,0,.272,1.736,68.937,68.937,0,0,0,6.245,16.152.131.131,0,0,0,.119.072.163.163,0,0,0,.129-.064.136.136,0,0,0,.02-.123c-.833-2.692-1.636-5.494-2.385-8.33-.718-2.72-1.409-5.553-2.054-8.422a5.014,5.014,0,0,0-.671-1.835A1.1,1.1,0,0,0,18.921,34.633Zm55.144,4.06a.618.618,0,0,0-.27.061A6.1,6.1,0,0,0,71.566,41.3l-.162.27-.034.056a24.821,24.821,0,0,0-2.38,5.085,20.963,20.963,0,0,0-1.061,5.522.106.106,0,0,0,.027.081.115.115,0,0,0,.084.034.119.119,0,0,0,.117-.083A43.815,43.815,0,0,1,70.1,47.117a32.042,32.042,0,0,1,2.677-4.782c.182-.264.389-.528.589-.784a6.448,6.448,0,0,0,1.27-2.134.545.545,0,0,0-.082-.489A.617.617,0,0,0,74.065,38.693Zm-45.633.821c-.173,0-.29.176-.347.524a15.171,15.171,0,0,0,2.5,3.769l0,0c.255.312.519.635.767.952a.158.158,0,0,0,.126.067.211.211,0,0,0,.17-.107.2.2,0,0,0,.011-.2l-.045-.092-.054-.111-.018-.037c-.25-.515-.835-1.719-1.45-2.779C29.334,40.184,28.773,39.515,28.432,39.515Zm59.42.861a.056.056,0,1,0,.053.056A.053.053,0,0,0,87.852,40.375Zm-12.329,27c-.057,0-.107.041-.15.121-.329.614-.179,3.334-.1,4.475a24.055,24.055,0,0,0,.491,3.982.136.136,0,0,0,.136.122.188.188,0,0,0,.139-.065.181.181,0,0,0,.042-.146,36.7,36.7,0,0,1-.337-4.119c-.037-1.287-.02-2.64.052-4.135C75.694,67.459,75.6,67.38,75.523,67.38ZM23.743,72.42a.29.29,0,0,0-.223.106.259.259,0,0,0-.047.228c1.509,6.566,3.278,14.326,4.955,22.1a97.464,97.464,0,0,0-1.678-10.344c-.742-3.543-1.605-7.1-2.44-10.531l-.039-.159-.293-1.2A.237.237,0,0,0,23.743,72.42ZM76.1,104.212a.258.258,0,0,0-.194.092.248.248,0,0,0-.053.206c.3,1.789.533,3.635.678,5.487.142,1.8.209,3.663.2,5.527a.127.127,0,0,0,.034.093.118.118,0,0,0,.085.033.138.138,0,0,0,.138-.126,33.036,33.036,0,0,0,.123-5.6,34.324,34.324,0,0,0-.809-5.54A.2.2,0,0,0,76.1,104.212ZM33.665,119.23a.51.51,0,0,0-.359.147.4.4,0,0,0-.115.3c.073,2.805.219,5.61.366,8.224.415,5.317.861,10.022,1.361,14.382.59,5.136,1.255,9.811,2.034,14.292a.08.08,0,0,0,.077.063.093.093,0,0,0,.091-.086,19.714,19.714,0,0,0-.022-3.229v-.024c-.017-.278-.034-.565-.048-.843l-.007-.149c-.3-6.322-.633-11.539-1.054-16.419-.51-5.91-1.142-11.252-1.934-16.331A.372.372,0,0,0,33.665,119.23Zm51.8,12.927a.438.438,0,0,0-.326.135.336.336,0,0,0-.079.271c.463,3.331,1.049,6.959,1.793,11.092.664,3.689,1.389,7.427,2.09,11.042v.007c.554,2.857,1.127,5.812,1.665,8.721.234,1.161.5,2.337.759,3.474v0c.29,1.278.59,2.6.844,3.906a.056.056,0,0,0,.056.05.078.078,0,0,0,.057-.027.072.072,0,0,0,.016-.059c-.115-.832-.226-1.68-.334-2.5l0-.027c-.261-1.992-.53-4.052-.881-6.066-.409-2.427-.811-4.9-1.2-7.288l-.008-.049c-.6-3.679-1.217-7.484-1.877-11.226-.739-4.189-1.451-7.841-2.176-11.164a.364.364,0,0,0-.151-.223A.447.447,0,0,0,85.464,132.157ZM24.912,191.651a14.662,14.662,0,0,0-2.433.181,8.39,8.39,0,0,0-2.267.693.1.1,0,0,0-.056.113.134.134,0,0,0,.115.108c.288.018.592.027.93.027.523,0,1.055-.021,1.57-.042.389-.016.791-.032,1.184-.038.143,0,.288,0,.43,0,.967,0,2.011.052,3.286.164,1.154.1,2.37.258,3.825.492.274.044.558.1.833.156a9.994,9.994,0,0,0,1.933.259,3.942,3.942,0,0,0,.668-.054.293.293,0,0,0,.238-.254.369.369,0,0,0-.156-.385,7.769,7.769,0,0,0-2.941-.745c-.232-.028-.472-.057-.706-.091l-.081-.012c-1.44-.215-2.627-.356-3.737-.444l-.292-.023C26.62,191.706,25.781,191.651,24.912,191.651Zm26.339,35.82c-.143,0-.311.156-.5.463-.029,1.726-.039,3.481-.048,5.178v0c-.015,2.623-.031,5.336-.115,8-.095,2.99-.268,5.6-.529,7.989a.1.1,0,0,0,.024.074.122.122,0,0,0,.089.036.1.1,0,0,0,.1-.08c.314-1.652.577-3.378.806-5.277.194-1.61.362-3.349.514-5.316l.008-.141c0-.069.01-.158.017-.265v0c.061-.927.223-3.39.262-5.679.049-2.873-.106-4.522-.461-4.9A.232.232,0,0,0,51.252,227.472Zm-27.827,10.76a.388.388,0,0,0-.386.287,22.75,22.75,0,0,0-.616,3.094,28.784,28.784,0,0,0-.227,3.166,42.981,42.981,0,0,0,.4,6.327,43.592,43.592,0,0,0,1.221,6.155,13.466,13.466,0,0,0,.67,2.136,14.792,14.792,0,0,1,.638,1.974,5.4,5.4,0,0,1,.131,1,4,4,0,0,1-.095,1.018l-.018.077a.072.072,0,0,0,.009.066.09.09,0,0,0,.071.035.072.072,0,0,0,.065-.039,3.514,3.514,0,0,0,.341-2.1,12.8,12.8,0,0,0-.5-2.188h0c-.112-.386-.218-.75-.3-1.1a37.685,37.685,0,0,1-.883-4.729c-.187-1.5-.3-3.065-.356-4.779-.1-3.217.051-6.511.213-9.61l.021-.392a.368.368,0,0,0-.1-.276A.41.41,0,0,0,23.425,238.232ZM74.593,309.08a.376.376,0,0,0-.341.353.371.371,0,0,0,.265.432,7.247,7.247,0,0,1,2.028.9,7.165,7.165,0,0,1,1.654,1.5.035.035,0,0,0,.028.014.046.046,0,0,0,.038-.023.043.043,0,0,0,0-.044,6.665,6.665,0,0,0-.668-1,7,7,0,0,0-1.806-1.584,6.543,6.543,0,0,0-1.069-.525A.36.36,0,0,0,74.593,309.08Zm-20.718,1.072a4.5,4.5,0,0,0-2.753,1.013,6.44,6.44,0,0,0-.99.908,4.771,4.771,0,0,0-.742,1.124l-.011.034c-.044.144-.2.748-.131.848a.032.032,0,0,0,.027.014.109.109,0,0,0,.064-.034,5.558,5.558,0,0,1,.739-.784c.1-.09.2-.183.284-.271a5.893,5.893,0,0,1,1.9-1.333,12.506,12.506,0,0,1,2.2-.742.41.41,0,0,0,.265-.427.305.305,0,0,0-.265-.308A4.167,4.167,0,0,0,53.875,310.152Z" transform="translate(121.38 327.714) rotate(180)"/>
  </g>
  <g id="Head" transform="translate(27.478 0)">
    <g id="HEAD-2" data-name="HEAD" transform="translate(0 0)">
      <path id="background" d="M34.939,52.456c.732.746,1.794.154,2.7-.01C45.41,50.331,53.752,43.874,55.3,36.065l.775-2.258a4.983,4.983,0,0,0,.419-1.964c-.06.012-.494-.289-.553-.275a27.778,27.778,0,0,0-1.136-12.907c2.63-1.8.856-4.821-1.8-4.649A7.654,7.654,0,0,0,51.072,9.1c-5.5-6.862-15.026-9.573-23.9-9.035-6.86.219-11.413,1.852-14.46,5.184-1.556,1.336-2.751,2.793-2.644,4.71l-.693.016-.02.279C8.608,9.947.229,12.216.037,13.141l.236.308A2.174,2.174,0,0,0,.1,15.195a28.52,28.52,0,0,1,.062,4.344c.072.239,1.155.493,1.569.537,2,.479,4.111,1.025,6.3,1.339-.108,4.9.455,9.908-1.319,14.651l-.8-.679c-1.335,9.582,2.15,24.006,13.346,23.867C24.764,59.147,30.369,55.231,34.939,52.456Z" transform="translate(0.732 0.65)" fill="#8fa7df"/>
      <path id="_Skin-2" data-name="âœ‹ Skin" d="M5.538,0h0a1.638,1.638,0,0,0-.921.355,3.379,3.379,0,0,0-2.3,1.032A1.343,1.343,0,0,0,1.962,2a3.283,3.283,0,0,0-.087.664,2.836,2.836,0,0,1-.136.829l-.081.362C1.364,5.177,1.032,6.739.8,8.316a29,29,0,0,0-.351,4.53,1.708,1.708,0,0,0-.415.891A1.688,1.688,0,0,0,.1,14.65a.706.706,0,0,0,.2.28.48.48,0,0,0,.307.106A1.165,1.165,0,0,0,1.32,14.7a1.147,1.147,0,0,0,.756.254,2.291,2.291,0,0,0,.749-.144,20.236,20.236,0,0,1,2.109-.663,12.28,12.28,0,0,1,2.18-.353,1.335,1.335,0,0,0,.623.12c.127,0,.26-.008.389-.017h0c.13-.008.265-.017.4-.017a1.894,1.894,0,0,1,.431.042l.057.015a.521.521,0,0,0,.139.019.515.515,0,0,0,.407-.2.532.532,0,0,0,.1-.46,2.269,2.269,0,0,1-.107-.445c-.055-.316-.113-.644-.378-.8-.307-1.3-.63-2.611-.942-3.879-.2-.808-.4-1.644-.605-2.471a1.516,1.516,0,0,0,.138-.933,5.678,5.678,0,0,0-.248-.977c-.058-.184-.113-.357-.156-.527L7.3,2.953a8.8,8.8,0,0,0-.562-1.917,2.39,2.39,0,0,0-.5-.74A1.009,1.009,0,0,0,5.538,0Zm6.141,16.083a13.031,13.031,0,0,0-1.664.089c-.475.064-.759.158-.842.279a54.79,54.79,0,0,0-7.587.808,1.2,1.2,0,0,0-1.023.464,1,1,0,0,0-.152.554,1.9,1.9,0,0,0,.148.7c0,.53-.055,1.052-.1,1.557a9.943,9.943,0,0,0-.006,2.757c.024.142.055.475.1.935.1,1.056.265,2.822.538,4.3a10.3,10.3,0,0,0,.5,1.9c.212.524.448.789.7.789a.7.7,0,0,0,.495-.309h0a.1.1,0,0,0,0,.042h0s.01-.015.018-.045a.1.1,0,0,0,.05-.029c.364.02.743.031,1.128.031A44.258,44.258,0,0,0,9.6,30.417a50.056,50.056,0,0,1,5-.475c1.324-.123,2.773-.18,4.558-.18,1.015,0,2.042.018,3.035.035h.017c.986.017,2.006.035,3,.035.637,0,1.211-.007,1.753-.022a39.7,39.7,0,0,1,6.255,1.238.575.575,0,0,0,.158.023.455.455,0,0,0,.415-.266.551.551,0,0,0-.041-.574,14.307,14.307,0,0,0,.049-3.675,17.634,17.634,0,0,1-.045-3.046c.062-1.586.207-3.276.458-5.318a1.221,1.221,0,0,0-.224-1.048.916.916,0,0,0-.691-.393.6.6,0,0,0-.37.127,1.042,1.042,0,0,0-.309.417,16.77,16.77,0,0,1-6.6,1.447,18.821,18.821,0,0,1-3.533-.365c-1.195-.225-2.452-.539-3.783-.872-.656-.164-1.334-.333-2.049-.5a.21.21,0,0,0-.064-.163C16.172,16.372,13.714,16.083,11.679,16.083Z" transform="translate(42.284 53.389) rotate(180)" fill="#d08b5b"/>
      <path id="_Face_Mask" data-name="ðŸ˜· Face Mask" d="M.981,4.877c5.247-1.616,10.883-2.393,16.073-.2a29.847,29.847,0,0,0,5.307.838c.887.077,1.96-.212,2.72.354A132.65,132.65,0,0,0,40.091,2.9c.754-.183,3.382-1.1,4.05-1.218,1.851-.319,6.991-3.309,6.584-.469.055.917-.274,1.785-1.29,1.9C41.454,4.693,33.523,6.513,25.4,7.4a7.316,7.316,0,0,1-.361.881A69.052,69.052,0,0,0,28.228,20.05c2.545,1.469-2.877,3.283-4.041,3.613-1.02.649-2.085,1.225-3.151,1.793C17.71,27.426,13.522,29.191,9.9,26.9a10.29,10.29,0,0,1-4.213-2.825C1.894,19.679-.857,11.591.246,5.845.294,5.492.484,4.605.981,4.877Z" transform="translate(6.945 32.129)" fill="#fff"/>
      <path id="_Ink-2" data-name="ðŸ– Ink" d="M36.041,0h0a43.835,43.835,0,0,0-6.217.449A45.656,45.656,0,0,0,23.71,1.764,46.393,46.393,0,0,0,17.822,3.9a45.862,45.862,0,0,0-5.54,2.914.816.816,0,0,0-.269.27.626.626,0,0,0-.1.367c.189,2.79.34,5.254.46,7.534a25.164,25.164,0,0,0-3.192,2.582,30.6,30.6,0,0,0-3.027,3.312,25.978,25.978,0,0,0-2.477,3.744A16.758,16.758,0,0,0,2.139,28.5a7.338,7.338,0,0,1-1.044,1.777c-.206,0-.394.15-.559.431a2.862,2.862,0,0,0-.284.734A5.924,5.924,0,0,0,0,32.772c-.026.579.118.932.429,1.047l.006.005.01.008a1.425,1.425,0,0,0,.521.243,16.614,16.614,0,0,0-.5,2.966,20.279,20.279,0,0,0,0,3.007,25.765,25.765,0,0,0,.4,2.993c.18.939.418,1.923.707,2.924a3.394,3.394,0,0,0-.684.748,2.934,2.934,0,0,0-.382.831,3.017,3.017,0,0,0,.038,1.719,3.361,3.361,0,0,0,.421.873,3.443,3.443,0,0,0,.662.73,3.381,3.381,0,0,0,1.9.767A6.16,6.16,0,0,0,3.764,52.9a7.734,7.734,0,0,0,.459,1.2A12.225,12.225,0,0,0,5.6,56.294a22.378,22.378,0,0,0,2.166,2.314,23.27,23.27,0,0,0,2.426,1.961,26.015,26.015,0,0,0,5.473,2.917,31.327,31.327,0,0,0,6.028,1.67,36.466,36.466,0,0,0,6.258.532c.726,0,1.463-.021,2.19-.063a30.289,30.289,0,0,0,8.068-1.2,17.549,17.549,0,0,0,3.7-1.616,14.408,14.408,0,0,0,1.67-1.15,13.511,13.511,0,0,0,1.511-1.411c1.411-1.251,2.735-2.658,2.861-4.471a5.389,5.389,0,0,0,1-.254l.07-.023.154-.049c.207-.065.42-.133.627-.215a38.264,38.264,0,0,0,4.751-1.262,15.684,15.684,0,0,0,2.216-.92,2.859,2.859,0,0,0,1.226-1,.58.58,0,0,0,.02-.532c0-.036.007-.073.009-.111a2.747,2.747,0,0,0,0-.293.354.354,0,0,0-.011-.06,3.934,3.934,0,0,0-.064-1.477,5.525,5.525,0,0,1-.108-1.038,6.793,6.793,0,0,1,.034-1.5,9.479,9.479,0,0,0,.063-1.1,2.753,2.753,0,0,0-.2-1.033,1.14,1.14,0,0,0-.655-.5,7.017,7.017,0,0,0-.977-.276c-.231-.053-.45-.1-.616-.161.407-2.955.706-6.1.889-9.343.168-2.971.244-6.043.234-9.391-.009-2.885-.084-5.961-.228-9.4-.142-3.4-.34-6.795-.5-9.375A.775.775,0,0,0,56.2,6a1.1,1.1,0,0,0-.026-.576.873.873,0,0,0-.822-.655,1.049,1.049,0,0,0-.317.052A37.179,37.179,0,0,0,45.8,1.175,40.527,40.527,0,0,0,36.041,0ZM13.784,14.1c-.1-2.052-.225-4.153-.365-6.244A42.759,42.759,0,0,1,18.686,5.1a43.613,43.613,0,0,1,11.4-3.222,42.754,42.754,0,0,1,5.906-.414h0a40.42,40.42,0,0,1,9.365,1.087,37.486,37.486,0,0,1,8.879,3.339c.436,6.645.862,13.725.861,20.808.056,2.742-.019,5.529-.092,8.224-.079,2.922-.161,5.944-.075,8.916-1.551-.372-3.194-.708-4.882-1,.018-.982.008-1.989,0-2.962-.016-1.534-.033-3.12.062-4.668.051-.834.129-1.589.24-2.308a18.168,18.168,0,0,1,.49-2.271h.012a1.067,1.067,0,0,0,.4-.1c.05-.021.105-.039.158-.057s.088-.03.131-.046c1.041-.056.864-3.383.769-5.17-.024-.448-.043-.8-.035-.975a27.846,27.846,0,0,0-.339-4.558,25.249,25.249,0,0,0-1.064-4.288,20.861,20.861,0,0,0-1.753-3.818,16.19,16.19,0,0,0-2.408-3.147,12.423,12.423,0,0,0-3.8-2.653,11.527,11.527,0,0,0-4.675-.967h0a14.234,14.234,0,0,0-3.5.457A19.631,19.631,0,0,0,30.9,6.755a67.878,67.878,0,0,0-8.553,4.765,1.722,1.722,0,0,0-.893-.193,13.345,13.345,0,0,0-4.161,1.1A28.035,28.035,0,0,0,13.784,14.1ZM26.91,27.67a1.415,1.415,0,0,1-.661-.128.636.636,0,0,1-.078-.048.4.4,0,0,0-.111-.106.911.911,0,0,1-.146-.378c.018-.469.019-.948,0-1.423a9.6,9.6,0,0,0-.08-1.192,45.909,45.909,0,0,0-2.053-8.814c-.156-.515-.318-1.048-.472-1.569-.039-.124-.077-.279-.12-.459a4.95,4.95,0,0,0-.53-1.482c1.522-.639,3.025-1.387,4.479-2.111,1.6-.794,3.246-1.615,4.925-2.295a14.377,14.377,0,0,1,5.9-1.378,10.638,10.638,0,0,1,4.645,1.042,11.688,11.688,0,0,1,3.716,2.866,15.7,15.7,0,0,1,2.639,4.3,20.777,20.777,0,0,1,1.416,5.336,59.435,59.435,0,0,1,.515,7.519v0c.007.286.015.582.023.873a4.8,4.8,0,0,0-1.135-.128,12.922,12.922,0,0,0-3.483.677,19.123,19.123,0,0,1-2.191.545,11.041,11.041,0,0,1-2.41.252,17.419,17.419,0,0,1-3.085-.308c-1.026-.185-2.068-.435-3.074-.677-.9-.216-1.831-.44-2.746-.616a.217.217,0,0,0-.114-.089,8.4,8.4,0,0,0-2.878-.414c-.449,0-.891.018-1.3.037-.185.009-.4.041-.635.074A6.774,6.774,0,0,1,26.91,27.67Zm-10.646-1.1c.028-1.291.059-2.454.157-3.612a35.322,35.322,0,0,1,1.98-9.279,23.477,23.477,0,0,1,3.081-.819c.819,2.176,1.492,4.148,2.06,6.028a62.456,62.456,0,0,1,1.547,6.177v.045c0,.044,0,.087,0,.13,0,.158.005.346.014.545l0,.077c-.359-.022-.736-.033-1.121-.033a43.148,43.148,0,0,0-5.41.465C17.813,26.393,17.027,26.494,16.265,26.574Zm-2.109.32c-.024-3.545-.121-7.264-.29-11.056a22.816,22.816,0,0,1,3.122-1.622,34.327,34.327,0,0,0-1.29,6.091,28.609,28.609,0,0,0-.176,3.066c0,1.057.044,2.131.15,3.283C15.179,26.729,14.669,26.809,14.156,26.894ZM2.042,29.977c.038-.057.074-.116.109-.176a7.454,7.454,0,0,0,.637-1.478A57.777,57.777,0,0,1,6.992,22a24.322,24.322,0,0,1,5.474-5.227c.157,3.275.28,6.661.376,10.352-2.047.4-3.761.748-5.47,1.176A41.935,41.935,0,0,0,2.042,29.977Zm12.12-.691c0-.453,0-.912,0-1.365,1.781-.276,3.584-.5,5.36-.673,1.793-.173,3.608-.294,5.392-.359a.66.66,0,0,0,.186-.033,2.253,2.253,0,0,1-.187.79c-1.851.176-3.668.4-5.4.659C17.683,28.58,15.882,28.911,14.162,29.286ZM1.442,30.612a.088.088,0,0,0,.075-.045c1.121-.247,2.255-.512,3.351-.769,2.606-.61,5.3-1.24,8-1.668.006.24.011.48.017.713s.011.485.017.728c-2.123.488-4.221,1.192-6.25,1.873-1.884.632-3.831,1.285-5.793,1.764a.868.868,0,0,1-.131.012.206.206,0,0,1-.159-.05C.514,33.11.521,33,.531,32.846c0-.065.009-.139.01-.219.021-.167.032-.342.042-.511A2.889,2.889,0,0,1,.96,30.6l.056,0c.045,0,.092,0,.137-.008s.092-.008.137-.008a.514.514,0,0,1,.1.009A.1.1,0,0,0,1.442,30.612ZM17.729,43.149c-.527-3.9-.829-7.9-1.121-11.773-.039-.519-.08-1.055-.12-1.586,2.787-.5,5.619-.871,8.418-1.109.075-.006.156-.009.241-.012a1.476,1.476,0,0,0,.877-.206c.227-.011.461-.017.694-.017a18.719,18.719,0,0,1,3.835.44c1.267.265,2.538.622,3.767.968l.01,0c1.229.346,2.5.7,3.757.966a18.576,18.576,0,0,0,3.812.439,12.819,12.819,0,0,0,2.2-.184c.814-.125,1.627-.33,2.413-.529a20.585,20.585,0,0,1,3.066-.61,24.057,24.057,0,0,0-.574,3.177,27.431,27.431,0,0,0-.168,3.219,34.408,34.408,0,0,0,.673,6.416c-2.436-.412-4.921-.726-7.386-.932s-4.967-.311-7.438-.311c-2.837,0-5.7.138-8.518.41S20.5,42.6,17.729,43.149Zm-4.184.915c.217-1.857.367-3.895.458-6.23.081-2.082.109-4.2.136-6.25h0c.005-.418.012-.892.018-1.345.448-.092.863-.175,1.269-.252a51.773,51.773,0,0,0,.522,6.655,49.031,49.031,0,0,0,1.4,6.532.271.271,0,0,0,.023.047C16.019,43.49,14.768,43.766,13.545,44.065ZM2.782,45.253a22.618,22.618,0,0,1-.665-2.714c-.158-.86-.28-1.762-.374-2.759-.174-1.85-.218-3.744-.262-5.575q-.006-.249-.012-.5c2-.439,3.987-1.05,5.909-1.641,1.8-.555,3.671-1.129,5.543-1.559.027,1.4.035,2.823.043,4.2v0c.017,3.1.034,6.3.273,9.43-1.229.307-2.321.619-3.338.952a31.009,31.009,0,0,0-3.218,1.244,3.572,3.572,0,0,0-1.21-.967,3.415,3.415,0,0,0-1.486-.347A3.272,3.272,0,0,0,2.782,45.253ZM7.31,50.616A4.081,4.081,0,0,0,7.6,48.573a4.379,4.379,0,0,0-.7-1.946,102.691,102.691,0,0,1,27.879-4.008c1.838,0,3.687.056,5.5.167,1.835.112,3.678.284,5.479.51,1.827.23,3.66.521,5.447.868,1.814.351,3.631.768,5.4,1.239a11.872,11.872,0,0,0,.03,2.478A12.512,12.512,0,0,0,57.15,50.3l0,.006,0,.005a7.3,7.3,0,0,0-3.2-1.807,27.094,27.094,0,0,0-3.724-.782h0c-.293-.047-.569-.091-.839-.137a99.809,99.809,0,0,0-15.881-1.311A76.566,76.566,0,0,0,7.31,50.616Zm-3.151.2c-.176,0-.364-.009-.575-.028-.181-.016-.364-.041-.561-.075a2.781,2.781,0,0,1-.67-.534,2.935,2.935,0,0,1-.647-1.334,1.843,1.843,0,0,1,.153-1.12,2.144,2.144,0,0,1,.868-.914,2.5,2.5,0,0,1,1.237-.339,2.089,2.089,0,0,1,.749.134,1.869,1.869,0,0,1,.656.424,2.175,2.175,0,0,1,.48.746,3.446,3.446,0,0,1,.221,1.1,1.738,1.738,0,0,1,0,.174A2.74,2.74,0,0,1,5.684,50.3,1.817,1.817,0,0,1,4.159,50.819Zm3.036.332,0,0c-.012-.011-.024-.022-.034-.033,2.277-.519,4.538-.982,6.72-1.378,2.295-.416,4.576-.77,6.78-1.052,2.306-.3,4.6-.521,6.82-.671,2.312-.157,4.613-.236,6.84-.236h0c2.571,0,5.125.106,7.591.314,2.562.217,5.107.551,7.565.993.286.048.587.093.9.141,2.1.316,4.7.709,6,2.377-2.925,1.651-6.264,2.176-9.493,2.683l-.427.067c-2.8-.545-5.292-1-7.6-1.39-2.739-.462-5.251-.838-7.678-1.148a121.305,121.305,0,0,0-15.458-1.069c-2.93,0-5.8.136-8.526.405ZM33.017,62.636c-.472,0-.958-.012-1.446-.035a31.245,31.245,0,0,1-6.786-.944,34.171,34.171,0,0,1-6.406-2.329,37.4,37.4,0,0,1-5.863-3.516,39.54,39.54,0,0,1-5.156-4.5c3.679.1,6.947.237,9.99.406,3.567.2,6.829.442,9.974.748a152.3,152.3,0,0,1,19.73,3.127A18.809,18.809,0,0,0,45.8,57.227a15.327,15.327,0,0,1-1.63,2.044,12.648,12.648,0,0,1-2.484,1.6,15.427,15.427,0,0,1-2.764,1.037A22.516,22.516,0,0,1,33.017,62.636Z" transform="translate(58.077 65.688) rotate(180)"/>
    </g>
    <path id="_Ink-3" data-name="ðŸ– Ink" d="M5.753,0h0a2.958,2.958,0,0,0-.786.107,3.306,3.306,0,0,0-1.016.56,5.343,5.343,0,0,0-1.081,1.1,3.019,3.019,0,0,0-.662,2.186.371.371,0,0,0,.193.263.624.624,0,0,0,.239.078l.049,0A.41.41,0,0,0,2.9,4.247.337.337,0,0,0,3.067,4a2.5,2.5,0,0,1,.745-1.356,3.6,3.6,0,0,1,1.535-.954,1.266,1.266,0,0,1,.25-.026,1.1,1.1,0,0,1,.8.355l.039.041a2.362,2.362,0,0,1,.43.709,3.892,3.892,0,0,1,.225.8,1.014,1.014,0,0,0,.4.674.992.992,0,0,0,.585.183,1.108,1.108,0,0,0,.189-.016,1,1,0,0,0,.685-.442.829.829,0,0,0,.038-.784c-.065-.154-.127-.312-.188-.466h0l-.053-.134A4.69,4.69,0,0,0,7.6.7,2.734,2.734,0,0,0,6.733.176,2.781,2.781,0,0,0,5.753,0Zm14.31,1.851h0a2.445,2.445,0,0,0-.512.054,2.723,2.723,0,0,0-.9.425,3.16,3.16,0,0,0-.816.8,1.6,1.6,0,0,0-.3.813.922.922,0,0,0,.067.4,1.483,1.483,0,0,0,.336.469.352.352,0,0,0,.1.016.369.369,0,0,0,.234-.088,2.031,2.031,0,0,0,.378-.5l.03-.05a1.754,1.754,0,0,1,.167-.238,1.626,1.626,0,0,1,.911-.545,1.092,1.092,0,0,1,.179-.015,1.079,1.079,0,0,1,.668.237,1.508,1.508,0,0,1,.531.881.727.727,0,0,0,.2.368.891.891,0,0,0,.367.219.743.743,0,0,0,.626-.075.738.738,0,0,0,.345-.383.947.947,0,0,0,.048-.526,2.845,2.845,0,0,0-1.166-1.781A2.615,2.615,0,0,0,20.063,1.851ZM.824,7.257h0c-.115.011-.232.017-.348.017-.08,0-.162,0-.242-.008L.146,7.26H.125a.124.124,0,0,0-.12.085.112.112,0,0,0,.051.129c.2.137.4.279.587.416a8.669,8.669,0,0,0,1.568.971,15.316,15.316,0,0,0,2.169.776l.283.077.288.078.195.051c.663.173,1.2.294,1.7.381a9.987,9.987,0,0,0,1.72.165,6.466,6.466,0,0,0,.724-.039,1.192,1.192,0,0,0,.629-.247.888.888,0,0,0,.317-.586,1.051,1.051,0,0,0-.147-.659.79.79,0,0,0-.543-.4,22.428,22.428,0,0,0-2.333-.211,22.089,22.089,0,0,1-2.389-.219c-.517-.086-1.039-.186-1.545-.284-.258-.05-.524-.1-.787-.15-.346-.064-.705-.105-1.052-.144C1.2,7.426.942,7.4.7,7.36l.137-.019A.036.036,0,0,0,.863,7.3.042.042,0,0,0,.824,7.257ZM23.451,7.7a2.674,2.674,0,0,0-.935.238c-.095.037-.193.074-.287.107l-.3.1a13.791,13.791,0,0,1-1.368.405,7.625,7.625,0,0,1-1.679.2H18.8c-.169,0-.345-.018-.515-.032-.187-.016-.381-.033-.57-.033a1.852,1.852,0,0,0-.729.126,1.115,1.115,0,0,0-.679.779.873.873,0,0,0,.261.8,2.063,2.063,0,0,0,.874.507,3.722,3.722,0,0,0,1.088.146,7.261,7.261,0,0,0,2.481-.489,5.837,5.837,0,0,0,1.917-1.127l.054-.05.083-.08a3.31,3.31,0,0,0,.528-.636,1.207,1.207,0,0,0,.2-.757.2.2,0,0,0-.144-.188A1.168,1.168,0,0,0,23.451,7.7Z" transform="translate(33.575 36.269) rotate(180)"/>
  </g>
</svg>
