<svg id="doc-nurse-5" xmlns="http://www.w3.org/2000/svg" width="122.691" height="375.018" viewBox="0 0 122.691 375.018">
  <g id="BODY" transform="translate(0 43.691)">
    <path id="_Clothes" data-name="ðŸ‘• Clothes" d="M98.261,329.513a69.283,69.283,0,0,0,12.949-1.649l.151-.034a24.379,24.379,0,0,0,5.185-1.573,8.249,8.249,0,0,0,4.1-5.119,11.31,11.31,0,0,0-.781-8.449q-.43-.662-.865-1.324c-2.712-4.139-5.516-8.42-6.82-13.437l-.468-1.8,1.6.895a.141.141,0,0,0,.075.017c.313,0,1.014-.465,1.821-1.486,3.26-5.223,2.842-11.756,2.437-18.074-.1-1.636-.213-3.327-.249-4.939-1.24-15.975-4.8-33.024-11.218-53.65-4.78-12.7-7.05-26.2-9.245-39.267-.808-4.809-1.643-9.781-2.592-14.637l-.2-1.034,1.266.1c.465.037.945.075,1.4.075a2.542,2.542,0,0,0,2.557-1.182c2.353-4.164,2.63-9.136,2.9-13.945.073-1.308.148-2.661.264-3.972l.064-.714.7-.013c.144,0,.288-.007.432-.012l.975-.031-.148.793a2.89,2.89,0,0,0,.563.044c.452,0,.988-.056,1.461-.1.429-.044.8-.083,1.1-.083a2.353,2.353,0,0,1,.288.016c.22.007.43.01.626.01,1.44,0,2.317-.189,2.682-.578.456-.486.408-1.653.342-3.268-.014-.349-.03-.718-.041-1.111-.044-1.464-.063-2.951-.081-4.39-.04-3.18-.082-6.469-.4-9.667l-.01-.1.016-.1c4.562-29.216,1.628-58.76-1.438-81.236q-.078-.572-.154-1.146a51.842,51.842,0,0,0-2.434-11.5,16.774,16.774,0,0,0-8.046-9.474c-3.448-1.844-7.465-2.673-11.719-3.55A57.557,57.557,0,0,1,75.8,15.58l-.284-.124L75,15.317c-.339-.093-.666-.211-.982-.326a6.658,6.658,0,0,0-1.355-.391l-.391-.051-.193-.352a21.547,21.547,0,0,1-1.949-4.943l-.018-.069-.006-.072c-.038-.483-.038-.958-.038-1.418A12.4,12.4,0,0,0,70,6.015a6.312,6.312,0,0,0-3.134-4.564A11.387,11.387,0,0,0,61.068,0a13.319,13.319,0,0,0-2.749.281l-.036.008-.037,0c-1.581.177-4.457.837-5.959,3.263l-.343.553-.478-.188a6.867,6.867,0,0,0-.1.779,4.353,4.353,0,0,1-.184,1.067,14.271,14.271,0,0,0-.57,2.163l-.117.619-.127.006a15.67,15.67,0,0,1-3.495,7.437l-.131.146-.143.052a2.4,2.4,0,0,0-.165.209,3.066,3.066,0,0,1-.339.407,9.581,9.581,0,0,1-1.182.979l-.24.179-.121.091-.145.039a4.094,4.094,0,0,1-.887.113,2.262,2.262,0,0,0-.586.075l-.107.036-.112,0c-.045,0-.09.007-.136.012a2.844,2.844,0,0,1-.314.021,1.5,1.5,0,0,1-.338-.036l-.576-.131-.025-.439c-.843-.039-1.7-.064-2.561-.064a23.361,23.361,0,0,0-9.787,1.772C19.423,24.145,16.12,39.636,13.709,50.948c-.4,1.9-.787,3.693-1.174,5.328-2.063,10.757-4.093,21.711-6.056,32.3-1.828,9.865-3.719,20.066-5.632,30.09C-.281,124.258-.9,130.49,3.088,134.384l.607.594-.623.577c-.384.356-.276,1.335-.188,2.121.026.233.051.454.064.665A37.44,37.44,0,0,0,5.425,149.2c1.59,3.769,3.9,6.4,6.857,7.811l.362.173.075.4c.071.38.813.689,1.652.689a2.761,2.761,0,0,0,1.32-.3l.89-.508.249,1.012c5.7,23.178,8.007,46.785,9.716,75.1.155,2.544.3,5.138.436,7.647.848,15.4,1.724,31.332,6.077,46.322l.131.451-.322.336c-2.351,2.455-5.51,3.635-8.566,4.775l-.248.093A49.339,49.339,0,0,0,6.681,304.079l-.017.016C2.338,308.06.483,312.376,1.7,315.639c1.131,3.025,4.872,4.76,10.263,4.76h.107l.042,0a73.127,73.127,0,0,0,7.88.418c11.594,0,22.918-2.621,31.487-4.9l.025-.006a12.56,12.56,0,0,0,6.728-4.172,11.321,11.321,0,0,0,2.736-7.409c-.035-2.816-1.185-6.209-3.675-7.447l-1.724-.857,1.819-.621c1.026-.35,1.479-1.413,2-2.643a14.284,14.284,0,0,1,.708-1.5,73.561,73.561,0,0,0,5.086-15.484l.007-.031c3.344-13.127,1.107-26.516-1.056-39.464-1.882-11.266-3.827-22.915-2.167-34.487l1.53-.086c2.344,9.159,4.019,18.809,5.639,28.142,1.964,11.312,3.994,23.009,7.238,34,3.628,12.3,8.419,22.368,14.645,30.784l.33.446-.3.47a.369.369,0,0,0-.042.083,1.824,1.824,0,0,0,1.146.529l.331.044.2.276c.99,1.382-.163,3.14-.851,4.191-.12.183-.233.355-.313.492-.955,1.623-1.829,3.263-2.484,4.511l-.235.434c-1.767,3.261-3.966,7.32-4.82,11.225-.96,4.388-.023,7.714,2.863,10.165a6.609,6.609,0,0,0,3.873,1.4,4.754,4.754,0,0,0,.948-.094l.167-.034.166.041a26.211,26.211,0,0,0,6.257.7" transform="translate(0.784 1.026)" fill="#8fa7df"/>
    <path id="_Clothes-2" data-name="ðŸ‘• Clothes" d="M47.575,0H47.49A94.5,94.5,0,0,0,37.15,1.466l-.707.124-4.591-.9-2.968,1.4L25.84,7.705,9.9,6.086l.3-4.229h-.04c-.144,0-.29.007-.431.012h0L8.753,1.9,8.9,1.107,8.856,1.1c-.064-.011-.136-.019-.215-.025l-6.214.543a1.062,1.062,0,0,0-.242.188A1.76,1.76,0,0,0,1.83,2.863a14.147,14.147,0,0,0,0,1.767l.039.981c.008.211.014.4.019.572.04,1.328.059,2.659.075,3.908l.015,1.164c.04,3.066.1,6.06.39,8.983l.01.1-.016.1C-2.2,49.662.73,79.207,3.8,101.682l.077.573.182,1.36c.224,1.66.494,3.587.863,5.437a33.146,33.146,0,0,0,1.465,5.278,16.775,16.775,0,0,0,8.046,9.474c3.159,1.689,6.765,2.522,10.811,3.362l1.917.4c1.97.41,3.623.775,5.286,1.227a37.753,37.753,0,0,1,5.2,1.789l.284.124.508.139.169.048a1.957,1.957,0,0,1,.279-.038h.021a.76.76,0,0,0,.57-.214,1.455,1.455,0,0,0,.274-1.072l0-.047,1.392-10.32L43.69,87.945l4.629-26.326.4-2.357c2.1-12.473,3.706-22.345,4.758-29.341.526-3.5.926-6.351,1.189-8.479a43.618,43.618,0,0,0,.4-4.352V16.7c-.012-3.16-.164-8.245-.453-15.113l-.33-.105C52.722.992,51.37.617,50.258.371A13.16,13.16,0,0,0,47.575,0ZM97.632,1.589H86.71L83.044,21.081,80.514,49.5,79.383,87.48l-2.63,22.074L73.321,121l-4.482,6.662.911.3.121-.007.17-.008a1.808,1.808,0,0,0,.475-.069l.107-.036.112,0c.032,0,.063,0,.09-.007l.045,0a2.846,2.846,0,0,1,.314-.021,1.5,1.5,0,0,1,.338.036l.576.131.025.439c.936.043,1.774.064,2.561.064A23.36,23.36,0,0,0,84.47,126.7a14.816,14.816,0,0,0,3.178-2.129,19.49,19.49,0,0,0,2.694-2.907,27.975,27.975,0,0,0,2.265-3.529,41.01,41.01,0,0,0,1.891-4,71.035,71.035,0,0,0,2.885-8.774c.79-2.958,1.456-5.968,2.059-8.78l.643-3.01c.241-1.123.528-2.441.825-3.694,1.865-9.724,3.7-19.6,5.422-28.886l1.655-8.928c1.461-7.877,3.032-16.307,4.61-24.578l.055-.274c.251-1.268.435-2.383.563-3.41a27.18,27.18,0,0,0,.229-3.41,16.8,16.8,0,0,0-.3-3.266,11.214,11.214,0,0,0-1.026-2.981l-6.581-4.778V3.243a13.144,13.144,0,0,0-3.465-1.228,21.307,21.307,0,0,0-4.3-.425Z" transform="translate(114.229 147.185) rotate(180)" fill="#9fd8e5"/>
    <path id="_Skin" data-name="âœ‹ Skin" d="M4.908,0a1.213,1.213,0,0,0-.8.311,1.561,1.561,0,0,0-.409.715,6.644,6.644,0,0,0-.163,1.851v0c0,.133,0,.258,0,.374l0,0A35.734,35.734,0,0,0,2.057,8.064c-.408,1.714-.729,3.454-1,4.951l-.074.412c-.059.456-.125.918-.189,1.365a21.918,21.918,0,0,0-.26,6.821l-.029.044a3.552,3.552,0,0,0-.413.85,1.356,1.356,0,0,0-.034.882.824.824,0,0,0,.606.493c4.538.62,9.194.837,13.7,1.047l.313.015-.007.064c-.03.3.007.407.043.447a.067.067,0,0,0,.051.024c.1,0,.252-.222.354-.528a1.607,1.607,0,0,0,.207.014,1.274,1.274,0,0,0,.65-.168,1.26,1.26,0,0,0,.437-.432,1.481,1.481,0,0,0,.051-1.43A35.172,35.172,0,0,1,19.178,19.9a26.92,26.92,0,0,0,3.427-4.044,7.016,7.016,0,0,0,1.1-2.321,3.125,3.125,0,0,0-.093-2.173,1.674,1.674,0,0,0-.727-.729,2.807,2.807,0,0,0-1.307-.275,5.2,5.2,0,0,0-.533.029h-.123a1.041,1.041,0,0,1-.563-.1.716.716,0,0,1-.264-.544c.005-.405.016-.81.026-1.2h0a13.058,13.058,0,0,0-.443-4.908,4.093,4.093,0,0,0-1.315-1.784,5.2,5.2,0,0,0-1.121-.658,8.183,8.183,0,0,0-1.5-.476A64.323,64.323,0,0,0,6.261.032ZM88.174,5.96c-.509,0-.78.328-.8.976.4,1.789.889,3.592,1.359,5.336.193.716.393,1.455.584,2.184.416,2.177.923,3.521,1.6,4.228a2.213,2.213,0,0,0,.982.608A5.657,5.657,0,0,0,93,19.476a4.806,4.806,0,0,1,2.729.946,2.915,2.915,0,0,1,.335,1.294,9.432,9.432,0,0,1-.074,1.374,9.191,9.191,0,0,0-.072,1.43,2.94,2.94,0,0,0,.382,1.356,4.529,4.529,0,0,0,1.229,1.307,5.312,5.312,0,0,0,.91.571,2.068,2.068,0,0,0,.863.237.742.742,0,0,0,.744-.516,12.983,12.983,0,0,0,.123-3.17,17.049,17.049,0,0,0-.542-3.054,44.773,44.773,0,0,0-2.178-5.878c-.293-.69-.6-1.4-.879-2.106a1.763,1.763,0,0,0-.38-.635,1.487,1.487,0,0,0-.578-.38,13.432,13.432,0,0,0-3.071-3.573,19.566,19.566,0,0,0-2.393-1.9A4.122,4.122,0,0,0,88.174,5.96Zm-38.4,118.074h0a2.368,2.368,0,0,0-1.28.387,2.1,2.1,0,0,0-.824,1,20.913,20.913,0,0,0-3.8,3.257c-.547.551-1.113,1.12-1.688,1.64a15.172,15.172,0,0,0-2.113,2.258c-.632.812-1.22,1.685-1.789,2.528-.385.571-.783,1.161-1.192,1.729a25.665,25.665,0,0,1-2.255,2.475,21.362,21.362,0,0,0-2.96,3.438,7.054,7.054,0,0,0-.883,1.959,5.522,5.522,0,0,0-.132,2.212.656.656,0,0,1-.1-.122c-.066-.093-.141-.2-.187-.2-.02,0-.033.02-.039.06a34.487,34.487,0,0,1,1.637,4.331,27.655,27.655,0,0,1,.975,4.531c.005.516-.018.994-.041,1.456a9.688,9.688,0,0,0,.077,2.4,5.145,5.145,0,0,0,1.245,2.4,6.344,6.344,0,0,0,1.548,1.39,9.657,9.657,0,0,0,2.05.994,15.608,15.608,0,0,0,9.64.065,9.661,9.661,0,0,0,1.974-.914,6.423,6.423,0,0,0,1.522-1.281,2.75,2.75,0,0,0,1.1-1.395,13.506,13.506,0,0,0,.8-2.448,27,27,0,0,0,.493-2.656,17.345,17.345,0,0,0,.173-2.019,11.672,11.672,0,0,1,1.583-3.973,27.736,27.736,0,0,1,2.568-3.452,4.065,4.065,0,0,0,.648-1.517,5.135,5.135,0,0,0,.053-1.593,15.323,15.323,0,0,0-.856-3.226c-.166-.482-.322-.937-.454-1.387-.495-1.582-.96-3.019-1.424-4.393a27.1,27.1,0,0,1-.952-2.764h0c-.242-.786-.492-1.6-.781-2.389a14.273,14.273,0,0,0-1.005-2.231,6.068,6.068,0,0,0-1.394-1.715,3.937,3.937,0,0,0-.893-.552,3.753,3.753,0,0,0-1.052-.289Z" transform="translate(104.013 164.958) rotate(180)" fill="#d08b5b"/>
    <path id="_Shoes" data-name="ðŸ‘Ÿ Shoes" d="M28.154,0a6.252,6.252,0,0,0-.633.033A107.035,107.035,0,0,0,16.569.618c-1.888.21-3.712.487-5.421.821A53.291,53.291,0,0,0,5.821,2.762a2.386,2.386,0,0,0-.635-.085,3.08,3.08,0,0,0-1.218.272,5.152,5.152,0,0,0-1.138.7A7.731,7.731,0,0,0,1.11,5.578,7.338,7.338,0,0,0,.426,7.017a7.646,7.646,0,0,0-.353,1.5,9.865,9.865,0,0,0,.109,3.07A19.807,19.807,0,0,0,2.407,17.4a57.4,57.4,0,0,1,2.827,5.554c.8,1.8,1.551,3.7,2.294,5.806a1.084,1.084,0,0,0-.152,1.017.672.672,0,0,0,.54.442,11.23,11.23,0,0,1,1.378.223,8.733,8.733,0,0,0,1.757.237c.073,0,.147,0,.218-.005,3.036.369,6.118.635,8.768.856.067,0,.136,0,.207,0a13.469,13.469,0,0,1,1.814.175l.039.005a14.283,14.283,0,0,0,1.924.18,3.181,3.181,0,0,0,2.359-.806.118.118,0,0,0,.069.021A.171.171,0,0,0,26.6,31c.416-1.01.914-2.017,1.4-2.99L28,28c.1-.212.213-.431.318-.645.78-1.744,1.738-3.45,2.665-5.1h0c.97-1.727,1.973-3.512,2.771-5.341A23.476,23.476,0,0,0,34.789,14.1a17.51,17.51,0,0,0,.608-2.974A11.331,11.331,0,0,0,35.4,8.806a13.245,13.245,0,0,0-.46-2.406,12.315,12.315,0,0,0-.909-2.285,9.569,9.569,0,0,0-1.341-1.959A6.76,6.76,0,0,0,30.676.588,5.631,5.631,0,0,0,28.154,0Zm80.5,8.772c-1.3,0-2.6.066-3.934.139l-.262.014c-1.159.064-2.254.125-3.194.125-.274,0-.52,0-.751-.015l-.843.037c-.712.03-1.436.059-2.136.087-4.145.165-8.431.336-12.6.875a55.739,55.739,0,0,0-6.187,1.132c-1.041.256-2.062.545-3.035.861-1.022.331-2.026.7-2.985,1.1a4.286,4.286,0,0,0-1.5-.251,7.392,7.392,0,0,0-2.761.6l-.151.059c-.232.09-.471.181-.7.268-1.714.646-3.486,1.313-4.594,2.868a10.281,10.281,0,0,0-1.851,4.166,14.109,14.109,0,0,0-.29,2.3,16.133,16.133,0,0,0,.063,2.3l.036.35c.012.117.023.237.034.354v.008a14.208,14.208,0,0,0,.353,2.334,3.871,3.871,0,0,0,1.1,1.947,4.44,4.44,0,0,0,1.075,1.252,5.272,5.272,0,0,0,1.358.773,15.225,15.225,0,0,0,3.18.748,14.6,14.6,0,0,1,3.233.774,33.558,33.558,0,0,1,5.86,2.5c3.09,1.533,6.286,3.119,8.943,3.119a5.874,5.874,0,0,0,.92-.07,1.717,1.717,0,0,0,.382.556.6.6,0,0,0,.4.166,1.235,1.235,0,0,0,.823-.494,9.477,9.477,0,0,0,.771-1.008h0a7.719,7.719,0,0,1,.528-.7,11.624,11.624,0,0,1,1.486-1.025,16.144,16.144,0,0,1,1.6-.817c1.1-.49,2.275-.9,3.411-1.288s2.286-.789,3.382-1.274a16.759,16.759,0,0,0,1.6-.806,12.135,12.135,0,0,0,1.5-1.009l.253-.165.338-.219c.706-.456,1.435-.927,2.106-1.458a8.234,8.234,0,0,0,1.75-1.81l.386-.269a41.485,41.485,0,0,0,6.373-5.214,19.378,19.378,0,0,0,1.35-1.579,14.7,14.7,0,0,0,1.123-1.7,11.611,11.611,0,0,0,.831-1.821,9.909,9.909,0,0,0,.474-1.95,1.622,1.622,0,0,0,.312-.824,6.869,6.869,0,0,0-.244-1.732,5.034,5.034,0,0,0-.619-1.376,4.817,4.817,0,0,0-.942-1.058,5.963,5.963,0,0,0-1.214-.779,8.578,8.578,0,0,0-1.435-.538,12.989,12.989,0,0,0-1.6-.337A23.978,23.978,0,0,0,108.649,8.772Z" transform="translate(121.114 329.421) rotate(180)" fill="#fff"/>
    <path id="stethoscope" d="M.444,3.086A5.893,5.893,0,0,1,2.853.427a3.034,3.034,0,0,1,1.212-.3,3.448,3.448,0,0,1,3.853,1.64c.093.073.184.15.272.232A4.527,4.527,0,0,1,9.866,5.262a2.938,2.938,0,0,1-2.074,2.85,1.572,1.572,0,0,1-1.246-.205,4,4,0,0,1-.5.2A5.1,5.1,0,0,1,.5,6.366a3.1,3.1,0,0,1-.051-3.28" transform="translate(37.475 57.203)" fill="#fff"/>
    <path id="_Ink" data-name="ðŸ– Ink" d="M24.638,0c-.374,0-.759.009-1.145.026a62.154,62.154,0,0,0-6.512.5c-2.085.268-4.251.647-6.438,1.127l-.605.136A22.982,22.982,0,0,0,5.03,3.318a8.26,8.26,0,0,0-2.817,2.3A9.985,9.985,0,0,0,.54,8.846a12.254,12.254,0,0,0-.491,4.7,12.045,12.045,0,0,0,.438,2.328,10.74,10.74,0,0,0,.89,2.153A26.541,26.541,0,0,0,3.3,21.006h0v0c.412.58.838,1.179,1.227,1.789a38.227,38.227,0,0,1,2.56,4.728,39.2,39.2,0,0,1,1.886,5.051.778.778,0,0,0-.454-.147.922.922,0,0,0-.437.118A7.532,7.532,0,0,0,6.24,34.159,9.765,9.765,0,0,0,4.914,36.3a14.788,14.788,0,0,0-.886,2.551A23.191,23.191,0,0,0,3.506,41.7a43.769,43.769,0,0,0-.259,6.138c.038,2.069.167,4.138.282,5.964.091,1.456.177,2.832.2,4,.175,2.253.4,4.564.669,6.869.262,2.24.573,4.539.925,6.833.67,4.37,1.521,8.931,2.528,13.554,1.791,8.222,4.126,16.929,7.139,26.619.579,1.537,1.141,3.139,1.671,4.763.505,1.549,1,3.169,1.463,4.814.86,3.038,1.652,6.228,2.422,9.752,1.43,6.548,2.562,13.285,3.656,19.8v0c.809,4.815,1.645,9.794,2.6,14.661l-.666-.051c-.286-.021-.661-.044-1.031-.044a4.638,4.638,0,0,0-1.818.3,2.851,2.851,0,0,0-1.413,1.277,23.187,23.187,0,0,0-2.375,7.324,65.323,65.323,0,0,0-.741,8.088c-.094.7-.174,1.421-.251,2.115l0,.022a2.4,2.4,0,0,0-.384-.03h-.076a1.96,1.96,0,0,0-.295.03l-.014,0a3.6,3.6,0,0,0-.741-.068c-.258,0-.52.019-.774.037h0c-.139.01-.282.02-.422.027-.594.057-1.213.067-1.811.076a13.486,13.486,0,0,0-3.054.28,2,2,0,0,0-.931.628,2.267,2.267,0,0,0-.433.952,8.545,8.545,0,0,0-.042,2.369,11.26,11.26,0,0,1,.043,1.551c.044,1.463.063,2.949.081,4.387.04,3.194.082,6.5.4,9.727-.516,3.3-.953,6.719-1.3,10.147-.335,3.314-.594,6.74-.772,10.184-.171,3.318-.271,6.752-.3,10.208-.025,3.314.018,6.752.126,10.218.1,3.305.27,6.742.5,10.215.214,3.289.488,6.721.813,10.2.592,6.321,1.367,12.96,2.368,20.3.179,1.925.4,3.637.665,5.236a43.236,43.236,0,0,0,1.035,4.683,28.742,28.742,0,0,0,1.5,4.122,20.936,20.936,0,0,0,2.059,3.553,18.253,18.253,0,0,0,1.269,1.56,17.781,17.781,0,0,0,1.444,1.414,18.3,18.3,0,0,0,1.631,1.268,19.835,19.835,0,0,0,1.829,1.12,24.433,24.433,0,0,0,4.3,1.792,35.787,35.787,0,0,0,5.238,1.188c1.039.208,2.1.392,3.125.57h0c1.395.242,2.837.493,4.241.8a30.838,30.838,0,0,1,4.151,1.2,44.319,44.319,0,0,0-11.185-4.2c-2.037-.559-3.96-1.086-5.822-1.765a27.319,27.319,0,0,1-2.708-1.142,18.879,18.879,0,0,1-2.5-1.464,15.662,15.662,0,0,1-2.246-1.9,15.414,15.414,0,0,1-1.938-2.442,18.243,18.243,0,0,1-1.577-3.1,24.969,24.969,0,0,1-1.164-3.868c-.742-4.393-1.413-8.741-1.992-12.923-.613-4.421-1.145-8.806-1.581-13.034-.458-4.44-.827-8.85-1.094-13.106-.28-4.448-.458-8.868-.531-13.138-.076-4.443-.039-8.861.109-13.131.153-4.427.431-8.83.825-13.084.407-4.4.952-8.772,1.617-13,.687-4.358,1.523-8.689,2.486-12.872.439.094.88.21,1.308.323a16.86,16.86,0,0,0,2.386.5.085.085,0,0,0,.015.075.09.09,0,0,0,.07.033.073.073,0,0,0,.053-.021.085.085,0,0,0,.022-.063,55.342,55.342,0,0,0,5.53.451,49.856,49.856,0,0,1,6.148.55,19.079,19.079,0,0,1,2.96.747,14.428,14.428,0,0,1,2.821,1.314c-1.074,5.656-2.31,11.459-3.674,17.249a44.178,44.178,0,0,0-.978,4.526c-.237,1.461-.408,2.978-.508,4.511a59.907,59.907,0,0,0,.124,8.986c.224,2.682.616,5.611,1.2,8.955.519,2.982,1.137,6.013,1.735,8.944.977,4.786,1.987,9.734,2.593,14.622.327,2.631.513,5.035.571,7.347.031,1.253.023,2.493-.023,3.687-.049,1.252-.142,2.5-.278,3.7a.08.08,0,0,0,.018.065.1.1,0,0,0,.078.032.1.1,0,0,0,.1-.07c.285-1.289.516-2.625.688-3.972.163-1.284.278-2.619.34-3.97a63.065,63.065,0,0,0-.166-7.935c-.188-2.372-.5-4.966-.961-7.93-.409-2.643-.891-5.328-1.358-7.925-.519-2.889-1.056-5.877-1.493-8.815-.49-3.295-.8-6.178-.944-8.814a56.48,56.48,0,0,1,.152-8.814c.15-1.5.372-2.983.659-4.408a41.929,41.929,0,0,1,1.138-4.409c.179-.77.362-1.543.539-2.291.469-1.982.955-4.032,1.37-6.062l.018-.077c.128-.573.508-2.489.723-4.451a19.911,19.911,0,0,0,.144-2.736,3.225,3.225,0,0,0-.405-1.777.554.554,0,0,0-.444-.227.777.777,0,0,0-.25.045,7.518,7.518,0,0,0-1.334-.66c.53-2.082,2.033-3.634,3.487-5.134.392-.4.8-.823,1.167-1.237a11.406,11.406,0,0,0,2.667.8,15.756,15.756,0,0,0,2.743.221,43.1,43.1,0,0,0,5.13-.418h.007a43.035,43.035,0,0,1,5.112-.417c.549,0,1.057.022,1.552.066a25.676,25.676,0,0,1,3.5.48c.462.085.94.174,1.411.25.117,2.443.168,4.971.152,7.513-.015,2.423-.092,4.94-.229,7.481-.252,4.689-.7,9.556-1.382,14.881-.565,4.437-1.3,9.278-2.251,14.8-.847,4.925-1.781,9.922-2.684,14.754-1.282,6.861-2.608,13.955-3.7,20.942-.1-.02-.2-.04-.317-.06a.684.684,0,0,0-.326-.691,4.029,4.029,0,0,0-2.359-.843,1.718,1.718,0,0,0-1.342.51,1.844,1.844,0,0,0-.328,1.517,1.9,1.9,0,0,0,.764,1.1,2.158,2.158,0,0,0,1.224.361,2.41,2.41,0,0,0,1.157-.294,2.152,2.152,0,0,0,.868-.871c.168.063.343.124.522.181-.1.653-.2,1.33-.3,2.069a34.214,34.214,0,0,0-3.94,4.889,38.377,38.377,0,0,0-3.136,5.694,37.108,37.108,0,0,0-2.129,6.173,31.592,31.592,0,0,0-.918,6.326L41,292.483a.841.841,0,0,0-.131-.011.583.583,0,0,0-.411.153.67.67,0,0,0-.191.429,10.592,10.592,0,0,0-.055,1.253,4.616,4.616,0,0,0,0,1.48l0,.016a6.993,6.993,0,0,0,.18,2.855,7.975,7.975,0,0,0,.5,1.347,8.517,8.517,0,0,0,.729,1.246,8.729,8.729,0,0,0,.928,1.108,8.53,8.53,0,0,0,1.1.935,7.577,7.577,0,0,0,2.569,1.206,5.108,5.108,0,0,0-.454,1.182c-.115.432-.193.863-.253,1.229a13.33,13.33,0,0,0-.529,5.424c.006.235.016.448.03.652a9.463,9.463,0,0,0,.495,2.534,6.341,6.341,0,0,0,.543,1.154,5.354,5.354,0,0,0,.8,1.017,3.519,3.519,0,0,0,2.451,1.11,2.843,2.843,0,0,0,.87-.137,19.77,19.77,0,0,1,1.046,3.387,17.2,17.2,0,0,1,.376,3.524.077.077,0,0,0,.022.056.083.083,0,0,0,.059.023.076.076,0,0,0,.076-.058,15.689,15.689,0,0,0,.533-2.838,15.489,15.489,0,0,0,0-2.872,15.032,15.032,0,0,0-.536-2.817,14.5,14.5,0,0,0-1.08-2.675l-.058-.115a4.275,4.275,0,0,0-1.738-2.014l.292-.426c2.593-3.766,5.036-6.995,7.469-9.872,1.369-1.619,2.764-3.158,4.145-4.573,1.471-1.507,2.981-2.93,4.489-4.23.682-.595,1.26-1.09,1.862-1.574l.238-.189c.063-.049.132-.109.2-.172a1.852,1.852,0,0,1,.932-.547c.441.129.945.619,1.541,1.5.508.751,1,1.658,1.386,2.386.215.4.4.747.554,1a36.121,36.121,0,0,1,1.765,3.69c.5,1.208.96,2.5,1.374,3.851a65.318,65.318,0,0,1,1.857,7.958,3.423,3.423,0,0,1-.92,1.074,5.019,5.019,0,0,0-.609.6,12.72,12.72,0,0,0-1.138,1.379,14.293,14.293,0,0,0-.948,1.522,13.1,13.1,0,0,0-1.235,3.275,11.073,11.073,0,0,0-.256,1.752,9.008,9.008,0,0,0,.054,1.739.127.127,0,0,0,.135.107.144.144,0,0,0,.147-.107,19.686,19.686,0,0,1,1.116-3.855,14.144,14.144,0,0,1,.884-1.78,12.157,12.157,0,0,1,1.154-1.635.1.1,0,0,0,.092.069h.066c.216,0,.427.013.63.025h0c.2.012.408.025.613.025a3.141,3.141,0,0,0,.878-.11,3.353,3.353,0,0,0,1.686-1.06,4.279,4.279,0,0,0,.506-.784c.514.028.905.047,1.268.061.824.069,1.65.1,2.455.1a25.027,25.027,0,0,0,5.633-.618,19.685,19.685,0,0,0,5.117-1.938,16.873,16.873,0,0,0,4.3-3.386,17.127,17.127,0,0,0,1.745-2.276,18.786,18.786,0,0,0,1.425-2.685c.527-1.083,1.039-2.218,1.522-3.375.462-1.106.911-2.267,1.337-3.45.791-2.2,1.516-4.512,2.216-7.073,1.315-4.8,2.343-9.788,3.284-14.482,2.066-10.776,4.1-21.743,6.064-32.348v0c1.826-9.855,3.715-20.045,5.626-30.056l.066-.329c.319-1.614.526-2.952.654-4.212a23.471,23.471,0,0,0,.079-4.31,15.728,15.728,0,0,0-.309-2.089,12.444,12.444,0,0,0-.612-1.99,10.6,10.6,0,0,0-.968-1.849,10.137,10.137,0,0,0-1.378-1.667,1.839,1.839,0,0,0,.517-1.27,8.474,8.474,0,0,0-.077-1.534c-.025-.229-.05-.445-.062-.643a49.894,49.894,0,0,0-.845-5.587c-.21-.982-.452-1.928-.719-2.812a27.419,27.419,0,0,0-.972-2.714,21.164,21.164,0,0,0-1.267-2.533,16.627,16.627,0,0,0-1.6-2.269,13.811,13.811,0,0,0-1.979-1.923,12.726,12.726,0,0,0-2.4-1.494,1.448,1.448,0,0,0-.848-1,3.565,3.565,0,0,0-1.571-.335,3.491,3.491,0,0,0-1.7.4,304.015,304.015,0,0,1-6.494-36.856c-.691-5.805-1.3-11.906-1.847-18.651-.455-5.561-.87-11.5-1.307-18.691l-.046-.755c-.155-2.54-.3-5.12-.434-7.616v-.011c-.212-3.85-.431-7.831-.7-11.745-.3-4.4-.642-8.231-1.033-11.725-.47-4.195-1.023-7.995-1.693-11.618-.363-1.964-.765-3.9-1.2-5.745-.452-1.94-.952-3.854-1.484-5.69a11.882,11.882,0,0,1,1.818-1.542,16.794,16.794,0,0,1,2.051-1.209,43.544,43.544,0,0,1,4.4-1.831l.03-.011.221-.083a50.457,50.457,0,0,0,9.386-4.578,49.237,49.237,0,0,0,8.258-6.464,23.353,23.353,0,0,0,3.01-3.339,15.243,15.243,0,0,0,1.863-3.292,9.631,9.631,0,0,0,.715-3.107,6.708,6.708,0,0,0-.434-2.782,6.338,6.338,0,0,0-1.369-2.108,8.294,8.294,0,0,0-2.3-1.633,13.092,13.092,0,0,0-3.224-1.058,21.579,21.579,0,0,0-4.152-.381c-2.695-.251-5.459-.379-8.217-.379a100.634,100.634,0,0,0-27.494,3.962c-.122.034-.249.068-.372.1h0a6.022,6.022,0,0,0-1.517.549,10.357,10.357,0,0,0-2.043.275A12.921,12.921,0,0,0,66.3,15.244a13.617,13.617,0,0,0-3.224,2.8,12.712,12.712,0,0,0-2.168,3.674,11.52,11.52,0,0,0-.757,4.268,12,12,0,0,0,1.007,4.693A8.216,8.216,0,0,0,62.435,32.7a5.959,5.959,0,0,0,1.835,1.44,2.547,2.547,0,0,0-1.249.838,5.078,5.078,0,0,0-.77,1.335c-.391.776-.773,1.568-1.134,2.353A70.9,70.9,0,0,0,58.1,46.356a78.3,78.3,0,0,0-2.143,7.995c-.412,1.617-.755,3.294-1.019,4.983-.252,1.61-.44,3.286-.559,4.98a75.067,75.067,0,0,0,0,9.951c.182,2.975.525,6.228,1.048,9.945.466,3.313,1.028,6.682,1.572,9.94v.008c.574,3.435,1.167,6.987,1.648,10.482.259,1.882.466,3.6.633,5.247.187,1.85.319,3.568.4,5.251-.045.876-.091,1.6-.145,2.282a68.233,68.233,0,0,1-1.086,8.083c-.883-3.691-1.747-7.781-2.643-12.5-.8-4.21-1.548-8.526-2.272-12.7v0c-.983-5.661-2-11.514-3.157-17.217-.623-3.071-1.236-5.853-1.874-8.5-.716-2.976-1.444-5.712-2.227-8.364-.841-2.849-1.748-5.6-2.7-8.173-1.015-2.755-2.12-5.424-3.283-7.931-1.23-2.652-2.571-5.221-3.986-7.637a81.812,81.812,0,0,0-4.805-7.291.853.853,0,0,0,.093-.854,1.561,1.561,0,0,0-.735-.666,3.31,3.31,0,0,0-1.018-.319,1.28,1.28,0,0,1-.234-.768,2.433,2.433,0,0,1,.182-.855,9.16,9.16,0,0,1,.922-1.649c.125-.191.244-.371.334-.525.756-1.286,1.528-2.688,2.5-4.545l.554-1.023c.862-1.595,1.854-3.457,2.707-5.38A27.856,27.856,0,0,0,38.76,12.78a15.28,15.28,0,0,0,.31-2.89,10.837,10.837,0,0,0-.333-2.781,9.176,9.176,0,0,0-1.126-2.6,10.326,10.326,0,0,0-2.069-2.344A7.947,7.947,0,0,0,33.487,1.03,6.611,6.611,0,0,0,31.187.6a5.534,5.534,0,0,0-1.1.109,18.517,18.517,0,0,0-2.7-.541A22.093,22.093,0,0,0,24.638,0Zm-8.19,32.873a30.144,30.144,0,0,1-3.594-.19,17.535,17.535,0,0,1-3.507-.765A19.468,19.468,0,0,0,7.529,24.18,35.516,35.516,0,0,0,5.7,20.636c-.729-1.25-1.517-2.469-2.121-3.391a9.091,9.091,0,0,1-1.128-4.038A9.955,9.955,0,0,1,2.57,11.07a9,9,0,0,1,.584-2.023A7.116,7.116,0,0,1,4.828,6.6,6.043,6.043,0,0,1,7.479,5.151a40.09,40.09,0,0,1,4.562-1.217c1.446-.3,2.964-.545,4.642-.749,3.114-.377,6.305-.549,9.392-.716.848-.046,1.808-.1,2.727-.152a1.089,1.089,0,0,0,.537.7,1.78,1.78,0,0,0,.882.223,1.88,1.88,0,0,0,.231-.014,4.08,4.08,0,0,1,.7-.06,4.759,4.759,0,0,1,2.312.632,5.6,5.6,0,0,1,1.811,1.624,8.857,8.857,0,0,1,.9,1.925,9.044,9.044,0,0,1,.407,1.994,10.976,10.976,0,0,1-.015,2.046,14.917,14.917,0,0,1-.362,2.082,42.271,42.271,0,0,1-3.445,8.36,45.034,45.034,0,0,0-2.706,6.158l-.07.167c-.051.122-.107.25-.166.386l0,.009a13.392,13.392,0,0,0-.861,2.4,3.911,3.911,0,0,0-.094,1.22,2.016,2.016,0,0,0,.394,1.047,20.991,20.991,0,0,0-2.813-.423c-.861-.074-1.789-.11-2.838-.11-1.191,0-2.4.046-3.571.091-.417.016-.848.033-1.276.047a22.637,22.637,0,0,1-1.371-3.31c-.34-1.026-.65-2.158-.95-3.46a4.911,4.911,0,0,0-.518-1.7c-.2-.34-.431-.527-.653-.527a.447.447,0,0,0-.368.223,1.648,1.648,0,0,0-.2.949,4.768,4.768,0,0,0,.361,1.566,20.237,20.237,0,0,0,3.466,6.267c-.805.025-1.465.037-2.075.037Zm48.6.7h0a.762.762,0,0,1-.481-.311,4.874,4.874,0,0,1-.51-.705,12.3,12.3,0,0,1-.658-1.23,11.311,11.311,0,0,1-.86-2.431,10.613,10.613,0,0,1,.792-6.982,11,11,0,0,1,1.3-2.076,11.166,11.166,0,0,1,1.749-1.754,11.286,11.286,0,0,1,2.141-1.351A11.567,11.567,0,0,1,71,15.868l.2-.041.608-.127h0c2.362-.493,7.894-1.647,13.98-2.679a113.617,113.617,0,0,1,17.281-1.942h.267c.861.075,1.959.093,3.121.112h0c1.138.019,2.428.04,3.7.118a25.645,25.645,0,0,1,3.723.464,13.1,13.1,0,0,1,1.681.467,8.124,8.124,0,0,1,1.46.679,5.293,5.293,0,0,1,1.163.934,4.194,4.194,0,0,1,.791,1.23,6.7,6.7,0,0,1,.227,1.945A7.293,7.293,0,0,1,118.9,18.9a9.6,9.6,0,0,1-.754,1.786,13.8,13.8,0,0,1-1.1,1.694,36.993,36.993,0,0,1-5.8,5.7h0c-.219.184-.467.393-.7.59a47.811,47.811,0,0,1-7.746,5.025c-1.13.587-2.345,1.128-3.52,1.651l0,0c-1.279.569-2.6,1.158-3.85,1.819a19.711,19.711,0,0,0-3.5,2.3.4.4,0,0,0-.279-.117.443.443,0,0,0-.2.05.439.439,0,0,1-.2.038c-.042,0-.086,0-.129-.006h0c-.044,0-.089-.006-.133-.006a.608.608,0,0,0-.11.009,2.34,2.34,0,0,0-.408.129l-.006,0c-.049.019-.1.039-.151.057a5.1,5.1,0,0,1-1.166.276,6.736,6.736,0,0,1-.717.038,8.8,8.8,0,0,1-1.736-.186c-.617-.125-1.234-.289-1.813-.447a24.918,24.918,0,0,0,2.576-2.778l.11-.142c.2-.26.408-.513.61-.758a16.108,16.108,0,0,0,.99-1.286,5.487,5.487,0,0,0,.715-1.467.494.494,0,0,0-.077-.447.567.567,0,0,0-.446-.226.5.5,0,0,0-.249.066A7.9,7.9,0,0,0,86.573,35.1l-.007.011c-.086.135-.175.274-.262.409a16.792,16.792,0,0,0-1.771,3.69l-.274-.074a16.309,16.309,0,0,0-3.059-.6,33.877,33.877,0,0,1-3.963-2.037c-1.1-.627-2.136-1.218-3.178-1.685a14.166,14.166,0,0,1-1.122-2.487,17.432,17.432,0,0,1-.666-2.629,27.5,27.5,0,0,1-.336-5.446c-.172-.339-.354-.511-.544-.511a.45.45,0,0,0-.33.184,1.784,1.784,0,0,0-.289.516,6.748,6.748,0,0,0-.371,1.937,11.918,11.918,0,0,0,.139,2.655,10.8,10.8,0,0,0,.87,2.853,8.149,8.149,0,0,0,1.823,2.531l-.159-.066a15.591,15.591,0,0,0-2.372-.777,10.782,10.782,0,0,0-2.451-.3,8.3,8.3,0,0,0-2.858.493.4.4,0,0,0,0-.3.07.07,0,0,0-.061-.037.143.143,0,0,0-.079.031.252.252,0,0,1-.2.1ZM39.643,175.9a2.2,2.2,0,0,1-.482-1.434,8.845,8.845,0,0,1,.171-1.643h0c.062-.372.12-.723.142-1.045a5.584,5.584,0,0,0-.753-3.818,4.042,4.042,0,0,0-1.329-1.244,5.113,5.113,0,0,0-1.955-.632c-1.668-.225-3.381-.31-5.038-.391h0c-1.081-.053-2.2-.108-3.293-.2-.5-5.242-1.061-10.387-1.68-15.293-.655-5.2-1.395-10.322-2.2-15.225-.273-1.679-.607-3.377-1.022-5.192-.369-1.616-.795-3.288-1.3-5.111-.939-3.386-2.02-6.795-3.065-10.091v-.005c-.591-1.864-1.2-3.792-1.782-5.7-1.782-6.118-3.18-11.242-4.4-16.127-1.463-5.87-2.623-11.232-3.544-16.393-.5-2.814-.937-5.6-1.293-8.276-.374-2.82-.673-5.619-.888-8.318-.225-2.824-.366-5.635-.419-8.353-.055-2.829-.017-5.648.113-8.379a19.38,19.38,0,0,1,1.026-5.059,10.776,10.776,0,0,1,1.07-2.122,20.655,20.655,0,0,1,1.4-1.915.954.954,0,0,0,.213-.745A1.534,1.534,0,0,0,9.37,32.6a2.8,2.8,0,0,1-.009-.339,13.878,13.878,0,0,0,2.653,1.054,18.407,18.407,0,0,0,2.75.553,48.1,48.1,0,0,0,5.666.272h0c1.442.012,2.934.025,4.384.139.781.062,1.488.147,2.161.26a17.394,17.394,0,0,1,2.121.489,6.053,6.053,0,0,0,.526,1.88c1.322,1.832,2.6,3.776,3.8,5.778,1.161,1.937,2.28,3.981,3.326,6.076,1.01,2.023,1.979,4.147,2.88,6.315.869,2.089,1.7,4.274,2.464,6.5,1.067,3.072,2.04,6.239,2.973,9.681.831,3.067,1.612,6.283,2.387,9.834,1.44,6.6,2.638,13.369,3.8,19.918v0c.95,5.37,1.933,10.922,3.042,16.342.49,2.363,1.006,4.7,1.535,6.94.553,2.348,1.137,4.67,1.736,6.9.624,2.326,1.284,4.628,1.96,6.842.7,2.3,1.446,4.572,2.209,6.759.789,2.263,1.624,4.5,2.481,6.653.884,2.221,1.818,4.416,2.776,6.524.987,2.172,2.028,4.316,3.095,6.373,1.1,2.115,2.253,4.2,3.438,6.2a.1.1,0,0,0,.083.053.108.108,0,0,0,.087-.049.116.116,0,0,0,.009-.111l-.488-1.2c-2.362-5.8-5.106-12.662-7.558-19.525-2.593-7.259-4.608-13.807-6.16-20.018.389-1.56.717-3.17.975-4.784.245-1.54.435-3.135.563-4.743a74.535,74.535,0,0,0,.123-9.389c-.128-2.793-.4-5.838-.821-9.308-.378-3.094-.844-6.238-1.294-9.279v-.006c-.566-3.822-1.151-7.774-1.575-11.7-.228-2.111-.392-4.043-.5-5.9-.123-2.091-.174-4.041-.157-5.961.019-2.063.121-4.092.3-6.031.2-2.076.491-4.134.879-6.116a59.066,59.066,0,0,1,1.57-6.216,59.927,59.927,0,0,1,2.377-6.329c.562-1.4,1.187-2.818,1.856-4.223a10.575,10.575,0,0,1,.747-1.494h0a5.6,5.6,0,0,0,1.016-2.682,9.013,9.013,0,0,1,1.82-.186c3.275,0,6.227,1.772,9.082,3.486h0c.905.544,1.842,1.106,2.758,1.589l.1.045c.2.087.414.189.645.3.576.269,1.23.574,1.9.817A5.87,5.87,0,0,0,83.813,42a2.605,2.605,0,0,0,.417-.032,18.894,18.894,0,0,1,2.83,2.058c.077.292.169.591.266.863.555,2.049,1.076,4.183,1.548,6.342.45,2.058.87,4.207,1.248,6.387.7,4.024,1.277,8.239,1.768,12.885.409,3.871.763,8.12,1.083,12.99.285,4.344.517,8.767.74,13.044.282,5.382.573,10.947.973,16.406.216,2.94.445,5.613.7,8.173.287,2.875.6,5.537.956,8.136.521,4.714,1.158,9.444,1.891,14.06.745,4.69,1.61,9.385,2.571,13.954.977,4.645,2.078,9.282,3.273,13.783,1.216,4.577,2.561,9.135,4,13.547a15.144,15.144,0,0,0-2.588-.349c-1.428-.114-3.029-.177-4.508-.177a31.742,31.742,0,0,0-4.726.294c-1.481.235-2.372.6-2.648,1.09a.822.822,0,0,0,.075.869c-.486,2.1-.945,4.321-1.365,6.6-.636-.045-1.28-.094-1.9-.141H90.4c-1.021-.077-2.077-.157-3.122-.222.549-1.258,1.013-2.592,1.461-3.882h0c.194-.557.394-1.132.6-1.691a4.712,4.712,0,0,0,.388-1.981,3.747,3.747,0,0,0-.5-1.937,1.917,1.917,0,0,0-.642-.635,1.818,1.818,0,0,0-.932-.24,2.567,2.567,0,0,0-.441.04,3.209,3.209,0,0,0-1.463,1.021A6.106,6.106,0,0,0,84.725,185a6.211,6.211,0,0,0-.338,3.839.3.3,0,0,0,.268.188.2.2,0,0,0,.189-.127c.174-.4.324-.815.469-1.213a11.092,11.092,0,0,1,1.074-2.358l.1-.151.039-.06.006-.009c.206-.318.635-.98.964-.98a.233.233,0,0,1,.045,0,1.642,1.642,0,0,1,.106.889,6.166,6.166,0,0,1-.272,1.212c-.278.887-.719,1.906-1.145,2.892h0a16.127,16.127,0,0,0-1.2,3.308l-.237-.012a2.918,2.918,0,0,0-1.288-3.926A3.265,3.265,0,0,0,82,188.129a3.339,3.339,0,0,0-2.063.725c-.375-.53-.757-1.064-1.126-1.581l-.007-.01c-1.014-1.42-2.062-2.889-3.064-4.367l-.107-.154a9.026,9.026,0,0,0-.947-1.191,3.175,3.175,0,0,0-1.248-.819,2.114,2.114,0,0,0-.671-.111,1.973,1.973,0,0,0-1.109.336,2.011,2.011,0,0,0-.746.947,5.415,5.415,0,0,0,.738,3.955,21.022,21.022,0,0,0,2.332,3.536,5.406,5.406,0,0,0,.879,1.549,7.514,7.514,0,0,0,1.274,1.24l-.409,0c-.5,0-.957-.007-1.385-.007-2.022,0-3.664.055-5.166.172a34.236,34.236,0,0,0-5.078.749c-.033-.319-.026-.944-.017-1.734.013-1.125.028-2.524-.062-3.763a10.917,10.917,0,0,0-.23-1.669,2.27,2.27,0,0,0-.472-1.053.58.58,0,0,0-.42-.189l-.058,0a8.664,8.664,0,0,0-1.419-.715,10.256,10.256,0,0,0-1.525-.465,14.917,14.917,0,0,0-3.281-.327,45.093,45.093,0,0,0-6.749.7c-1.351.208-2.628.4-3.823.512-1.432.166-2.889.258-4.3.346h-.012c-.464.029-.944.059-1.416.092a8.052,8.052,0,0,0,1.48-1.609,12.709,12.709,0,0,0,1.243-2.16,9.665,9.665,0,0,0,.727-2.268,3.914,3.914,0,0,0-.07-1.93,1.788,1.788,0,0,0-.714-.941,2.527,2.527,0,0,0-1.4-.352,6.921,6.921,0,0,0-1.941.333ZM89.467,42.212l-.043-.071c.089-.1.189-.2.3-.311C89.624,41.976,89.541,42.1,89.467,42.212Zm-30.3,86.175h0c-.056-.22-.114-.452-.161-.639l-.05-.2c.2-.679.39-1.385.554-2.1-.1,1.041-.209,2-.343,2.937ZM21.63,189.9c-.858,0-1.871,0-2.885-.037l-.017-.006c.415-2.363.66-4.807.9-7.171v0c.21-2.09.427-4.251.76-6.35.179-1.13.377-2.152.6-3.125a31.26,31.26,0,0,1,.875-3.063l.062-.176a7.49,7.49,0,0,1,1.209-2.45,2.073,2.073,0,0,1,.814-.564,3.2,3.2,0,0,1,1.144-.179,9.705,9.705,0,0,1,1.55.153c1.051.078,2.121.154,3.155.227h.012c1.394.1,2.835.2,4.251.31l.339.028a7.806,7.806,0,0,1,1.639.279,2.771,2.771,0,0,1,1.372.863,3.2,3.2,0,0,1,.475.93,4.011,4.011,0,0,1,.179.992,11.357,11.357,0,0,1-.138,2.092,14.79,14.79,0,0,0-.149,1.67,4.412,4.412,0,0,0,.242,1.6,3.036,3.036,0,0,0,.742,1.11,1.148,1.148,0,0,0,.766.284,3.139,3.139,0,0,0,.883-.18l.03-.009a3.4,3.4,0,0,1,.973-.189,1.587,1.587,0,0,1,.774.2c.435.3.525.919.268,1.836a10.389,10.389,0,0,1-.8,1.887,14.361,14.361,0,0,1-1.495,2.058c-.551.645-1.152,1.27-1.734,1.874a24.173,24.173,0,0,0-2.994,3.541l-.106.153a11.618,11.618,0,0,0-.741,1.2,4.542,4.542,0,0,0-.49,1.366A34.688,34.688,0,0,0,23.589,189.9H21.63Zm96.535,4.406a9.3,9.3,0,0,0-1.578-.941,7.938,7.938,0,0,0-1.712-.576c.108-1.877.182-3.718.218-5.473a.978.978,0,0,0-.216-.634,1.237,1.237,0,0,0-.542-.385,36.4,36.4,0,0,0-4.883-1.431,16.761,16.761,0,0,1-.837-2.375c-.225-.81-.407-1.622-.588-2.453l-.141-.646c-.249-1.046-.55-2.1-.84-3.113-.335-1.172-.681-2.384-.952-3.6a3.171,3.171,0,0,1,.981-.158,4.259,4.259,0,0,1,2.341.814,16.508,16.508,0,0,1,2.023,1.675h0l.011.011c.129.119.251.231.373.342a18.584,18.584,0,0,1,1.6,1.968,20.642,20.642,0,0,1,1.322,2.151,25.469,25.469,0,0,1,1.911,4.713,34.92,34.92,0,0,1,1.083,5.032A47.008,47.008,0,0,1,118.166,194.31Zm-40.231-2.094a.846.846,0,0,1-.38-.072l-.157-.2c-.209-.267-.426-.539-.635-.8l0-.006a20.313,20.313,0,0,1-3.725-6,5.923,5.923,0,0,1-.421-1.28,2.256,2.256,0,0,1-.037-1.206.178.178,0,0,1,.159-.1c.167,0,.422.193.757.575.969,1.293,1.861,2.682,2.724,4.025h0c.765,1.191,1.556,2.423,2.4,3.583a2.694,2.694,0,0,0-.177,1.478,1.287,1.287,0,0,0-.16-.009c-.055,0-.112,0-.166,0h0C78.052,192.214,77.993,192.217,77.934,192.217Zm-63.2-6.235a13.082,13.082,0,0,0,2.98-.25c.213.029.432.051.648.063-.076.708-.129,1.412-.176,2.066-.008.11-.01.244-.013.385v0a5.4,5.4,0,0,1-.1,1.132,7.059,7.059,0,0,0-1.41-.162c-.2-.01-.384-.018-.566-.034l-.265-.022c-.337-.026-.737-.054-1.145-.054-.2,0-.388.006-.571.02a.974.974,0,0,0-.325-.056.8.8,0,0,0-.482.152.834.834,0,0,0-.306.488c-.87,3.516-1.642,7.16-2.3,10.828.065-4.282.1-8.224.1-12.051a4.226,4.226,0,0,0,0-.735,3.457,3.457,0,0,1,.041-1.073.732.732,0,0,1,.7-.573,16.011,16.011,0,0,1,2.357-.131h.831ZM80.017,312.932c.111-.253.208-.508.3-.745.313-.842.629-1.722.941-2.617.4-1.154.76-2.211,1.1-3.231l.209-.594c.538-1.522,1.175-3.289,1.93-4.988.5-2.262.959-4.615,1.376-6.992.4-2.267.767-4.63,1.1-7.026.609-4.423,1.1-9.047,1.514-14.137.341-4.241.627-8.891.874-14.216.22-4.746.39-9.578.554-14.251v0h0c.166-4.734.338-9.629.563-14.437.252-5.392.545-10.1.9-14.4.421-5.154.931-9.837,1.56-14.315.341-2.427.722-4.82,1.133-7.114.431-2.407.91-4.789,1.424-7.078a36.137,36.137,0,0,1,6.317-.561h0a34.938,34.938,0,0,1,11.216,1.84l0,.1c-.041,1.707-.35,7.916-.374,8.272-.3,4.362-.794,8.925-1.512,13.947-.589,4.12-1.321,8.517-2.3,13.838-.825-.169-1.728-.308-2.762-.427-.917-.105-1.84-.184-2.783-.262l-.546-.045-.154-.014c-.164-.016-.32-.031-.473-.031a1.162,1.162,0,0,0-.856.305.512.512,0,0,0-.045.523c.215.362,1,.4,1.333.4a3.736,3.736,0,0,0,.406-.021l.7-.007a44.154,44.154,0,0,0,5.149-.279c-.814,4.605-1.736,9.295-2.627,13.83v.006c-.793,4.034-1.613,8.206-2.358,12.321-.836,4.619-1.486,8.667-1.987,12.378-.6,4.454-1.005,8.525-1.235,12.443-.125,2.124-.2,4.227-.217,6.25-.02,2.124.018,4.234.113,6.272a.073.073,0,0,0,.072.072.076.076,0,0,0,.075-.072c.22-3.957.57-7.977,1.07-12.29.445-3.842,1-7.832,1.7-12.2,1.295-8.107,2.894-16.306,4.441-24.235v-.006c1.39-7.124,2.827-14.49,4.038-21.766.652-3.918,1.189-7.5,1.641-10.944.507-3.868.895-7.471,1.186-11.014a7.437,7.437,0,0,1,2.021.963,6.958,6.958,0,0,1,1.513,1.413,9.381,9.381,0,0,1,1.724,3.791,17.162,17.162,0,0,1,.364,4.434,25.435,25.435,0,0,1-.548,4.306c-1.543,8.689-3.18,17.507-4.762,26.035-.7,3.756-1.418,7.64-2.128,11.5-.7,3.688-1.375,7.447-2.023,11.081v0c-.955,5.353-1.942,10.889-3.055,16.3-.6,2.914-1.186,5.56-1.794,8.089-.682,2.839-1.373,5.459-2.112,8.011l-.139.477c-.562,1.918-1.186,3.972-1.937,6a35.983,35.983,0,0,1-2.659,5.753,22.42,22.42,0,0,1-1.735,2.551,17.271,17.271,0,0,1-2.077,2.209,14.6,14.6,0,0,1-2.474,1.773,14.18,14.18,0,0,1-2.924,1.243,29.416,29.416,0,0,1-4.909,1.1C83.612,312.66,82.061,312.808,80.017,312.932ZM81.853,192.3c-.56-.019-1.141-.035-1.779-.051a1.478,1.478,0,0,1,.221-.676,4.241,4.241,0,0,1,.429-.559h0c.1-.115.2-.233.292-.356a.6.6,0,0,0-.123-.729,1.9,1.9,0,0,1,.825-.176,1.971,1.971,0,0,1,.638.1,1.233,1.233,0,0,1,.51.318.955.955,0,0,1,.244.755c-.039.424-.327.59-.631.767A1.231,1.231,0,0,0,81.853,192.3Zm-2.933-.073-.128,0c.03-.05.063-.1.1-.158C78.9,192.127,78.909,192.178,78.92,192.225ZM55.226,267.349h0c-.517-.149-1.009-.289-1.6-.457,1.124-7.239,2.514-14.553,3.859-21.627l.005-.026c.533-2.8,1.083-5.7,1.61-8.551l.168-.915c1.049-5.715,2.378-13.269,3.342-21.026a179.437,179.437,0,0,0,1.481-21.233c4.192.46,8.484.6,12.636.731h0c2.492.08,5.069.163,7.6.315,2.837.17,5.312.41,7.567.735-.646,3.787-1.179,7.663-1.632,11.851-.4,3.731-.732,7.626-1.006,11.908-.508,7.954-.742,16.066-.968,23.912v.006c-.22,7.619-.447,15.5-.925,23.223-.257,4.159-.565,7.944-.941,11.571-.421,4.07-.917,7.838-1.514,11.519a53.305,53.305,0,0,0-1.444-6.585c-.191-.7-.433-1.409-.668-2.095h0a28.066,28.066,0,0,1-.82-2.689,9.061,9.061,0,0,1-.252-2.774,6.463,6.463,0,0,0,2.165-.907,5.273,5.273,0,0,0,1.449-1.432,5.394,5.394,0,0,0,.87-3.63,5.145,5.145,0,0,0-5.316-4.661,7.386,7.386,0,0,0-.987.068,6.725,6.725,0,0,0-1.918.337,5.034,5.034,0,0,0-1.468.781,4.58,4.58,0,0,0-1.62,2.466,5.433,5.433,0,0,0,.207,3.333,5.588,5.588,0,0,0,2.271,2.737,3.99,3.99,0,0,0,1.558,1.032,6.673,6.673,0,0,0,.881.294,7.328,7.328,0,0,0,.03,1.385,9.776,9.776,0,0,0,.252,1.339,25.254,25.254,0,0,0,.875,2.6h0c.3.786.6,1.6.826,2.416.547,1.784.938,3.219,1.228,4.516a28.9,28.9,0,0,1,.635,4.043,22.966,22.966,0,0,1-.028,4,30.2,30.2,0,0,1-.763,4.387c-.182.563-.326,1.133-.47,1.717a28.573,28.573,0,0,1-1.824,3.5c-.678,1.127-1.42,2.24-2.137,3.317v0l-.02.031-.5.752a40.922,40.922,0,0,0-5.67-16.3c-.246-.348-.47-.724-.707-1.121a5.829,5.829,0,0,0-2.532-2.736,1.817,1.817,0,0,0-.383-.041,2.543,2.543,0,0,0-1.4.5,10.811,10.811,0,0,0-1.275,1.061,10.152,10.152,0,0,1-1.067.9c-1.675,1.454-3.265,2.933-4.725,4.4-1.573,1.575-3.049,3.184-4.387,4.783a61.441,61.441,0,0,0-3.906,5.188,52,52,0,0,0-3.284,5.611c.481-2.3.881-4.7,1.224-7.352a6.191,6.191,0,0,0,1.9-.841,8.473,8.473,0,0,0,1.558-1.335,23.836,23.836,0,0,0,2.484-3.4h0c.113-.175.23-.357.344-.533l.032-.06c.078-.143.19-.327.321-.54h0a15.092,15.092,0,0,0,.768-1.361,2.691,2.691,0,0,0,.351-1.329.413.413,0,0,0,.263-.543.837.837,0,0,0-.489-.538,41.718,41.718,0,0,0,2.28-6.806c.507-2.029.939-4.207,1.4-7.063a19.352,19.352,0,0,0,.318-3.41,14.114,14.114,0,0,0-.392-3.446,8.886,8.886,0,0,0-1.357-3.036,6.856,6.856,0,0,0-2.577-2.181,5.144,5.144,0,0,1,1.055-.108,6.7,6.7,0,0,1,2.392.477,1.525,1.525,0,0,0,.3,1.291,1.6,1.6,0,0,0,.6.434,1.931,1.931,0,0,0,1.566-.033,1.747,1.747,0,0,0,.676-.567,1.883,1.883,0,0,0-1.457-3.011,1.835,1.835,0,0,0-1.348.633.566.566,0,0,0-.142.49,5.636,5.636,0,0,0-2.818-.68,9.39,9.39,0,0,0-2.608.4Zm24.364,6.715h0l-.258-.145a8.48,8.48,0,0,1-1.9-1.335,4.78,4.78,0,0,1-1.121-1.918,3.747,3.747,0,0,1-.1-1.327,3.451,3.451,0,0,1,.354-1.221,3.053,3.053,0,0,1,1.928-1.581,7.783,7.783,0,0,1,2.113-.314h0a4.847,4.847,0,0,1,3.012.946,3.783,3.783,0,0,1,.907,1.006,3.54,3.54,0,0,1,.467,1.2A3.437,3.437,0,0,1,85,270.621a3.539,3.539,0,0,1-.458,1.21,4.1,4.1,0,0,1-.948,1.073,5.5,5.5,0,0,1-1.466.83,7.037,7.037,0,0,1-1.748.265h0c-.257.017-.523.034-.784.065Zm-30.152-6.878a.752.752,0,0,1-.721-.426.355.355,0,0,1-.045-.344.392.392,0,0,1,.339-.126,1.353,1.353,0,0,1,.285.033,3.475,3.475,0,0,1,.907.39c.118.065.241.132.364.192l-.233.081a2.874,2.874,0,0,1-.9.2Zm12.618,2.23a1.12,1.12,0,0,1-.676-.254,1.033,1.033,0,0,1-.021-.65,1.317,1.317,0,0,1,.218-.481.914.914,0,0,1,.414-.311,1.32,1.32,0,0,1,.3-.064.826.826,0,0,1,.636.492.806.806,0,0,1,.065.4.884.884,0,0,1-.171.432.933.933,0,0,1-.761.433Zm-8.617-1.295.042-.281.326.083c-.124.061-.245.128-.368.2Zm-3.449,34.841c.505-4.307.807-8.714,1.1-12.975l0-.034c.073-1.071.149-2.178.227-3.266.379-5.289.988-10.793,1.863-16.827a9.769,9.769,0,0,1,2.387-1.416,7.022,7.022,0,0,1,1.259.615,6.189,6.189,0,0,1,1.028.8,6.593,6.593,0,0,1,1.433,2.09,9.941,9.941,0,0,1,.715,2.616,17.151,17.151,0,0,1,.134,2.994c-.148,4.179-1.479,8.958-2.548,12.8v0c-.367,1.319-.714,2.565-.959,3.6a.956.956,0,0,0-.48.642c-.122.357-.226.707-.351,1.128l-.133.25c-.126.238-.254.484-.377.722l0,.005a26.434,26.434,0,0,1-2.161,3.664,9.215,9.215,0,0,1-1.392,1.51,6.465,6.465,0,0,1-1.743,1.078Zm-2.127.377a5.859,5.859,0,0,1-3.283-.964,6.552,6.552,0,0,1-1.395-1.5,7.709,7.709,0,0,1-1.224-3.3,9.907,9.907,0,0,1-.08-1.782,11.086,11.086,0,0,1,.222-1.766.63.63,0,0,0,.007-.209.586.586,0,0,0,.365-.6.546.546,0,0,0-.409-.55l-.078-.016c.371-2,.816-3.912,1.322-5.7a48.708,48.708,0,0,1,1.912-5.5,38.557,38.557,0,0,1,2.621-5.162,32.232,32.232,0,0,1,3.449-4.669c-.3,2.069-.563,4.183-.8,6.464-.215,2.034-.408,4.155-.59,6.487-.338,4.33-.584,8.741-.823,13.006h0c-.1,1.867-.212,3.8-.327,5.7a7.25,7.25,0,0,1-.882.055Zm2.1,14.852a5.133,5.133,0,0,1-1.31-.779,5.7,5.7,0,0,1-1.035-1.108,6.546,6.546,0,0,1-1.133-2.846,16.767,16.767,0,0,1,.592-5.378,3.088,3.088,0,0,1,.247-.776.724.724,0,0,0,.476-.377,12.378,12.378,0,0,0,.813-1.785c-.191,2.546-.4,4.807-.647,6.911a.556.556,0,0,0-.451.273,2.452,2.452,0,0,0,.2,1.779,3.27,3.27,0,0,1-.068.5v0a2.966,2.966,0,0,0-.091,1.005.027.027,0,0,0,.021.011.092.092,0,0,0,.057-.036c.1-.347.2-.7.3-1.06A22.5,22.5,0,0,1,49.963,318.191Zm27.355-4.927c.626-.457,1.4-1.026,1.464-1.6a.742.742,0,0,0-.216-.584c.467-.689.931-1.394,1.38-2.076v0l.022-.033c.2-.3.407-.619.612-.927l-.046.139c-.123.37-.25.746-.373,1.109l0,.013,0,.007c-.142.42-.289.855-.431,1.283-.068.207-.133.418-.2.623a12.211,12.211,0,0,1-.595,1.647c-.016.033-.033.065-.05.1h0l-.022.04-.906.047a.072.072,0,0,0-.071.074.074.074,0,0,0,.071.076h.014l.746.048a2.918,2.918,0,0,1-1.387,1.111l-.4.164a7.89,7.89,0,0,1-1.437.473l.081-.1.041-.047a1.692,1.692,0,0,0,.556-.543,2.281,2.281,0,0,1,.457-.492,5.683,5.683,0,0,1,.689-.551h0ZM101.749,20.771a1.2,1.2,0,0,0-.911.448,2.782,2.782,0,0,0-.534.986,1.941,1.941,0,0,0-.062,1.362.156.156,0,0,0,.129.072.455.455,0,0,0,.292-.186,3.281,3.281,0,0,1,.577-1.161l.064-.076c.06-.069.149-.154.243-.245.3-.294.684-.659.62-.93-.028-.117-.14-.207-.332-.267C101.8,20.772,101.777,20.771,101.749,20.771Zm-79.229,4.9a.481.481,0,0,0-.4.209,5.052,5.052,0,0,0-.629,1.211A6.123,6.123,0,0,0,21.16,28.5a5.506,5.506,0,0,0,.017,1.441,4,4,0,0,0,.42,1.31.067.067,0,0,0,.061.036.08.08,0,0,0,.056-.023.068.068,0,0,0,.019-.05c0-.105-.007-.21-.011-.311v-.014a7.69,7.69,0,0,1,.138-2.226,7.332,7.332,0,0,1,1.074-2.294.415.415,0,0,0,.036-.439A.52.52,0,0,0,22.52,25.676Zm59.711,1.839a.974.974,0,0,0-.762.4,3.029,3.029,0,0,0-.493.989,14.962,14.962,0,0,0-.485,2.554c-.051.394-.1.735-.146.972l-.022.2a20.8,20.8,0,0,0-.144,2.8,8.962,8.962,0,0,0,.471,2.738.107.107,0,0,0,.108.08.1.1,0,0,0,.1-.08,27.859,27.859,0,0,0,.731-3.412h0c.132-.771.268-1.568.446-2.341a7.523,7.523,0,0,1,.357-1.37c.357-1.132.8-2.541.4-3.187a.747.747,0,0,0-.55-.34ZM16.7,32.537a.063.063,0,1,0,.059.062A.058.058,0,0,0,16.7,32.537Zm2.217,2.1a.667.667,0,0,0-.539.307,1.978,1.978,0,0,0-.31,1.081,5.169,5.169,0,0,0,.272,1.736A68.936,68.936,0,0,0,24.59,53.909a.131.131,0,0,0,.119.072.163.163,0,0,0,.129-.064.136.136,0,0,0,.02-.123c-.834-2.693-1.636-5.5-2.385-8.331-.718-2.72-1.409-5.553-2.054-8.422a5.011,5.011,0,0,0-.67-1.834A1.1,1.1,0,0,0,18.921,34.633Zm55.144,4.06a.619.619,0,0,0-.27.061,6.1,6.1,0,0,0-2.23,2.543l-.161.268-.034.056a24.817,24.817,0,0,0-2.38,5.085,20.961,20.961,0,0,0-1.061,5.522.106.106,0,0,0,.027.081.115.115,0,0,0,.084.034.119.119,0,0,0,.117-.083A43.8,43.8,0,0,1,70.1,47.117a32.038,32.038,0,0,1,2.676-4.782c.182-.264.389-.528.589-.783a6.448,6.448,0,0,0,1.27-2.134.545.545,0,0,0-.082-.489A.617.617,0,0,0,74.065,38.693Zm-45.633.821c-.173,0-.29.176-.347.524a15.171,15.171,0,0,0,2.5,3.768l0,0c.255.312.52.635.767.953a.158.158,0,0,0,.126.067.211.211,0,0,0,.17-.107.2.2,0,0,0,.011-.2l-.045-.092-.072-.147h0c-.25-.514-.835-1.718-1.45-2.779C29.334,40.184,28.773,39.515,28.432,39.515ZM96.547,203.678a2.308,2.308,0,0,0-.869.171,2.077,2.077,0,0,0-.723.49,1.934,1.934,0,0,0-.522,1.474,1.031,1.031,0,0,0,.342.776,2.845,2.845,0,0,1,.211.272.589.589,0,0,0-.116.618,1.524,1.524,0,0,0,.6.844,1.619,1.619,0,0,0,.91.259,2.5,2.5,0,0,0,1.747-.76,2.412,2.412,0,0,0,.545-.81,2.458,2.458,0,0,0,.185-.933,2.351,2.351,0,0,0-.695-1.691A2.139,2.139,0,0,0,96.547,203.678Zm-1.332,3a.87.87,0,0,1-.042-.188.491.491,0,0,0,.211-.29,1.333,1.333,0,0,1,.649-.939l.032-.01a.489.489,0,0,1,.158-.026.72.72,0,0,1,.461.192.855.855,0,0,1,.273.424.429.429,0,0,1-.239.518.493.493,0,0,1-.247.069c-.028,0-.058,0-.086,0h-.01c-.034,0-.073,0-.12,0h-.059l-.221.043A3.469,3.469,0,0,0,95.215,206.676ZM48.283,217.547c-3.15,0-6.556.14-8.306.223-2.557.122-4.439.256-4.782.316l-.032.006a.076.076,0,0,0-.071.078.073.073,0,0,0,.071.072c2.78.24,5.615.289,8.357.336h.06l1.19.021c.909.017,1.839.056,2.739.094,1.219.051,2.479.1,3.716.1a30.516,30.516,0,0,0,3.151-.146c.257-.152.371-.29.338-.412-.067-.245-.73-.427-1.971-.543C51.672,217.6,50.172,217.547,48.283,217.547Zm45.759,5.994a.515.515,0,0,0-.383.151.878.878,0,0,0-.181.663,1.471,1.471,0,0,0-.241.757,1.29,1.29,0,0,0,.159.654,1.045,1.045,0,0,0,.867.576.761.761,0,0,0,.53-.222,1.553,1.553,0,0,0,.392-.737,1.049,1.049,0,0,0-.02-1.091A1.465,1.465,0,0,0,94.042,223.542Zm-1.3,19.365a1.308,1.308,0,0,0-.627.154,1.049,1.049,0,0,0-.447.467,1.475,1.475,0,0,0-.3.817,1.665,1.665,0,0,0,.152.834,1.126,1.126,0,0,0,.335.419.82.82,0,0,0,.5.163,1.175,1.175,0,0,0,.55-.153l.05-.035a2.649,2.649,0,0,0,.617-.639,1.9,1.9,0,0,0,.338-.829,1.046,1.046,0,0,0-.246-.837A1.278,1.278,0,0,0,92.738,242.906Zm-1.422,14.686a.922.922,0,0,0-.662.306,1.437,1.437,0,0,0,.021,1.932,1.467,1.467,0,0,0,.425.313,1.131,1.131,0,0,0,.49.117.947.947,0,0,0,.68-.291,1.487,1.487,0,0,0,.451-1.054,1.6,1.6,0,0,0-.363-1.091l-.007.009a.754.754,0,0,0-.527-.228.721.721,0,0,0-.223.036A.866.866,0,0,0,91.317,257.592ZM80.755,268.555c-.3,0-.5.222-.563.625a.952.952,0,0,0-.256.441.635.635,0,0,0,.036.4,1.024,1.024,0,0,0,.927.555.827.827,0,0,0,.8-.544.8.8,0,0,0,.083-.463,1.084,1.084,0,0,0-.158-.441A1.131,1.131,0,0,0,80.755,268.555Zm10.057,5.415a1.343,1.343,0,0,0-.83.318,1.661,1.661,0,0,0-.527.741,1.025,1.025,0,0,0,.338,1.207.987.987,0,0,0,.676.281,1.27,1.27,0,0,0,.879-.414,1.792,1.792,0,0,0,.491-.906.961.961,0,0,0-.636-1.152A1.058,1.058,0,0,0,90.812,273.97ZM88.5,288.625a1.239,1.239,0,0,0-.652.182,1.264,1.264,0,0,0-.478.545,3.062,3.062,0,0,0,.272,2.5.108.108,0,0,0,.1.067.14.14,0,0,0,.105-.053.138.138,0,0,0,.031-.115l-.019-.11c-.016-.1-.039-.252-.058-.438a1.516,1.516,0,0,0,.735.2,1.36,1.36,0,0,0,.765-.235,1.381,1.381,0,0,0,.5-.6,1.294,1.294,0,0,0,.086-.748,1.536,1.536,0,0,0-.416-.781A1.344,1.344,0,0,0,88.5,288.625Zm.073,1.725a1.016,1.016,0,0,1-.666-.345l-.019-.021a.345.345,0,0,0-.043-.042c.045-.2.173-.527.519-.527a.658.658,0,0,1,.6.442.4.4,0,0,1-.225.465.477.477,0,0,1-.164.028Z" transform="translate(122.691 331.327) rotate(180)"/>
  </g>
  <g id="Head" transform="translate(32.018 0)">
    <g id="HEAD-2" data-name="HEAD" transform="translate(2.958)">
      <path id="_Skin-2" data-name="âœ‹ Skin" d="M22.456,0C15.073,0,7.437,5.723,4.731,9.375,1.6,13.6-.867,33.87.291,40.748a16.957,16.957,0,0,0,16.9,14.376c9.985,0,16.062-1.23,16.306-3.017s6.586-11.732,6.586-11.732,6.487-1.825,6.512-6.183a6.5,6.5,0,0,0-3.476-5.944s1.248-17.2-1.9-21.679S29.839,0,22.456,0Z" transform="translate(0.824 1.724)" fill="#d08b5b"/>
      <path id="_Ink-2" data-name="ðŸ– Ink" d="M29.856,0a21.572,21.572,0,0,0-3.674.317A11.422,11.422,0,0,0,24.7.674a9.544,9.544,0,0,0-1.434.578,6.456,6.456,0,0,0-2.348,1.916.126.126,0,0,0-.016.136.193.193,0,0,0,.166.1.159.159,0,0,0,.067-.014A18.456,18.456,0,0,1,25.15,2.07a20.767,20.767,0,0,1,4.2-.421,22.909,22.909,0,0,1,3.033.2,17.569,17.569,0,0,1,5.153,1.493,18.561,18.561,0,0,1,2.877,1.805c.287.206.584.418.879.622a10.456,10.456,0,0,0,.757.923l.43.451c.308.324.632.676.924,1.053a14.445,14.445,0,0,1,1.2,1.819,13.146,13.146,0,0,1,.9,1.985c.883,2.485.716,5.172.554,7.771v.007c-.011.173-.022.352-.032.527l-.014.244c-.171,2.944-.453,5.921-.839,8.847-.377,2.862-.869,5.818-1.463,8.784-.139.693-.288,1.394-.432,2.073h0c-.155.727-.315,1.479-.462,2.22-.122.613-.215,1.244-.3,1.853l0,.018q-.027.183-.054.366a8.707,8.707,0,0,0-.068,1.291v.048A.6.6,0,0,0,42.346,46l0,0a.251.251,0,0,0-.1-.317,1.647,1.647,0,0,0-.835-.178c-.094,0-.191,0-.285.006h0c-.093,0-.189.006-.284.006h-.015l-1.544-.005h-.009l-.985,0h-.632l-1.617,0-6.467.02h-.482c-.865,0-1.746-.006-2.6-.013h0c-.853-.006-1.736-.013-2.609-.013-2.095,0-4.573.032-7.072.268l-.322.032-1.633.2-.014,0c-1.262.153-2.833.344-3.441.415l-.031,0a38.753,38.753,0,0,0-5.473,1c.307-.123.612-.27.908-.413.27-.13.55-.265.828-.38.8-.329,1.609-.609,2.294-.839.5-.167,1-.336,1.5-.5l0,0c1.064-.354,2.165-.72,3.243-1.1.141-.049.349-.457.634-1.248.244-.674.5-1.512.71-2.185.177-.574.317-1.028.393-1.208l.008-.018.046-.1h0a1.212,1.212,0,0,0,.166-.854c-.169-.568-.9-1.026-1.491-1.394-.179-.112-.348-.217-.483-.315l-.6-.431-.781-.565a1.313,1.313,0,0,0-.756-.319.924.924,0,0,0-.28.045h0a67.8,67.8,0,0,0,.548-7.159h0c.016-.378.029-.676.039-.838.01-.184.03-.376.051-.58a3.8,3.8,0,0,0-.148-2.048.607.607,0,0,0-.5-.305h-.029l-2.434.181H9.742l-.187.014a.55.55,0,0,0-.515.391l0,.013a.092.092,0,0,0-.024,0,.088.088,0,0,0-.065.029c-.048.048-.1.1-.148.14a3.917,3.917,0,0,1-1.321.768,4.656,4.656,0,0,1-1.525.257,4.445,4.445,0,0,1-1.549-.274,5.549,5.549,0,0,1-2.128-1.368A2.8,2.8,0,0,1,1.7,23.645a5.635,5.635,0,0,1-.138-1.322,6.908,6.908,0,0,1,.113-1.253,6.559,6.559,0,0,1,.343-1.209,5.983,5.983,0,0,1,.575-1.113,5.453,5.453,0,0,1,.809-.964A7.95,7.95,0,0,1,7.48,16.1l.158-.033a.427.427,0,0,0,.314-.33.446.446,0,0,0-.124-.453A17.926,17.926,0,0,0,9.4,13.433l.253-.326c.65-.831,1.342-1.775,2.178-2.972l.339-.486.126-.179a17.419,17.419,0,0,0,1.759-2.9,4.231,4.231,0,0,0,.31-3.177.416.416,0,0,0-.388-.274.337.337,0,0,0-.3.184,14.937,14.937,0,0,0-.728,1.65c-.192.487-.39.991-.632,1.467a26.038,26.038,0,0,1-1.7,2.755l-.054.08-.36.533c-.541.8-1.17,1.754-1.744,2.71l-.383.635A14.24,14.24,0,0,0,7.086,15a3.806,3.806,0,0,0-.891-.1,4.52,4.52,0,0,0-1.123.147,5.678,5.678,0,0,0-1.081.4A6.9,6.9,0,0,0,2.135,16.8a7.052,7.052,0,0,0-1.018,1.325,7.776,7.776,0,0,0-.7,1.525,8.188,8.188,0,0,0-.387,3.311,4.774,4.774,0,0,0,1.3,3.109c.091.089.187.172.268.242a.155.155,0,0,0-.073.074,8.719,8.719,0,0,0-.564,2.167,21.127,21.127,0,0,0-.174,2.245,41.326,41.326,0,0,0,.1,4.511,38.86,38.86,0,0,0,1.494,8.134A25.456,25.456,0,0,0,4.8,49.1a17.557,17.557,0,0,0,3.949,4.7,16.121,16.121,0,0,0,5.795,2.959,21.674,21.674,0,0,0,3.223.662,25.557,25.557,0,0,0,3.269.206h.177a28.277,28.277,0,0,0,11.909-2.747,26.545,26.545,0,0,0,5.192-3.247,23.793,23.793,0,0,0,4.235-4.385l.146-.2c.009-.012.154-.227.188-.289.082-.146.17-.291.256-.431h0c.126-.205.256-.417.364-.636a6.188,6.188,0,0,0,.3-.791c.021-.063.044-.134.067-.2l.034-.1c.273-.782.519-1.606.75-2.519.416-1.65.74-3.317,1.062-5.022.56-2.972,1.034-6.027,1.409-9.079.37-3.007.652-6.086.839-9.149l.074-1.229a22.218,22.218,0,0,0-.011-3.824,12.47,12.47,0,0,0-.438-2.155,13.849,13.849,0,0,0-.8-2.05,16.718,16.718,0,0,0-2.233-3.432,7.765,7.765,0,0,0-1.576-1.523,7.782,7.782,0,0,0-1.6-.752A9.07,9.07,0,0,0,39.9,2.683a15.125,15.125,0,0,0-1.66-.917A16.508,16.508,0,0,0,35.375.719,21.728,21.728,0,0,0,32.38.151,21.231,21.231,0,0,0,29.856,0ZM7.617,18.733a.657.657,0,0,0-.4.121A.567.567,0,0,0,7,19.239a4.852,4.852,0,0,1-.737,1.987A1.208,1.208,0,0,1,6,21.1a2.084,2.084,0,0,1-.253-.2.869.869,0,0,0-.592-.3.724.724,0,0,0-.086.005.644.644,0,0,0-.631.631.835.835,0,0,0,.342.659,1.338,1.338,0,0,0,.711.225c-.09.081-.161.142-.229.2l-.085.068a4.72,4.72,0,0,1-1.111.628c-.027,0-.043-.01-.046-.03v-.011A.079.079,0,0,0,4,22.913a.094.094,0,0,0-.065-.028.076.076,0,0,0-.057.025.257.257,0,0,0-.08.23.478.478,0,0,0,.294.295.787.787,0,0,0,.327.064,3.16,3.16,0,0,0,1.336-.484L5.78,23a5.437,5.437,0,0,0,1.613-1.447,6.151,6.151,0,0,0,.975-1.938.62.62,0,0,0-.088-.569A.844.844,0,0,0,7.617,18.733Z" transform="translate(48.119 57.624) rotate(180)"/>
    </g>
    <path id="_Ink-3" data-name="ðŸ– Ink" d="M14.076,0a4.972,4.972,0,0,0-1.882.375,5.32,5.32,0,0,0-1.229.7,5.228,5.228,0,0,0-1,1.007,1.03,1.03,0,0,0-.209.8,1.151,1.151,0,0,0,.449.721,1.107,1.107,0,0,0,.658.229.957.957,0,0,0,.147-.011,1.016,1.016,0,0,0,.68-.449l.04-.055a3.51,3.51,0,0,1,1.287-1.078,2.926,2.926,0,0,1,1.276-.3,2.833,2.833,0,0,1,.316.018,3.328,3.328,0,0,1,1.405.493,6.576,6.576,0,0,1,1.19.991c.085.087.175.181.292.305a.463.463,0,0,0,.243.187.5.5,0,0,0,.158.025.536.536,0,0,0,.177-.03.531.531,0,0,0,.263-.2.489.489,0,0,0,.083-.322,2.956,2.956,0,0,0-.352-1.147,3.829,3.829,0,0,0-.752-.964A4.836,4.836,0,0,0,16.179.508,4.751,4.751,0,0,0,14.915.076,4.666,4.666,0,0,0,14.076,0ZM15.4,7.488h0a4.557,4.557,0,0,0-1.622.326,8.2,8.2,0,0,0-1.907,1.08.731.731,0,0,0-.266.422.873.873,0,0,0,.038.474,1.079,1.079,0,0,0,.321.463.783.783,0,0,0,.5.195.711.711,0,0,0,.387-.119l.129-.1h0A10.328,10.328,0,0,1,14.176,9.4a2.946,2.946,0,0,1,1.431-.456,1.548,1.548,0,0,1,.6.119,1.69,1.69,0,0,1,.563.4A1.721,1.721,0,0,1,17.1,10.85a2.619,2.619,0,0,1-.7,1.231,5.08,5.08,0,0,1-1.055.85.326.326,0,0,0-.089.375.49.49,0,0,0,.163.234.5.5,0,0,0,.312.1.665.665,0,0,0,.112-.01,3.543,3.543,0,0,0,1.244-.449,2.82,2.82,0,0,0,.837-.77,3.055,3.055,0,0,0,.534-2.044A3.362,3.362,0,0,0,18.19,9.3a3.129,3.129,0,0,0-.617-.922A2.951,2.951,0,0,0,15.4,7.488ZM4.847,14.8a1.086,1.086,0,0,0-1.052.964A7.8,7.8,0,0,0,3.836,17.8c.025.2.05.4.068.623a1.217,1.217,0,0,0,.463.871,1.427,1.427,0,0,0,.877.308,1.082,1.082,0,0,0,.663-.208.98.98,0,0,0,.366-.65A5.45,5.45,0,0,0,5.7,15.376a1.08,1.08,0,0,0-.381-.441A.881.881,0,0,0,4.847,14.8Zm15.492.462a.931.931,0,0,0-.729.312,2.843,2.843,0,0,0-.445.754,3.28,3.28,0,0,0-.227.909,1.924,1.924,0,0,0,.526,1.653,1.09,1.09,0,0,0,.084.128,1.193,1.193,0,0,0,.917.527,1,1,0,0,0,.279-.041,1.341,1.341,0,0,0,.9-.78,2.754,2.754,0,0,0,.111-1.509,5.045,5.045,0,0,0-.459-1.424.925.925,0,0,0-.4-.391A1.2,1.2,0,0,0,20.339,15.261ZM.171,20.11A.169.169,0,0,0,.03,20.2a.188.188,0,0,0-.011.185A6.416,6.416,0,0,0,1.46,22.2a8.911,8.911,0,0,0,1.929,1.315,8.306,8.306,0,0,0,2.29.8l.245.043a5.972,5.972,0,0,0,1,.108,1.546,1.546,0,0,0,1.234-.459,1.044,1.044,0,0,0,.248-.743.68.68,0,0,0-.248-.486,1.9,1.9,0,0,0-1.3-.381c-.1,0-.209,0-.311.005h0c-.1,0-.211.005-.322.005s-.193,0-.279-.007A8.823,8.823,0,0,1,4,22.069a13.183,13.183,0,0,1-3.739-1.93A.161.161,0,0,0,.171,20.11Zm23.588.985h0l-.1.026a5.842,5.842,0,0,0-1.131.44l-.367.181a10.212,10.212,0,0,1-1.312.558,15.505,15.505,0,0,1-2.988.659,1.222,1.222,0,0,0-.6.227.9.9,0,0,0-.335.51.91.91,0,0,0,.1.764.974.974,0,0,0,.473.407,1.066,1.066,0,0,0,.4.077,1.19,1.19,0,0,0,.233-.023l.187-.038a13.391,13.391,0,0,0,3.227-1.046A6.526,6.526,0,0,0,22.97,22.9a4.135,4.135,0,0,0,1-1.294c.035-.27,0-.337-.034-.383l-.01-.013L23.92,21.2a.259.259,0,0,0-.16-.106Z" transform="translate(30.086 47.828) rotate(180)"/>
    <g id="MASK" transform="translate(3.108 30.428)">
      <path id="_Color" data-name="ðŸŽ¨ Color" d="M.025,6.78C.271,3.674,4.194,2.358,6.149,1.968,12.657.441,18.194,4.359,25.954,4.439a21.334,21.334,0,0,0,4.065-.394C35.3,2.846,40.582,1.572,45.768,0a1.054,1.054,0,0,1,.465,1.737A71.106,71.106,0,0,1,29.656,5.248a17.582,17.582,0,0,0,6.592,13.235c-6.01,6.632-20.026,8.814-28.274,5.332C3.916,22.6-.366,11.721.025,6.78" transform="translate(0.338 0.419)" fill="#fff"/>
      <path id="_Ink-4" data-name="ðŸ– Ink" d="M31.882,0h0L29.827.148A49.478,49.478,0,0,0,19.3,1.752a21.94,21.94,0,0,0-2.453.9,17.521,17.521,0,0,0-2.291,1.205,15.159,15.159,0,0,0-2.085,1.571,14.59,14.59,0,0,0-1.833,1.994l-.035-.03a1.117,1.117,0,0,0-.5.876,1.3,1.3,0,0,0,.434,1.054l.017-.027.026.039.009.013-.007.023a9.159,9.159,0,0,0,.7.641v0a16.065,16.065,0,0,1,2.308,2.364,16.288,16.288,0,0,1,1.781,2.784,15.677,15.677,0,0,1,1.169,3.083,14.571,14.571,0,0,1,.472,3.261.84.84,0,0,0-.2-.017,71.223,71.223,0,0,0-9.13,1.663c-2.14.5-3.965.982-5.278,1.4-1.555.5-2.363.9-2.4,1.185-.018.126.117.23.4.311,2.693-.909,5.081-1.605,7.3-2.129a.105.105,0,0,0,.051.013.078.078,0,0,0,.073-.042,72.166,72.166,0,0,1,9.192-1.51c0,.14-.009.288-.016.442-2.482.482-5.152,1.112-8.163,1.925-2.7.73-5.356,1.517-8.06,2.326-.067,0-.107.064-.105.161a.426.426,0,0,0,.42.415.529.529,0,0,0,.1-.009c1.758-.41,3.607-.914,5.565-1.448,2.6-.708,5.283-1.439,7.935-2,1.434-.3,2.719-.523,3.929-.678a29.461,29.461,0,0,1,3.759-.26h.073a18.078,18.078,0,0,1,3.507.5c1.149.267,2.3.616,3.417.953,1.177.356,2.394.724,3.609,1a17.18,17.18,0,0,0,3.715.46c.964-.018,1.82-.068,2.617-.152a18.492,18.492,0,0,0,2.694-.472,11.218,11.218,0,0,0,2.508-.958,7.343,7.343,0,0,0,2.056-1.611,17.439,17.439,0,0,0,.374-8.542,20.473,20.473,0,0,0-1.3-4.209A19.817,19.817,0,0,0,43.474,6.4a17.675,17.675,0,0,0-2.287-2.577A15.369,15.369,0,0,0,38.46,1.807,13.624,13.624,0,0,0,35.342.487,13.136,13.136,0,0,0,31.882,0ZM17.489,22.73a11.071,11.071,0,0,0,.159-3.838A14.008,14.008,0,0,0,16.6,15.143a17.144,17.144,0,0,0-1.977-3.418,17.775,17.775,0,0,0-2.631-2.85,39.594,39.594,0,0,1,3.7-2.9,17,17,0,0,1,3.27-1.758,30.861,30.861,0,0,1,8.267-1.643l.951-.113c1.389-.164,2.866-.327,4.309-.351a12.166,12.166,0,0,1,5.195,1.629,15.032,15.032,0,0,1,2.255,1.594,17.441,17.441,0,0,1,1.98,1.989,19.439,19.439,0,0,1,1.671,2.292,20.308,20.308,0,0,1,1.326,2.5,19.614,19.614,0,0,1,.948,2.62,17.458,17.458,0,0,1,.534,2.644l0,.193a18.506,18.506,0,0,1-.107,2.7,8.247,8.247,0,0,1-.726,2.587.63.63,0,0,0-.345.27,21.392,21.392,0,0,1-2.146.943,17.8,17.8,0,0,1-2.018.621,15.638,15.638,0,0,1-3.727.447,17.318,17.318,0,0,1-1.991-.117c-.614-.07-1.243-.172-1.924-.31-1.267-.257-2.534-.607-3.76-.946l-.141-.039c-1.182-.327-2.521-.7-3.908-.971a21.649,21.649,0,0,0-4.222-.441,18.574,18.574,0,0,0-3.9.413Zm7.288-6.707a9.173,9.173,0,0,0-1.617.145,9.925,9.925,0,0,0-1.589.427.089.089,0,0,0-.053.1.063.063,0,0,0,.064.056h.01a10.548,10.548,0,0,1,1.239-.073,11.22,11.22,0,0,1,2.941.4,8.177,8.177,0,0,1,2.179.878,10.818,10.818,0,0,0,1.6.724.479.479,0,0,0,.1.012.537.537,0,0,0,.459-.274.423.423,0,0,0-.019-.444,3.656,3.656,0,0,0-1.8-1.306,9.977,9.977,0,0,0-2.217-.547A9.328,9.328,0,0,0,24.777,16.022Zm20.232.966a5.312,5.312,0,0,0-1.4.2,7.027,7.027,0,0,0-1.39.551A6.566,6.566,0,0,0,41,18.554a4.3,4.3,0,0,0-.873.985.042.042,0,0,0,.011.032.071.071,0,0,0,.052.016A4.422,4.422,0,0,0,41.27,19.1c.069-.038.124-.068.153-.083a6.167,6.167,0,0,1,1.6-.653c.555-.148,1.134-.244,1.694-.338.386-.064.786-.131,1.173-.214a.375.375,0,0,0,0-.717A3.464,3.464,0,0,0,45.009,16.989Z" transform="translate(47.304 27.641) rotate(180)"/>
    </g>
    <path id="_Ink-5" data-name="ðŸ– Ink" d="M24.193,0h0a7.308,7.308,0,0,0-2.237.341,6.17,6.17,0,0,0-1.976,1.048,5.764,5.764,0,0,0-1.487,1.791,7.1,7.1,0,0,0-.77,2.571h-.054a2.26,2.26,0,0,0-1.24.408,3.1,3.1,0,0,0-.931.98c-.53-.034-1.093-.05-1.72-.05-1.09,0-2.226.051-3.326.1h-.019c-1.108.05-2.254.1-3.38.1a25.317,25.317,0,0,1-2.716-.13,14.661,14.661,0,0,1-2.6-.5.761.761,0,0,0-.715-.4,1.288,1.288,0,0,0-.673.2A.677.677,0,0,0,0,6.929.644.644,0,0,0,.345,7.5a3.839,3.839,0,0,0,1.38.5,17.3,17.3,0,0,0,2.645.448c.814.078,1.7.116,2.706.116,1.1,0,2.23-.045,3.318-.089h0c1.086-.044,2.208-.089,3.3-.089.776,0,1.468.023,2.115.069a13.641,13.641,0,0,1,2.472,2.014c.429.409.873.833,1.334,1.21a7.705,7.705,0,0,0,1.48.979,8.256,8.256,0,0,0,3.959,1.026,6.622,6.622,0,0,0,3.435-.9,5.544,5.544,0,0,0,1.387-1.19,6.108,6.108,0,0,0,1.007-1.736,9.082,9.082,0,0,0,3.368.593,11.626,11.626,0,0,0,2.088-.189,5.083,5.083,0,0,0,.79,1.332A6.284,6.284,0,0,0,38.2,12.941a7.347,7.347,0,0,0,3.046,1.771,6.257,6.257,0,0,0,1.732.253,4.89,4.89,0,0,0,3.716-1.626c.144-.015.2-.159.248-.263a.234.234,0,0,1,.053-.1,6.129,6.129,0,0,0,.425-.626,4.022,4.022,0,0,1,1.107-.6,4.334,4.334,0,0,0,.949-.487,1.4,1.4,0,0,0,.34-.357,1.251,1.251,0,0,0,.185-.5,1.173,1.173,0,0,0-.22-.961,3.293,3.293,0,0,0-.738-.637,3.224,3.224,0,0,1-.722-.622,1.059,1.059,0,0,0-.19-.35,10.475,10.475,0,0,0-.954-2.8,7.947,7.947,0,0,0-1.5-2.051,6.187,6.187,0,0,0-1.852-1.262,5.049,5.049,0,0,0-2.018-.43,4.68,4.68,0,0,0-1.886.4,5.322,5.322,0,0,0-1.706,1.21,7.426,7.426,0,0,0-1.367,2.06,11.71,11.71,0,0,0-.87,2.946,2.188,2.188,0,0,1-.724.417,2.41,2.41,0,0,1-.788.147,1.446,1.446,0,0,1-.2-.013,4.121,4.121,0,0,0-.934-.292A5.427,5.427,0,0,1,31.4,6.212a6.216,6.216,0,0,0-.737-2.64A6.327,6.327,0,0,0,29,1.622,7.452,7.452,0,0,0,26.735.414,8.016,8.016,0,0,0,24.193,0ZM25.63,11.843a7.072,7.072,0,0,1-3.15-.81,9.3,9.3,0,0,1-2.882-2.3,6.937,6.937,0,0,1-.644-3,4.331,4.331,0,0,1,1.559-3.236A5.052,5.052,0,0,1,21.6,1.8a6.024,6.024,0,0,1,2.576-.567,5.831,5.831,0,0,1,3.739,1.3,5.325,5.325,0,0,1,1.336,1.68,6.615,6.615,0,0,1,.669,2.409,7.086,7.086,0,0,1-.311,2.407,4.214,4.214,0,0,1-.969,1.64A4.082,4.082,0,0,1,25.63,11.843ZM42.8,13.4a3.726,3.726,0,0,1-1.4-.268,3.8,3.8,0,0,1-1.27-.847,11.168,11.168,0,0,1-1.906-2.936,5.454,5.454,0,0,1-.418-3.381,7.815,7.815,0,0,1,.765-1.389,5.5,5.5,0,0,1,.942-1.048,3.923,3.923,0,0,1,1.087-.662,3.258,3.258,0,0,1,1.2-.231,3.65,3.65,0,0,1,1.395.29,5.562,5.562,0,0,1,1.45.909,10.329,10.329,0,0,1,1.615,2.885v.13A8.55,8.55,0,0,1,46.783,9.8a7.774,7.774,0,0,1-.112.974,3.945,3.945,0,0,1-.634,1.083,4.2,4.2,0,0,1-.917.827,4.29,4.29,0,0,1-1.108.528A4.071,4.071,0,0,1,42.8,13.4Z" transform="translate(50.021 39.671) rotate(180)"/>
  </g>
</svg>
