<svg xmlns="http://www.w3.org/2000/svg" width="122.688" height="387.602" viewBox="0 0 122.688 387.602">
  <g id="doc-nurse-6" transform="translate(0)">
    <g id="BODY" transform="translate(0 56.955)">
      <path id="_Clothes" data-name="ðŸ‘• Clothes" d="M6.593,303.168c6.577-7.234,16.27-9.782,24.587-14.319l-.182-.47c.492-.28,1.063-.523,1.6-.769.1-.13.468-.451.576-.587-8.236-30.832-5.263-58.564-9.7-91.149-3.878-.2-8.434.174-12.212-1.166C5.984,180.723,6.6,167.936,8.045,153.071a.6.6,0,0,0-.2-.7C4.57,148.738,2.8,140,2.571,133.183c0,0,.035-.495.035-.495-.345-.257-.753-.617-1.073-.9-2.363-5.19-1.6-10.307-.332-16.142h0c6.607-29.02,8.454-61.152,19.586-88.527,3.024-7.107,9.722-10.372,17.311-10.384h.467c.376-.548.8-1.136,1.211-1.628a.452.452,0,0,1-.094-.209c-.154-.957.759-1.52,1.472-1.953a12.906,12.906,0,0,1,2.518-1.1,3.363,3.363,0,0,1,2.659-.166c.347.2.515.713.953.7.023,0,.047-.005.07-.007,1.294-2.7,1.3-5.632,3.472-7.968,2.453-2.378,5.429-4.543,9.1-4.39,2.637.239,8.382.408,9.725,3.27a9.612,9.612,0,0,1,2.182,5.446l.681-.062c.41.369,1.231,1.144,1.66,1.544l.049-.12a32.6,32.6,0,0,0,4.393,3.62c.736.242.1,1.234.148,1.817a60.366,60.366,0,0,1,9.255,2.59c7.188.993,13.094,3.576,16.253,8.192,9.891,23.651,10.6,64.74,6.631,96.053-.029.235.038.616-.236.718-.286,2.094-.509,4.237-.721,6.3-.464,3.319-1.3,6.619-2.048,9.831l-.229-.514c-.465.046-1.417.045-1.892.041,1.462,16.452,3.989,32.065,6.72,47.953a.347.347,0,0,1-.343.476,134.356,134.356,0,0,0-13.679,2.064c4.676,24.766,18.291,59.522,18.629,82.3.073,7.926,2.87,22.654-5.418,24.721,1.428,5.769,4.695,10.639,7.884,15.444,2.433,4.208,1.326,11.258-3.245,13.426-7.828,2.657-16.768,4.2-24.627,2.495a5.979,5.979,0,0,1-4.927-1.235c-7.9-6.991.934-18.723,4.706-26.162.877-1.355,2.445-3.475.928-5.152a2.633,2.633,0,0,1-1.4-.465c.416-.629.392-.485-.043-1.063-18.473-24.322-19.824-60.458-26.787-89.983l-1.794.131c-3.816,32.96,13.572,55.376-3.7,88.857-.57,1.954-2.324,1.858-3.74,2.38,10.1,3.625,5.585,18.2-3.625,19.837-10.293,2.625-21.011,5.1-31.234,4.865-2.758,0-5.517-.135-8.213-.378C.094,319.4-2.012,310.93,6.593,303.168" transform="translate(0.942 1.37)" fill="#8fa7df"/>
      <path id="_Skin" data-name="âœ‹ Skin" d="M8.193,0A12.331,12.331,0,0,0,5.706.215,3.663,3.663,0,0,0,3.974.983a3.563,3.563,0,0,0-.606,2.541h0c0,.248,0,.5-.007.747C2.227,6.371,2.072,8.8,1.923,11.149v0c-.025.393-.051.8-.081,1.193a24.151,24.151,0,0,1-.786,4.535C.424,19.766-.29,23.036.122,23.547a.17.17,0,0,0,.137.069.3.3,0,0,0,.136-.039,17.54,17.54,0,0,0,3.545.562c1.223.084,2.474.091,3.754.091h.637c1.47,0,2.79.009,4.051.123h.027a4.13,4.13,0,0,1,1.442.4h0a4.13,4.13,0,0,0,1.442.4,1.254,1.254,0,0,0,.585-.134,11.359,11.359,0,0,0,.88-1.4c1.048-1.775,2.8-4.745,4.153-5.878l.12-.11a14.634,14.634,0,0,0,1.382-1.454,9.535,9.535,0,0,0,1.1-1.646,6.718,6.718,0,0,0,.645-1.838,5.91,5.91,0,0,0,.025-2.032.791.791,0,0,0-.558-.53,3.085,3.085,0,0,0-1-.125c-.287,0-.594.018-.84.032l-.035,0c-.266.015-.518.03-.741.03a2.471,2.471,0,0,1-.46-.034,27.22,27.22,0,0,1-.086-3.046c.034-3.266.059-5.626-4.759-6.166L14.883.686C14.058.55,12.958.376,11.76.236A31.441,31.441,0,0,0,8.193,0ZM95.724,11.705c-.275,0-.534.276-.767.821a43.518,43.518,0,0,1-.328,4.393c-.175,1.456-.4,2.931-.624,4.358l0,.013c-.106.687-.216,1.4-.319,2.1a3.8,3.8,0,0,0-.1,1.3,2.266,2.266,0,0,0,.337.963,3.2,3.2,0,0,0,1.642,1.181,14.969,14.969,0,0,0,2.247.583c.3.062.586.121.864.185a.613.613,0,0,0,.47.2.769.769,0,0,0,.333-.076c.135.014.254.022.364.026.066-.011.1-.041.106-.084.006-.078-.093-.181-.179-.21a8.168,8.168,0,0,0-.1-2.346c-.157-1.31-.413-2.916-.723-4.522-.35-1.819-.743-3.506-1.136-4.878A13.494,13.494,0,0,0,96.469,12.3C96.209,11.905,95.958,11.706,95.724,11.705ZM49.145,137.464a32.025,32.025,0,0,0-4.154.279,35.713,35.713,0,0,0-4.073.781,31.868,31.868,0,0,0-7.18,2.72,1.41,1.41,0,0,0-.655.668,4.27,4.27,0,0,0-.374,1.117,16.68,16.68,0,0,0-.258,2.534h0c-.016.319-.029.595-.05.8-.107,1.128-.222,2.133-.353,3.074a5.469,5.469,0,0,0-.6,1.8,6.719,6.719,0,0,0-.122,1.16,2.4,2.4,0,0,0,.145.94.629.629,0,0,0,.5.421c.117.776.158,1.585.2,2.367s.08,1.592.2,2.368a7.661,7.661,0,0,0,.663,2.248,5.937,5.937,0,0,0,3.168,2.565,12.879,12.879,0,0,0,4.572.727,24.228,24.228,0,0,0,4.936-.549,23.041,23.041,0,0,0,4.095-1.25c3.664-1.426,4.232-5.052,4.781-8.559.164-1.046.333-2.128.584-3.111a6.044,6.044,0,0,0,2.313-1.073,4.31,4.31,0,0,0,.877-.911,3.727,3.727,0,0,0,.552-1.169c.529-1.479,1.028-3,1.511-4.465h0l.121-.368.033-.08a4.16,4.16,0,0,0,.249-.808,1.329,1.329,0,0,0-.052-.785.816.816,0,0,0-.5-.43,15.635,15.635,0,0,0-5.147-2.3A24.023,24.023,0,0,0,49.145,137.464Z" transform="translate(104.286 164.033) rotate(180)" fill="#694d3d"/>
      <path id="_Shoes" data-name="ðŸ‘Ÿ Shoes" d="M28.154,0a6.252,6.252,0,0,0-.633.033A107.035,107.035,0,0,0,16.569.618c-1.888.21-3.712.487-5.421.821A53.291,53.291,0,0,0,5.821,2.762a2.386,2.386,0,0,0-.635-.085,3.08,3.08,0,0,0-1.218.272,5.152,5.152,0,0,0-1.138.7A7.731,7.731,0,0,0,1.11,5.578,7.338,7.338,0,0,0,.426,7.017a7.646,7.646,0,0,0-.353,1.5,9.865,9.865,0,0,0,.109,3.07A19.807,19.807,0,0,0,2.407,17.4a57.4,57.4,0,0,1,2.827,5.554c.8,1.8,1.551,3.7,2.294,5.806a1.084,1.084,0,0,0-.152,1.017.672.672,0,0,0,.54.442,11.228,11.228,0,0,1,1.378.223,8.733,8.733,0,0,0,1.757.237c.073,0,.147,0,.218-.005,3.036.369,6.118.635,8.768.856.067,0,.136,0,.207,0a13.469,13.469,0,0,1,1.814.175l.039.005a14.283,14.283,0,0,0,1.924.18,3.181,3.181,0,0,0,2.359-.806.118.118,0,0,0,.069.021A.171.171,0,0,0,26.6,31c.416-1.01.914-2.017,1.4-2.99L28,28c.1-.212.213-.431.318-.645.78-1.744,1.738-3.45,2.665-5.1h0c.97-1.727,1.973-3.512,2.771-5.341A23.476,23.476,0,0,0,34.789,14.1a17.51,17.51,0,0,0,.608-2.974A11.331,11.331,0,0,0,35.4,8.806a13.245,13.245,0,0,0-.46-2.406,12.315,12.315,0,0,0-.909-2.285,9.569,9.569,0,0,0-1.341-1.959A6.76,6.76,0,0,0,30.676.588,5.631,5.631,0,0,0,28.154,0Zm80.5,8.772c-1.3,0-2.6.066-3.934.139l-.262.014c-1.159.064-2.254.125-3.194.125-.274,0-.52,0-.751-.015l-.843.037c-.712.03-1.436.059-2.136.087-4.145.165-8.431.336-12.6.875a55.739,55.739,0,0,0-6.187,1.132c-1.041.256-2.062.545-3.035.861-1.022.331-2.026.7-2.985,1.1a4.286,4.286,0,0,0-1.5-.251,7.391,7.391,0,0,0-2.761.6l-.227.089c-.207.08-.419.16-.625.238h0c-1.714.646-3.485,1.313-4.593,2.868a10.282,10.282,0,0,0-1.851,4.166,14.107,14.107,0,0,0-.29,2.3,16.135,16.135,0,0,0,.063,2.3l.036.35c.012.117.023.237.034.354v.008a14.208,14.208,0,0,0,.353,2.334,3.871,3.871,0,0,0,1.1,1.947,4.44,4.44,0,0,0,1.075,1.252,5.272,5.272,0,0,0,1.358.773,15.225,15.225,0,0,0,3.18.748,14.6,14.6,0,0,1,3.233.774,33.558,33.558,0,0,1,5.86,2.5c3.09,1.533,6.286,3.119,8.943,3.119a5.874,5.874,0,0,0,.92-.07,1.717,1.717,0,0,0,.382.556.6.6,0,0,0,.4.166,1.235,1.235,0,0,0,.823-.494,9.477,9.477,0,0,0,.771-1.008h0a7.719,7.719,0,0,1,.528-.7,11.624,11.624,0,0,1,1.486-1.025,16.144,16.144,0,0,1,1.6-.817c1.1-.49,2.275-.9,3.411-1.288s2.286-.789,3.382-1.274a16.759,16.759,0,0,0,1.6-.806,12.135,12.135,0,0,0,1.5-1.009l.253-.165.338-.219c.706-.456,1.435-.927,2.106-1.458a8.234,8.234,0,0,0,1.75-1.81l.386-.269a41.485,41.485,0,0,0,6.373-5.214,19.378,19.378,0,0,0,1.35-1.579,14.7,14.7,0,0,0,1.123-1.7,11.611,11.611,0,0,0,.831-1.821,9.909,9.909,0,0,0,.474-1.95,1.622,1.622,0,0,0,.312-.824,6.869,6.869,0,0,0-.244-1.732,5.034,5.034,0,0,0-.619-1.376,4.817,4.817,0,0,0-.942-1.058,5.963,5.963,0,0,0-1.214-.779,8.578,8.578,0,0,0-1.435-.538,12.989,12.989,0,0,0-1.6-.337A23.978,23.978,0,0,0,108.649,8.772Z" transform="translate(121.111 328.741) rotate(180)" fill="#fff"/>
      <path id="_Clothes-2" data-name="ðŸ‘• Clothes" d="M40.435,0a1.289,1.289,0,0,0-.541.125C37.509,1.229,34.939,2.3,32.255,3.3c-2.262.843-4.585,1.614-6.9,2.291s-4.687,1.278-7.044,1.786c-2.414.52-4.839.951-7.209,1.281-1.217.17-2.459.289-3.661.405-1.183.114-2.406.232-3.6.4a.823.823,0,0,0-.426.182,2.309,2.309,0,0,0-1.7.634l-.248.042-.124.022a.055.055,0,0,0-.049.059.08.08,0,0,0,.067.076l.134.013h0l.056.005a1.861,1.861,0,0,0-.231.527A2.723,2.723,0,0,0,1.373,12.5a7.456,7.456,0,0,0,.589,1.384,9.917,9.917,0,0,0,.8,1.274c.1.609.21,1.259.31,1.922.248,1.626.5,3.292.74,4.952.771,5.254,1.556,11,2.4,17.576.133,1.032.264,2.082.39,3.1v0c.4,3.23.819,6.57,1.356,9.834-.04.849-.093,1.759-.166,2.864a2.448,2.448,0,0,1-.4,1.277c-.072.128-.154.274-.245.456l-.055,0a5.822,5.822,0,0,1-.729-.084h0l-.031,0h0a6.194,6.194,0,0,0-.8-.088.9.9,0,0,0-.15.011.424.424,0,0,0-.1-.012c-.377,0-.482.6-.592,1.229a7.606,7.606,0,0,1-.158.755,94.242,94.242,0,0,0-2.67,13.044c-.287,2.061-.539,4.232-.772,6.636C.9,80.591.725,82.7.537,85.257a224.772,224.772,0,0,0-.411,23.409c.207,6.837.668,14.265,1.451,23.376l.041.471c.15,1.734.292,3.5.43,5.2.458,5.681.931,11.554,1.77,17.277.269,1.836.562,3.429.9,4.872A35.357,35.357,0,0,0,6.136,164.6l.122.316a18.617,18.617,0,0,0,.9,2.029A15.559,15.559,0,0,0,8.312,168.7l.082.113a18.646,18.646,0,0,0,1.55,1.874,16.991,16.991,0,0,0,1.787,1.636.173.173,0,0,0,.049.027,16.274,16.274,0,0,0,1.722,1.437c3.965,2.88,8.829,3.731,13.532,4.554l.47.082a3.609,3.609,0,0,1,1.489.724,3.8,3.8,0,0,0,1.434.72,16.939,16.939,0,0,1,3.011.832,4.921,4.921,0,0,1-.093.7v0a6.714,6.714,0,0,0-.143,1.2,1.249,1.249,0,0,0,.436.736,2.915,2.915,0,0,0,.712.383,3.4,3.4,0,0,1,.907.508c.613.518,1.229.965,1.825,1.4.476.346.968.7,1.465,1.1a2.477,2.477,0,0,1,.331.395c.195.262.4.533.539.533a.1.1,0,0,0,.052-.014v0c.058-.113.568-1.106.6-1.23a96.476,96.476,0,0,0,2.55-13.075c.371-2.8,1-8.679,1.615-14.36v-.012c.561-5.213,1.091-10.136,1.318-11.707.686-4.762,1.3-9.67,1.83-14.588.513-4.78.958-9.708,1.323-14.647a32.847,32.847,0,0,0,.726-5.331l.012-.207,0-.045c.077-1.361.157-2.769.112-4.169.352-2.473.655-5.1.9-7.809.431-4.734.713-9.678.838-14.695.118-4.74.1-9.693-.053-14.72-.165-5.392-.433-10.2-.821-14.689-.187-2.17-.4-4.367-.646-6.53l-.212-1.864a42.821,42.821,0,0,0-.841-5.217c-.048-.833-.076-1.682-.1-2.5h0v0c-.028-.851-.058-1.732-.109-2.59-.184-3.079-.455-6.221-.807-9.339-.346-3.064-.779-6.188-1.287-9.283-.477-2.905-1.037-5.929-1.712-9.244-.265-1.3-.545-2.609-.832-3.886l-.146-.646c-.083-.363-.155-.731-.232-1.121a13,13,0,0,0-1-3.413.665.665,0,0,0-.611-.367.821.821,0,0,0-.552.214L41.331.546h0c-.006-.013-.013-.027-.02-.04a.985.985,0,0,0-.382-.383A1.012,1.012,0,0,0,40.435,0Zm-26.8,58c-.5,0-.941-.016-1.355-.049a17.817,17.817,0,0,1-2.106-.332A3.821,3.821,0,0,1,8.8,57.175a.044.044,0,0,1-.009-.037c.011-.039.021-.079.031-.117h0l.012-.047h0a.074.074,0,0,0,.078-.072l0-.24a23.359,23.359,0,0,0,.438-4.208c.014-.309.028-.629.044-.94l.007-.149L9.6,49.65a75.23,75.23,0,0,1,1.387-8.778c.307-1.3.612-2.426.931-3.441a28.261,28.261,0,0,1,1.26-3.326c.139-.3.286-.6.436-.889l.639-.01.319,0c.449,0,.9-.012,1.345-.02h.007c.556-.011,1.13-.022,1.7-.022.264,0,.507,0,.742.007a56.052,56.052,0,0,1,7.367.622c1.16.179,2.339.4,3.5.656.175,1.424.353,2.857.529,4.259l.267,2.129a5.49,5.49,0,0,0,.47,1.817,2.387,2.387,0,0,0,.525.689,2.7,2.7,0,0,0,.836.5,5.451,5.451,0,0,0,1.873.354l.032.3a10.343,10.343,0,0,1,0,2.444,6.079,6.079,0,0,1-.774,2.288A14.166,14.166,0,0,1,30.7,52.005l-1.01,1.012c-1.685,1.7-3.221,3.419-3.51,5.846a4.172,4.172,0,0,1-.333.275,1.307,1.307,0,0,0-.518.648c-.724-.2-1.486-.448-2.223-.692a28.439,28.439,0,0,0-3.377-.968,13.32,13.32,0,0,0-2.583-.215c-.584,0-1.179.022-1.755.044h0C14.818,57.977,14.224,58,13.635,58ZM36.784,38.126c-.02,0-.043-.03-.062-.081l-.006-.015a.886.886,0,0,0-.054-.122c.117.054.155.146.145.194,0,.015-.012.025-.022.025Zm51.963-36.9c-.647,0-1.243.02-1.825.061a23.983,23.983,0,0,0-2.534.321l-.221.04a7.4,7.4,0,0,0-1.1.27,5.7,5.7,0,0,0-.589.258,5.976,5.976,0,0,1-.565.249.2.2,0,0,0-.122.108.231.231,0,0,0,.006.183,6.572,6.572,0,0,0,.316.645.04.04,0,0,0,.035.021.043.043,0,0,0,.044-.043c0-.165-.006-.337-.02-.527h.147c.006.207,0,.416-.007.618v0a7.1,7.1,0,0,0,.01.894l.092.978c.017.183.033.343.047.489.078.787.207,1.586.332,2.358l0,.021c.029.177.058.36.087.539.325,2.052.6,4.143.81,6.214.311,3.034.53,6.362.669,10.173.124,3.4.173,6.854.221,10.2.008.532.016,1.135.025,1.721l.02,1.291c.046,2.923.109,6.323.278,9.681-.021.29-.042.581-.062.861-.017.244-.032.447-.047.657-.129,1.784-.234,3.6-.335,5.356v0c-.046.8-.1,1.715-.153,2.6-.118,1.93-.239,3.892-.356,5.79l-.006.1v.014c-.447,7.244-.908,14.735-1.292,22.107-.08,1.53-.15,3.034-.21,4.472-.377,1.853-.7,3.893-1,6.237-.262,2.089-.476,4.221-.682,6.283v0l-.02.2-.037.366c-.836,8.334-1.634,17.05-2.373,25.907-.293,3.515-.581,7.09-.858,10.547v.015q-.1,1.2-.193,2.4c-.161,2-.3,3.762-.416,5.377-.108.584-.214,1.156-.328,1.734-.55,2.8-1.11,5.655-1.653,8.413l-.043.217,0,.019c-.633,3.222-1.288,6.554-1.931,9.831a56.744,56.744,0,0,1-2.048,6.72c-.858,2.47-1.75,4.85-2.045,5.523a14.614,14.614,0,0,1-.94,1.484,14.931,14.931,0,0,1-1.255,1.622l-.032.032c-.159.163-.511.577-.343.894a.288.288,0,0,0,.169.147.756.756,0,0,0,.134.621.508.508,0,0,0,.406.194.708.708,0,0,0,.216-.036,20.844,20.844,0,0,0,2.139-.812,14.506,14.506,0,0,0,1.924-1.032,11.974,11.974,0,0,0,3.215-3.014,19.981,19.981,0,0,0,4.169-.412,21.76,21.76,0,0,0,4.53-1.487,12.825,12.825,0,0,0,1.891-1.053,9.052,9.052,0,0,0,1.643-1.419,8.074,8.074,0,0,0,.728-.954,10.157,10.157,0,0,0,1.834-1.676,15.7,15.7,0,0,0,1.512-2.09A31.736,31.736,0,0,0,93,166.118a74.68,74.68,0,0,0,2.705-8.726h0l0-.014c.078-.295.159-.6.239-.9.952-3.563,1.844-7.27,2.652-11.02.756-3.509,1.443-7.087,2.04-10.636l.475-2.85c.395-2.379.8-4.915,1.052-7.464.433-1.531.99-3.557,1.464-5.658,1.073-4.753,1.922-8.7,2.671-12.426.9-4.494,1.645-8.586,2.266-12.509.656-4.146,1.239-8.367,1.733-12.547s.908-8.413,1.237-12.609a.772.772,0,0,0-.093-.459.671.671,0,0,0-.3-.267,5.423,5.423,0,0,0-.133-.7,6.771,6.771,0,0,0-1.236-2.442,8.673,8.673,0,0,0-2-1.849,18.834,18.834,0,0,0-2.435-1.365c-.838-.4-1.711-.763-2.555-1.115l-.539-.225a72.109,72.109,0,0,0,1.3-7.819c.473-4.073.782-8.268.919-12.471.134-4.088.108-8.3-.075-12.506-.176-4.036-.521-8.226-1.026-12.456-.254-2.128-.529-4.189-.819-6.126-.136-.911-.282-1.831-.433-2.733l-.092-.546c-.024-.141-.047-.284-.07-.422v0a7.754,7.754,0,0,0-.718-2.549.942.942,0,0,0-.84-.541,1.119,1.119,0,0,0-.649.222,7.341,7.341,0,0,0-2.007-.38c-.205-.019-.4-.038-.563-.06-1.735-.235-3.433-.456-5.126-.583C90.753,1.267,89.7,1.222,88.747,1.222Z" transform="translate(113.618 197.718) rotate(180)" fill="#fff"/>
      <path id="_Clothes-3" data-name="ðŸ‘• Clothes" d="M40.971,0,39.816,9.284l-3.035,29.5L33.649,66.45l-1.237,38.231v5.695h-4.4c-1.672,0-15.213,2.144-15.213,2.144L0,110.376,3.99,63.269,7.515,29.055S12,1.721,12.8,1.067s2.768,2.852,10.4,2.852S40.971,0,40.971,0Z" transform="translate(29.828 22.617)" fill="#9fd8e5"/>
      <path id="_Ink" data-name="ðŸ– Ink" d="M24.637,0c-.374,0-.758.009-1.144.026a62.152,62.152,0,0,0-6.512.5c-2.086.268-4.252.647-6.438,1.127l-.757.171a22.535,22.535,0,0,0-4.755,1.5,8.261,8.261,0,0,0-2.817,2.3A9.987,9.987,0,0,0,.539,8.846a12.255,12.255,0,0,0-.491,4.7,12.045,12.045,0,0,0,.438,2.328,10.738,10.738,0,0,0,.89,2.153A26.542,26.542,0,0,0,3.3,21.007c.413.581.839,1.181,1.228,1.791a38.179,38.179,0,0,1,2.527,4.658,39.238,39.238,0,0,1,1.874,4.974l-.142.049a.771.771,0,0,0-.268-.048.921.921,0,0,0-.437.117A7.533,7.533,0,0,0,6.24,34.159,9.762,9.762,0,0,0,4.914,36.3a14.787,14.787,0,0,0-.886,2.551A23.176,23.176,0,0,0,3.506,41.7a43.772,43.772,0,0,0-.259,6.138c.038,2.069.167,4.138.282,5.964.091,1.456.177,2.832.2,4,.175,2.253.4,4.564.669,6.869.262,2.24.573,4.539.925,6.833.67,4.37,1.521,8.931,2.528,13.554,1.791,8.222,4.126,16.929,7.139,26.619a125.563,125.563,0,0,1,4.226,13.664c1.04,4.122,1.99,8.561,2.99,13.969-2.133.419-4.262.787-6.327,1.093-2.145.319-4.289.581-6.372.779a1.285,1.285,0,0,0-.926.471,1.2,1.2,0,0,0-.222.484,1.614,1.614,0,0,0-.01.6c.467,2.916.963,5.883,1.429,8.655l.421,2.5c.889,5.294,1.912,11.538,2.754,17.7.891,6.524,1.5,12.353,1.863,17.821a1.548,1.548,0,0,0,.025.194c-.068,0-.133,0-.194.005a.883.883,0,0,0-.356-.4,1,1,0,0,0-.507-.142.8.8,0,0,0-.483.153.835.835,0,0,0-.306.488c-.754,3.047-1.436,6.2-2.028,9.368l-.163,1.579c-.148,1.433-.324,3.1-.537,4.732l-.039.292a.7.7,0,0,0-.249.508.349.349,0,0,1-.095.013.422.422,0,0,1-.1-.012c-.474,3.238-.873,6.581-1.185,9.937-.3,3.245-.534,6.6-.687,9.97-.148,3.248-.228,6.61-.239,9.991-.01,3.245.044,6.61.161,10,.111,3.235.283,6.6.511,10,.216,3.218.488,6.576.811,9.98.587,6.194,1.348,12.692,2.327,19.863.179,1.925.4,3.637.665,5.236a43.251,43.251,0,0,0,1.035,4.683,28.743,28.743,0,0,0,1.5,4.122,20.935,20.935,0,0,0,2.059,3.553,18.264,18.264,0,0,0,1.269,1.56,17.753,17.753,0,0,0,1.444,1.414,18.3,18.3,0,0,0,1.631,1.268,19.846,19.846,0,0,0,1.829,1.12,24.435,24.435,0,0,0,4.3,1.792,35.78,35.78,0,0,0,5.238,1.188c1.035.207,2.093.391,3.117.569h0a60.506,60.506,0,0,1,6.484,1.374l-.014.1c-.016.122-.04.258-.066.4v0a3.07,3.07,0,0,0-.048,1.4c.1.312.458.506.769.678h0a3.575,3.575,0,0,1,.342.2c.533.381,1.065.8,1.625,1.275.533.454,1.06.933,1.568,1.4s1.045.951,1.585,1.41a.055.055,0,0,0,.036.013.063.063,0,0,0,.057-.035c.282.264.565.524.842.772a.538.538,0,0,0,.355.133.444.444,0,0,0,.405-.231c.227.661.426,1.346.608,2.1.126.518.254,1.077.343,1.651.025.162.044.332.061.5v0a4.664,4.664,0,0,0,.219,1.138.145.145,0,0,0,.134.1.149.149,0,0,0,.137-.1,7.58,7.58,0,0,0,.072-3.407l-.01-.081a29.615,29.615,0,0,0-.758-3.563l-.016-.023a1,1,0,0,0-.345-.328c.638-3.074,1.239-6.3,1.787-9.594.09-.464.18-.944.269-1.428a5.4,5.4,0,0,1,.688-.27h0c.132-.045.269-.092.4-.144.367-.143.734-.3,1.09-.457h0c.2-.085.44-.191.672-.288a37.313,37.313,0,0,1,3.557-1.284,31.027,31.027,0,0,1,3.642-.868,28.714,28.714,0,0,1,3.719-.4c.439-.018.884-.028,1.321-.028a29.091,29.091,0,0,1,6.11.635,23.541,23.541,0,0,1,3.445.973,4.987,4.987,0,0,1,1.342.719,4.355,4.355,0,0,1,.5.483,3.974,3.974,0,0,0,.547.521.405.405,0,0,0,.051.032c-.224.658-.459,1.321-.7,1.971-.128.281-.255.569-.379.847v0h0c-.218.491-.443,1-.677,1.49-.337.706-.694,1.441-1.092,2.247a.371.371,0,0,0-.1.024,5.664,5.664,0,0,0-1.871,1.25,5.862,5.862,0,0,0-1.261,1.892,7.7,7.7,0,0,0-.585,2.529l-.026.463a7.059,7.059,0,0,0,.006,1.044,1.994,1.994,0,0,0,.275.913.051.051,0,0,0,.043.024.049.049,0,0,0,.042-.024,3.237,3.237,0,0,0,.342-1.365,6.453,6.453,0,0,1,.1-.708l.052-.229a9.708,9.708,0,0,1,.6-1.91,5.86,5.86,0,0,1,1.424-1.982l-.221.441-.289.573a.5.5,0,0,0-.026.373.341.341,0,0,0,.174.2,2.49,2.49,0,0,0,1.084.264,2.29,2.29,0,0,0,1.066-.272H77.2a4.826,4.826,0,0,0,1.851-.357,8.969,8.969,0,0,0,3.368-2.544,18.905,18.905,0,0,0,1.24-1.6,24.936,24.936,0,0,0,5.6-.633A19.639,19.639,0,0,0,94.35,310.9a16.867,16.867,0,0,0,4.273-3.381,17.139,17.139,0,0,0,1.736-2.269,18.779,18.779,0,0,0,1.419-2.675c.527-1.083,1.039-2.218,1.522-3.375.462-1.106.911-2.266,1.337-3.45.791-2.2,1.516-4.512,2.216-7.073,1.315-4.8,2.343-9.788,3.284-14.481,2.066-10.776,4.1-21.745,6.067-32.354l0-.022c1.668-9,3.394-18.305,5.133-27.465l.073-.014.011,0,.113-.022a.55.55,0,0,0,.465-.5.77.77,0,0,0-.091-.438.693.693,0,0,0-.328-.311l.243-1.281.055-.274c.257-1.3.445-2.438.575-3.482a27.548,27.548,0,0,0,.23-3.592,17.323,17.323,0,0,0-.358-3.512,12.776,12.776,0,0,0-.476-1.667,11.012,11.012,0,0,0-.714-1.575.611.611,0,0,0,.061-.36.618.618,0,0,0-.2-.36c-.284-.271-.593-.541-.919-.8a7.231,7.231,0,0,0-.2-2.282,9.848,9.848,0,0,0-.085-1.348v0c-.025-.226-.048-.44-.061-.635-.141-1.431-.325-2.8-.548-4.059a38.1,38.1,0,0,0-.952-4.121,26.292,26.292,0,0,0-1.485-3.926,18.166,18.166,0,0,0-2.146-3.472c.6-5.2.92-9.822.985-14.12.037-2.429-.009-4.833-.137-7.147-.133-2.417-.36-4.81-.673-7.114-.372-2.735-.772-4.964-1.258-7.013-.287-1.212-.61-2.37-.957-3.441a33.337,33.337,0,0,0-1.261-3.3.847.847,0,0,0-.374-.42.879.879,0,0,0-.618-.445,81.535,81.535,0,0,0-11.238-.845c-.62-5.457-1.167-11.177-1.672-17.487-.421-5.251-.806-10.817-1.214-17.518l-.048-.8c-.155-2.54-.3-5.12-.434-7.616v-.012c-.212-3.85-.431-7.831-.7-11.744-.3-4.4-.642-8.231-1.033-11.725-.47-4.195-1.023-7.995-1.693-11.618-.363-1.964-.765-3.9-1.2-5.745-.452-1.939-.952-3.854-1.484-5.69l.073-.072.365-.164a11.786,11.786,0,0,0,1.422-.731.579.579,0,0,0,.264-.351.677.677,0,0,0-.033-.407A30.308,30.308,0,0,1,97.9,37.926h0l.22-.082a50.456,50.456,0,0,0,9.386-4.578,49.241,49.241,0,0,0,8.258-6.464,23.356,23.356,0,0,0,3.01-3.339,15.24,15.24,0,0,0,1.863-3.292,9.63,9.63,0,0,0,.715-3.107,6.708,6.708,0,0,0-.434-2.782,6.336,6.336,0,0,0-1.369-2.108,8.292,8.292,0,0,0-2.3-1.633,13.091,13.091,0,0,0-3.224-1.058,21.579,21.579,0,0,0-4.152-.381c-2.7-.251-5.46-.379-8.217-.379a100.635,100.635,0,0,0-27.494,3.962c-.119.034-.241.066-.376.1a6.029,6.029,0,0,0-1.517.549,10.375,10.375,0,0,0-2.043.275A12.918,12.918,0,0,0,66.3,15.244a13.618,13.618,0,0,0-3.224,2.8,12.711,12.711,0,0,0-2.168,3.674,11.52,11.52,0,0,0-.757,4.268,12,12,0,0,0,1.007,4.694A8.216,8.216,0,0,0,62.435,32.7a5.96,5.96,0,0,0,1.835,1.44,2.546,2.546,0,0,0-1.249.838,5.079,5.079,0,0,0-.77,1.335c-.393.779-.774,1.57-1.134,2.353A70.886,70.886,0,0,0,58.1,46.356a78.3,78.3,0,0,0-2.143,7.995c-.412,1.617-.755,3.293-1.019,4.983-.251,1.61-.44,3.285-.559,4.979a75.055,75.055,0,0,0,0,9.951c.182,2.975.525,6.228,1.048,9.944.466,3.315,1.029,6.685,1.573,9.944h0c.757,4.532,1.54,9.219,2.075,13.833.057,2.528.064,4.638.022,6.641-.044,2.149-.155,4.451-.337,7.037-.045.635-.1,1.28-.15,1.9v0h0c-.027.328-.056.668-.082,1l-.056.727c0,.06-.01.125-.017.2-.883-3.692-1.747-7.781-2.643-12.5-.8-4.21-1.548-8.526-2.272-12.7v0c-.983-5.661-2-11.515-3.157-17.218-.623-3.071-1.237-5.853-1.875-8.5-.716-2.977-1.445-5.713-2.227-8.365-.841-2.849-1.748-5.6-2.7-8.174-1.015-2.756-2.12-5.424-3.283-7.931-1.23-2.652-2.571-5.222-3.986-7.637a81.835,81.835,0,0,0-4.806-7.292.853.853,0,0,0,.093-.854,1.561,1.561,0,0,0-.735-.666,3.312,3.312,0,0,0-1.019-.319,1.281,1.281,0,0,1-.234-.768,2.433,2.433,0,0,1,.182-.855,9.164,9.164,0,0,1,.922-1.649v0c.125-.19.243-.37.333-.523.756-1.286,1.527-2.687,2.5-4.545l.554-1.022c.862-1.594,1.853-3.457,2.707-5.38a27.856,27.856,0,0,0,1.944-5.816,15.278,15.278,0,0,0,.31-2.89,10.834,10.834,0,0,0-.333-2.781,9.177,9.177,0,0,0-1.126-2.6,10.328,10.328,0,0,0-2.069-2.344A7.946,7.946,0,0,0,33.487,1.03,6.608,6.608,0,0,0,31.187.6a5.528,5.528,0,0,0-1.1.109,18.518,18.518,0,0,0-2.7-.541A22.08,22.08,0,0,0,24.637,0ZM10.251,32.189h0c-.335-.09-.632-.178-.905-.27A19.469,19.469,0,0,0,7.529,24.18,35.515,35.515,0,0,0,5.7,20.635c-.728-1.248-1.516-2.468-2.121-3.391a9.091,9.091,0,0,1-1.128-4.037A9.955,9.955,0,0,1,2.57,11.07a9,9,0,0,1,.584-2.023A7.117,7.117,0,0,1,4.828,6.6,6.044,6.044,0,0,1,7.479,5.151a40.1,40.1,0,0,1,4.562-1.216c1.447-.3,2.965-.545,4.642-.748,3.114-.378,6.306-.549,9.392-.716l.029,0c.885-.048,1.8-.1,2.7-.15a1.09,1.09,0,0,0,.537.7,1.78,1.78,0,0,0,.882.223,1.894,1.894,0,0,0,.231-.014,4.075,4.075,0,0,1,.7-.06,4.76,4.76,0,0,1,2.312.632,5.6,5.6,0,0,1,1.811,1.624,8.855,8.855,0,0,1,.9,1.925,9.044,9.044,0,0,1,.407,1.994,10.977,10.977,0,0,1-.015,2.046,14.921,14.921,0,0,1-.362,2.082,42.269,42.269,0,0,1-3.445,8.359h0a45.04,45.04,0,0,0-2.706,6.158l-.07.168c-.053.125-.11.256-.17.4a13.385,13.385,0,0,0-.861,2.4,3.913,3.913,0,0,0-.094,1.22,2.017,2.017,0,0,0,.394,1.047,20.968,20.968,0,0,0-2.813-.423c-.861-.074-1.79-.11-2.838-.11-1.188,0-2.4.046-3.566.091h0c-.417.016-.848.032-1.277.047a22.621,22.621,0,0,1-1.371-3.31c-.34-1.025-.65-2.157-.95-3.46a4.911,4.911,0,0,0-.518-1.7c-.2-.34-.431-.527-.653-.527a.446.446,0,0,0-.368.222,1.648,1.648,0,0,0-.2.949,4.768,4.768,0,0,0,.361,1.566,20.236,20.236,0,0,0,3.466,6.266c-.519.016-1,.027-1.457.032-.6-.105-1.224-.178-1.823-.249l-.026,0-.607-.073c-.254-.032-.513-.066-.763-.1l-.021,0c-.774-.1-1.575-.209-2.368-.255-.21-.012-.415-.018-.608-.018s-.407.007-.6.02ZM72.005,16.584a.692.692,0,0,0,.6-.285.807.807,0,0,0-.006-.8l.014-.025.007-.011,0,0c.151-.044.318-.079.5-.115.594-.122,1.268-.259,1.462-.834,2.2-.6,4.5-1.134,6.813-1.577,2.236-.428,4.56-.786,6.907-1.066,2.259-.269,4.6-.472,6.965-.6,2.268-.126,4.618-.19,6.985-.19.367,0,.735,0,1.1,0,.862.075,1.96.093,3.124.112,1.139.019,2.429.04,3.7.118a25.648,25.648,0,0,1,3.723.464,13.078,13.078,0,0,1,1.681.467,8.125,8.125,0,0,1,1.46.679,5.3,5.3,0,0,1,1.163.934,4.2,4.2,0,0,1,.791,1.23,6.7,6.7,0,0,1,.227,1.945A7.3,7.3,0,0,1,118.9,18.9a9.6,9.6,0,0,1-.754,1.786,13.782,13.782,0,0,1-1.1,1.694,36.992,36.992,0,0,1-5.8,5.7h0c-.23.193-.467.394-.7.59a47.826,47.826,0,0,1-7.746,5.026c-1.132.588-2.348,1.129-3.525,1.653h0c-1.336.594-2.717,1.209-4.016,1.908a.358.358,0,0,0-.068-.019,2.8,2.8,0,0,0-.479-.041,3.958,3.958,0,0,0-1.845.525,14.513,14.513,0,0,0-1.69,1.107c-.272.2-.53.383-.787.554a10.017,10.017,0,0,1-2.283,1.177.772.772,0,0,0-.228-.08c.033-.034.032-.058.026-.071a.059.059,0,0,0-.055-.029.052.052,0,0,0-.048.024c-.006.013-.008.036.019.073a1.169,1.169,0,0,0-.341.1c-.685-.143-1.388-.3-2.089-.463l-.1-.032a1.245,1.245,0,0,0-.548-.656,25.186,25.186,0,0,0,2.7-2.9l.11-.142c.2-.258.407-.512.61-.758h0a16.086,16.086,0,0,0,.99-1.286,5.484,5.484,0,0,0,.714-1.467.494.494,0,0,0-.077-.447.567.567,0,0,0-.445-.226.5.5,0,0,0-.249.066A7.9,7.9,0,0,0,86.573,35.1v0c-.088.138-.178.28-.268.418a16.831,16.831,0,0,0-1.812,3.806c-2.489-.1-4.912-1.486-7.256-2.823-1.1-.627-2.136-1.218-3.178-1.685a14.165,14.165,0,0,1-1.122-2.487,17.433,17.433,0,0,1-.666-2.629,27.5,27.5,0,0,1-.336-5.446c-.172-.339-.354-.511-.544-.511a.45.45,0,0,0-.33.184,1.786,1.786,0,0,0-.289.516,6.749,6.749,0,0,0-.371,1.937,11.918,11.918,0,0,0,.139,2.655,10.8,10.8,0,0,0,.87,2.853,8.148,8.148,0,0,0,1.823,2.531l-.159-.066a15.581,15.581,0,0,0-2.372-.777,10.78,10.78,0,0,0-2.451-.3,8.3,8.3,0,0,0-2.858.493.4.4,0,0,0,0-.3.07.07,0,0,0-.061-.037.143.143,0,0,0-.079.031.252.252,0,0,1-.2.1.762.762,0,0,1-.481-.311,4.879,4.879,0,0,1-.51-.705,12.3,12.3,0,0,1-.658-1.23,11.311,11.311,0,0,1-.86-2.431,10.614,10.614,0,0,1,.792-6.983,11,11,0,0,1,1.3-2.076,11.163,11.163,0,0,1,1.749-1.754,11.288,11.288,0,0,1,2.141-1.351,11.563,11.563,0,0,1,2.479-.865,1.139,1.139,0,0,0,.429.54A1.051,1.051,0,0,0,72.005,16.584ZM23.859,138.975c-.21-1.377-.423-2.725-.633-4-.273-1.68-.608-3.379-1.022-5.192-.369-1.616-.795-3.287-1.3-5.111-.939-3.387-2.02-6.8-3.066-10.093l0-.006c-.591-1.863-1.2-3.79-1.781-5.693-1.782-6.118-3.18-11.243-4.4-16.128-1.463-5.871-2.623-11.233-3.544-16.393-.5-2.813-.937-5.6-1.293-8.276-.374-2.82-.673-5.619-.888-8.318-.225-2.824-.366-5.635-.419-8.353-.055-2.829-.017-5.648.113-8.379a19.381,19.381,0,0,1,1.026-5.059,10.779,10.779,0,0,1,1.07-2.122,20.651,20.651,0,0,1,1.4-1.915.953.953,0,0,0,.213-.745.853.853,0,0,0,.04-.212,6.548,6.548,0,0,1,1.235-.135,15.182,15.182,0,0,0,2.376.725,20.946,20.946,0,0,0,2.442.383c1.646.166,3.35.181,5,.2,1.443.012,2.935.025,4.387.14.781.062,1.488.147,2.161.26a17.406,17.406,0,0,1,2.121.489,6.053,6.053,0,0,0,.526,1.88c1.322,1.831,2.6,3.775,3.8,5.778,1.161,1.936,2.28,3.981,3.326,6.076,1.01,2.023,1.979,4.148,2.88,6.315.869,2.089,1.7,4.274,2.464,6.495,1.068,3.073,2.04,6.239,2.973,9.681.831,3.067,1.612,6.284,2.387,9.834,1.44,6.6,2.638,13.369,3.8,19.918.95,5.369,1.933,10.922,3.043,16.344.49,2.363,1.006,4.7,1.535,6.94.553,2.348,1.137,4.67,1.736,6.9.624,2.326,1.283,4.628,1.96,6.842.7,2.3,1.446,4.571,2.209,6.759.789,2.263,1.624,4.5,2.481,6.653.884,2.221,1.818,4.416,2.776,6.524.987,2.172,2.028,4.316,3.1,6.373,1.1,2.115,2.254,4.2,3.438,6.2a.1.1,0,0,0,.083.053.107.107,0,0,0,.087-.05.116.116,0,0,0,.009-.111l-.488-1.2c-2.362-5.8-5.107-12.663-7.558-19.525-2.593-7.259-4.608-13.807-6.16-20.018.389-1.56.717-3.17.975-4.784.245-1.54.435-3.135.563-4.743a74.533,74.533,0,0,0,.123-9.389c-.128-2.793-.4-5.838-.821-9.308-.378-3.094-.844-6.238-1.294-9.28v-.006c-.566-3.822-1.151-7.774-1.575-11.7-.228-2.111-.392-4.043-.5-5.9-.123-2.091-.174-4.041-.157-5.961.019-2.063.121-4.092.3-6.031.2-2.076.491-4.134.879-6.116a59.055,59.055,0,0,1,1.57-6.216,59.938,59.938,0,0,1,2.377-6.329c.563-1.4,1.187-2.819,1.856-4.223a10.571,10.571,0,0,1,.748-1.5,5.6,5.6,0,0,0,1.016-2.682,9.016,9.016,0,0,1,1.82-.186c3.275,0,6.227,1.772,9.082,3.486.906.544,1.842,1.106,2.76,1.59l.132.058c.185.083.39.178.607.279l.008,0c.576.269,1.229.574,1.9.817A5.868,5.868,0,0,0,83.813,42a2.044,2.044,0,0,0,1.014-.235.559.559,0,0,0,.046-.035l.024-.02c.121.026.247.051.359.074l.02,0c.473.137.856.245,1.207.342.085.023.175.05.292.084a7.074,7.074,0,0,0,.185,1.407,11.167,11.167,0,0,0,.365,1.268c.555,2.049,1.076,4.183,1.548,6.342.45,2.058.87,4.207,1.248,6.387.7,4.024,1.277,8.239,1.768,12.885.409,3.871.763,8.12,1.083,12.99.285,4.344.517,8.767.74,13.044.282,5.382.573,10.947.973,16.406.216,2.938.444,5.612.7,8.173.287,2.875.6,5.537.956,8.136.117,1.053.244,2.146.378,3.247-1.985.06-3.952.205-5.848.434a1.694,1.694,0,0,0-.562.175,1.424,1.424,0,0,0-.472.378.933.933,0,0,0-.2.712c.186,1.492.358,2.962.51,4.37.319,2.956.6,6.011.828,9.082.222,2.958.406,6.02.547,9.1.135,2.956.235,6.023.3,9.116.059,2.949.085,6.018.077,9.121-.008,3.441-.061,7.016-.159,10.627-.092,3.423-.227,7-.4,10.619a49.95,49.95,0,0,0-6-.863c-1.527-.127-3.133-.192-4.773-.192a78.825,78.825,0,0,0-7.968.433c-1.964.2-4.057.48-6.4.86l-.374.061a32.047,32.047,0,0,0-4.633,1.054l-.18.06L61,197.26c-.153-6.14-.4-12.127-.724-17.794-.351-6.09-.813-12.062-1.373-17.75-.324-3.3-.63-6.026-.961-8.588-.4-3.091-.831-5.884-1.318-8.538l-.159-.858c-.3-1.623-.643-3.354-1.088-5.022a26.135,26.135,0,0,0-1.74-4.8l-.084-.168a5.222,5.222,0,0,0-1.963-2.36,1.216,1.216,0,0,0-.556-.131,2.962,2.962,0,0,0-1.025.261c-.1.04-.211.081-.318.118-.612.212-1.177.406-1.725.592-1.317.448-2.543.854-3.745,1.244-2.5.808-4.952,1.561-7.3,2.238-2.209.638-4.4,1.229-6.5,1.757C28.2,138.023,25.991,138.531,23.859,138.975Zm65.3-97.49h0l-.016-.015-.049-.045c.195-.067.4-.149.6-.243C89.548,41.263,89.347,41.374,89.158,41.485ZM17.629,189.833l-.284-.023a1.384,1.384,0,0,0,.027-.4c-.256-3.743-.6-7.508-1.018-11.191-.463-4.064-1.074-8.491-1.87-13.535-.71-4.5-1.5-9.061-2.259-13.472v-.008c-.4-2.344-.823-4.768-1.225-7.154l.367-.614c2.138-.248,4.314-.554,6.466-.912l.46-.077c2.636-.447,5.367-.989,8.116-1.612,2.594-.588,5.3-1.268,8.029-2.021,4.914-1.354,10.084-2.981,15.806-4.975l.941.266.05.077c.108.17.218.361.337.585.092.174.183.36.3.605l.182.4c.02.044.027.064.046.117v0c.016.044.041.111.088.234a34.92,34.92,0,0,1,1.259,4.127c.464,1.851.878,3.824,1.265,6.034.309,1.761.606,3.7.935,6.1.718,5.24,1.3,10.754,1.792,16.858.4,5.04.734,10.418,1.044,16.926.3,6.322.512,12.543.625,18.49.12,6.3.137,12.524.049,18.5-.09,6.127-.266,11.109-.554,15.678-.247,3.916-.609,8.1-1.109,12.784-.478,4.481-1.032,8.956-1.511,12.742l-.231,1.818c-.09.706-.181,1.415-.282,2.2-.493,3.834-1,7.8-1.382,11.712-.283,2.909-.526,5.87-.761,8.733h0c-.129,1.575-.263,3.2-.4,4.8-.243,2.8-.482,5.263-.732,7.519-.132.742-.273,1.516-.4,2.2-.306,1.684-.622,3.424-.9,5.144-.552,3.363-1.184,6.894-1.934,10.8l-.2.83-.257-.185c-1.028-.864-2.083-1.723-3.1-2.554-.43-.351-.875-.713-1.318-1.076-.166-.153-.332-.3-.493-.432a9.37,9.37,0,0,1-.655-.7c.084-.31.152-.636.218-.951h0c.055-.262.111-.533.177-.794l.045-.172c.219-.8.4-1.63.582-2.429v0l.078-.348a31.994,31.994,0,0,0,.8-6.9,42,42,0,0,0-.295-4.37V299.2c-.036-.352-.073-.717-.108-1.074l-.212-2.211c-.094-.98-.2-2.141-.31-3.317-.17-1.88-.332-3.719-.444-5.549l0-.088c-.016-.391.054-.409.391-.494h0c.056-.014.119-.03.19-.05l.03-.009c.383-.109.777-.2,1.172-.284a14.827,14.827,0,0,1,2.469-.27.6.6,0,0,0,.4-.173.749.749,0,0,0,.213-.377.612.612,0,0,0-.025-.365.553.553,0,0,0-.271-.284c-1.194-.6-2.281-1.162-3.322-1.708l-.77-.405-.049-.025-.012-.006c-.532-.275-1.081-.558-1.216-1.207a4.181,4.181,0,0,1,.057-1.466v0c.019-.121.036-.234.052-.349.223-1.671.38-3.378.532-5.028v-.007c.084-.914.171-1.86.268-2.789a45.988,45.988,0,0,1,1.174-7c.383-1.437.895-2.865,1.39-4.246h0v0c.345-.961.7-1.955,1.011-2.943,1.293-4.127,2.485-8.377,3.6-12.375l.765-2.759c.81-2.918,1.44-5.366,1.984-7.7.648-2.788,1.152-5.342,1.542-7.807.42-2.658.709-5.26.861-7.733l.031-.512c.065-1.1.129-2.406.114-3.7a23.1,23.1,0,0,0-.306-3.678.414.414,0,0,0-.427-.369.55.55,0,0,0-.557.5c-.052,1.264-.056,2.548-.059,3.789v0c0,1.754-.01,3.569-.152,5.356a83.784,83.784,0,0,1-1.266,9.129c-.457,2.395-1.021,4.906-1.724,7.676-.559,2.206-1.217,4.617-2.069,7.588l-.121.42c-.359,1.247-.716,2.518-1.06,3.747-1.053,3.753-2.142,7.634-3.45,11.37l-.154.437c-.459,1.292-.807,2.369-1.095,3.392a31.214,31.214,0,0,0-.779,3.482c-.333,2.058-.536,4.121-.731,6.229l-.1,1.041c-.117,1.264-.225,2.4-.365,3.57-.028.234-.065.467-.1.715a5.847,5.847,0,0,0-.029,2.561,3.582,3.582,0,0,0,2.126,1.986l.027.014.2.105c.379.2.775.405,1.175.613a.263.263,0,0,1,.082.23c0,.028-.016.062-.05.069-.069.013-.426.087-.466.1l-.21.042h-.007c-.709.14-1.679.332-2.036.964a1.828,1.828,0,0,0-.136,1.039v.017l0,.035c.024.4.053.808.081,1.2v.024q.013.18.026.36c.077,1.093.163,2.217.264,3.434.141,1.7.3,3.426.445,5.091l.063.7c.037.417.079.841.119,1.252v.006c.143,1.46.29,2.969.288,4.456a28.253,28.253,0,0,1-.255,3.679c-.148,1.12-.362,2.3-.655,3.62-.188.843-.34,1.684-.467,2.57a53.213,53.213,0,0,0-9.319-3.194h0c-2.035-.558-3.958-1.086-5.818-1.764a27.3,27.3,0,0,1-2.708-1.142,18.874,18.874,0,0,1-2.5-1.464,15.665,15.665,0,0,1-2.246-1.9,15.413,15.413,0,0,1-1.938-2.443,18.245,18.245,0,0,1-1.577-3.1,24.967,24.967,0,0,1-1.164-3.869c-.616-3.647-1.184-7.271-1.688-10.771-.528-3.669-1-7.32-1.411-10.853-.426-3.685-.792-7.357-1.09-10.912-.309-3.694-.553-7.377-.724-10.948-.178-3.7-.283-7.386-.314-10.961-.032-3.694.015-7.378.14-10.951.129-3.683.343-7.356.638-10.918.3-3.664.7-7.319,1.181-10.863a32.4,32.4,0,0,0,5.275,1.507,32.8,32.8,0,0,0,5.45.6h.02a.574.574,0,0,0,.454-.2.693.693,0,0,0,.155-.441.731.731,0,0,0-.154-.469.609.609,0,0,0-.475-.225,31.36,31.36,0,0,1-10.538-2.118c.378-2.655.812-5.316,1.291-7.909.488-2.639,1.035-5.282,1.628-7.856.226.049.47.107.767.182a1.438,1.438,0,0,0,.741.2h.033a15.173,15.173,0,0,0,2.151.442.086.086,0,0,0,.015.075.09.09,0,0,0,.07.033.074.074,0,0,0,.053-.021.085.085,0,0,0,.022-.063,55.371,55.371,0,0,0,5.53.451,49.86,49.86,0,0,1,6.148.55,19.084,19.084,0,0,1,2.96.747,14.43,14.43,0,0,1,2.821,1.314c-1.073,5.652-2.309,11.456-3.674,17.249a44.181,44.181,0,0,0-.978,4.526c-.237,1.461-.408,2.978-.508,4.511a59.9,59.9,0,0,0,.124,8.986c.224,2.682.616,5.611,1.2,8.955.518,2.981,1.137,6.011,1.735,8.941v0c.977,4.786,1.987,9.734,2.593,14.622.327,2.631.513,5.034.571,7.347.031,1.253.023,2.493-.023,3.687-.049,1.252-.142,2.5-.278,3.7a.079.079,0,0,0,.018.065.1.1,0,0,0,.078.032.1.1,0,0,0,.1-.07c.285-1.289.516-2.625.687-3.972.163-1.284.278-2.619.34-3.97a63.071,63.071,0,0,0-.166-7.935c-.188-2.372-.5-4.966-.961-7.93-.408-2.641-.891-5.325-1.357-7.921v0c-.519-2.889-1.056-5.877-1.493-8.815-.49-3.295-.8-6.178-.944-8.814a56.469,56.469,0,0,1,.152-8.814c.15-1.5.372-2.983.659-4.408a41.95,41.95,0,0,1,1.138-4.409c.175-.752.355-1.516.53-2.254l.007-.028c.47-1.985.956-4.038,1.372-6.071l.028-.123c.162-.737.521-2.62.721-4.476a19.492,19.492,0,0,0,.135-2.7,3.174,3.174,0,0,0-.405-1.747.553.553,0,0,0-.443-.226.777.777,0,0,0-.25.045,7.531,7.531,0,0,0-1.334-.66c.53-2.082,2.033-3.634,3.487-5.134h0c.371-.383.754-.778,1.106-1.169l.06-.067.307-.318a8.052,8.052,0,0,0,1.48-1.609,12.7,12.7,0,0,0,1.243-2.16,9.664,9.664,0,0,0,.727-2.267,3.914,3.914,0,0,0-.07-1.93,1.788,1.788,0,0,0-.714-.941,2.527,2.527,0,0,0-1.4-.352,6.921,6.921,0,0,0-1.941.333,2.2,2.2,0,0,1-.482-1.434,8.847,8.847,0,0,1,.171-1.644c.062-.372.12-.723.142-1.046a5.584,5.584,0,0,0-.753-3.819,4.043,4.043,0,0,0-1.329-1.244,5.113,5.113,0,0,0-1.955-.632c-1.666-.225-3.378-.309-5.033-.391h0c-1.081-.053-2.2-.108-3.3-.2l-.006-.062-.049-.009-.064-.012-.2-.039.02.1-.666-.051c-.286-.021-.661-.044-1.031-.044a4.638,4.638,0,0,0-1.818.3,2.851,2.851,0,0,0-1.413,1.278,22.605,22.605,0,0,0-2.285,6.82,58.281,58.281,0,0,0-.782,7.546l-.042.341c-.2,1.609-.389,3.207-.56,4.748-.053.477-.1.962-.148,1.43l-.02.2-.065.643A2.246,2.246,0,0,1,17.629,189.833Zm58.612,127.64c-.086,0-.174,0-.26-.009-.07,0-.094-.309-.095-.322.3-.552.611-1.126.914-1.7a.572.572,0,0,0,.087-.168c.38-.732.767-1.5,1.151-2.287l.312-.642c.078-.161.159-.325.237-.483l.023-.046a20.746,20.746,0,0,0,1.806-4.532.329.329,0,0,0,.008-.088,76.646,76.646,0,0,0,3.521-12.962c.872-4.612,1.447-9.314,1.9-13.3,1.1-9.795,2.09-19.771,3.048-29.42v0l0-.023c.15-1.512.305-3.075.459-4.613l.179-1.793c1.1-10.994,2.343-24,3.243-37.074.464-6.746.8-12.847,1.041-18.652.269-6.611.4-12.72.4-18.676,0-5.974-.153-11.854-.453-17.477-.156-2.935-.357-5.87-.595-8.721-.245-2.926-.537-5.852-.868-8.7l.085-.479a80.356,80.356,0,0,1,8.072-.423c1.518,0,3.034.049,4.507.145,1.517.1,3.034.251,4.511.452l.18.025c.213.792.443,1.585.665,2.352l0,.014.155.535a68.469,68.469,0,0,1,1.593,6.868c.4,2.237.713,4.586.925,6.982.2,2.256.32,4.626.356,7.045.033,2.254-.006,4.628-.116,7.057-.195,4.3-.593,8.879-1.216,13.994-.6,4.933-1.343,9.8-1.99,13.9l-.144.91c-1.722,10.883-2.945,19.82-3.848,28.127l-.091.849a13.674,13.674,0,0,0-2.362-1.912,14.072,14.072,0,0,0-2.722-1.349.65.65,0,0,0-.224-.043.591.591,0,0,0-.552.519.692.692,0,0,0,.4.8l.025.01a12.149,12.149,0,0,1,2.861,1.515,12.928,12.928,0,0,1,2.386,2.214c-.962,9.262-1.8,18.392-2.5,26.1-.141,1.28-.252,2.585-.359,3.847-.043.51-.092,1.087-.142,1.638-.135,1.509-.266,3.055-.4,4.729-.777,9.079-1.337,16.633-1.763,23.774a.246.246,0,0,0,.073.188.549.549,0,0,0,.38.147c.134,0,.225-.051.244-.136a27.834,27.834,0,0,0,.415-2.831q.022-.2.045-.4c.155-1.357.267-2.71.379-4.092.234-2.9.456-5.839.646-8.364.726-6.009,1.388-11.936,2.117-18.506.537-4.843,1.045-9.764,1.537-14.524.562-5.443,1.143-11.071,1.77-16.606.436-3.853.99-8.055,1.692-12.845.626-4.272,1.311-8.608,1.973-12.8l.124-.787a18.415,18.415,0,0,1,3.8,1.932,19.025,19.025,0,0,1,3.277,2.756,10.687,10.687,0,0,1,.915,2.623,16.043,16.043,0,0,1,.338,2.887,24.323,24.323,0,0,1-.551,5.7c-.142.8-.288,1.613-.429,2.4l-.005.03-.1.584a22.513,22.513,0,0,1-2.535.144c-.545,0-1.1-.02-1.645-.06l-.055,0a.567.567,0,0,0-.571.592.684.684,0,0,0,.626.743c.543.039,1.1.059,1.643.059.757,0,1.529-.038,2.294-.113-1.3,7.224-2.662,14.562-3.979,21.658v0c-.7,3.76-1.419,7.649-2.128,11.5-.7,3.68-1.372,7.434-2.02,11.065l0,.015c-.955,5.354-1.942,10.89-3.056,16.3-.6,2.915-1.186,5.561-1.794,8.089-.682,2.84-1.373,5.46-2.112,8.011l-.21.717c-.527,1.792-1.169,3.9-1.935,5.94a35.332,35.332,0,0,1-2.655,5.679,22.191,22.191,0,0,1-1.729,2.514,17.188,17.188,0,0,1-2.066,2.176,14.573,14.573,0,0,1-2.455,1.747,14.184,14.184,0,0,1-2.9,1.227,30.745,30.745,0,0,1-5.694,1.208,46.888,46.888,0,0,0,2.843-5.509c1.07-2.346,2.241-4.695,3.372-6.966v0c.424-.85.862-1.73,1.291-2.6l.276-.562c.372-.761.857-1.775,1.3-2.869a21.822,21.822,0,0,0,1.068-3.277A13.262,13.262,0,0,0,94.7,289.1a9.168,9.168,0,0,0,.024-1.623,6.558,6.558,0,0,0-.3-1.528,5.323,5.323,0,0,0-.688-1.384.583.583,0,0,1-.014-.341c.01-.034.023-.055.039-.061a5.35,5.35,0,0,0,.959-.528,6.029,6.029,0,0,0,.849-.712,6.65,6.65,0,0,0,1.278-1.825l.028-.059c1-2.166.978-4.607.959-6.966,0-.182,0-.388,0-.587l-.006-2c-.027-9.4-.089-19.41-.519-29.392-.24-5.573-.566-10.655-1-15.537l-.057-.64c-.2-2.213-.445-4.819-.772-7.374-.348-2.713-.75-5.1-1.23-7.3a.394.394,0,0,0-.159-.245.465.465,0,0,0-.264-.079.487.487,0,0,0-.354.145.383.383,0,0,0-.1.3c.221,2.759.515,5.556.8,8.26.288,2.74.585,5.573.808,8.367.368,4.624.643,9.5.842,14.9.161,4.369.273,9.11.352,14.92.063,4.576.087,9.085.1,13.276l.006,1.66c0,.393.008.794.015,1.182a17.557,17.557,0,0,1-.535,5.779A5.512,5.512,0,0,1,94.325,282a3.522,3.522,0,0,1-2.409,1.01h-.1a.679.679,0,0,0-.436.149.733.733,0,0,0-.234.361.862.862,0,0,0,0,.5.759.759,0,0,0,.311.415,3.936,3.936,0,0,1,1.71,2.845,9.269,9.269,0,0,1-.234,3.462,19.571,19.571,0,0,1-1.09,3.225c-.445,1.042-.959,2.075-1.455,3.074l0,0c-.157.316-.335.674-.5,1.019l-.071.145c-.6,1.227-1.213,2.472-1.808,3.676l-.017.035c-.862,1.744-1.754,3.548-2.611,5.337l-.266.559-.084.177-.051.108c-.513,1.082-1.042,2.2-1.631,3.264a18.854,18.854,0,0,1-2.022,3.013l-.125.147a11.076,11.076,0,0,1-2.219,2.028A4.984,4.984,0,0,1,76.241,317.473ZM21.633,189.9c-.865,0-1.886,0-2.905-.037l.023-.129a2.847,2.847,0,0,0,.4-.994c.262-1.487.434-3.024.6-4.509.027-.236.055-.487.083-.73.07-.609.143-1.225.213-1.821.284-2.389.577-4.859.689-7.3a33.013,33.013,0,0,1,1.128-4.229l.062-.176a7.493,7.493,0,0,1,1.209-2.45,2.073,2.073,0,0,1,.814-.563,3.2,3.2,0,0,1,1.144-.179,9.7,9.7,0,0,1,1.549.153c1.05.078,2.118.154,3.151.227h0l.041,0c1.384.1,2.815.2,4.222.308l.339.028a7.811,7.811,0,0,1,1.638.278,2.772,2.772,0,0,1,1.372.863,3.2,3.2,0,0,1,.475.93,4.011,4.011,0,0,1,.179.992,11.361,11.361,0,0,1-.138,2.091h0a14.759,14.759,0,0,0-.149,1.67,4.411,4.411,0,0,0,.242,1.6,3.036,3.036,0,0,0,.742,1.11,1.148,1.148,0,0,0,.766.284,3.137,3.137,0,0,0,.883-.18l.03-.009a3.4,3.4,0,0,1,.973-.189,1.586,1.586,0,0,1,.774.2c.435.3.525.919.268,1.836a10.387,10.387,0,0,1-.8,1.887,14.355,14.355,0,0,1-1.495,2.057c-.551.644-1.151,1.268-1.732,1.872l0,0a24.169,24.169,0,0,0-2.994,3.541l-.07.1a6.926,6.926,0,0,0-1.266,2.619A34.689,34.689,0,0,0,23.589,189.9H21.633Zm95.995,4.651a14.592,14.592,0,0,0-2.62-1.05,14.434,14.434,0,0,0-2.785-.522l.3-1.9c.586-3.74,1.256-8.087,1.795-12.352,2.209,3.758,3.489,8.633,3.8,14.487a7.728,7.728,0,0,1-.274.865c-.109-.073-.218-.143-.324-.209l.028.191.053.382.085,0-.008.016C117.662,194.49,117.645,194.524,117.628,194.556Zm1.06,2.27-.112-.012c-.188-.163-.4-.334-.634-.525l.027-.023c.248.155.495.321.733.494Zm-57.1,1.5a42.667,42.667,0,0,0,4.632-.34h0l.015,0,.9-.1.723-.076a117.444,117.444,0,0,1,11.961-.748h0a51.539,51.539,0,0,1,11.42,1.16c-.227,4.418-.508,8.925-.859,13.779-.92,12.719-2.139,25.538-3.215,36.848-.46,4.841-.87,9.771-1.266,14.539v.017c-.564,6.789-1.147,13.809-1.887,20.694-.443,4.127-.986,7.837-1.659,11.344-.367,1.912-.779,3.786-1.224,5.57-.469,1.877-.991,3.72-1.552,5.476a2.841,2.841,0,0,0-.733-.793,5.463,5.463,0,0,0-1.017-.6,13.607,13.607,0,0,0-2.234-.754l-.65-.168a30,30,0,0,0-7.567-.967,30.539,30.539,0,0,0-5.316.468,28.339,28.339,0,0,0-3.184.753,24.93,24.93,0,0,0-3.07,1.143,28.854,28.854,0,0,0-2.966,1.627c-.07.042-.148.086-.224.129h0c-.148.084-.315.179-.472.283l.044-.25c.494-2.834.939-5.949,1.36-9.522.375-3.185.7-6.431,1.009-9.571v0c.224-2.259.456-4.6.706-6.891.594-5.453,1.359-10.976,2.1-16.317v0c.733-5.288,1.491-10.757,2.082-16.156.386-3.531.712-7.22.967-10.964.24-3.518.427-7.215.555-10.987.227-6.678.285-13.878.178-22.01-.03-2.234-.07-4.461-.12-6.62C61.2,198.324,61.395,198.326,61.585,198.326ZM101.749,20.771a1.2,1.2,0,0,0-.911.448,2.783,2.783,0,0,0-.534.986,1.941,1.941,0,0,0-.062,1.362.156.156,0,0,0,.129.072.455.455,0,0,0,.292-.186,3.279,3.279,0,0,1,.577-1.161l.064-.076c.06-.069.149-.154.243-.245.3-.294.684-.659.62-.93-.028-.117-.14-.207-.332-.267C101.805,20.772,101.777,20.771,101.749,20.771Zm-79.229,4.9a.481.481,0,0,0-.4.209,5.052,5.052,0,0,0-.629,1.211A6.125,6.125,0,0,0,21.16,28.5a5.505,5.505,0,0,0,.017,1.441,4,4,0,0,0,.42,1.31.068.068,0,0,0,.061.036.08.08,0,0,0,.056-.023.068.068,0,0,0,.019-.05c0-.105-.007-.21-.011-.312v-.013a7.692,7.692,0,0,1,.138-2.226,7.333,7.333,0,0,1,1.074-2.294.415.415,0,0,0,.036-.439A.52.52,0,0,0,22.521,25.676Zm59.711,1.839a.974.974,0,0,0-.762.4,3.029,3.029,0,0,0-.493.989,14.957,14.957,0,0,0-.485,2.554c-.051.394-.1.735-.146.972l-.022.2a20.8,20.8,0,0,0-.144,2.8,8.961,8.961,0,0,0,.471,2.737.107.107,0,0,0,.108.08.1.1,0,0,0,.1-.08,27.858,27.858,0,0,0,.73-3.412c.132-.772.268-1.569.447-2.342a7.531,7.531,0,0,1,.357-1.37c.357-1.132.8-2.541.4-3.186a.747.747,0,0,0-.55-.34ZM16.7,32.537a.063.063,0,1,0,.059.062A.058.058,0,0,0,16.7,32.537Zm2.217,2.1a.667.667,0,0,0-.539.307,1.978,1.978,0,0,0-.31,1.081,5.169,5.169,0,0,0,.272,1.736A68.939,68.939,0,0,0,24.59,53.908a.131.131,0,0,0,.119.072.163.163,0,0,0,.129-.064.136.136,0,0,0,.02-.123c-.834-2.693-1.636-5.5-2.385-8.33-.718-2.719-1.409-5.553-2.054-8.422a5.013,5.013,0,0,0-.67-1.835A1.1,1.1,0,0,0,18.921,34.633Zm55.144,4.06h0a.617.617,0,0,0-.269.061A6.1,6.1,0,0,0,71.566,41.3l0,.006-.158.264-.034.056a24.822,24.822,0,0,0-2.38,5.085,20.968,20.968,0,0,0-1.061,5.522.106.106,0,0,0,.027.081.115.115,0,0,0,.084.034.119.119,0,0,0,.117-.083A43.812,43.812,0,0,1,70.1,47.117a32.035,32.035,0,0,1,2.676-4.782c.183-.265.389-.529.589-.784a6.448,6.448,0,0,0,1.27-2.134.545.545,0,0,0-.082-.489A.617.617,0,0,0,74.065,38.693Zm-45.633.821c-.173,0-.29.176-.347.524a15.173,15.173,0,0,0,2.5,3.769c.256.313.521.637.77.956a.158.158,0,0,0,.126.067.211.211,0,0,0,.17-.107.2.2,0,0,0,.011-.2l-.045-.092-.053-.109-.019-.038c-.25-.514-.834-1.718-1.45-2.779C29.334,40.184,28.773,39.515,28.432,39.515Zm70.718,99.61a.069.069,0,1,0,.065.069A.064.064,0,0,0,99.15,139.124ZM48.874,219.961h-.011a38.95,38.95,0,0,0-7.934.942,39.817,39.817,0,0,0-7.592,2.536.563.563,0,0,0-.293.271.548.548,0,0,0-.033.351.787.787,0,0,0,.244.41.666.666,0,0,0,.74.119,37.49,37.49,0,0,1,7.273-2.409,37.909,37.909,0,0,1,7.595-.887.6.6,0,0,0,.474-.218.722.722,0,0,0,.155-.464A.613.613,0,0,0,48.874,219.961Z" transform="translate(122.688 330.647) rotate(180)"/>
    </g>
    <g id="Head" transform="translate(34.132 0)">
      <g id="HEAD-2" data-name="HEAD" transform="translate(0.644)">
        <path id="_Skin-2" data-name="âœ‹ Skin" d="M34.187.043C14.479-.926,1.108,14.617.533,20.816.133,25.118.4,30.856.4,34.7c0,1.962-.99,7.928.128,10.788,2.489,6.366,5.3,11.353,13.1,11.353S33.3,52.8,37.381,47.592c.745-.951,10-7.915,10-13.388C47.381,22.526,48.249.735,34.187.043Z" transform="translate(1.454 12.683)" fill="#694d3d"/>
        <path id="_Ink-2" data-name="ðŸ– Ink" d="M47.234,0a15.4,15.4,0,0,0-3.977.53l-.166.045a15.416,15.416,0,0,0-2.318.813,8.592,8.592,0,0,0-1.089.589,5.674,5.674,0,0,0-.933.742.8.8,0,0,0-.226.473,1.023,1.023,0,0,0,.074.518.808.808,0,0,0,.725.545.782.782,0,0,0,.289-.058,13.556,13.556,0,0,0,1.279-.616c.377-.2.766-.4,1.167-.57a14.207,14.207,0,0,1,5.38-1.069,13.531,13.531,0,0,1,1.839.125,12.533,12.533,0,0,1,4.1,1.309,13.339,13.339,0,0,1,3.393,2.531,13.966,13.966,0,0,1,2.468,3.459,13.79,13.79,0,0,1,1.32,4.092,29.113,29.113,0,0,1,.227,4.817l-.018,1.762c-.013,1.334-.022,2.885.035,4.422.066,1.8.191,3.661.382,5.679l.094.982c.1,1.048.228,2.265.451,3.442h0a27.349,27.349,0,0,0-2.34,3.7,1.618,1.618,0,0,0-.612.861,1.327,1.327,0,0,0-.035.227c-.169.266-.348.525-.531.769l-.041.018c-.031.014-.055.026-.07.034a2.554,2.554,0,0,0-.556.428,2.728,2.728,0,0,0-.425.559,2.644,2.644,0,0,0-.2.426,13.8,13.8,0,0,1-1.045.929l-.062.047-.048.036a2.625,2.625,0,0,0-1.17.811c-.123.076-.249.152-.376.226a3.063,3.063,0,0,0-1.134.245,5.356,5.356,0,0,0-.923.532,4.937,4.937,0,0,1-.987.557,1.127,1.127,0,0,1-.4.07,3.052,3.052,0,0,1-.812-.156l-.009,0a3.1,3.1,0,0,0-.838-.158,1.367,1.367,0,0,0-.194.014,1.978,1.978,0,0,0-.572.175,10.929,10.929,0,0,0-1.4-1.27,6.834,6.834,0,0,0-2.34-1.049,2.644,2.644,0,0,0-1.466-.847,29.851,29.851,0,0,0-4.218-2.772,1.458,1.458,0,0,0-.7-.195,5.962,5.962,0,0,0-1.512-.673,1.244,1.244,0,0,0-.347-.048,1.377,1.377,0,0,0-.166.01l-.466-.38a1.66,1.66,0,0,0-1-.4c-.193-.148-.4-.292-.625-.441a1.323,1.323,0,0,0-.728-.2c-.033,0-.067,0-.1,0a1.372,1.372,0,0,0-.974-.407,1.5,1.5,0,0,0-.577.118c-.076-.045-.146-.081-.218-.115a2.425,2.425,0,0,0-.334-.128,2.465,2.465,0,0,0-1.8-.788,2.4,2.4,0,0,0-.24.012,3.418,3.418,0,0,0-.821-.366,3.106,3.106,0,0,0-.876-.129c-.06,0-.121,0-.18.006-.095-.475-.176-.964-.249-1.492L27,33c0-.062,0-.107,0-.136v-.012c.032-.813.057-1.639.082-2.439h0v0c.024-.776.048-1.579.079-2.368l.006-.127c.006-.115.013-.236.022-.365v0c.064-1.021.152-2.419-.5-3.109a1.269,1.269,0,0,0-.456-.311,1.736,1.736,0,0,0-.647-.113h-.065a2.464,2.464,0,0,0-1.127.359,8.2,8.2,0,0,0-1,.692l-.084.066-.14.109c-.158.021-.319.048-.474.074a6.6,6.6,0,0,1-.864.109c-.071,0-.143,0-.215,0a6.581,6.581,0,0,1-1.469-.168,4.327,4.327,0,0,1-2.507-1.447c-.048-.06-.1-.129-.153-.215a1.132,1.132,0,0,0-.22-.407A4.164,4.164,0,0,1,17.009,21a6.1,6.1,0,0,1,2.157-3.934,6.279,6.279,0,0,1,2.066-1.122l.078-.025a3.535,3.535,0,0,0,2.018-1.832l.018-.028a18.623,18.623,0,0,1,1.819-2.351c.4-.446.861-.877,1.306-1.293A9.533,9.533,0,0,0,29,7.289a.4.4,0,0,0-.042-.382.572.572,0,0,0-.456-.247.431.431,0,0,0-.116.016,4.987,4.987,0,0,0-1.664.858,15.145,15.145,0,0,0-1.4,1.261h0L25.2,8.9c-.7.687-1.321,1.345-1.886,2.012a1.354,1.354,0,0,0-.4-.114,4.378,4.378,0,0,0-.534-.035,2.409,2.409,0,0,0-1.3.33c-.027,0-.054,0-.08,0a.953.953,0,0,0-.636.249,3.173,3.173,0,0,0-.468.536c-.109-.01-.2-.014-.288-.014a1.791,1.791,0,0,0-.3.022.748.748,0,0,0-.258.071,1.133,1.133,0,0,0-.42.289,1.2,1.2,0,0,0-.274.494,1.423,1.423,0,0,0-.041.566,1.344,1.344,0,0,0-.155.042,1.394,1.394,0,0,0-.792.674,2.96,2.96,0,0,0-.8.656,2.852,2.852,0,0,0-.562,1.021,2.432,2.432,0,0,0-.34.191,2.373,2.373,0,0,0-.868,1.073,1.962,1.962,0,0,0-.053,1.364l.01.029c.015.04.043.111.078.191v.012c0,.059-.009.121-.013.182l-.011.2L14.658,19a2.612,2.612,0,0,0-.958.591,1.671,1.671,0,0,0-.443,1.016.772.772,0,0,0,.162.521v.049c-.055.028-.1.055-.141.08a1.442,1.442,0,0,0-.5.544,1.374,1.374,0,0,0-.158.718,2.011,2.011,0,0,0,.567,1.163l.082.095.015.017.007.008-.189.059a1.8,1.8,0,0,0-.316.123,1.837,1.837,0,0,0-.741.713l-.012.018c-.02.031-.04.062-.058.1a1.679,1.679,0,0,0-.1,1.292,1.28,1.28,0,0,0,.058.14,1.641,1.641,0,0,0-.731.483,1.641,1.641,0,0,0-.15,1.775,1.808,1.808,0,0,0-.018.534,1.449,1.449,0,0,0-.429.7,1.3,1.3,0,0,0,.05.774,2.631,2.631,0,0,0,.421.724,1.577,1.577,0,0,0,.012,1.147,1.956,1.956,0,0,0-.094.578,1.9,1.9,0,0,0,.092.611,1.962,1.962,0,0,0,.26.515,1.573,1.573,0,0,0-.321.641,1.2,1.2,0,0,0,.048.71,5.9,5.9,0,0,0,.449.924,1.88,1.88,0,0,0-.142.727,1.727,1.727,0,0,0,.126.658,1.872,1.872,0,0,0,.335.529,1.56,1.56,0,0,0,.084.886,1.194,1.194,0,0,0,.577.645,4.546,4.546,0,0,0,.771.273c.118.37.234.712.352,1.044.188.526.4,1.069.625,1.612a4.242,4.242,0,0,0-.4-.31,5.749,5.749,0,0,0-1.5-1.326,1.932,1.932,0,0,0-.979-.279,1.7,1.7,0,0,0-.909.262,1.841,1.841,0,0,0-.66.741,2.243,2.243,0,0,0-1.336-.478,1.925,1.925,0,0,0-.225.013,1.765,1.765,0,0,0-.887.36,1.452,1.452,0,0,0-.521.8,1.346,1.346,0,0,0-.039.3,4.543,4.543,0,0,0-1.192-.65.824.824,0,0,0-.256-.041.907.907,0,0,0-.606.243.962.962,0,0,0-.312.58.9.9,0,0,0,.1.556l-.053.021-.026.012a1.2,1.2,0,0,0-.614.663,1.235,1.235,0,0,0-.447-.084,1.13,1.13,0,0,0-.663.208,1.1,1.1,0,0,0-.416.6,4.749,4.749,0,0,0-.065,2.42,2.783,2.783,0,0,0-.8.924,3.017,3.017,0,0,0-.016,2.866,1.012,1.012,0,0,0-.583.6A1.292,1.292,0,0,0,.88,52.766a1.388,1.388,0,0,0-.653,1.163,1,1,0,0,0-.163.451,1.165,1.165,0,0,0,.077.539,2.4,2.4,0,0,0,.418.694,3.608,3.608,0,0,0,.61.564,4.05,4.05,0,0,0-.429,1.091,1.009,1.009,0,0,0-.73.857,1.046,1.046,0,0,0,.181.748,1.073,1.073,0,0,0,.613.42,3.279,3.279,0,0,0,.207.5,2.187,2.187,0,0,0-.158.962,2.578,2.578,0,0,0,.266,1,2.18,2.18,0,0,0,.545.7,2.918,2.918,0,0,0,.748.453,1.2,1.2,0,0,0,.514,1.319,6.858,6.858,0,0,0,1.857,1.007,2.132,2.132,0,0,0,.209,1.121,1.483,1.483,0,0,0,.833.738,1.867,1.867,0,0,0,.63.1h.011a2.25,2.25,0,0,0,.77.875,1.074,1.074,0,0,0,.632.183,1.3,1.3,0,0,0,1.16-.627l.014-.03c.009-.02.019-.04.028-.059v0l.017-.036a1.54,1.54,0,0,0,.415.779,1.7,1.7,0,0,0,.511.364,1.276,1.276,0,0,0,.519.11,1.692,1.692,0,0,0,.658-.147,3.775,3.775,0,0,0,.377.717,1.7,1.7,0,0,0,.592.547,1.433,1.433,0,0,0,.69.176,1.518,1.518,0,0,0,.833-.254,2.472,2.472,0,0,0,.89.516,2.321,2.321,0,0,0,.689.114,1.958,1.958,0,0,0,1.663-1.051.784.784,0,0,0,.152.015.809.809,0,0,0,.192-.024c.035-.008.122-.042.158-.056a.82.82,0,0,0,.118-.062l.022.012a1.7,1.7,0,0,0,.268.243.89.89,0,0,0,.52.174.863.863,0,0,0,.126-.009l.1.036a2.466,2.466,0,0,0,.812.143,1.94,1.94,0,0,0,.811-.17,1.8,1.8,0,0,0,.674-.534,2.258,2.258,0,0,0,.273-.455,1.713,1.713,0,0,0,.464-.234,1.717,1.717,0,0,0,.306.111,1.986,1.986,0,0,0,.493.062,2.119,2.119,0,0,0,1.264-.429,1.934,1.934,0,0,0,.558-.674,1.538,1.538,0,0,0,.451-.189,2.518,2.518,0,0,0,.376.158,3.944,3.944,0,0,0,1.16.172c.1,0,.2,0,.3-.011a1.745,1.745,0,0,0,.857-.315,1.816,1.816,0,0,0,.6-.687,1.263,1.263,0,0,0-.094-1.306l-.022-.031a3.776,3.776,0,0,1-.238-.383,3.058,3.058,0,0,0,.717-.439,2.769,2.769,0,0,0,.645-.755,3.068,3.068,0,0,0,.336-.884,5.255,5.255,0,0,0,.007-1.944l-.009-.054h0a.98.98,0,0,0,.771-.515.721.721,0,0,0-.031-.718l-.017-.027c-.288-.445-.555-.928-.814-1.395-.159-.288-.324-.585-.493-.873a20.726,20.726,0,0,1-3.529-1.65A16.174,16.174,0,0,1,23.266,53.7a11.27,11.27,0,0,1-.8-1.129.587.587,0,0,1,.255-.06.567.567,0,0,1,.388.161,17.553,17.553,0,0,0,6.37,3.669.573.573,0,0,1,.342.293,25.732,25.732,0,0,0,3.17.689c.148.141.3.281.45.416h0c.148.134.3.273.447.413a.943.943,0,0,0,1.2.128c.168.076.342.146.533.213l.112.038.06.021.078.026a5.254,5.254,0,0,0,1.559.231,8.26,8.26,0,0,0,2.079-.305l.158-.041a2.735,2.735,0,0,1,.711-.1,3.137,3.137,0,0,1,.784.117l.063.016a4.869,4.869,0,0,0,1.2.185,2.407,2.407,0,0,0,.632-.079,3.149,3.149,0,0,0,1.485-1.006l.043-.046a.591.591,0,0,1,.524-.234h.057l.282.008c.152,0,.278.006.4.006a4.8,4.8,0,0,0,1.341-.152,2.563,2.563,0,0,0,1.171-.694,4.679,4.679,0,0,0,.8-1.13l.028-.059c.009-.021.018-.037.024-.05a1.719,1.719,0,0,1,.227.063,1.532,1.532,0,0,0,.151.044,3.5,3.5,0,0,0,.663.067,2.764,2.764,0,0,0,2.212-1.1c.084-.1.193-.261.3-.414s.2-.291.283-.4a2.047,2.047,0,0,0,.17-.162,1.671,1.671,0,0,1,.7-.188c.1-.012.2-.024.291-.043a4.666,4.666,0,0,0,1.26-.413,2.511,2.511,0,0,0,.537-.372A1.984,1.984,0,0,0,56.4,51.8a3.623,3.623,0,0,0,.309-1v-.006l.015-.075a2.273,2.273,0,0,0,.688-.756,3.689,3.689,0,0,0,.235-.507,2.91,2.91,0,0,1,.314-.628,1.78,1.78,0,0,1,.6-.466h0l.1-.06.1-.058a4.444,4.444,0,0,0,1-.764,2.585,2.585,0,0,0,.617-1.093l.022-.08c.006-.02.014-.045.023-.073.044-.138.111-.346.077-.392a.022.022,0,0,0-.019-.009.054.054,0,0,0-.022.006,1.047,1.047,0,0,1,.26-.08c.049-.011.094-.021.129-.032a2.153,2.153,0,0,0,1.277-.959,2.892,2.892,0,0,0,.3-1.073v0l.017-.119.026-.169c.007-.043.015-.091.023-.134l.008-.045h0c.1-.042.192-.087.284-.135a1.437,1.437,0,0,0,.742-1.231,1.1,1.1,0,0,0-.194-.626,1.869,1.869,0,0,0,.22-.458,2.465,2.465,0,0,0,.078-1.022,5.83,5.83,0,0,0-.27-1.163c-.018-.057-.032-.122-.046-.19a1.355,1.355,0,0,0-.091-.311.789.789,0,0,0,.185-.574,1.376,1.376,0,0,0-.129-.442.829.829,0,0,0-.3-.346,7.07,7.07,0,0,0-.674-1.791.709.709,0,0,0-.11-.157c.022-1.181-.019-2.385-.059-3.55-.03-.865-.06-1.76-.064-2.637-.011-2.032.026-4.227.113-6.712.023-.652.057-1.32.09-1.965v0c.078-1.52.158-3.091.105-4.629a21.111,21.111,0,0,0-.2-2.295,15.162,15.162,0,0,0-.493-2.257,14.675,14.675,0,0,0-1.979-4.1,15.7,15.7,0,0,0-3.11-3.323A15.007,15.007,0,0,0,48.038.022C47.773.008,47.5,0,47.234,0ZM24.168,18.814a.69.69,0,0,0-.332.089,2.591,2.591,0,0,0-.742.718,4.933,4.933,0,0,1-.367.429,5.893,5.893,0,0,1-1.238.93,8.091,8.091,0,0,1-3,.914.083.083,0,0,0-.077.076.134.134,0,0,0,.077.135,4.152,4.152,0,0,0,1.519.268,5.721,5.721,0,0,0,2.011-.379l.08-.031a7.614,7.614,0,0,0,1.647-.892,2.41,2.41,0,0,0,1.067-1.418.742.742,0,0,0-.158-.607A.637.637,0,0,0,24.168,18.814Z" transform="translate(63.659 70.418) rotate(180)"/>
      </g>
      <path id="_Ink-3" data-name="ðŸ– Ink" d="M14.076,0a4.972,4.972,0,0,0-1.882.375,5.32,5.32,0,0,0-1.229.7,5.228,5.228,0,0,0-1,1.007,1.03,1.03,0,0,0-.209.8,1.151,1.151,0,0,0,.449.721,1.107,1.107,0,0,0,.658.229.957.957,0,0,0,.147-.011,1.016,1.016,0,0,0,.68-.449l.04-.055a3.51,3.51,0,0,1,1.287-1.078,2.926,2.926,0,0,1,1.276-.3,2.833,2.833,0,0,1,.316.018,3.328,3.328,0,0,1,1.405.493,6.576,6.576,0,0,1,1.19.991c.085.087.175.181.292.305a.463.463,0,0,0,.243.187.5.5,0,0,0,.158.025.536.536,0,0,0,.177-.03.531.531,0,0,0,.263-.2.489.489,0,0,0,.083-.322,2.956,2.956,0,0,0-.352-1.147,3.829,3.829,0,0,0-.752-.964A4.836,4.836,0,0,0,16.179.508,4.751,4.751,0,0,0,14.915.076,4.666,4.666,0,0,0,14.076,0ZM15.4,7.488h0a4.557,4.557,0,0,0-1.622.326,8.2,8.2,0,0,0-1.907,1.08.731.731,0,0,0-.266.422.873.873,0,0,0,.038.474,1.079,1.079,0,0,0,.321.463.783.783,0,0,0,.5.195.711.711,0,0,0,.387-.119l.129-.1h0A10.328,10.328,0,0,1,14.176,9.4a2.946,2.946,0,0,1,1.431-.456,1.548,1.548,0,0,1,.6.119,1.69,1.69,0,0,1,.563.4A1.721,1.721,0,0,1,17.1,10.85a2.619,2.619,0,0,1-.7,1.231,5.08,5.08,0,0,1-1.055.85.326.326,0,0,0-.089.375.49.49,0,0,0,.163.234.5.5,0,0,0,.312.1.665.665,0,0,0,.112-.01,3.543,3.543,0,0,0,1.244-.449,2.82,2.82,0,0,0,.837-.77,3.055,3.055,0,0,0,.534-2.044A3.362,3.362,0,0,0,18.19,9.3a3.129,3.129,0,0,0-.617-.922A2.951,2.951,0,0,0,15.4,7.488ZM4.847,14.8a1.086,1.086,0,0,0-1.052.964A7.8,7.8,0,0,0,3.836,17.8c.025.2.05.4.068.623a1.217,1.217,0,0,0,.463.871,1.427,1.427,0,0,0,.877.308,1.082,1.082,0,0,0,.663-.208.98.98,0,0,0,.366-.65A5.45,5.45,0,0,0,5.7,15.376a1.08,1.08,0,0,0-.381-.441A.881.881,0,0,0,4.847,14.8Zm15.492.462a.931.931,0,0,0-.729.312,2.843,2.843,0,0,0-.445.754,3.28,3.28,0,0,0-.227.909,1.924,1.924,0,0,0,.526,1.653,1.09,1.09,0,0,0,.084.128,1.193,1.193,0,0,0,.917.527,1,1,0,0,0,.279-.041,1.341,1.341,0,0,0,.9-.78,2.754,2.754,0,0,0,.111-1.509,5.045,5.045,0,0,0-.459-1.424.925.925,0,0,0-.4-.391A1.2,1.2,0,0,0,20.339,15.261ZM.171,20.11A.169.169,0,0,0,.03,20.2a.188.188,0,0,0-.011.185A6.416,6.416,0,0,0,1.46,22.2a8.911,8.911,0,0,0,1.929,1.315,8.306,8.306,0,0,0,2.29.8l.245.043a5.972,5.972,0,0,0,1,.108,1.546,1.546,0,0,0,1.234-.459,1.044,1.044,0,0,0,.248-.743.68.68,0,0,0-.248-.486,1.9,1.9,0,0,0-1.3-.381c-.1,0-.209,0-.311.005h0c-.1,0-.211.005-.322.005s-.193,0-.279-.007A8.823,8.823,0,0,1,4,22.069a13.183,13.183,0,0,1-3.739-1.93A.161.161,0,0,0,.171,20.11Zm23.588.985h0l-.1.026a5.842,5.842,0,0,0-1.131.44l-.367.181a10.212,10.212,0,0,1-1.312.558,15.505,15.505,0,0,1-2.988.659,1.222,1.222,0,0,0-.6.227.9.9,0,0,0-.335.51.91.91,0,0,0,.1.764.974.974,0,0,0,.473.407,1.066,1.066,0,0,0,.4.077,1.19,1.19,0,0,0,.233-.023l.187-.038a13.391,13.391,0,0,0,3.227-1.046A6.526,6.526,0,0,0,22.97,22.9a4.135,4.135,0,0,0,1-1.294c.035-.27,0-.337-.034-.383l-.01-.013L23.92,21.2a.259.259,0,0,0-.16-.106Z" transform="translate(28.099 60.311) rotate(180)"/>
      <g id="MASK" transform="translate(0 39.388)">
        <path id="_Color" data-name="ðŸŽ¨ Color" d="M7.193,4.469a16.922,16.922,0,0,1,3.78-3.226.814.814,0,0,1,.5-.928c4.077-1.521,6.669,2.857,9.622,4.814a7.749,7.749,0,0,0,2.153.942,7.775,7.775,0,0,1,4.016,2.764A7.466,7.466,0,0,1,29,10.9c.16.284,14.5-6.524,17.763-7.282,1.545-.516,2.378.942.419,1.69-5.147,1.966-15.225,6.368-17.475,7.636a7.781,7.781,0,0,1,.14,4.413,6.244,6.244,0,0,1-1.691,5.4c-.288.418-.728.719-1.014,1.081-1.04,2.713-3.535,4.025-6.456,5.322-4.647,2.063-8.7,2.477-11.244,1.573A15.229,15.229,0,0,1,.23,14.066C1.393,9.316,1.153,5.149,7.193,4.469Z" transform="translate(0.666 0.63)" fill="#9ddadb"/>
        <path id="_Ink-4" data-name="ðŸ– Ink" d="M36.095,0a20.293,20.293,0,0,0-3.809.368A21.765,21.765,0,0,0,28.708,1.38a20.842,20.842,0,0,0-3.182,1.514,16.961,16.961,0,0,0-2.62,1.876A13.081,13.081,0,0,0,20.288,7.68a16.535,16.535,0,0,0-1.04,1.781,17.366,17.366,0,0,0-.824,1.916,16.765,16.765,0,0,0-.582,1.99,14.936,14.936,0,0,0-.314,2,11.018,11.018,0,0,0,.286,3.8C11.44,22.161,5.446,24.535,2.225,25.811l-1.182.469c-.005.006-.544.575-.458.776.021.048.075.072.161.072a1.083,1.083,0,0,0,.278-.048c5.306-1.5,14.755-5.706,18.313-7.291h0c.859-.383,1.377-.614,1.408-.615h0a2.815,2.815,0,0,1,.5,1.057c-.119.013-2.932,1.2-6.494,2.705C9.146,25.3,2.168,28.25.815,28.684L.7,28.722c-.46.145-.714.292-.7.4.014.093.213.149.533.149.058,0,.12,0,.183-.006a18.218,18.218,0,0,0,3.4-1.165c1.7-.679,3.849-1.592,5.931-2.474,3.81-1.615,7.749-3.284,9.051-3.595A5.849,5.849,0,0,0,20.144,23.6a9.518,9.518,0,0,0,1.492,1.3,31.069,31.069,0,0,0,3.73,2.169c.478.25.972.508,1.449.768a10,10,0,0,1,1.692,1.2c.5.436.953.892,1.39,1.334a12.85,12.85,0,0,0,2,1.766,4.682,4.682,0,0,0,1.142.556,4.366,4.366,0,0,0,1.359.207,7.729,7.729,0,0,0,2.837-.633,5.9,5.9,0,0,0,1.73-1.05,12.381,12.381,0,0,0,1.272-1.361c.2-.236.406-.48.634-.734A6.279,6.279,0,0,1,42.9,28.044l.15-.058a6.866,6.866,0,0,0,1.98-1.041,7.8,7.8,0,0,0,1.538-1.559,10.751,10.751,0,0,0,1.806-4.051,17.179,17.179,0,0,0,.645-4.664,18.8,18.8,0,0,0-.59-4.7,18.6,18.6,0,0,0-1.737-4.4,16.688,16.688,0,0,0-2.8-3.739.28.28,0,0,0,.026-.209.225.225,0,0,0-.111-.137c-.234-.129-.476-.265-.737-.417a15.2,15.2,0,0,0-3.2-2.033A9.49,9.49,0,0,0,36.095,0ZM19.328,18.914a11.347,11.347,0,0,1-.094-5.084A13.153,13.153,0,0,1,21.19,9.252,17.637,17.637,0,0,1,26.44,4.2a18.218,18.218,0,0,1,6.789-2.625s.208,0,.537,0a24.22,24.22,0,0,1,4.15.273,11.394,11.394,0,0,1,2.478,1.017l.278.14a10.423,10.423,0,0,1,1.362.87,11.807,11.807,0,0,0,1.172.769,15.424,15.424,0,0,1,1.716,2.024,16.32,16.32,0,0,1,1.362,2.3,16.619,16.619,0,0,1,.975,2.494,16.225,16.225,0,0,1,.557,2.617,25.209,25.209,0,0,1,.132,3.338,17.69,17.69,0,0,1-.414,3.41A9.159,9.159,0,0,1,44.155,26.4a9.837,9.837,0,0,1-1.666.782,7.349,7.349,0,0,0-2.156,1.144,16.871,16.871,0,0,1-2.18,2.076A6.84,6.84,0,0,1,35.5,31.713a3.53,3.53,0,0,1-.994.148,3.3,3.3,0,0,1-1.214-.235A4.4,4.4,0,0,1,32.219,31a8.824,8.824,0,0,1-1.747-1.923,8.08,8.08,0,0,0-1.023-1.05A10.688,10.688,0,0,0,28.3,27.17a27.085,27.085,0,0,0-2.513-1.394,21.485,21.485,0,0,1-3-1.736,8.337,8.337,0,0,1-1.28-1.147,6.91,6.91,0,0,1-1.023-1.486l-.063-.126.833-.25.023.037c.043.067.156.221.276.221a.189.189,0,0,0,.151-.1,2.211,2.211,0,0,0,0-2.15,2.207,2.207,0,0,0-.362-.592.6.6,0,0,0-.416-.237c-.159,0-.3.114-.417.338l-.021.042-1.156.318ZM33.757,8.8a.379.379,0,0,0-.321.192c-.681.944-1.327,1.913-1.919,2.88a.054.054,0,0,0,0,.056.069.069,0,0,0,.059.034.059.059,0,0,0,.041-.016c.755-.705,1.512-1.465,2.251-2.257.037.012.08.023.138.037a.325.325,0,0,0,.358-.15.306.306,0,0,0,.009-.307l-.031-.055A.785.785,0,0,0,33.757,8.8Zm-11.341.045a.531.531,0,0,0-.384.15.44.44,0,0,0-.117.333c0,.047,0,.1.007.142v0a4.842,4.842,0,0,1,0,.66v.029c0,.058-.015.136-.029.218-.036.224-.08.5.022.621a.176.176,0,0,0,.141.058.394.394,0,0,0,.088-.011,2.148,2.148,0,0,0,.772-1.719A.433.433,0,0,0,22.8,9,.533.533,0,0,0,22.416,8.843Zm20.832.778c-.2,0-.329.2-.35.527a2.082,2.082,0,0,0,.324,1.18,1.617,1.617,0,0,0,1.172.772h.015a.067.067,0,0,0,.065-.048.066.066,0,0,0-.03-.076,2.05,2.05,0,0,1-.861-1.789h0c-.018-.156-.037-.317-.063-.469A.5.5,0,0,0,43.249,9.621Zm-6.87,3.237c-1.367,0-2.787.066-4.219.2-1.361.123-2.772.308-4.195.549-1.344.228-2.735.512-4.136.845-1.315.312-2.675.677-4.045,1.083,1.974-.2,4.028-.5,6.014-.785a79.813,79.813,0,0,1,11.364-1.1,28.6,28.6,0,0,1,8.213,1.093.448.448,0,0,0,.117.016.356.356,0,0,0,.261-.111.448.448,0,0,0,.119-.252.385.385,0,0,0-.292-.441,35.325,35.325,0,0,0-4.573-.834A40.319,40.319,0,0,0,36.378,12.858Zm7.6,3.4a1.3,1.3,0,0,0-.73.254,2.542,2.542,0,0,0-.624.631,2.923,2.923,0,0,0-.437.921,1.5,1.5,0,0,0,0,.871l.018,0c.12,0,.236-.276.37-.6a1.973,1.973,0,0,1,.5-.841,1.533,1.533,0,0,1,.595-.427c.318-.171.647-.348.66-.545.006-.085-.046-.168-.16-.251A.948.948,0,0,0,43.977,16.258Zm-13.411.029a.062.062,0,0,0-.066.052.084.084,0,0,0,.051.092l.248.1A13.1,13.1,0,0,1,33.052,17.6a5.788,5.788,0,0,1,.5.367,2.3,2.3,0,0,0,1.355.668h.033a.421.421,0,0,0,.379-.31.293.293,0,0,0,0-.248c-.075-.133-.285-.178-.489-.222a1.221,1.221,0,0,1-.344-.106,9.7,9.7,0,0,0-1.856-1.019,5.858,5.858,0,0,0-2.054-.445Zm0,10.981h0a2.239,2.239,0,0,0,.736,1.5,8.411,8.411,0,0,0,1.887,1.572,6.083,6.083,0,0,0,1.069.526,2.941,2.941,0,0,0,.989.2,1.19,1.19,0,0,0,.932-.373.452.452,0,0,0,.083-.5.465.465,0,0,0-.658-.229,2.338,2.338,0,0,1-.592.076A3.679,3.679,0,0,1,33,29.318a15.453,15.453,0,0,1-1.783-1.467h0c-.229-.209-.445-.406-.651-.581Z" transform="translate(49.015 32.909) rotate(180)"/>
      </g>
    </g>
  </g>
</svg>
