<svg xmlns="http://www.w3.org/2000/svg" width="433.275" height="342.384" viewBox="0 0 433.275 342.384"><defs><style>.a{fill:#22a5a4;}.b{fill:#868686;opacity:0.1;}</style></defs><g transform="translate(-1237.655 -2886.518)"><path class="a" d="M87.912-113.146q0-12.21,3.256-20.757a43.067,43.067,0,0,1,10.989-15.873q11.4-10.989,20.961-19.129T139.6-184.167A79.122,79.122,0,0,0,150.387-197.6a24.936,24.936,0,0,0,3.867-13.227q0-13.431-8.344-20.961t-20.96-7.529q-19.129,0-29.1,10.582a41.113,41.113,0,0,0-11.192,25.641l-62.678-4.07q4.477-43.142,31.746-65.73t70-22.589a118.753,118.753,0,0,1,35.206,5.087,86.446,86.446,0,0,1,29.1,15.263A72.936,72.936,0,0,1,207.977-249.9q7.326,15.059,7.326,34.6a86.441,86.441,0,0,1-2.442,21.367,66.212,66.212,0,0,1-8.344,18.925,110.372,110.372,0,0,1-15.466,18.926,262.351,262.351,0,0,1-24.216,20.961q-9.361,7.326-12.617,14.245a32.256,32.256,0,0,0-3.256,13.838v11.8H87.912ZM80.993-35a38.1,38.1,0,0,1,2.849-14.652A36.352,36.352,0,0,1,91.779-61.66,36.352,36.352,0,0,1,103.785-69.6a38.1,38.1,0,0,1,14.652-2.849A38.1,38.1,0,0,1,133.089-69.6,36.351,36.351,0,0,1,145.1-61.66a36.352,36.352,0,0,1,7.936,12.007A38.1,38.1,0,0,1,155.881-35a38.1,38.1,0,0,1-2.849,14.652A36.352,36.352,0,0,1,145.1-8.344,36.351,36.351,0,0,1,133.089-.407a38.1,38.1,0,0,1-14.652,2.849A38.1,38.1,0,0,1,103.785-.407,36.352,36.352,0,0,1,91.779-8.344,36.352,36.352,0,0,1,83.842-20.35,38.1,38.1,0,0,1,80.993-35Z" transform="translate(1336 3182)"/><path class="b" d="M752.48,310.874c0-18.793,131.094-38.626,233.3-40.568s199.975,21.775,199.975,40.568-128.053,34.6-199.975,34.6S752.48,329.667,752.48,310.874Z" transform="translate(485.175 2883.424)"/></g></svg>