<svg xmlns="http://www.w3.org/2000/svg" width="187.698" height="107.366" viewBox="0 0 187.698 107.366">
  <g id="Group_1" data-name="Group 1" transform="translate(60.5 113.136)">
    <path id="Path_43" data-name="Path 43" d="M5.888,0h-3.2V-22.08h3.2ZM20.512-6.912H10.784V-9.28h9.728ZM41.472-22.08V0h-3.2V-10.4H28.608V0h-3.2V-22.08h3.2v8.928h9.664V-22.08ZM60.416-2.656l.16,2.464Q57.664.064,51.1.064a4.636,4.636,0,0,1-3.232-1.072,3.809,3.809,0,0,1-1.216-2.9V-18.176a3.809,3.809,0,0,1,1.216-2.9A4.636,4.636,0,0,1,51.1-22.144q6.56,0,9.472.256l-.16,2.5H51.648a1.716,1.716,0,0,0-1.36.464,2.44,2.44,0,0,0-.4,1.584v4.416H59.2v2.592H49.888V-4.7a2.44,2.44,0,0,0,.4,1.584,1.716,1.716,0,0,0,1.36.464Zm16.128-4h-8.8L65.7,0H62.432l6.912-21.216a1.118,1.118,0,0,1,1.184-.864h3.264a1.043,1.043,0,0,1,1.152.864L81.888,0h-3.3ZM75.712-9.44,73.12-17.824q-.1-.288-.272-.9t-.272-.9h-.864L71.2-17.824,68.608-9.44ZM88-22.08V-4.736a2.249,2.249,0,0,0,.448,1.584,2.135,2.135,0,0,0,1.568.464h7.84l.16,2.464q-3.1.288-8.512.288-4.7,0-4.7-4.352V-22.08Zm22.272,2.848h-7.008V0h-3.232V-19.232H93.088V-22.08h17.184ZM129.76-22.08V0h-3.2V-10.4H116.9V0h-3.2V-22.08h3.2v8.928h9.664V-22.08Z" transform="translate(-60.788 -45.102)" fill="#19a2a1"/>
    <path id="Path_44" data-name="Path 44" d="M14.4-6.656H5.6L3.552,0H.288L7.2-21.216a1.118,1.118,0,0,1,1.184-.864h3.264a1.043,1.043,0,0,1,1.152.864L19.744,0h-3.3ZM13.568-9.44l-2.592-8.384q-.1-.288-.272-.9t-.272-.9H9.568l-.512,1.792L6.464-9.44ZM36.1-19.392H27.9a2.2,2.2,0,0,0-1.584.464,2.2,2.2,0,0,0-.464,1.584v4.768H34.88v2.592H25.856V0h-3.2V-18.016a3.9,3.9,0,0,1,1.2-3.04A4.653,4.653,0,0,1,27.1-22.144q6.336,0,9.152.288ZM55.808,0H52.384L50.5-6.88a2.762,2.762,0,0,0-2.784-2.208L43.168-9.12V0H40V-22.08q2.72-.288,7.712-.288,4,0,5.648,1.376t1.648,5.024a6.964,6.964,0,0,1-.944,4,4.275,4.275,0,0,1-3.12,1.632v.16a4.046,4.046,0,0,1,2.784,3.2ZM43.168-11.84h4.48a4.948,4.948,0,0,0,3.248-.848,4.17,4.17,0,0,0,.88-3.088,4.056,4.056,0,0,0-.88-3.04,4.918,4.918,0,0,0-3.248-.8q-3.264,0-4.48.032ZM63.04,0h-3.2V-22.08h3.2ZM82.592-2.816l.32,2.432a23.957,23.957,0,0,1-6.56.768q-4.832,0-6.784-2.56T67.616-11.04q0-6.3,1.952-8.864t6.784-2.56a26.231,26.231,0,0,1,6.112.64l-.32,2.464q-2.56-.256-5.792-.256-3.04,0-4.208,1.856t-1.168,6.72q0,4.864,1.168,6.72t4.208,1.856A41.774,41.774,0,0,0,82.592-2.816Zm15.84-3.84h-8.8L87.584,0H84.32l6.912-21.216a1.118,1.118,0,0,1,1.184-.864H95.68a1.043,1.043,0,0,1,1.152.864L103.776,0h-3.3ZM97.6-9.44l-2.592-8.384q-.1-.288-.272-.9t-.272-.9H93.6l-.512,1.792L90.5-9.44Z" transform="translate(-60.788 -6.154)" fill="#19a2a1"/>
    <path id="Path_1" data-name="Path 1" d="M68.355-23.157A1.659,1.659,0,0,1,66.82-24.19a1.657,1.657,0,0,1,.91-2.158A46.659,46.659,0,0,0,85.114-38.722a1.656,1.656,0,0,1,2.337-.152,1.657,1.657,0,0,1,.15,2.338A49.99,49.99,0,0,1,68.978-23.28a1.65,1.65,0,0,1-.623.122m-1.809-7.906a1.656,1.656,0,0,1-1.515-.983,1.656,1.656,0,0,1,.839-2.187A38.421,38.421,0,0,0,88.647-69.3a38.406,38.406,0,0,0-38.362-38.362,38.157,38.157,0,0,0-14.427,2.8,1.654,1.654,0,0,1-2.156-.912,1.655,1.655,0,0,1,.91-2.157,41.463,41.463,0,0,1,15.673-3.048A41.723,41.723,0,0,1,91.96-69.3,41.737,41.737,0,0,1,67.217-31.208a1.639,1.639,0,0,1-.672.144m-1.9-7.986a1.656,1.656,0,0,1-1.48-.912,1.659,1.659,0,0,1,.734-2.225A30.2,30.2,0,0,0,80.616-69.3,30.366,30.366,0,0,0,50.285-99.63a30.2,30.2,0,0,0-20.94,8.388A1.656,1.656,0,0,1,27-91.3a1.656,1.656,0,0,1,.055-2.341,33.493,33.493,0,0,1,23.227-9.3A33.682,33.682,0,0,1,83.928-69.3,33.494,33.494,0,0,1,65.386-39.227a1.65,1.65,0,0,1-.743.177M61.63-46.715a1.658,1.658,0,0,1-1.457-.866,1.657,1.657,0,0,1,.664-2.246A22.148,22.148,0,0,0,72.428-69.3,22.168,22.168,0,0,0,50.285-91.441,22.252,22.252,0,0,0,31.2-80.53a1.657,1.657,0,0,1-2.268.585,1.655,1.655,0,0,1-.585-2.268,25.58,25.58,0,0,1,21.941-12.54A25.484,25.484,0,0,1,75.739-69.3,25.454,25.454,0,0,1,62.418-46.916a1.657,1.657,0,0,1-.788.2m1.406-11.149a1.643,1.643,0,0,1-1.007-.342,1.656,1.656,0,0,1-.306-2.323A14.277,14.277,0,0,0,64.7-69.3,14.428,14.428,0,0,0,50.285-83.711a14.464,14.464,0,0,0-13.54,9.46,1.659,1.659,0,0,1-2.124.987,1.656,1.656,0,0,1-.987-2.124A17.787,17.787,0,0,1,50.285-87.024,17.744,17.744,0,0,1,68.009-69.3a17.563,17.563,0,0,1-3.658,10.787,1.655,1.655,0,0,1-1.314.648m-4.772-8.563a1.657,1.657,0,0,1-.249-.019,1.655,1.655,0,0,1-1.391-1.884A6.646,6.646,0,0,0,56.7-69.3a6.42,6.42,0,0,0-6.413-6.412,6.435,6.435,0,0,0-5.207,2.667,1.658,1.658,0,0,1-2.313.376,1.657,1.657,0,0,1-.375-2.313,9.758,9.758,0,0,1,7.895-4.044A9.737,9.737,0,0,1,60.01-69.3a9.841,9.841,0,0,1-.11,1.462,1.657,1.657,0,0,1-1.636,1.41m39.942-3.991a1.656,1.656,0,0,1-1.652-1.562A46.269,46.269,0,0,0,89.27-94.37a46.655,46.655,0,0,0-16.847-15.655,1.656,1.656,0,0,1-.662-2.246,1.655,1.655,0,0,1,2.246-.662A49.951,49.951,0,0,1,92.053-96.164a49.561,49.561,0,0,1,7.807,24A1.654,1.654,0,0,1,98.3-70.42c-.033,0-.064,0-.1,0m7.147-6.75a1.657,1.657,0,0,1-1.631-1.377,54.012,54.012,0,0,0-1.387-6,1.658,1.658,0,0,1,1.126-2.055,1.656,1.656,0,0,1,2.054,1.126,57.317,57.317,0,0,1,1.471,6.367,1.657,1.657,0,0,1-1.351,1.912,1.65,1.65,0,0,1-.282.024" transform="translate(20.187 0)" fill="#19a2a1"/>
  </g>
</svg>
