<svg xmlns="http://www.w3.org/2000/svg" width="144.54" height="82.027" viewBox="0 0 144.54 82.027">
  <g id="Group_148" data-name="Group 148" transform="translate(60.572 113.136)">
    <path id="Path_45" data-name="Path 45" d="M4.416,0h-2.4V-16.56h2.4ZM15.384-5.184h-7.3V-6.96h7.3ZM31.1-16.56V0H28.7V-7.8H21.456V0h-2.4V-16.56h2.4v6.7H28.7v-6.7ZM45.312-1.992l.12,1.848q-2.184.192-7.1.192a3.477,3.477,0,0,1-2.424-.8,2.857,2.857,0,0,1-.912-2.172v-10.7A2.857,2.857,0,0,1,35.9-15.8a3.477,3.477,0,0,1,2.424-.8q4.92,0,7.1.192l-.12,1.872H38.736a1.287,1.287,0,0,0-1.02.348,1.83,1.83,0,0,0-.3,1.188V-9.7H44.4v1.944H37.416v4.224a1.83,1.83,0,0,0,.3,1.188,1.287,1.287,0,0,0,1.02.348Zm12.1-3h-6.6L49.272,0H46.824l5.184-15.912a.839.839,0,0,1,.888-.648h2.448a.782.782,0,0,1,.864.648L61.416,0H58.944ZM56.784-7.08,54.84-13.368q-.072-.216-.2-.672t-.2-.672h-.648L53.4-13.368,51.456-7.08ZM66-16.56V-3.552a1.687,1.687,0,0,0,.336,1.188,1.6,1.6,0,0,0,1.176.348h5.88l.12,1.848q-2.328.216-6.384.216Q63.6.048,63.6-3.216V-16.56Zm16.7,2.136H77.448V0H75.024V-14.424H69.816V-16.56H82.7ZM97.32-16.56V0h-2.4V-7.8H87.672V0h-2.4V-16.56h2.4v6.7H94.92v-6.7Z" transform="translate(-60.788 -61.389)" fill="#fff"/>
    <path id="Path_46" data-name="Path 46" d="M10.8-4.992H4.2L2.664,0H.216L5.4-15.912a.839.839,0,0,1,.888-.648H8.736a.782.782,0,0,1,.864.648L14.808,0H12.336ZM10.176-7.08,8.232-13.368q-.072-.216-.2-.672t-.2-.672H7.176l-.384,1.344L4.848-7.08Zm16.9-7.464H20.928a1.647,1.647,0,0,0-1.188.348,1.647,1.647,0,0,0-.348,1.188v3.576H26.16v1.944H19.392V0h-2.4V-13.512a2.921,2.921,0,0,1,.9-2.28,3.49,3.49,0,0,1,2.436-.816q4.752,0,6.864.216ZM41.856,0H39.288L37.872-5.16a2.072,2.072,0,0,0-2.088-1.656L32.376-6.84V0H30V-16.56q2.04-.216,5.784-.216,3,0,4.236,1.032t1.236,3.768a5.223,5.223,0,0,1-.708,3,3.206,3.206,0,0,1-2.34,1.224v.12a3.034,3.034,0,0,1,2.088,2.4Zm-9.48-8.88h3.36a3.711,3.711,0,0,0,2.436-.636,3.128,3.128,0,0,0,.66-2.316,3.042,3.042,0,0,0-.66-2.28,3.688,3.688,0,0,0-2.436-.6q-2.448,0-3.36.024ZM47.28,0h-2.4V-16.56h2.4ZM61.944-2.112l.24,1.824a17.968,17.968,0,0,1-4.92.576q-3.624,0-5.088-1.92T50.712-8.28q0-4.728,1.464-6.648t5.088-1.92a19.673,19.673,0,0,1,4.584.48l-.24,1.848q-1.92-.192-4.344-.192a3.432,3.432,0,0,0-3.156,1.392q-.876,1.392-.876,5.04t.876,5.04a3.432,3.432,0,0,0,3.156,1.392A31.331,31.331,0,0,0,61.944-2.112Zm11.88-2.88h-6.6L65.688,0H63.24l5.184-15.912a.839.839,0,0,1,.888-.648H71.76a.782.782,0,0,1,.864.648L77.832,0H75.36ZM73.2-7.08l-1.944-6.288q-.072-.216-.2-.672t-.2-.672H70.2l-.384,1.344L67.872-7.08Z" transform="translate(-60.788 -31.397)" fill="#fff"/>
    <path id="Path_1" data-name="Path 1" d="M58.74-43.849a1.277,1.277,0,0,1-1.182-.8,1.276,1.276,0,0,1,.7-1.662,35.929,35.929,0,0,0,13.386-9.528,1.276,1.276,0,0,1,1.8-.117,1.276,1.276,0,0,1,.116,1.8A38.494,38.494,0,0,1,59.22-43.944a1.27,1.27,0,0,1-.48.094m-1.393-6.088a1.275,1.275,0,0,1-1.166-.757,1.275,1.275,0,0,1,.646-1.684,29.585,29.585,0,0,0,17.539-27,29.574,29.574,0,0,0-29.54-29.54,29.382,29.382,0,0,0-11.11,2.159,1.273,1.273,0,0,1-1.66-.7,1.275,1.275,0,0,1,.7-1.661,31.928,31.928,0,0,1,12.069-2.347A32.128,32.128,0,0,1,76.917-79.38,32.139,32.139,0,0,1,57.864-50.048a1.262,1.262,0,0,1-.517.111m-1.465-6.15a1.275,1.275,0,0,1-1.14-.7,1.277,1.277,0,0,1,.565-1.713A23.256,23.256,0,0,0,68.181-79.38a23.383,23.383,0,0,0-23.356-23.356A23.252,23.252,0,0,0,28.7-96.277a1.275,1.275,0,0,1-1.8-.042,1.275,1.275,0,0,1,.042-1.8,25.791,25.791,0,0,1,17.886-7.165A25.936,25.936,0,0,1,70.732-79.38,25.791,25.791,0,0,1,56.454-56.224a1.271,1.271,0,0,1-.572.136m-2.32-5.9a1.277,1.277,0,0,1-1.122-.667,1.276,1.276,0,0,1,.511-1.73A17.055,17.055,0,0,0,61.876-79.38,17.07,17.07,0,0,0,44.825-96.43a17.135,17.135,0,0,0-14.7,8.4,1.276,1.276,0,0,1-1.747.451,1.274,1.274,0,0,1-.451-1.747,19.7,19.7,0,0,1,16.9-9.657,19.623,19.623,0,0,1,19.6,19.6A19.6,19.6,0,0,1,54.169-62.145a1.276,1.276,0,0,1-.607.155m1.083-8.585a1.265,1.265,0,0,1-.776-.263,1.275,1.275,0,0,1-.236-1.789,10.994,10.994,0,0,0,2.289-6.754,11.11,11.11,0,0,0-11.1-11.1A11.138,11.138,0,0,0,34.4-83.193a1.278,1.278,0,0,1-1.636.76A1.275,1.275,0,0,1,32-84.069a13.7,13.7,0,0,1,12.822-8.96A13.663,13.663,0,0,1,58.474-79.38a13.524,13.524,0,0,1-2.817,8.307,1.275,1.275,0,0,1-1.012.5M50.97-77.168a1.277,1.277,0,0,1-.191-.015,1.275,1.275,0,0,1-1.071-1.451,5.118,5.118,0,0,0,.056-.746,4.944,4.944,0,0,0-4.938-4.937,4.955,4.955,0,0,0-4.009,2.054,1.276,1.276,0,0,1-1.781.29,1.276,1.276,0,0,1-.289-1.781,7.514,7.514,0,0,1,6.079-3.114,7.5,7.5,0,0,1,7.489,7.489,7.578,7.578,0,0,1-.084,1.126,1.276,1.276,0,0,1-1.26,1.086m30.756-3.073a1.275,1.275,0,0,1-1.272-1.2,35.629,35.629,0,0,0-5.609-17.242,35.926,35.926,0,0,0-12.973-12.055,1.275,1.275,0,0,1-.51-1.73,1.274,1.274,0,0,1,1.73-.51,38.464,38.464,0,0,1,13.9,12.913A38.164,38.164,0,0,1,83-81.588a1.274,1.274,0,0,1-1.2,1.345c-.026,0-.049,0-.074,0m5.5-5.2a1.276,1.276,0,0,1-1.256-1.06,41.592,41.592,0,0,0-1.068-4.618,1.276,1.276,0,0,1,.867-1.583,1.275,1.275,0,0,1,1.582.867,44.136,44.136,0,0,1,1.133,4.9,1.276,1.276,0,0,1-1.041,1.473,1.271,1.271,0,0,1-.217.019" transform="translate(-4.538)" fill="#fff"/>
  </g>
</svg>
