<svg xmlns="http://www.w3.org/2000/svg" width="257.927" height="389.907" viewBox="0 0 257.927 389.907"><defs><style>.a{fill:#d08b5b;}.b{fill:#fdea6b;}.c{fill:#ecdcbf;}.d{fill:#fff;}</style></defs><g transform="translate(0 121.926)"><path class="a" d="M45.643,0c-.12,0-.252,0-.39.011A148.4,148.4,0,0,0,23.921,2.78C17.759,4,11.32,5.585,3.045,7.9A4.226,4.226,0,0,0,.863,9.4,4.045,4.045,0,0,0,0,11.9C.259,31.925.833,52.1,1.707,71.87c.783,17.713,1.829,35.665,3.11,53.357.558,7.7,1.17,15.492,1.819,23.162L6.92,151.7c.075.871.145,1.754.212,2.609a87.4,87.4,0,0,0,1.209,10.2,23.1,23.1,0,0,0,2.011,5.846,26.143,26.143,0,0,0,3.437,5.143,77.254,77.254,0,0,0,5.859,5.275c3.013,2.562,6.92,5.8,11,9.107,7.346,5.958,16.466,13.14,20.036,15.428,4.215,2.7,8.644,5.167,12.928,7.552,2.221,1.236,4.517,2.514,6.76,3.812A12.205,12.205,0,0,0,74,217.928a8.875,8.875,0,0,1,4.069,1.7c.7.579,6.787,3.067,12.678,5.473,4.493,1.835,9.138,3.732,11.232,4.721l.142.068a43.7,43.7,0,0,1,5.243,2.886,20.05,20.05,0,0,1,4.388,3.853,17.116,17.116,0,0,1,1.586,4.381,25.993,25.993,0,0,1,.947,5.159c0,.624-.006,1.266-.013,1.887a29.893,29.893,0,0,0,.852,9.245,13.365,13.365,0,0,0,1.338,2.974,12.43,12.43,0,0,0,4.5,4.368,13.313,13.313,0,0,0,3.024,1.246,33.967,33.967,0,0,0,9.042,1.038c2.184,0,4.333-.131,5.759-.229,2.045-.141,4.737-.36,7.424-.807a34.823,34.823,0,0,0,7.2-1.914A19.564,19.564,0,0,0,158.8,260.8a16.5,16.5,0,0,0,3.947-4.84,23.486,23.486,0,0,0,1.918-4.873,40.163,40.163,0,0,0,1.032-5.14c.213-1.5.387-3,.53-4.273l.329-2.967c.129-1.132.242-1.986.468-3.251a29.2,29.2,0,0,1,1.226-4.845,15.259,15.259,0,0,1,2.215-4.13,19.412,19.412,0,0,1,3.429-3.467,26.14,26.14,0,0,1,4.04-2.6,69.98,69.98,0,0,1,9.026-3.736c.954-.344,1.939-.7,2.895-1.059a16.073,16.073,0,0,0,5.809-3.6,11.6,11.6,0,0,0,3.191-5.986c.218-1.081,2.317-4.084,6.238-8.925,3.252-4.016,7.648-9.165,13.064-15.3,9.535-10.808,19.461-21.524,21.245-23.2l.1-.089c2.2-1.981,2.431-5.375,2.633-8.37.05-.75.1-1.459.174-2.129.408-3.6.8-7.269,1.176-10.906.753-7.363,1.432-14.828,2.019-22.19,1.15-14.413,2-29.047,2.517-43.495s.728-29.111.618-43.563l-.014-1.644c-.008-.9-.013-1.808-.018-2.687-.014-2.751-.029-5.6-.155-8.384-.2-4.349-1.715-7.354-4.516-8.93a12.138,12.138,0,0,0-4.211-1.341,40.079,40.079,0,0,0-4.507-.329c-.518-.018-1.054-.037-1.572-.063l-.2-.011c-3.477-.19-7.161-.358-10.949-.5-10.378-.383-21.6-.562-35.32-.562-2.869,0-5.885.007-9.221.023-5.357.025-10.806.067-16.076.108h-.036c-8.271.064-16.824.131-25.235.131-8.753,0-16.447-.073-23.52-.223-8.423-.179-16.111-.467-23.5-.88-.557-.031-1.232-.047-2.005-.047-3.8,0-9.593.367-15.726.755l-.567.036c-5.859.371-12.5.791-17.05.791-1.457,0-2.651-.044-3.547-.131C48.832,3.8,47.7,3.412,47.219,2.8a1.827,1.827,0,0,1-.231-1.5c.056-.4.1-.74-.1-.978C46.692.1,46.3,0,45.643,0Zm86.244,170.911L103.347,115.4h18.558L108.6,84.562h29.213l-10.363-43.2L186.716,115.4H164.477l22.238,29.151H171.291l15.424,24.687Z" transform="translate(254.808 266.923) rotate(180)"/><path class="b" d="M0,6.185,11.089,132.3l92.363,2.285V0Z" transform="translate(57.004 86.572)"/><path d="M48.565,0h0a3.625,3.625,0,0,0-.478.032,3.782,3.782,0,0,0-2.458,1.519A3.108,3.108,0,0,0,45,3.908c-.383,8.682-.223,17.542-.068,26.11v.041q.02,1.1.039,2.19c.145,8.017.441,16.187.9,24.975.413,7.843.952,16,1.645,24.939.792,10.167,1.572,17.951,2.528,25.237.116.88.226,1.778.333,2.646a93.966,93.966,0,0,0,1.55,9.741c.251,1.077.475,2.213.691,3.312.18.913.365,1.856.569,2.781l-.112.177c-.42.663-.853,1.349-1.3,2-1.543,2.247-3.117,4.392-4.679,6.377a156.09,156.09,0,0,1-35.026,32.012,2.718,2.718,0,0,0,.177-1.853,2.211,2.211,0,0,0-1.069-1.458c-.174-7.092-.685-14.288-1.18-21.247v-.006c-.105-1.484-.214-3.018-.318-4.528-1.116-16.221-1.556-25.025-1.816-30.883-.5-11.313-.71-21.43-.64-30.928.078-10.526.321-20.937.721-30.945.232-5.711.469-10.825.725-15.633.1-1.959.227-3.951.344-5.878v-.01c.04-.66.09-1.482.137-2.262q.014-.234.03-.469a15.353,15.353,0,0,0-.032-3.46,4.846,4.846,0,0,0-.506-1.524,3.928,3.928,0,0,0-1.094-1.267l0-.023v0c0-.014,0-.027-.006-.038a2.078,2.078,0,0,0-.717-1.317,2.031,2.031,0,0,0-1.287-.487,1.571,1.571,0,0,0-.959.313,1.86,1.86,0,0,0-.644,1c-.016.058-.033.117-.049.169v0c-.016.055-.033.111-.048.167C1.6,15.231,1.462,17.906,1.33,20.494c-.017.328-.034.667-.055,1C1.1,24.214.932,27.1.765,30.32c-.29,5.609-.5,11.555-.628,17.672-.209,10.119-.18,20.649.087,31.3C.477,89.383.95,99.9,1.632,110.555c.726,11.371,1.641,21.576,2.8,31.2A204.787,204.787,0,0,0,7.979,163.1a5.128,5.128,0,0,0-2.118,1.218,6,6,0,0,0-1.437,2.2,6.966,6.966,0,0,0-.471,2.264A7.1,7.1,0,0,0,4.23,171a9.155,9.155,0,0,1-.475-1.431.183.183,0,0,0-.181-.153.238.238,0,0,0-.178.083.224.224,0,0,0-.05.183,11.851,11.851,0,0,0,1.489,3.97,39.347,39.347,0,0,0,2.4,3.6l0,0c.218.3.443.614.658.917a94.678,94.678,0,0,0,5.972,7.6c1.8,2.056,3.729,4.089,5.734,6.044,1.933,1.884,3.994,3.752,6.128,5.551a138.253,138.253,0,0,0,13.242,9.816c4.36,2.861,9.015,5.617,14.233,8.426,4.445,2.393,9.3,4.821,14.835,7.423,1.306.615,2.672,1.248,4.176,1.937a2.11,2.11,0,0,0,.873.2,1.924,1.924,0,0,0,.41-.044h0v0a2.592,2.592,0,0,0,.732.1,3.615,3.615,0,0,0,2.177-.806l.056-.044a9.981,9.981,0,0,0,1.962-1.857,2.227,2.227,0,0,0,.34-1.7c2.273.611,4.637,1.379,7.225,2.348,5.527,2.068,10.806,4.548,15.739,6.91.319.153.653.311.948.451a48.787,48.787,0,0,1,5.813,3.087,14.572,14.572,0,0,1,4.625,4.5,20.536,20.536,0,0,1,2.253,7.191l0,.021.078.423c.177.957.344,1.935.5,2.881.349,2.045.709,4.158,1.194,6.2a2.652,2.652,0,0,0,1.02,1.485,2.893,2.893,0,0,0,1.706.586,3.39,3.39,0,0,0,1.429-.385,2.165,2.165,0,0,0,1.168-1.372,4.025,4.025,0,0,0,.13-1.818c-.349-2.335-.862-4.7-1.359-6.979v0c-.188-.867-.383-1.764-.566-2.645a24.548,24.548,0,0,0-2.917-8.3,19.412,19.412,0,0,0-5.728-5.642,51.1,51.1,0,0,0-7.15-3.821,122.674,122.674,0,0,0-17.713-7.049,51.753,51.753,0,0,0-9.111-1.721c-.1-.009-.223-.021-.347-.028,1.39-.761,2.811-1.513,4.148-2.217,4.929-2.6,9.33-4.749,13.454-6.571a125.038,125.038,0,0,1,24.435-7.892,122.924,122.924,0,0,1,25.538-2.713c.651,0,1.31.005,1.961.016a118.456,118.456,0,0,1,13.25.957,111.164,111.164,0,0,1,13.05,2.49,84.833,84.833,0,0,1,13.582,4.579,67.567,67.567,0,0,1,6.975,3.582c.58.345,1.138.705,1.654,1.043-4.014,1.355-8.028,2.908-11.909,4.41h0l-.38.147a37.66,37.66,0,0,0-7.033,3.453,21.275,21.275,0,0,0-8.924,11.395,31.832,31.832,0,0,0-1.447,6.77,47.4,47.4,0,0,0,.326,13.654.325.325,0,0,0,.338.266.388.388,0,0,0,.38-.266c.555-1.942.968-3.951,1.368-5.894.456-2.215.928-4.506,1.611-6.714a48.833,48.833,0,0,1,2.083-5.617,26.226,26.226,0,0,1,3.009-5.163,16.4,16.4,0,0,1,5.075-4.3,40.439,40.439,0,0,1,6.138-2.7c2.587-.952,5.241-1.847,7.808-2.713l.01,0c1.7-.575,3.464-1.169,5.188-1.773a27.478,27.478,0,0,0,6.6-1.472c-.895.6-1.654,1.15-2.32,1.676a.143.143,0,0,0-.047.167.207.207,0,0,0,.184.137.161.161,0,0,0,.04-.005,45.05,45.05,0,0,0,8.093-3.3l.179-.087c2.861-1.4,5.4-2.767,7.752-4.2,2.909-1.765,5.417-3.421,7.665-5.063a66.527,66.527,0,0,0,7.051-5.876,83.794,83.794,0,0,0,11.2-13.713c1.469-2.174,2.976-4.537,4.606-7.226.654-1.073,1.352-2.242,2.2-3.679.183-.31.381-.628.573-.934a12.2,12.2,0,0,0,1.7-3.489,8.411,8.411,0,0,0-.374-2.182c-.276-1.137-.677-2.591-1.128-4.095a43.945,43.945,0,0,0-2.652-7.212c-.113-.179-.223-.347-.337-.516a2.387,2.387,0,0,0-1.994-1.137,2.505,2.505,0,0,0-1.809.806,2.3,2.3,0,0,0-.612,1.772c-.192-.169-.372-.328-.534-.474l0-.011c1.355-8.1,2.755-16.483,3.751-24.88,2.1-17.77,3.52-35.9,4.89-53.424v0l.005-.067c.162-2.069.329-4.209.494-6.313.773-9.846,1.347-19.61,1.915-29.581.308-5.465.567-10.418.791-15.141.122-2.546.243-5.121.349-7.393l.008-.179c.028-.619.077-1.243.128-1.9a18.77,18.77,0,0,0-.163-6.025,3.7,3.7,0,0,0-1.377-2.117,3.663,3.663,0,0,0-2.173-.678,4.4,4.4,0,0,0-2.4.724,4.11,4.11,0,0,0-1.627,2.071,12.117,12.117,0,0,0-.484,3.774c-.008.349-.017.709-.033,1.058l-.1,2.251-.1,2.221c-.135,2.82-.272,5.6-.406,8.262-.137,2.76-.273,5.552-.4,8.253l0,.067c-.13,2.686-.265,5.464-.4,8.2-.511,10.271-1.042,20.713-1.555,30.812l-.006.11c-.47,9.243-.955,18.8-1.426,28.226-.072,1.449-.147,2.931-.213,4.238v0c-.424,8.4-.862,17.093-1.094,25.649-.162,6.031-.173,12.163-.183,18.093q0,1.025,0,2.05c-.118-.107-.238-.218-.354-.326l0,0-.2-.181c-2.645-2.481-4.762-4.56-6.663-6.543-.917-.958-2.12-2.227-3.288-3.536-.229-.257-.455-.525-.674-.784a12.112,12.112,0,0,0-2.555-2.476,2.233,2.233,0,0,0-1.3-.389,3.34,3.34,0,0,0-2.132.833c-.077.07-.154.136-.228.2a1.967,1.967,0,0,0-.261.275c-.009-1.678-.02-3.663-.028-5.664-.032-11.508.1-21.866.4-31.666.347-11.235.912-21.577,1.727-31.617.774-9.571,1.784-19.7,3.177-31.867.579-5.059,1.227-10.288,1.928-15.542.338-2.528.7-5.1,1.1-7.849.067-.462.156-.945.242-1.411v0a18.361,18.361,0,0,0,.378-2.868,4.141,4.141,0,0,0-.423-1.953A8.027,8.027,0,0,0,233.326,8.6a2.071,2.071,0,0,0-1.576-.645,2.42,2.42,0,0,0-.585.07,4.7,4.7,0,0,0-1-1.448c-1.55-1.515-3.653-1.72-5.506-1.72-.621,0-1.24.025-1.839.049h-.031c-.611.025-1.188.048-1.757.048-.18,0-.347,0-.508-.007l-8.4-.248-.067,0-12.666-.374L197.2,4.259c-24.253-.718-49.332-1.46-74.016-2.187-12.484-.371-25.3-.7-38.106-.98C81.227,1.01,77.153.97,72.621.97c-2.065,0-4.223.008-6.6.025A124.339,124.339,0,0,0,51.7,1.889,3.542,3.542,0,0,0,48.565,0ZM152.49,93.911h0a2.062,2.062,0,0,0,1.784-.984,1.994,1.994,0,0,0,.03-2l-.148-.282c-.16-.305-.324-.62-.484-.93-2.724-5.226-5.457-10.559-8.1-15.716l0-.007c-1.277-2.491-2.6-5.067-3.908-7.615l-3.273-6.363-.161-.313-2.882-5.6c-.006-.009-.01-.018-.015-.027l-.013-.025c2.282,2.8,4.605,5.716,6.905,8.68,1.191,1.536,2.429,3.129,3.522,4.535,7.707,9.917,15.677,20.171,23.007,30.661,2.2,3.155,4.33,6.371,6.319,9.394,1.044,1.589,2.112,3.232,3.174,4.884.032.049.112.2.212.38.187.344.47.864.689,1.2-.162.009-.327.022-.487.035-.289.023-.586.047-.884.047a4.13,4.13,0,0,1-.783-.068c-1.222-.237-2.456-.578-3.649-.907-.565-.156-1.149-.317-1.723-.465-2.826-.721-5.7-1.456-8.474-2.168l-.011,0-1.167-.3c-.431-.107-.867-.22-1.29-.328l-.084-.022a4.789,4.789,0,0,0-1.184-.161,1.665,1.665,0,0,0-1.587.7c-.243.492-.051,1.169.555,1.958l.025.033c.41.533.834,1.084,1.261,1.626,2.506,3.217,4.964,6.717,7.34,10.1a165.758,165.758,0,0,0,11.811,15.5c-3.625-.274-6.894-.515-10.179-.689l-.1,0a2.364,2.364,0,0,0-2.022,1.348,2.1,2.1,0,0,0,.08,2.216c.373.517.718.987,1.054,1.437a52.9,52.9,0,0,1,3.726,6.4,49.887,49.887,0,0,0,4.039,6.85l.425.541c2.568,3.276,5.224,6.663,7.941,9.909l-.329.277a2.852,2.852,0,0,0-2.36-.872c-.381,0-.757.027-1.12.053h0c-.15.011-.292.021-.43.029-1.509.083-3.108.183-4.752.3-2.756.191-9.09.323-15.8.462-8.89.185-18.081.376-19.265.723l-.239-.66c-.633-1.75-1.231-3.4-1.984-5.082-.942-2.106-1.936-4.324-3.128-6.98-2.022-4.5-4.177-9-6.2-13.19L125.053,136l-.365-.754-3.014-6.231c-.342-.7-.695-1.413-1.036-2.1-.722-1.452-1.469-2.953-2.137-4.455a6.9,6.9,0,0,1-.662-2.469,99.514,99.514,0,0,0,12.311,2.642,104.478,104.478,0,0,0,12.54,1.091c.232.007.467.011.694.015h.05l.184,0a166.848,166.848,0,0,1-10.562-16.845,153.22,153.22,0,0,1-8.346-17.905,1.11,1.11,0,0,1,.285-1.307q-.068-.139-.137-.278l0-.008c-.054-.109-.11-.223-.164-.334.195.059.4.118.574.17l.418.123a1.692,1.692,0,0,1,.324-.031,1.455,1.455,0,0,1,1.076.445c8.189,2.4,16.587,4.448,24.962,6.1A2.324,2.324,0,0,0,152.49,93.911Zm78.387,46.973a3.033,3.033,0,0,0-.2-.329c.048.05.1.1.142.142l.059.058Zm-158.706,79.8h0c-.118-.054-.251-.116-.385-.175.376-.227.783-.468,1.245-.738-.128.124-.255.258-.377.386l0,0c-.082.086-.166.175-.249.259a2.3,2.3,0,0,0-.229.267Z" transform="translate(257.927 267.981) rotate(180)"/></g><g transform="translate(47.454 0)"><path class="a" d="M45.515,155.846A32,32,0,0,0,64.708,150.1c6.217-2.219,13.715-5.64,18.27-9.233,1.777.454,3.9-1.435,5.262-2.432,8.453-6.318,15.089-15.565,17.055-24.828,3.035,3.834,7.355,3.994,11.492,2.088,8.673-4.923,8.349-15.288,5.226-23.033,6.564-14.741,11.114-53.655,1.093-69.36-2.05-2.35-5.058-3.755-7.223-6.165a44.494,44.494,0,0,0-6-5.923C103.04,6,91.258,3.23,83.88,1.925,53.084-4.738,29.421,7.239,1.525,17.342A49.2,49.2,0,0,0,7.9,28.441c-6.925,2.587-3.744,8.4,1.628,11.353l3.2-1.556C7.738,56.092-3.738,100.492,1.214,114.75c3.948,22.244,21.276,41.258,44.3,41.1" transform="translate(2.365 2.612)"/><path class="c" d="M6.212,0C.055,15.865-3.8,52.491,5.846,67.61c2.05,2.35,5.057,3.756,7.223,6.165a44.475,44.475,0,0,0,6,5.922c6.841,5.211,18.623,7.986,26,9.291,30.8,6.663,54.459-5.314,82.355-15.417a49.188,49.188,0,0,0-6.372-11.1c6.926-2.587,3.745-8.4-1.628-11.353l-2.361,1.148c-.622,3.333-2.284,9.855-5.8,10.2-4.73.47-15.2-8.386-19.757-8.386s-27.718,9.905-40.44,9.905S27.52,53.476,23.217,45.855s6.4-17.088,6.4-17.088-6.4-8.216-6.4-11.808,1.5-14.852,1.5-14.852-6.9,2.265-10.84,2.265S7.027,0,7.027,0Zm18.5,2.107Z" transform="translate(131.431 93.684) rotate(180)"/><path d="M85.669,0a41.662,41.662,0,0,0-6.7.535,35.325,35.325,0,0,0-6.523,1.7,27.95,27.95,0,0,0-5.926,3A22.8,22.8,0,0,0,61.6,9.67a1.264,1.264,0,0,0-.291.783,1.279,1.279,0,0,0,.264.8,1.176,1.176,0,0,0,.939.467,1.235,1.235,0,0,0,.609-.166l.611-.341a62.889,62.889,0,0,1,6.975-3.381A37.138,37.138,0,0,1,78.14,5.648a40.743,40.743,0,0,1,7.12-.632,39.746,39.746,0,0,1,8.826.993,38.519,38.519,0,0,1,12.954,5.608,43.433,43.433,0,0,1,10.053,9.475,52.818,52.818,0,0,1,7.6,13.661,58.665,58.665,0,0,1,3.556,15.316,68.616,68.616,0,0,1,.21,9.43c-.128,2.966-.422,6.034-.9,9.378-.885,6.192-2.254,12.288-3.7,18.508-3.318,14.3-6.59,26.783-10,38.171a2.727,2.727,0,0,0-.112,1.061,4.108,4.108,0,0,1-1.506.276,6.139,6.139,0,0,1-1.974-.36,23.325,23.325,0,0,1-6-3.654l-.1-.073c-.609-.461-1.239-.938-1.794-1.319a14.579,14.579,0,0,0-7.365-2.788c-.243-.015-.492-.023-.74-.023a14.641,14.641,0,0,0-3.793.535,26.57,26.57,0,0,0-3.623,1.287c-1.312.563-2.608,1.148-3.862,1.715l-.046.021a73.636,73.636,0,0,1-11.108,4.306,59.97,59.97,0,0,1-15.593,2.068l-.548,0a49.442,49.442,0,0,1-7.239-.571,34.929,34.929,0,0,1-6.891-1.788,26.131,26.131,0,0,1-6.186-3.314,23.317,23.317,0,0,1-5.121-5.151,17.3,17.3,0,0,1-2.746-5.348,11.065,11.065,0,0,1-.441-2.9,10.137,10.137,0,0,1,.426-3.03,15.835,15.835,0,0,1,1.386-3.208,28.024,28.024,0,0,1,1.917-2.931l.472-.636a8.056,8.056,0,0,0,1.608-3.136,4.029,4.029,0,0,0-.614-2.932A14.027,14.027,0,0,0,30.812,91.8L30.8,91.78a15.92,15.92,0,0,1-1.066-1.3,16.922,16.922,0,0,1-1.695-2.974,17.434,17.434,0,0,1-1.352-6.458,44.527,44.527,0,0,1,.643-7.846l.009-.064c.259-1.825.528-3.711.635-5.6a1.1,1.1,0,0,0-.222-.754,1.072,1.072,0,0,0-.709-.4,1.2,1.2,0,0,0-.158-.01c-.036,0-.072,0-.109,0,.044-.178.083-.362.117-.545-.177.228-.37.455-.575.676l-.038.02a1.188,1.188,0,0,0-.5.515,11.024,11.024,0,0,1-.91.758,10.461,10.461,0,0,1-2.663,1.454,8.694,8.694,0,0,1-2.877.543h-.1a7.423,7.423,0,0,1-5.1-1.964,11.079,11.079,0,0,1-2.936-5,20.765,20.765,0,0,1-.806-5.809,18.865,18.865,0,0,1,.834-5.954,9.369,9.369,0,0,1,3.363-4.863,8.209,8.209,0,0,1,4.625-1.545h.057a11.432,11.432,0,0,1,3.792.891l.113.04c.389.139.79.283,1.186.412a2.149,2.149,0,0,0,.665.11,1.9,1.9,0,0,0,.546-.08,1.97,1.97,0,0,0,1-.7,2.423,2.423,0,0,0,.471-1.175,2.346,2.346,0,0,0-.185-1.245c-.042-.094-.088-.188-.14-.288l.735-1.209A76.441,76.441,0,0,1,36.88,28.3a55.44,55.44,0,0,1,6.943-6.31l.361-.268c.225-.165.483-.377.712-.564l.232-.192a4.356,4.356,0,0,1,2.192-1.24l.093,0a3.882,3.882,0,0,1,.52.044l.034,0a4.3,4.3,0,0,0,.563.044,1.737,1.737,0,0,0,.677-.122,2.145,2.145,0,0,0,.958-.848,2.087,2.087,0,0,0,.337-1.16,2.256,2.256,0,0,0-.321-1.174,3.328,3.328,0,0,0-1.5-1.357,3.156,3.156,0,0,0-1.263-.251,4.185,4.185,0,0,0-.764.074c-1.827.341-3.862,1.9-4.955,2.744l-.24.184a52.658,52.658,0,0,0-7.65,7.023A43.5,43.5,0,0,0,24.6,40.267a7.474,7.474,0,0,0-2.1-.936,10.309,10.309,0,0,0-2.377-.357c-.155-.006-.314-.009-.472-.009a15.345,15.345,0,0,0-6.307,1.417A13.423,13.423,0,0,0,8.359,44.46a17.038,17.038,0,0,0-2.783,5.794,23.886,23.886,0,0,0-.752,7.688,24.5,24.5,0,0,0,1.554,7.313c.054.139.108.273.155.387a85.44,85.44,0,0,0-3.3,10.3A100.5,100.5,0,0,0,1.15,86.61,127.211,127.211,0,0,0,.072,108.255a101.524,101.524,0,0,0,2.247,20.261,19.14,19.14,0,0,0,3.9,8.023,22.345,22.345,0,0,0,3.873,3.359l.055.041a22.773,22.773,0,0,1,3.349,2.829l.478.524.142.157.167.184A39.546,39.546,0,0,0,19.84,149a37.8,37.8,0,0,0,7.974,4.448,70.77,70.77,0,0,0,9.371,3.156c2.87.765,5.941,1.441,9.665,2.126A109.553,109.553,0,0,0,66.6,160.6a92.9,92.9,0,0,0,11.231-.672,84.484,84.484,0,0,0,11.1-2.113c6.423-1.682,12.737-4.014,18.844-6.27l.4-.149.011,0,1.315-.485c4.614-1.7,9.306-3.421,13.842-5.085l.643-.236,6.733-2.47a2.449,2.449,0,0,0,1.235-1.042,1.754,1.754,0,0,0,.13-1.554,48.713,48.713,0,0,0-5.23-9.827,6.352,6.352,0,0,0,1.834-1.945,6.782,6.782,0,0,0,.977-3.388,6.683,6.683,0,0,0-.591-2.866,9.376,9.376,0,0,0-1.613-2.418,23.03,23.03,0,0,0-4.608-3.7,2.366,2.366,0,0,0-.858-.353c2.494-9.543,5.7-22.138,8.391-34.937l.169-.812A137.542,137.542,0,0,0,133.3,61.728a71.631,71.631,0,0,0-.964-18.667,62.466,62.466,0,0,0-5.146-15.526,54.357,54.357,0,0,0-9.223-13.479,44.788,44.788,0,0,0-12.7-9.434,44.315,44.315,0,0,0-15.19-4.4A43.314,43.314,0,0,0,85.669,0ZM66.8,156.517h0a99.934,99.934,0,0,1-11.3-.661c-3.642-.416-7.4-1.038-11.172-1.847l-.806-.175c-3.411-.744-6-1.4-8.383-2.131a51.44,51.44,0,0,1-8.038-3.142,28.825,28.825,0,0,1-6.983-4.735c-.9-.847-1.728-1.789-2.529-2.7l-.026-.03a30.448,30.448,0,0,0-3.679-3.725l-1.273-1.02a14.6,14.6,0,0,1-4.669-5.382A31.527,31.527,0,0,1,5.861,123.1c-.531-3.252-.926-6.661-1.171-10.133-.232-3.277-.339-6.708-.318-10.2a140.22,140.22,0,0,1,1.2-16.974c.634-4.978,1.521-10.307,2.791-16.77A10.776,10.776,0,0,0,15.755,73.9,10.031,10.031,0,0,0,24.4,70.787a31.324,31.324,0,0,0-1.5,12.866,20.363,20.363,0,0,0,2.4,7.517A23.191,23.191,0,0,0,27.929,94.9l.34.391.039.045a1.4,1.4,0,0,1,.357.567.7.7,0,0,1-.082.454,4.894,4.894,0,0,1-.754,1.039l-.011.012-.062.072c-.183.212-.389.453-.556.679a24.891,24.891,0,0,0-3.485,6.316,16.363,16.363,0,0,0-.841,3.471,13.786,13.786,0,0,0,.023,3.625,18.374,18.374,0,0,0,2.581,6.856,31.024,31.024,0,0,0,4.582,5.785,25.288,25.288,0,0,0,5.592,4.22,31.9,31.9,0,0,0,6.465,2.7,49.1,49.1,0,0,0,14,1.854c.894,0,1.812-.019,2.728-.056a64.343,64.343,0,0,0,17.182-3.059,66.272,66.272,0,0,0,8.007-3.2l.575-.277c.321-.156.637-.311.931-.455l.068-.033a31.277,31.277,0,0,1,6.206-2.512,9.067,9.067,0,0,1,2.158-.271,8.209,8.209,0,0,1,2.2.3,10.451,10.451,0,0,1,2.01.8,28.287,28.287,0,0,1,3.732,2.45l.191.14c1.036.759,2.108,1.544,3.255,2.236l.234.138a13.7,13.7,0,0,0,6.7,1.953h.153a8.739,8.739,0,0,0,2.975-.547,7.789,7.789,0,0,0,2.647-1.681,2.137,2.137,0,0,0,.608-1.008,2.759,2.759,0,0,0,.415-.9c.559-2.1,1.137-4.279,1.718-6.484l.467.3a8.917,8.917,0,0,1,3.564,3.429,3.009,3.009,0,0,1-.1,2.251,1.388,1.388,0,0,1-.477.605.836.836,0,0,1-.465.133c-.028,0-.057,0-.086,0a2.938,2.938,0,0,0-.373-.024,2.637,2.637,0,0,0-1.032.2,2.32,2.32,0,0,0-1.083.916,2.086,2.086,0,0,0-.3,1.364,2.374,2.374,0,0,0,.592,1.274,38.375,38.375,0,0,1,5.854,8.978l-9.984,3.7c-2.927,1.083-6.786,2.51-10.682,3.944l-1.95.717a161.274,161.274,0,0,1-19.727,6.232,78.334,78.334,0,0,1-9.064,1.5,87.221,87.221,0,0,1-9.157.475ZM27.486,53.982h-.068A4.8,4.8,0,0,0,24.385,55.3c-.117.09-.231.178-.352.268a12.478,12.478,0,0,1-2.953,1.664,13.687,13.687,0,0,1-4.96.956,12.931,12.931,0,0,1-2.227-.194,1.037,1.037,0,0,0-.706.128,1.122,1.122,0,0,0-.462.524.991.991,0,0,0-.017.744.969.969,0,0,0,.506.534,16.22,16.22,0,0,0,3.242,1.149,14.775,14.775,0,0,0,3.4.4,13.971,13.971,0,0,0,1.874-.126l.289-.041A15.259,15.259,0,0,0,27.19,59.7a5.715,5.715,0,0,0,1.564-1.292,3.712,3.712,0,0,0,.805-1.725,2.478,2.478,0,0,0-.441-1.9A2.008,2.008,0,0,0,27.486,53.982Z" transform="translate(133.507 160.599) rotate(180)"/></g><g transform="translate(54.89 59.231)"><path class="d" d="M3.665,0h0L0,13.972l.591-.091a46.635,46.635,0,0,0,6.54-1.387c1.447-.466,2.18-.945,2.18-1.423l0-.066C9.232,9.927,7.333,6.225,3.665,0ZM36.1.962h0l-6.76,7.4,8.058,2.59L36.1.963Z" transform="translate(49.812 74.617) rotate(180)"/><ellipse class="d" cx="13.7" cy="12.47" rx="13.7" ry="12.47" transform="translate(36.906 13.855)"/><ellipse class="d" cx="12.486" cy="12.296" rx="12.486" ry="12.296" transform="translate(17.83 1.386)"/><path class="d" d="M10.058,21.292C4.5,21.292,0,16.329,0,10.208A9.838,9.838,0,0,1,10.058,0,9.838,9.838,0,0,1,20.116,10.208C20.116,16.329,15.613,21.292,10.058,21.292Z" transform="translate(3.264 15.078)"/><path d="M23.3,0a3.01,3.01,0,0,0-1.557.466,4.032,4.032,0,0,0-1.728,2.386,14.93,14.93,0,0,0-.5,3.027v0c-.017.184-.034.357-.052.529-.161,1.563-.259,2.861-.308,4.084l-.02.584c-.007.254-.02.51-.034.781a7.75,7.75,0,0,0,.292,3.309.357.357,0,0,0,.306.22.233.233,0,0,0,.183-.091,10.025,10.025,0,0,0,1.565-3.835c.094-.365.182-.708.278-1.04.146-.5.307-1.008.477-1.542a25.634,25.634,0,0,0,1.04-3.973l.074.129c.28.532.56,1.049.8,1.484l.8,1.48c.654,1.21,1.352,2.477,2.2,3.987-.9.337-1.779.7-2.521,1.006l-1.9.792a9.079,9.079,0,0,0-3,1.8.314.314,0,0,0-.067.308.253.253,0,0,0,.2.181,7.483,7.483,0,0,0,1.408.124,22.412,22.412,0,0,0,4.818-.745c.677-.155,1.316-.3,1.927-.413l.187-.034c.762-.133,1.536-.275,2.283-.412,2.244-.412,4.564-.838,6.87-1.073A46.337,46.337,0,0,1,42,13.276a36.954,36.954,0,0,1,4.193.231,28.626,28.626,0,0,1,4.178.808c.595.161,1.181.339,1.742.531l.065.025c.095.039.223.1.371.173a3.646,3.646,0,0,0,1.049.4.142.142,0,0,0,.105-.033.1.1,0,0,0,.024-.076,2.5,2.5,0,0,0,1.248.759,2.238,2.238,0,0,0,.567.07,2.494,2.494,0,0,0,1.569-.543,1.315,1.315,0,0,0,.825.279,1.979,1.979,0,0,0,1.538-.818,3.312,3.312,0,0,0,.581-1.679A10.262,10.262,0,0,0,59.99,11.6c-.017-.18-.034-.366-.049-.549l-.009-.124c-.089-1.246-.225-2.539-.416-3.953l-.078-.563c-.033-.233-.063-.482-.095-.745a12.911,12.911,0,0,0-.617-3.034,2.972,2.972,0,0,0-2-2.007A2.364,2.364,0,0,0,56.11.54c-1.562,0-2.978,1.524-4.157,3.015l-.658.843a18.681,18.681,0,0,0-2.057,3.127c-.307.6-.538,1.1-.728,1.565-.024.058-.043.112-.06.164l-.008.023a36.765,36.765,0,0,0-4.877-.318,43.014,43.014,0,0,0-5.589.376A52.491,52.491,0,0,0,31.486,10.6l-.961-1.735c-1.006-1.81-2.2-3.941-3.465-6.018L26.967,2.7A7.632,7.632,0,0,0,25.391.844,3.306,3.306,0,0,0,23.3,0ZM55.8,11.2h0A29.678,29.678,0,0,0,50.03,9.528l.018-.018c.112-.115.239-.246.353-.378.438-.506.9-.989,1.448-1.557l.3-.3c.119-.122.246-.255.381-.4a16.137,16.137,0,0,1,2.672-2.4l.063.335c.012.067.019.112.022.147l.124,1.1c.019.174.039.361.058.551.084.831.154,1.677.222,2.495l.041.49c.038.46.051.941.064,1.405,0,.066,0,.131.005.2Zm-13.87,8.153h0A8.1,8.1,0,0,0,35.8,22.211a14.471,14.471,0,0,0-2.535,4.114,11.548,11.548,0,0,0-.93,4.727,4.4,4.4,0,0,0,.71,2.273,2.364,2.364,0,0,0,2,1.1c.051,0,.1,0,.157,0a1.965,1.965,0,0,0,1.539-.786,2.108,2.108,0,0,0,.244-1.816l-.023-.075a6.765,6.765,0,0,1,.228-4.164A8.4,8.4,0,0,1,39.485,24a4.471,4.471,0,0,1,2.983-1.133A5.988,5.988,0,0,1,45.814,24,7.917,7.917,0,0,1,48.271,26.7a11.674,11.674,0,0,1,1.063,2.814,16.48,16.48,0,0,1,.422,3.03,29.271,29.271,0,0,1-.414,6.077A34.549,34.549,0,0,1,47.966,44.1c-.611,1.839-1.349,3.679-1.993,5.26-.17-.031-.321-.055-.461-.074a27.916,27.916,0,0,0-3.656-.232,23.218,23.218,0,0,0-4.3.367A10.491,10.491,0,0,0,33.778,50.8a13.715,13.715,0,0,0-2.124-9.1,11.062,11.062,0,0,0-3.706-3.464,13.331,13.331,0,0,0-4.84-1.587,37.3,37.3,0,0,0-5.071-.36,24.544,24.544,0,0,0-5.679.6A9.648,9.648,0,0,0,8.486,38.8a10.986,10.986,0,0,0-2.667,3.241,14.572,14.572,0,0,0-1.7,5.822,14.994,14.994,0,0,0,.7,6,11.663,11.663,0,0,0,1.365,2.731,13.336,13.336,0,0,0,2.05,2.386,12.881,12.881,0,0,0,2.556,1.838A10.821,10.821,0,0,0,13.672,61.9a11.213,11.213,0,0,0,6.087,1.606c.365,0,.732-.014,1.093-.042a15.025,15.025,0,0,0,5.136-1.34,12.925,12.925,0,0,0,4.259-3.145,14.089,14.089,0,0,0,2.224-3.426,1.711,1.711,0,0,0,.672.325,2.458,2.458,0,0,0,.566.075,1.672,1.672,0,0,0,.564-.1,2.463,2.463,0,0,0,.639-.466l.383-.449A4.256,4.256,0,0,1,37.046,53.6a17.165,17.165,0,0,1,6.232-1.025c.586,0,1.167.022,1.728.066a4.838,4.838,0,0,1,3.909,2.2,9.351,9.351,0,0,1,1.136,5.416,19.2,19.2,0,0,1-1.082,5.512,11.27,11.27,0,0,1-1.692,3.069,11.483,11.483,0,0,1-5.545,3.887,10.9,10.9,0,0,1-8.584-.768A13,13,0,0,1,30.281,69.9a15.744,15.744,0,0,1-3.239-5.011c-.188-.393-.382-.8-.584-1.205a.163.163,0,0,0-.151-.086.171.171,0,0,0-.176.129,7.447,7.447,0,0,0,.215,3.567,11.048,11.048,0,0,0,1.685,3.323,14.733,14.733,0,0,0,2.624,2.753,13.092,13.092,0,0,0,3.032,1.86,12.674,12.674,0,0,0,5,1,14.138,14.138,0,0,0,4.5-.744,14.41,14.41,0,0,0,4.059-2.123,13.678,13.678,0,0,0,4.318-5.548,17.876,17.876,0,0,0,1.086-3.374,21.431,21.431,0,0,0,.46-3.543,5.179,5.179,0,0,0,3.455,1.251,8.431,8.431,0,0,0,3.623-.925,12.581,12.581,0,0,0,3.1-2.161,12.964,12.964,0,0,0,3.312-5.173,12.384,12.384,0,0,0,.524-6.1,11.454,11.454,0,0,0-.93-2.942,11.671,11.671,0,0,0-1.662-2.583A10.773,10.773,0,0,0,59.472,38.9a10.583,10.583,0,0,0-3.074-.448,10.742,10.742,0,0,0-2.9.394,11.183,11.183,0,0,0-2.2.865l.032-.13c.031-.125.063-.253.093-.379a32.589,32.589,0,0,0,.933-6.34,19.7,19.7,0,0,0-.136-3.207,14.824,14.824,0,0,0-.734-3.1,11.113,11.113,0,0,0-1.563-2.9,11.33,11.33,0,0,0-2.27-2.278,10.437,10.437,0,0,0-2.744-1.49A8.841,8.841,0,0,0,41.928,19.349ZM12.2,58.615a10.64,10.64,0,0,1-4.824-8.368,12.689,12.689,0,0,1,.354-3.933,10.455,10.455,0,0,1,1.638-3.586,6.217,6.217,0,0,1,3.285-2.307,14.78,14.78,0,0,1,4.054-.551l.282-.007c.483-.009.908-.014,1.3-.014a19.019,19.019,0,0,1,6.971,1.023,7.929,7.929,0,0,1,2.76,1.837,8.194,8.194,0,0,1,1.849,3.216,11.328,11.328,0,0,1-.01,6.746,10.76,10.76,0,0,1-1.5,3.053,9.511,9.511,0,0,1-2.437,2.39,11.272,11.272,0,0,1-6.337,1.84h-.013l-.2,0a17.916,17.916,0,0,1-4.451-.826c-.713-.2-1.45-.4-2.188-.553a.934.934,0,0,0-.193-.02A1,1,0,0,0,12.2,58.615Zm38.861-14.08a3.6,3.6,0,0,0,2.149-.98,6.159,6.159,0,0,1,1.352-.844,7.048,7.048,0,0,1,2.614-.5,6.936,6.936,0,0,1,1.342.13,6.65,6.65,0,0,1,3.6,2.07,8.709,8.709,0,0,1,2.243,6.032,9.412,9.412,0,0,1-.347,2.3,11.016,11.016,0,0,1-2.2,4.109l-.154.179a12.65,12.65,0,0,1-2.983,2.537A7.167,7.167,0,0,1,55.02,60.68a5.43,5.43,0,0,1-1.887-.337l.009-.4c0-.071,0-.136,0-.2a13.176,13.176,0,0,0-1.434-6.272,8.262,8.262,0,0,0-1.9-2.354,7.849,7.849,0,0,0-2.785-1.507,25.848,25.848,0,0,0,2.849-5.41,2.125,2.125,0,0,0,.959.32A2.269,2.269,0,0,0,51.064,44.536ZM9.972,32.415a15.391,15.391,0,0,0-3.375.428,12.154,12.154,0,0,0-6.53,3.884.3.3,0,0,0-.037.32.258.258,0,0,0,.227.162A.257.257,0,0,0,.4,37.16a14.8,14.8,0,0,1,6.682-2.616,15.041,15.041,0,0,1,1.623-.092,11.958,11.958,0,0,1,1.809.133c.213.033.424.073.628.112a7.194,7.194,0,0,0,1.358.173,3.059,3.059,0,0,0,.824-.108.619.619,0,0,0,.445-.419.747.747,0,0,0-.151-.694A4.582,4.582,0,0,0,9.972,32.415Zm53.582,3.512a11.289,11.289,0,0,0-2.57.283.166.166,0,0,0-.126.19.172.172,0,0,0,.168.161h.005c.081,0,.163,0,.243,0a7.712,7.712,0,0,1,1.948.233,6.687,6.687,0,0,1,1.817.768,7.444,7.444,0,0,1,1.4,1.2A7.45,7.45,0,0,0,67.772,39.9a1.058,1.058,0,0,0,.563.165,1.207,1.207,0,0,0,1.018-.624,1.084,1.084,0,0,0,0-1.118A4.536,4.536,0,0,0,66.9,36.459,9.93,9.93,0,0,0,63.553,35.927ZM18.887,46a4.037,4.037,0,0,0-1.783.4A3.628,3.628,0,0,0,15.68,47.63a3.148,3.148,0,0,0-.513,1.348,2.7,2.7,0,0,0,.054.971l-.018-.075c.061.273.1.434.108.479a4.08,4.08,0,0,0,1.03,1.837,2.954,2.954,0,0,0,1.879.827,2.283,2.283,0,0,0,2.02,1.118,2.7,2.7,0,0,0,2.236-1.161l.045-.071.01.013a4.191,4.191,0,0,0,.715-3.516,4.529,4.529,0,0,0-.766-1.678,3.975,3.975,0,0,0-1.42-1.2A4.886,4.886,0,0,0,18.887,46Zm38.524.971a2.772,2.772,0,0,0-.613.068,2.611,2.611,0,0,0-1.523,1.17,2.277,2.277,0,0,0-.224.521l-.252.6c-.031.094-.055.194-.078.291-.012.05-.024.1-.037.151-.085.329-.166.651-.224.98a4.036,4.036,0,0,0,.01,1.623,2.906,2.906,0,0,0,.792,1.41,3.124,3.124,0,0,0,4.415,0,2.64,2.64,0,0,0,.8-1.407,4.231,4.231,0,0,0,0-1.626c-.057-.329-.136-.651-.219-.98l-.071-.3c-.013-.053-.027-.1-.041-.146a2.4,2.4,0,0,0-.233-.567,2.3,2.3,0,0,0-.951-1.319A2.791,2.791,0,0,0,57.411,46.968ZM39.383,58.943a3.785,3.785,0,0,0-2.608,1.035l-.082.078a3.428,3.428,0,0,0-1.008,1.922,3.87,3.87,0,0,0,.235,2.153,3.656,3.656,0,0,0,2.918,2.227,3.786,3.786,0,0,0,.5.033,3.734,3.734,0,0,0,3.222-1.815,3.837,3.837,0,0,0,0-3.766l-.056-.1A3.571,3.571,0,0,0,39.383,58.943Z" transform="translate(69.508 76.233) rotate(180)"/></g><path d="M64.265,0h0a21.8,21.8,0,0,0-11.6,3.413,15.341,15.341,0,0,0-4.8,4.92,14.149,14.149,0,0,0-1.912,5.726,18.634,18.634,0,0,0,.628,6.97,6.333,6.333,0,0,0-1.847-.243,9.026,9.026,0,0,0-2.693.406,3.86,3.86,0,0,0-1.942,1.2c-3.761.321-7.561.786-11.236,1.236A169.139,169.139,0,0,1,8.414,25.291c-1.636,0-3.245-.048-4.783-.143a1.075,1.075,0,0,1-.973-.65,2.812,2.812,0,0,1-.056-1.14,2.823,2.823,0,0,0-.054-1.136,1.065,1.065,0,0,0-.961-.649A1.659,1.659,0,0,0,.029,23.151a4.206,4.206,0,0,0,.4,2.277,2.924,2.924,0,0,0,1.443,1.548c.688.492,2.783.753,6.058.753a137.6,137.6,0,0,0,15.73-1.144,134,134,0,0,0,16.608-3,5.872,5.872,0,0,0,3.276.785,23.868,23.868,0,0,0,3.1-.272c.333-.044.646-.086.941-.119A20.768,20.768,0,0,0,50.2,28.542,25.626,25.626,0,0,0,54.208,32.8a20.557,20.557,0,0,0,4.985,3.15,13.879,13.879,0,0,0,5.546,1.23,11.577,11.577,0,0,0,1.863-.15,25.714,25.714,0,0,0,5.4-.852A16.882,16.882,0,0,0,76.7,34.1a14.318,14.318,0,0,0,3.771-3.6,18.056,18.056,0,0,0,2.6-5.389A13.328,13.328,0,0,0,87.5,27.7a15.745,15.745,0,0,0,5.247.92,11.6,11.6,0,0,0,5.926-1.485,22.168,22.168,0,0,0,5.162,7.309,20.55,20.55,0,0,0,7.75,4.508,9.392,9.392,0,0,0,5.5,1.832,10.186,10.186,0,0,0,4.276-.988,14.5,14.5,0,0,0,3.825-2.627,18.521,18.521,0,0,0,3.063-3.764,18.227,18.227,0,0,0,1.99-4.4,4.2,4.2,0,0,0,1.817.8,9.645,9.645,0,0,0,1.966.2,1.845,1.845,0,0,0,1.083-.58,1.237,1.237,0,0,0,.3-.922c-.063-.662-.7-1.33-1.982-1.33a6.678,6.678,0,0,0-2.884.812,24.682,24.682,0,0,0,.46-10.26,16.99,16.99,0,0,0-3.355-7.511,16.815,16.815,0,0,0-3.032-2.966,18.2,18.2,0,0,0-3.6-2.121,20.015,20.015,0,0,0-8.073-1.7h0a19.3,19.3,0,0,0-3.763.367,17.415,17.415,0,0,0-3.543,1.1,15.27,15.27,0,0,0-3.152,1.839A13.748,13.748,0,0,0,99.887,9.3a14.2,14.2,0,0,0-2.738,6.639,22.385,22.385,0,0,0,.74,9.132,27.771,27.771,0,0,1-6.45.817,17.978,17.978,0,0,1-8.072-1.775,18.487,18.487,0,0,0,.686-4.409,18.031,18.031,0,0,0-.37-4.251,18.508,18.508,0,0,0-1.315-3.972A19.317,19.317,0,0,0,80.219,7.91,20.016,20.016,0,0,0,64.265,0ZM66.49,34.524h0a25.054,25.054,0,0,1-8.741-1.742,22.116,22.116,0,0,1-7.092-8.049,20.423,20.423,0,0,1-1.85-5,15.626,15.626,0,0,1-.322-5.077,11.824,11.824,0,0,1,2.421-6.088A14.519,14.519,0,0,1,57.2,4.1a18.048,18.048,0,0,1,3.38-1,18.571,18.571,0,0,1,3.483-.33,18.284,18.284,0,0,1,7.664,1.672,16.734,16.734,0,0,1,3.353,2.066,15.907,15.907,0,0,1,2.8,2.865,16.861,16.861,0,0,1,3.391,8.649,16.61,16.61,0,0,1-.178,4.483,15.544,15.544,0,0,1-1.367,4.181,14.254,14.254,0,0,1-2.1,3.132A13.531,13.531,0,0,1,74.695,32.3a14.086,14.086,0,0,1-3.719,1.633,16.723,16.723,0,0,1-4.484.588Zm49.7,3.819a.194.194,0,0,1-.086-.016,16.932,16.932,0,0,1-3.3-.851c-.584-.193-1.134-.375-1.627-.5a20.517,20.517,0,0,1-8.478-7.6,19.661,19.661,0,0,1-3.359-10.73,13.17,13.17,0,0,1,.5-3.438,11.431,11.431,0,0,1,1.446-3.151,13.258,13.258,0,0,1,6.146-4.836,14.946,14.946,0,0,1,2.9-.869,15.945,15.945,0,0,1,3.019-.287,16.255,16.255,0,0,1,5.931,1.122,14.883,14.883,0,0,1,2.673,1.383,13.669,13.669,0,0,1,2.321,1.913,13.028,13.028,0,0,1,2.66,3.827,17.629,17.629,0,0,1,1.409,4.705,21.2,21.2,0,0,1-.864,10.061,17.274,17.274,0,0,1-1.6,3.41,13.854,13.854,0,0,1-2.286,2.835,11.569,11.569,0,0,1-2.966,2.04,11.4,11.4,0,0,1-3.637,1.024.828.828,0,0,0-.384-.091,1.482,1.482,0,0,0-.234.022l-.026,0A1.062,1.062,0,0,1,116.192,38.344ZM47.338,23.352h0l-.173-.077,0,0-.046-.02.02-.008.02-.008a.443.443,0,0,0,.076-.05l.034-.025c.013.036.027.071.041.106l0,.006.03.077Z" transform="translate(173.649 109.018) rotate(180)"/></svg>