<svg xmlns="http://www.w3.org/2000/svg" width="269.951" height="388.641" viewBox="0 0 269.951 388.641">
  <g id="peep-67" transform="translate(-63.604 -83.215)">
    <g id="BODY" transform="translate(51.372 223.421)">
      <path id="_Skin" data-name="âœ‹ Skin" d="M127.266,79.567c-3.046-11.818-5.847-16.829-11.258-20.936-5.061-3.842-12.45-7.069-23.23-9.426-11.228-1.964-11.547-7.8-14.362-17.184a4.068,4.068,0,0,0-6.648-1.538,8.068,8.068,0,0,0-.773-.734c.239-1.345-1.719-5.2-1.653-6.487C70.024,9.831,65.632,3.087,54.67.58,52.287.034,36.095-.287,33.77.356,23.609,3.166,13.606,12.089,15.137,22.837c-3.19,4.17-6.311,6.714-11.232,8.058-7.663.973-3.814,109.572,9.5,174.634,5.71,27.915,142.253-19.6,136.083-33.579.875-2.563-.72-5.379,0-8.026.521-1.915,1.854-2.707,2.526-4.6.945-2.669-.083-6.249-1.146-8.972-.436-1.357.8-2.818,1.146-4.2,1.632-6.532-2.1-5.957-4.8-10.324.04-.014.741-3.131.737-3.115.412-2.226-.621-5.077-1.522-6.935a3.272,3.272,0,0,0-3.21-1.9,118.192,118.192,0,0,1,4.733-12.395c3.14-7.53,6.127-15.407,10.636-22.222,1.847-2.791.355-5.358-2.633-5.548A182.552,182.552,0,0,1,127.266,79.567Z" transform="translate(120.896 -10.839)" fill="#d08b5b"/>
      <path id="_Device" data-name="ðŸ“± Device" d="M22.079,0,0,37.38s5.238.523,7.358,1.542,11.853,13.4,11.853,13.4l1.546,6.816-3.664,5.5,1.429,3.45a11.238,11.238,0,0,1,3.558-4.152c2.538-1.814,8.137-4.793,8.137-4.793s-1.86-1-1.86-2.165-1.639-6.155,1.86-8.039S51.8,42.637,51.8,42.637L70.121,3.97Z" transform="translate(210.983 69.641)" fill="#ec7495"/>
      <path id="_Top" data-name="ðŸ‘• Top" d="M121.445,0l70.109,12.309,32.228,15.173,5.261,4.055L197.861,86.711,149.714,95.5l-12.266,31.873,2.5,35.927,78.326-9.342,33.786-4.016,7.942,32.075-1.435,13.2-2.087,6.691-83.758,22.621s-42.651-4.136-50.211-4.136S59.522,225.9,59.522,225.9L46.7,224.524S18.32,194.605,13.918,183.957,0,108.581,0,108.581l1.048-9.945L25.565,35.52a80.915,80.915,0,0,0,7.4-8.038C37.094,22.418,121.445,0,121.445,0Z" transform="translate(13.122 20.31)" fill="#9ddadb"/>
      <path id="_Ink" data-name="ðŸ– Ink" d="M212.4,245.987h0a77.665,77.665,0,0,1-8-.425c-3-.311-6.038-.717-8.977-1.11h-.006c-3.4-.454-6.911-.923-10.386-1.249-3.575-.336-7.307-.6-11.411-.817.268-.536.546-1.074.816-1.595l0,0c.208-.4.422-.816.631-1.226a1.359,1.359,0,0,0-.041-1.369,1.585,1.585,0,0,0-1.294-.75,1.184,1.184,0,0,0-1.079.708c-.223.44-.453.885-.676,1.316-.468.9-.952,1.84-1.393,2.777-5.35-.227-11.009-.337-17.3-.337-9.225,0-18.6.241-27.664.474-3.772.1-7.672.2-11.533.279-3.744.079-7.551.147-11.233.213h-.061c-8.184.147-16.646.3-24.97.576-3.454.114-6.971.255-10.373.392H67.42c-2.187.088-4.448.178-6.672.261-.326-1.036-.686-2.08-1.035-3.089-.141-.409-.3-.873-.454-1.321a1.371,1.371,0,0,0-1.35-.964,1.5,1.5,0,0,0-1.216.58,1.192,1.192,0,0,0-.13,1.127c.155.456.313.914.466,1.358l0,0c.272.787.553,1.6.816,2.406-5.955.2-10.536.292-14.856.292l-1.083,0a1.36,1.36,0,0,1-.426-.066l-.027.168-.01.066-.015.095a.042.042,0,0,1-.043.035.055.055,0,0,1-.035-.013.047.047,0,0,1-.016-.037c0-.119,0-.241-.007-.367a1.552,1.552,0,0,1-.891-1A10.542,10.542,0,0,1,40.269,239a5.617,5.617,0,0,0-1.44-1.958,12.587,12.587,0,0,0-4.117-1.968A20.349,20.349,0,0,1,32,234.014a32.116,32.116,0,0,1-4.76-3,40.167,40.167,0,0,1-8.038-8.23,58.075,58.075,0,0,1-3.533-5.34c-1.041-1.774-2.044-3.685-2.981-5.681A98.484,98.484,0,0,1,8.072,199.8c-1.288-4.028-2.44-8.265-3.424-12.6-.944-4.155-1.756-8.5-2.415-12.914a211.584,211.584,0,0,1-2.185-26.1,175.218,175.218,0,0,1,.844-21.747,58.391,58.391,0,0,1,5.187-2.988,1.19,1.19,0,0,0,.668-1.4,1.609,1.609,0,0,0-.5-.826,1.379,1.379,0,0,0-.916-.358,1.446,1.446,0,0,0-.659.166c-1.1.561-2.209,1.177-3.383,1.881A172.825,172.825,0,0,1,6.073,98.48,167.1,167.1,0,0,1,14.391,75c1.992-4.513,3.87-8.394,5.74-11.865a96.461,96.461,0,0,1,7.01-11.246,24.639,24.639,0,0,1,5.64,1.018,1.473,1.473,0,0,0,.441.071,1.324,1.324,0,0,0,1.258-1.2,1.485,1.485,0,0,0-.149-.929,1.35,1.35,0,0,0-.806-.64,24.875,24.875,0,0,0-4.391-.931A64.07,64.07,0,0,1,34.01,43.83,57.67,57.67,0,0,1,40.1,38.605a66.267,66.267,0,0,1,6.693-4.372,78.576,78.576,0,0,1,7.153-3.605C56.3,29.584,58.811,28.6,61.409,27.7,71.889,24.092,82.8,22.093,93.993,20.2c1.026-.174,2.052-.336,3.044-.493,4.5-.712,8.742-1.385,12.6-2.957a21.434,21.434,0,0,0,5.424-3.142,20.761,20.761,0,0,0,4.565-5.167,1.482,1.482,0,0,1,1.219-.68,1.146,1.146,0,0,1,.643.191c.222.148.516.344.818.549l.023-.066.019-.053a34.1,34.1,0,0,0,1.079-4.818c.186-1.077.379-2.19.644-3.283a.346.346,0,0,1,.35-.279.441.441,0,0,1,.409.279,12.185,12.185,0,0,1,.654,4.7,19.879,19.879,0,0,1-.913,5.1c.425.3.868.619,1.259.9a83.225,83.225,0,0,0,7.52,4.979c4.585,2.579,12.458,3.952,17.668,4.86l.239.042A77.478,77.478,0,0,0,164.44,22.1c.9,0,1.8-.021,2.666-.063a22.466,22.466,0,0,0,6.018-1.02,12.326,12.326,0,0,0,2.894-1.392c.192-.129.375-.26.559-.4a38.968,38.968,0,0,1-.283-6.612c.087-2.244.178-4.565,1.38-6.615a.086.086,0,0,1,.076-.047.117.117,0,0,1,.1.072,24.157,24.157,0,0,1,1.371,7.319c.043.512.087,1.041.138,1.562a7.111,7.111,0,0,1,2.054-.306,6.859,6.859,0,0,1,5.614,2.918,13.079,13.079,0,0,1,1.667,3.729,22.9,22.9,0,0,0,.807,2.219,6.116,6.116,0,0,0,.583.9,3.9,3.9,0,0,1,.8,1.445c.146.126.215.2.205.229,0,.007-.01.01-.023.01a.914.914,0,0,1-.266-.1c-.149-.049-.241-.077-.272-.084.039.016.121.045.245.088l.038.013.281.14.02.01a5.837,5.837,0,0,1,1.37.846,2.755,2.755,0,0,1,.8,1.252,3.706,3.706,0,0,1,.155,1.507c.454.215.911.439,1.353.657.93.457,1.891.93,2.844,1.318l.347.142c2.443,1,4.97,2.03,7.418,3.163,5.47,2.526,10.915,5.331,16.184,8.338l.815.464c1.134.645,2.306,1.312,3.448,2.006a30.868,30.868,0,0,0-3.468,2.943,1.26,1.26,0,0,0-.317,1.427,1.528,1.528,0,0,0,1.362.956,1.319,1.319,0,0,0,.932-.406,28.27,28.27,0,0,1,3.994-3.3,22.237,22.237,0,0,1,6.136,5.979,32.782,32.782,0,0,1,2.981,6.36l.013.034.207.539a32.752,32.752,0,0,0,3.55,6.874l.018.027a1.089,1.089,0,0,1,.07.116l.3.017h.017l.317.018c4.561.261,9.178.614,13.724,1.049.709.067,1.448.134,2.1.193a90.733,90.733,0,0,1,11.225,1.486,1.259,1.259,0,0,1,.788.659,1.052,1.052,0,0,1,.082.876c-.147.362-.319.783-.5,1.206-4.713,11.479-10.184,23.273-16.726,36.055a4.06,4.06,0,0,1,1.89.494,2.94,2.94,0,0,1,1.269,1.649,22.121,22.121,0,0,1,1.148,4.674,10.825,10.825,0,0,1-.39,4.735.138.138,0,0,1-.132.1.15.15,0,0,1-.074-.02,6.354,6.354,0,0,0,1.747,4.6,12.653,12.653,0,0,0,1.425,1.2,8.9,8.9,0,0,1,1.926,1.789c1.47,2.035.464,3.669-.6,5.4-.2.327-.41.665-.6,1.007a1.676,1.676,0,0,0-.166,1.631,4.163,4.163,0,0,0,1.06,1.192,7.287,7.287,0,0,1,.955.957,4.685,4.685,0,0,1,.872,1.868,6.03,6.03,0,0,1,.075,2.069,13.608,13.608,0,0,1-1.649,4.521c-.206.4-.413.811-.612,1.214a19.47,19.47,0,0,1-2.355,3.948.82.82,0,0,1-.14.132.143.143,0,0,1,.035,0h0c.187,0,.429.3.493.458.036.082.072.165.107.245s.074.172.11.252l-.011-.028-.011-.028a.2.2,0,0,1,.025-.2.364.364,0,0,1,.28-.143h.006c.214,0,.567.4.636.584a83.565,83.565,0,0,1,3.3,8.867l.374,1.448.075.29.673,2.605c.5,2.132.8,4.316,1.094,6.429l0,.026c.236,1.491.405,2.972.5,4.4.237,2.16.378,4.359.419,6.538a81.7,81.7,0,0,1-.916,10.552,42.568,42.568,0,0,1-.706,4.3,53.033,53.033,0,0,1-1.5,6.384c-.257,1.059-.519,2.151-.751,3.114l-.2.816-.022.059-.4,1.074a20.151,20.151,0,0,1-.87,2.454c-.116.355-.248.727-.4,1.138a33.212,33.212,0,0,0-8.914-1.631h-.028a1.3,1.3,0,0,0-1.322,1.364,1.5,1.5,0,0,0,.333.975,1.308,1.308,0,0,0,1.017.458,29.433,29.433,0,0,1,7.8,1.4c-.4.805-.836,1.587-1.3,2.325l-.046.091c-1.257,2.472-2.557,5.029-4.049,7.44a45.713,45.713,0,0,1-2.834,4.066,30.924,30.924,0,0,1-6.032,6.059,16.012,16.012,0,0,1-3.593,2.28,26.852,26.852,0,0,1-4.582,1.525,25.352,25.352,0,0,1-2.662.5c-.478.059-.968.1-1.441.131-.585.043-1.189.088-1.781.177a13.492,13.492,0,0,0-2.848.706,6.913,6.913,0,0,0-1.3.654,9.52,9.52,0,0,0-.975,1,.045.045,0,0,1-.024.021,2.589,2.589,0,0,1-2.153,1.787A69.487,69.487,0,0,1,212.4,245.987ZM99.173,224.567a1.447,1.447,0,0,0-.368.049,1.521,1.521,0,0,0-.911.785,1.127,1.127,0,0,0-.066.936,19.289,19.289,0,0,0,3.983,6.256,1.289,1.289,0,0,0,.931.421,1.518,1.518,0,0,0,1.339-.941,1.294,1.294,0,0,0-.293-1.458,15.725,15.725,0,0,1-3.263-5.022A1.493,1.493,0,0,0,99.173,224.567Zm19.005-30.643a1.38,1.38,0,0,0-.328.042,7.731,7.731,0,0,1-.887.154,4.806,4.806,0,0,0-1.317.308c-.423.175-.843.379-1.25.577-.154.075-.329.16-.5.241-1.362.645-2.72,1.289-4.036,1.914-2.545,1.21-5.049,2.4-7.442,3.551-4.572,2.19-9.18,4.5-13.637,6.736l-.007,0-2.05,1.028C82.1,210.8,76.71,213.5,71.387,216.193c-2.711,1.374-5.369,2.774-7.612,3.963l-.693.366c-.966.51-1.965,1.037-2.934,1.583-.26.146-.526.286-.808.434a9.092,9.092,0,0,0-2.675,1.828.149.149,0,0,0-.021.156.111.111,0,0,0,.1.068h.01a15.633,15.633,0,0,0,5.449-1.991c.6-.305,1.169-.593,1.711-.839l1.64-.74.007,0c1.931-.871,3.928-1.772,5.881-2.684,6.173-2.885,11.236-5.228,15.934-7.375,2.132-.974,4.3-1.952,6.393-2.9,3.047-1.376,6.2-2.8,9.281-4.226,2.58-1.194,5.208-2.406,7.81-3.6,1.111-.51,2.339-1.073,3.753-1.72.205-.094.416-.188.619-.279l.027-.012c.405-.181.825-.369,1.231-.567a7.241,7.241,0,0,0,1.5-1.013c.227-.185.462-.377.742-.579a1.228,1.228,0,0,0,.461-1.385A1.046,1.046,0,0,0,118.179,193.924Zm88.95,24.191a1.521,1.521,0,0,0-1.345.945,1.285,1.285,0,0,0,.3,1.449c.385.391.759.8,1.121,1.2a17.144,17.144,0,0,0,2.785,2.641,1.143,1.143,0,0,0,.659.2,1.49,1.49,0,0,0,1.254-.7,1.315,1.315,0,0,0,.135-1.056,1.616,1.616,0,0,0-.637-.858,13.086,13.086,0,0,1-2.267-2.22c-.347-.4-.705-.812-1.074-1.186A1.3,1.3,0,0,0,207.128,218.115Zm-60.905-8.861a1.3,1.3,0,0,0-.931.416,48.938,48.938,0,0,0-4.245,5.117,1.126,1.126,0,0,0-.18.905,1.565,1.565,0,0,0,.681,1.008,1.294,1.294,0,0,0,.671.193,1.589,1.589,0,0,0,1.242-.7,43.9,43.9,0,0,1,3.807-4.55,1.284,1.284,0,0,0,.3-1.449A1.521,1.521,0,0,0,146.223,209.254ZM33.093,198.823a1.462,1.462,0,0,0-.646.156c-.871.427-1.775.82-2.648,1.2a40.8,40.8,0,0,0-4.2,2.022,1.273,1.273,0,0,0-.626,1.5,1.466,1.466,0,0,0,1.34,1.118,1.381,1.381,0,0,0,.7-.2,40.773,40.773,0,0,1,4.2-2.022c.874-.381,1.778-.774,2.647-1.2a1.167,1.167,0,0,0,.678-1.369A1.547,1.547,0,0,0,33.093,198.823Zm212.673-22.154a.143.143,0,0,0-.1.043.115.115,0,0,0-.032.087,12.249,12.249,0,0,0,.81,3.251c.148.425.3.865.426,1.289.631,2.129,1.072,3.876,1.387,5.5a41.048,41.048,0,0,1,.538,4.682,30.634,30.634,0,0,0,.9,6.187,1.158,1.158,0,0,0,1.132.908,1.472,1.472,0,0,0,1.331-.908,10.271,10.271,0,0,0,.724-2.881,14.631,14.631,0,0,0-.011-3.014,27.632,27.632,0,0,0-1.352-5.874,26.728,26.728,0,0,0-2.332-5.256,21.017,21.017,0,0,0-1.447-2.212,6.721,6.721,0,0,0-1.909-1.783A.128.128,0,0,0,245.766,176.668Zm-72.17,4.493a1.465,1.465,0,0,0-1.22.583,1.114,1.114,0,0,0-.067,1.092c.384.95.8,1.9,1.21,2.825s.822,1.867,1.206,2.814a1.547,1.547,0,0,0,2.628.349,1.115,1.115,0,0,0,.068-1.092c-.385-.951-.8-1.9-1.21-2.824v0c-.4-.918-.822-1.867-1.2-2.812A1.467,1.467,0,0,0,173.6,181.161Zm36.75-.916a1.5,1.5,0,0,0-.426.065,57.667,57.667,0,0,0-6.758,2.649c-.505.223-1.078.476-1.628.714a1.192,1.192,0,0,0-.625.556,1.112,1.112,0,0,0-.08.725,1.612,1.612,0,0,0,1.515,1.263,1.509,1.509,0,0,0,.6-.129c.456-.2.918-.4,1.364-.6l.025-.011a54.641,54.641,0,0,1,6.329-2.474,1.336,1.336,0,0,0,.963-1.539,1.545,1.545,0,0,0-.408-.851A1.193,1.193,0,0,0,210.346,180.246Zm-125.2-1.2a1.524,1.524,0,0,0-1.353.95,1.273,1.273,0,0,0,.308,1.439l3.623,3.625a1.308,1.308,0,0,0,.932.412,1.524,1.524,0,0,0,1.353-.95,1.274,1.274,0,0,0-.308-1.44l-3.623-3.625A1.308,1.308,0,0,0,85.143,179.05ZM63.509,119.613a.314.314,0,0,0-.23.091.292.292,0,0,0-.073.224c.1,1.749.257,3.519.409,5.23v0c.2,2.276.411,4.63.487,6.961.127,3.85.112,7.882-.044,12.327-.128,3.63-.367,7.456-.754,12.042-.1,1.184-.262,2.423-.42,3.622v0a37.287,37.287,0,0,0-.477,7.941c-3.711.972-6.907,1.955-9.773,3-.6.219-1.223.435-1.884.663a42.578,42.578,0,0,0-6.578,2.7,10.885,10.885,0,0,0-4.846,4.659.122.122,0,0,0,.01.118.119.119,0,0,0,.1.06.094.094,0,0,0,.074-.039,8,8,0,0,1,3.049-2.24,26.632,26.632,0,0,1,3.658-1.245c.221-.063.47-.135.712-.206,2.778-.816,5.544-1.542,8.613-2.338,5.772-1.5,11.712-2.733,17.457-3.927h0l.645-.134,2.83-.586c5.034-1.04,10.239-2.115,15.319-3.365l.785-.193.024-.006c2.587-.634,5.262-1.289,7.814-2.158a34.256,34.256,0,0,0,8.455-3.847,1.169,1.169,0,0,0,.386-1.269.762.762,0,0,0-.758-.57,1.076,1.076,0,0,0-.123.007,51.769,51.769,0,0,0-7.43,1.616l-.018,0c-.5.134-1.016.273-1.518.4-1.248.327-2.512.676-3.734,1.014l-.007,0c-1.8.5-3.663,1.012-5.51,1.465-4.3,1.053-8.69,2.021-12.938,2.957h0c-2,.441-4.073.9-6.106,1.356-2.317.524-4.217.969-5.981,1.4a27.437,27.437,0,0,0,.426-3.518c.026-.33.052-.671.082-1.009.049-.557.1-1.124.148-1.672l0-.056c.125-1.4.255-2.856.369-4.285.38-4.75.592-8.907.646-12.71a97.444,97.444,0,0,0-.554-12.325c-.2-1.8-.461-3.922-.855-6.051a36.915,36.915,0,0,0-1.549-5.9A.357.357,0,0,0,63.509,119.613Zm137.278-12.467c-1.661,0-3.326.144-4.936.282h-.012c-.448.039-.871.075-1.292.108a70.117,70.117,0,0,0-10.858,1.654,14.939,14.939,0,0,0-4.147,1.63,13.794,13.794,0,0,0-3.419,2.849,39.917,39.917,0,0,0-4.285,6.358c-.178.3-.379.649-.573.977a47.728,47.728,0,0,1-6.188,8.3,43.84,43.84,0,0,1-7.795,6.627,2.4,2.4,0,0,1-.954,1.056.081.081,0,0,1,.014.021c-.139.06-.255.111-.363.161l-.016.007-.016.007-.663.291a101.828,101.828,0,0,0-10.922,5.327c-.019.151-.04.3-.061.451v.005c-.038.27-.074.525-.1.774-.067.78-.154,1.571-.238,2.336s-.171,1.549-.237,2.325a80.6,80.6,0,0,0-.349,9.388,47.71,47.71,0,0,0,1.3,9.744c.309,1.27.718,2.529,1.113,3.746l.079.244a36.259,36.259,0,0,1,7.038-3.94,28.375,28.375,0,0,1,7.853-2.514,19.5,19.5,0,0,1,2.847-.2,40.939,40.939,0,0,1,5.645.5l.565.081.03,0a29.735,29.735,0,0,0,4.214.4,10.073,10.073,0,0,0,3.057-.423,7.886,7.886,0,0,0,3.338-2.186,25.981,25.981,0,0,0,2.509-3.275,21.943,21.943,0,0,1,2.9-3.653,8.763,8.763,0,0,1,5.127-2.475,8.088,8.088,0,0,1,.85-.038c.225,0,.455.006.677.011h.014c.229.006.465.012.7.012a5.158,5.158,0,0,0,2.131-.363,4.543,4.543,0,0,0,2.457-3.067,1.839,1.839,0,0,1,.967-1.133,5.292,5.292,0,0,1-1.672-1.1c-.165-.141-.336-.287-.519-.433-.992-.79-1.987-1.535-2.957-2.213-.614-.43-1.248-.853-1.861-1.261-.309-.206-.628-.418-.942-.63-.16-.109-.361-.272-.593-.461a4.421,4.421,0,0,0-2.07-1.2.7.7,0,0,0-.143.014l-.021,0a.139.139,0,0,1-.111-.055.1.1,0,0,1-.012-.09c.138-.371.492-.56,1.051-.56a7.983,7.983,0,0,1,2.909.824,30.508,30.508,0,0,1,3.6,1.924c2.461,1.515,4.49,3.134,4.825,3.849a1.088,1.088,0,0,1-.224,1.269,2.673,2.673,0,0,0,.667.087,3.039,3.039,0,0,0,2.2-1.074,5.355,5.355,0,0,0,1.206-2.271,16.921,16.921,0,0,0-.224-6.616q-.044-.267-.087-.528a.34.34,0,0,1,.08-.277.331.331,0,0,1,.246-.121.261.261,0,0,1,.07.009l.076-.175c-1.692-.739-3.494-1.327-5.238-1.9h0c-.775-.253-1.576-.514-2.354-.785l-1.427-.5-.117-.041L191.8,134.1c-.165-.057-.333-.113-.5-.168a5.732,5.732,0,0,1-2.867-1.615,1.478,1.478,0,0,1-.267-1.385,1.089,1.089,0,0,1,.822-.724,4.16,4.16,0,0,1,.926-.1,8.769,8.769,0,0,1,3.01.726c.249.091.506.186.765.275,1.362.463,2.729.931,4.05,1.384l.513.176c.707.241,1.434.478,2.136.707l.011,0a58.781,58.781,0,0,1,5.9,2.157,11.588,11.588,0,0,1,2.976,1.876,8.451,8.451,0,0,1,2.088,2.812c.092.2.185.484.293.81.331,1,.784,2.368,1.611,2.554a.829.829,0,0,0,.182.021c.488,0,.885-.472,1.178-1.4a11.663,11.663,0,0,0,.4-2.068,14.029,14.029,0,0,0-.2-4.336,16.057,16.057,0,0,0-1.463-4.2,13.674,13.674,0,0,0-6.011-6.149,43.721,43.721,0,0,0-8.124-2.677l-.3-.078c-2.281-.59-4.706-1.092-7.209-1.493-.922-.152-1.923-.3-3.061-.441a.172.172,0,0,1-.159-.179.15.15,0,0,1,.159-.146c.875-.039,1.75-.058,2.6-.058.4,0,.808,0,1.2.013,3.454-1.757,6.522-2.057,10.479-2.29.065,0,.131-.006.2-.006a4.954,4.954,0,0,1,2.589.861,11.768,11.768,0,0,1,2.332,1.988,12.816,12.816,0,0,1,2.574,3.8c2.908,1.952,5,4.9,6.388,9.014.068.2.13.4.189.6a8.766,8.766,0,0,1,1.705-2.61,12.849,12.849,0,0,1,2.366-2.012,42.655,42.655,0,0,1,5.917-3.283,1.956,1.956,0,0,1-.489-.276,3.717,3.717,0,0,1-1.017-2.687c-.013-.124-.027-.253-.042-.378a11.921,11.921,0,0,1,.07-4.13,6.353,6.353,0,0,1,.728-1.806,7.174,7.174,0,0,1,1.172-1.467,11.794,11.794,0,0,1,3.192-2.119,46.824,46.824,0,0,1,8.978-3.183,50.483,50.483,0,0,1,9.432-1.376,1.532,1.532,0,0,1,.147-.356c3.16-5.67,6.271-11.68,9.245-17.862,2.8-5.823,5.577-12,8.249-18.347-2.2-.164-4.443-.436-6.609-.7h-.005c-1.606-.195-3.267-.4-4.9-.553-4.335-.416-8.72-.757-13.035-1.014-.893-.055-1.794-.1-2.664-.151l-.048,0c-2.935-.154-5.956-.276-8.978-.36l-1.068-.031-.111,0c-1.4-.042-2.842-.085-4.264-.085-.232,0-.462,0-.682,0a4.475,4.475,0,0,0-1.291.151,2.143,2.143,0,0,0-1.051.723,4.045,4.045,0,0,0-.386.605,2.332,2.332,0,0,1-.777.954l-.1.057c-.057.033-.12.069-.183.1-.029.03-.06.06-.089.089l0,0a1.89,1.89,0,0,0-.183.2,15.3,15.3,0,0,0-1.115,1.689c-.978,1.685-1.876,3.457-2.745,5.172l-.012.024c-.647,1.277-1.274,2.587-1.88,3.853-.859,1.795-1.747,3.651-2.7,5.433-1.667,3.108-3.218,5.834-4.739,8.332-.387.631-3.394,5.219-5.1,7.532a15.894,15.894,0,0,1,4.012.626c.283-.647.612-1.282.93-1.9v0c.271-.524.552-1.065.8-1.612.187-.409.353-.848.515-1.272a11.4,11.4,0,0,1,1.082-2.315.756.756,0,0,1,.632-.36.771.771,0,0,1,.584.277.8.8,0,0,1,.164.664,10.221,10.221,0,0,1-1.718,3.519l-.011.016-.1.146a16.619,16.619,0,0,1-2.366,3.011c.05.016.1.033.14.049a9.694,9.694,0,0,1,3.505,2.455,33.5,33.5,0,0,1,2.779,3.441c.331.449.644.873.963,1.289.066.086.153.2.253.325l0,.006c1.3,1.664,5.272,6.727,6.054,10.977a6.217,6.217,0,0,1-.028,2.375,4.909,4.909,0,0,1-.9,2.023,3.014,3.014,0,0,1-2.232,1.216l-.059,0a.672.672,0,0,1-.6-.319,1.508,1.508,0,0,1-.19-.8,4.251,4.251,0,0,1,.576-2.026,1.847,1.847,0,0,1,1.433-1.1c-.3,0-.3-.2-.312-.443a1.707,1.707,0,0,0-.034-.326,5.918,5.918,0,0,0-.316-.882c-.035-.083-.07-.168-.1-.251a27.286,27.286,0,0,0-1.419-2.941,43.2,43.2,0,0,0-2.946-4.566c-1.114-1.53-2.305-3.008-3.53-4.514l-.164-.2c-1.213-1.49-2.359-2.9-4.282-3.425a16.786,16.786,0,0,0-4.344-.514Zm48.056,37.379a.831.831,0,0,1,.641.268.992.992,0,0,1,.235.615,1.213,1.213,0,0,1-.228.77,1.04,1.04,0,0,1-.759.419l-.25.024h0c-5.123.484-10.42.984-15.6,1.724-2.824.4-5.329.82-7.661,1.269-.884.171-1.785.394-2.657.61-.431.107-.877.217-1.317.32a.13.13,0,0,1-.018.116,9.912,9.912,0,0,0-1.578,3.849,5.045,5.045,0,0,0,.078,2.05,3.721,3.721,0,0,0,1.07,1.784,3.321,3.321,0,0,0,2.408.8,14.041,14.041,0,0,0,1.495-.107l.116-.012c1.565-.171,3.118-.386,4.7-.609,2.59-.365,5.282-.792,8.23-1.3,1.371-.236,2.807-.5,4.267-.783a143.288,143.288,0,0,0,15.091-6.437,24.9,24.9,0,0,1,1.45-2.712c.3-.509.609-1.035.885-1.553l.046-.087c.791-1.494,1.874-3.54,1.188-5.238a4.633,4.633,0,0,0-1.36-1.642,4.767,4.767,0,0,1-1.38-1.662,3.162,3.162,0,0,1-.219-1.623,4.27,4.27,0,0,1,.541-1.559,8.358,8.358,0,0,1,.82-1.117,4.383,4.383,0,0,0,1.259-2.348c.052-1.191-1.11-2.1-2.135-2.9a11.369,11.369,0,0,1-.95-.794,6.123,6.123,0,0,1-1.755-3.28,5.981,5.981,0,0,1,.536-3.668.174.174,0,0,1,.143-.1,35.1,35.1,0,0,0-.76-3.8,17.984,17.984,0,0,0-1.316-3.576,1.991,1.991,0,0,0-2.054-1.124c-.223,0-.452.011-.694.023h-.013c-.153.007-.311.015-.471.02-1.228.041-2.383.118-3.53.238a49.913,49.913,0,0,0-7.6,1.395,46.434,46.434,0,0,0-7.282,2.588,11.915,11.915,0,0,0-2.918,1.73,4.627,4.627,0,0,0-1.629,2.878,11.587,11.587,0,0,0,.1,3.374c.006.039.011.08.017.122.045.326.1.732.231.794a.261.261,0,0,0,.1.016,8.908,8.908,0,0,0,1.544-.351c.173-.049.309-.088.372-.1l.719-.155.056-.012c2.28-.492,4.638-1,6.955-1.5.673-.145,1.375-.323,2.053-.494h0a24.4,24.4,0,0,1,5.307-.938h.02a1.044,1.044,0,0,1,.96.881.829.829,0,0,1-.477.98,33.806,33.806,0,0,1-7.252,1.856c-1.009.181-2.051.369-3.029.584l-.86.189-.86.189c-.907.422-1.833.835-2.728,1.233a70.345,70.345,0,0,0-6.913,3.389l-.1.059c-1.749,1.02-3.732,2.175-4.782,3.987a4.4,4.4,0,0,0-.548,1.74,3.644,3.644,0,0,0,.24,1.789,2.352,2.352,0,0,0,1.678,1.405,4.966,4.966,0,0,0,1.127.12,7.994,7.994,0,0,0,1.1-.082,22.774,22.774,0,0,0,3.009-.709c.573-.162,1.113-.316,1.611-.428l6.751-1.532,2.676-.606,11.163-2.53a1.062,1.062,0,0,1,.233-.027.889.889,0,0,1,.655.282,1.1,1.1,0,0,1,.291.628.908.908,0,0,1-.123.586.854.854,0,0,1-.55.367c-6.108,1.388-12.268,2.792-18.225,4.15-.767.174-1.554.372-2.314.564h0a48,48,0,0,1-5.16,1.1l-.043.028a25.4,25.4,0,0,0-6.125,4.889c-.114.133-.234.28-.377.465a2.076,2.076,0,0,0-.442,2.077,1.6,1.6,0,0,0,1.514.8c.056,0,.113,0,.168,0a8.342,8.342,0,0,0,2.082-.392c.217-.06.44-.122.654-.175,1.831-.459,3.716-.876,5.6-1.241a215.935,215.935,0,0,1,21.708-2.727l1.032-.094C248.769,144.527,248.807,144.525,248.843,144.525Zm-225.3.709a1.556,1.556,0,0,0-1.38.967,1.235,1.235,0,0,0,.335,1.4,18.047,18.047,0,0,0,6.084,3.357l.012,0,.559.221a1.378,1.378,0,0,0,.506.1,1.223,1.223,0,0,0,1.143-1.083,1.494,1.494,0,0,0-.906-1.718c-.225-.089-.463-.182-.655-.257a14.065,14.065,0,0,1-4.767-2.606A1.342,1.342,0,0,0,23.547,145.234Zm194.537-5.592a14.375,14.375,0,0,1-.122,2.644,14.473,14.473,0,0,1,2.411-1.409A4.214,4.214,0,0,1,218.084,139.642Zm-98.008-9.328a1.289,1.289,0,0,0-1.313,1.353,1.5,1.5,0,0,0,.332.979,1.314,1.314,0,0,0,1.018.465,15.814,15.814,0,0,1,3.531.622h0l.524.133a1.542,1.542,0,0,0,.372.048,1.411,1.411,0,0,0,1.355-1.3,1.371,1.371,0,0,0-.173-.879,1.281,1.281,0,0,0-.811-.565l-.25-.063-.067-.017a20.419,20.419,0,0,0-4.483-.776ZM81.119,108.6a1.547,1.547,0,0,0-1.441,1.2,1.169,1.169,0,0,0,.678,1.371,25.619,25.619,0,0,0,5.97,2.155,1.574,1.574,0,0,0,.327.035A1.471,1.471,0,0,0,88.065,112a1.307,1.307,0,0,0-.186-.849,1.242,1.242,0,0,0-.81-.522,22.547,22.547,0,0,1-5.3-1.873A1.459,1.459,0,0,0,81.119,108.6Zm49-17.314a1.282,1.282,0,0,0-1.287.988,63.044,63.044,0,0,0-1.611,8.056,1.444,1.444,0,0,0,.34,1.185,1.675,1.675,0,0,0,1.23.571,1.085,1.085,0,0,0,1.126-1.013,63,63,0,0,1,1.61-8.056,1.285,1.285,0,0,0-.192-1.153A1.546,1.546,0,0,0,130.115,91.284ZM38.122,95.216a1.376,1.376,0,0,0-.51.106,46.8,46.8,0,0,0-6.373,2.961,1.319,1.319,0,0,0-.6.689,1.348,1.348,0,0,0-.024.818,1.6,1.6,0,0,0,.486.78,1.277,1.277,0,0,0,.846.332,1.375,1.375,0,0,0,.7-.2,42.191,42.191,0,0,1,5.705-2.678,1.5,1.5,0,0,0,.9-1.727A1.217,1.217,0,0,0,38.122,95.216ZM179.965,71.893a1.175,1.175,0,0,0-1.074.711,22.26,22.26,0,0,0-1.237,2.875,10.443,10.443,0,0,0-.564,3.067,1.276,1.276,0,0,0,.344.948,1.423,1.423,0,0,0,1.02.4,1.5,1.5,0,0,0,.969-.338,1.321,1.321,0,0,0,.462-1.013,10.736,10.736,0,0,1,1.42-4.53,1.369,1.369,0,0,0-.049-1.374A1.586,1.586,0,0,0,179.965,71.893ZM89.946,67.473a1.518,1.518,0,0,0-.4.056c-1.722.472-3.5.822-5.225,1.161-1.327.261-2.7.53-4.035.854a1.271,1.271,0,0,0-.811.556,1.36,1.36,0,0,0-.176.874,1.418,1.418,0,0,0,1.366,1.312,1.552,1.552,0,0,0,.364-.045c1.339-.324,2.71-.594,4.036-.854,1.721-.338,3.5-.688,5.224-1.16a1.3,1.3,0,0,0,.974-1.494,1.562,1.562,0,0,0-.414-.875A1.23,1.23,0,0,0,89.946,67.473ZM35.033,63.4a1.227,1.227,0,0,0-1.148,1.089,1.488,1.488,0,0,0,.908,1.711c.928.364,1.887.69,2.814,1.005h0c.929.316,1.89.643,2.82,1.008a1.384,1.384,0,0,0,.5.1,1.227,1.227,0,0,0,1.148-1.088,1.488,1.488,0,0,0-.909-1.712c-.929-.364-1.888-.691-2.816-1.006s-1.89-.643-2.82-1.008A1.382,1.382,0,0,0,35.033,63.4Zm87.091-10.018h0a1.286,1.286,0,0,0-1.012.437,1.471,1.471,0,0,0-.338.961,1.32,1.32,0,0,0,1.35,1.4,31.093,31.093,0,0,1,5.667.353,1.6,1.6,0,0,0,.289.027,1.378,1.378,0,0,0,1.019-.443,1.652,1.652,0,0,0,.438-.968,1.156,1.156,0,0,0-1-1.314,34.622,34.622,0,0,0-6.41-.453Zm75.305-15.755a1.3,1.3,0,0,0-.726.238l-3.623,2.417a1.4,1.4,0,0,0-.576.749,1.466,1.466,0,0,0,.007.858,1.387,1.387,0,0,0,1.254,1.047,1.3,1.3,0,0,0,.726-.238l.725-.483,2.9-1.933a1.4,1.4,0,0,0,.576-.749,1.466,1.466,0,0,0-.007-.858A1.387,1.387,0,0,0,197.429,37.627ZM70.891,33.673a1.615,1.615,0,0,0-.267.023,33.061,33.061,0,0,0-6.441,1.612,1.481,1.481,0,0,0-.912,1.7A1.231,1.231,0,0,0,64.425,38.1a1.392,1.392,0,0,0,.5-.1,32.287,32.287,0,0,1,6.441-1.611,1.132,1.132,0,0,0,1.006-1.282,1.665,1.665,0,0,0-.441-.985A1.4,1.4,0,0,0,70.891,33.673Zm67.783-4.866a1.484,1.484,0,0,0-1.25.7,1.424,1.424,0,0,0,.5,1.914,20.839,20.839,0,0,1,2.889,2.551l.049.049a1.308,1.308,0,0,0,.932.411,1.524,1.524,0,0,0,1.353-.95,1.273,1.273,0,0,0-.308-1.439,24.587,24.587,0,0,0-3.5-3.039A1.167,1.167,0,0,0,138.674,28.806Z" transform="translate(12.232 2.447)"/>
    </g>
    <g id="HEAD" transform="translate(130.004 62.935)">
      <path id="_Skin-2" data-name="âœ‹ Skin" d="M40.111.292c52.858-2.606,56.549,12.8,63.808,22.616,3.6,4.873,12.9,12.09,14.445,28.756,1.071,11.569-5.746,24.9-5.746,35.241,0,5.277,6.444,16.605,3.444,24.3-6.677,17.118-20.815,36.116-38.831,36.116s-51.272-9.955-71.178-38.532C-.468,99.426-12.746,2.9,40.111.292Z" transform="translate(28.03 28.613)" fill="#d08b5b"/>
      <path id="_Ink-2" data-name="ðŸ– Ink" d="M144.031,96.272a7.73,7.73,0,0,1-2.35-4.08,16.371,16.371,0,0,1-.206-2.238c4.635-6.5,9.141-21.841,9.14-30.234,0-11.841-4.356-23.233-11.5-32.656C125.175,8.711,101.977-.7,79.274.04c-21.74.7-44.864,8.737-58.426,25.912-45,56.983-7.231,119.225,20.427,132.174,2.408,1.127,10.184.736,9.1-1.672-3.112-6.916-5.564-19.653-6.136-22.52.886.6,1.779,1.182,2.675,1.787,1.587,1.066,3.714,2.286,5.709,1.933a.216.216,0,0,0,.157-.206c.091-1.878-1.248-3.808-2.427-5.147-1.636-1.86-3.191-3.766-4.952-5.51-.75-.745-1.51-1.482-2.27-2.22a67.4,67.4,0,0,1,.99-13.324,133.866,133.866,0,0,1,6.452-22.632,69.85,69.85,0,0,0,6.514-5.374A63.315,63.315,0,0,0,68.966,66.93l.119-.056q9.348-4.359,18.542-9.035c3.163-1.605,6.305-3.249,9.447-4.891,1.709-.9,3.47-1.71,5.217-2.553a59.056,59.056,0,0,1-1.876,7.15c-.635,1.927,1.3,3.35,3.02,3.031A49.435,49.435,0,0,0,120,54.231,51.713,51.713,0,0,0,127.138,49a59.372,59.372,0,0,0,7.644,9.108q2.757,2.711,5.754,5.157c-.9,6.234-1.677,12.482-2.657,18.7-.513,3.252-1.13,6.5-1.517,9.772-.422,3.563.753,6.1,3.093,8.706,3.271,3.64,3.268,8.905,2.016,13.427-.153.559-.345,1.1-.544,1.646-.042.112-.164.416-.209.535a.025.025,0,0,1,0,.014s0,.007,0,.01,0,0-.007.007v.01l0,0c-.146.343-.3.678-.46,1.014-.715,1.514-1.514,2.993-2.344,4.448a90.258,90.258,0,0,1-15.107,19.548A54.308,54.308,0,0,1,114,148.376c-.677.43-1.367.846-2.075,1.227-.38.206-.771.4-1.161.594a4.618,4.618,0,0,1-.684.311,16.866,16.866,0,0,1-1.935.636c-.352.091-.708.168-1.067.234a.124.124,0,0,1-.021,0s-.007,0-.01,0a.026.026,0,0,1-.017,0c-.133.01-.37.031-.415.031a58.564,58.564,0,0,1-14.821-1.905,46.52,46.52,0,0,1-7.717-2.629,34.135,34.135,0,0,1-3.658-1.941c-.527-.325-1.025-.717-1.58-1a5.675,5.675,0,0,0-2.539-.42,2.1,2.1,0,0,0-2,2.636,5.3,5.3,0,0,0,2.368,3.353,29.644,29.644,0,0,0,3.306,1.954,50.686,50.686,0,0,0,7.745,3.164,65.485,65.485,0,0,0,15.383,2.92,20.458,20.458,0,0,0,10.507-1.846,43.514,43.514,0,0,0,9.915-6.825,102.931,102.931,0,0,0,17.615-20.363c4.684-6.965,8.317-14.549,7.121-23.2a16.547,16.547,0,0,0-4.227-9.048" transform="translate(1.046 20.279)"/>
    </g>
    <path id="_Ink-3" data-name="ðŸ– Ink" d="M37.755,67.065a13.307,13.307,0,0,1-5.049-1.008,14.26,14.26,0,0,1-3.3-1.894,14.039,14.039,0,0,1-2.683-2.707,2.773,2.773,0,0,1-.559-2.146,3.1,3.1,0,0,1,1.2-1.939,2.965,2.965,0,0,1,1.765-.615,2.561,2.561,0,0,1,.394.03,2.726,2.726,0,0,1,1.825,1.207l.108.149a9.421,9.421,0,0,0,3.451,2.9,7.832,7.832,0,0,0,3.423.8,7.582,7.582,0,0,0,.848-.048,8.912,8.912,0,0,0,3.768-1.326A17.648,17.648,0,0,0,46.148,57.8c.229-.233.471-.487.784-.821a1.242,1.242,0,0,1,.651-.5,1.334,1.334,0,0,1,.424-.068,1.441,1.441,0,0,1,1.181.617,1.318,1.318,0,0,1,.223.867,7.962,7.962,0,0,1-.944,3.083,10.292,10.292,0,0,1-2.017,2.592A12.971,12.971,0,0,1,43.394,65.7,12.72,12.72,0,0,1,40,66.861,12.485,12.485,0,0,1,37.755,67.065Zm3.553-20.133h0a12.2,12.2,0,0,1-4.35-.877,21.969,21.969,0,0,1-5.116-2.9,1.967,1.967,0,0,1-.714-1.136,2.354,2.354,0,0,1,.1-1.276,2.9,2.9,0,0,1,.861-1.246,2.1,2.1,0,0,1,1.342-.524,1.9,1.9,0,0,1,1.038.319l.346.267,0,0a27.7,27.7,0,0,0,3.2,2.228,7.887,7.887,0,0,0,3.839,1.225,4.143,4.143,0,0,0,1.622-.319,4.533,4.533,0,0,0,1.51-1.071,4.636,4.636,0,0,0,.879-3.731A7.048,7.048,0,0,0,44,34.581a13.633,13.633,0,0,0-2.83-2.285.878.878,0,0,1-.237-1.009,1.317,1.317,0,0,1,.436-.628,1.338,1.338,0,0,1,.836-.276,1.779,1.779,0,0,1,.3.026,9.488,9.488,0,0,1,3.337,1.206,7.572,7.572,0,0,1,2.245,2.071,8.229,8.229,0,0,1,1.433,5.5,9.058,9.058,0,0,1-.734,2.884,8.416,8.416,0,0,1-1.654,2.478A7.9,7.9,0,0,1,41.308,46.932ZM13,27.271a2.852,2.852,0,0,1-1.852-.726,2.886,2.886,0,0,1-.971-1.866,21.022,21.022,0,0,1,.112-5.472c.066-.532.134-1.081.182-1.674a3.276,3.276,0,0,1,1.241-2.341,3.822,3.822,0,0,1,2.351-.827,2.9,2.9,0,0,1,1.778.56,2.638,2.638,0,0,1,.982,1.748,14.686,14.686,0,0,1-1.532,9.048,2.9,2.9,0,0,1-1.023,1.185A2.36,2.36,0,0,1,13,27.271ZM54.553,26.03a2.5,2.5,0,0,1-1.956-.839A7.649,7.649,0,0,1,51.4,23.164a8.837,8.837,0,0,1-.608-2.443A5.18,5.18,0,0,1,52.2,16.275a2.932,2.932,0,0,1,.226-.345,3.2,3.2,0,0,1,2.46-1.416,2.664,2.664,0,0,1,.747.11,3.6,3.6,0,0,1,2.4,2.1,7.423,7.423,0,0,1,.3,4.058,13.589,13.589,0,0,1-1.23,3.828,2.484,2.484,0,0,1-1.063,1.051A3.22,3.22,0,0,1,54.553,26.03ZM.46,12.993a.453.453,0,0,1-.378-.232.507.507,0,0,1-.03-.5A17.246,17.246,0,0,1,3.917,7.369,23.9,23.9,0,0,1,9.09,3.833a22.239,22.239,0,0,1,6.143-2.144l.656-.115a15.977,15.977,0,0,1,2.681-.29,4.141,4.141,0,0,1,3.308,1.234,2.813,2.813,0,0,1,.665,2,1.83,1.83,0,0,1-.665,1.306,5.1,5.1,0,0,1-3.493,1.025c-.275,0-.56-.007-.835-.014h-.01c-.265-.007-.565-.014-.863-.014-.274,0-.519.006-.748.02a23.61,23.61,0,0,0-5.2.886C7.032,8.781,4,10.7.7,12.914A.431.431,0,0,1,.46,12.993Zm63.266-2.648h0c-.094-.022-.187-.046-.277-.069a15.645,15.645,0,0,1-3.033-1.184l-.985-.486a27.354,27.354,0,0,0-3.518-1.5A41.5,41.5,0,0,0,47.9,5.335a3.273,3.273,0,0,1-1.608-.61,2.41,2.41,0,0,1-.9-1.37A2.453,2.453,0,0,1,45.669,1.3,2.615,2.615,0,0,1,46.938.207,2.853,2.853,0,0,1,48.02,0a3.185,3.185,0,0,1,.624.063l.5.1A35.853,35.853,0,0,1,57.8,2.978a17.5,17.5,0,0,1,3.807,2.5A11.116,11.116,0,0,1,64.3,8.961c.094.727.007.907-.091,1.029l-.028.035-.025.033a.7.7,0,0,1-.43.286Z" transform="translate(204.091 146.15)"/>
  </g>
</svg>
