<svg xmlns="http://www.w3.org/2000/svg" width="349.454" height="389.003" viewBox="0 0 349.454 389.003"><defs><style>.a{fill:#d08b5b;}.b{fill:#ffcf77;}.c{fill:#fff;}</style></defs><g transform="translate(0 132.634)"><path class="a" d="M6.829,81.491l14.946,1.467c23.861,1.824,47.712,5.632,71.39,7.918a1.531,1.531,0,0,1,2.444-.135c2.363-.207,5.011-2.014,7.151-.134.07-.01.139-.021.209-.028,3.811-7.317,6.445-15.121,9-22.936,1.632-4.8,3.827-9.455,7.884-12.681,6.924-4.808,22.787-14.558,30.917-14.148a6.037,6.037,0,0,1,1.928-3.927c-2.456-4.188,7.363-6.921,8.056-6.435-.444-13.992,6.135-26.144,20.643-28.93,13-2.709,31.482-3.164,38.472,10.423.768-.087,8.623-.127,9.382-.042,1.182-1.5,14.157,12.689,8.839,17.627,47.546,21.041,74.58,18.53,87.74,77.681,1.779,5.557,1.909,11.637,3.787,17.07,6.684,15.613,12.1,32.238,13.454,49.226,3.259.835,3.633,6.583-.141,7.414a8.826,8.826,0,0,0-3.7,1.576c.822,13.922-2.544,45.724-4.665,45.626-4.324,13.767-23.612,17.652-37.267,12.814,2.354,4.43,0,7.216,0,9.583-49.135,1.86-102.858.789-151.979,3.339-6.283-.089-12.892,1.544-19.09.6-3.78-.906-3.786-6.852.048-7.587l-16.752-3.64c.374-.141-6.905-4.985-12.407-14.037-5.121-10.126-1.636-22.348-3.956-33.362-18.123-1.483-36.547-2.117-54.472-5.187-2.444,7.315-13.024-1.433-16.387-4.953l.013-.016a4.086,4.086,0,0,1-2.976-3.778,4.962,4.962,0,0,1-.286-5.507C14.04,147.438,6.392,117.87,3.628,88.639A6.185,6.185,0,0,1,.95,87.333l.063-.063C-.309,85.8-.566,83.251,1.638,82,3.416,80.987,4.9,81.3,6.829,81.491Z" transform="translate(1.719 0)"/><path class="b" d="M209.007,0c-6.6,0-16.283.646-28.784,1.92-5.5.561-16.822,1.089-33.645,1.57-14.249.408-29.666.707-40.923.925h-.033c-5.873.114-10.512.2-13.264.276l-.755.02c-7.793.225-15.647.339-23.345.339S52.8,4.937,45.2,4.712v9.424l43.613,21.64,39.077,21.989,18.841,8.726,3.838-2.443,31.4-10.122,19.19-2.443,15.7,2.443V27.05L220,1.92C219.65,1.283,218.55.8,216.726.48A47.82,47.82,0,0,0,209.007,0ZM59.522,70.476H51.417L4.251,81.871,0,83.274A117.526,117.526,0,0,0,1.757,95.83c.775,4,1.782,8.154,2.994,12.36a204.214,204.214,0,0,0,8.67,23.9,55.046,55.046,0,0,1,1.98,8.779,60.081,60.081,0,0,0,1.807,8.291c2.608,11.721,5.8,21.218,9.746,29.036.95,1.88,1.962,3.693,3.008,5.389,1.026,1.664,2.118,3.27,3.246,4.773a56.559,56.559,0,0,0,7.23,7.964,71.612,71.612,0,0,0,17.551,11.45c6.565,3.175,13.693,5.878,21.947,9.009h0c7.473,2.834,15.942,6.047,25.009,10.059a4.071,4.071,0,0,0-1.27,2.945,9.484,9.484,0,0,0,.768,3.744,27.507,27.507,0,0,0,4.772,7.494,22.814,22.814,0,0,0,2.571,2.566,3.626,3.626,0,0,0,1.738.987.312.312,0,0,0,.26-.11l.074.007.161.008.207.007c.545.016,1.533.025,2.784.025,2.538,0,5.69-.037,6.155-.089a20.338,20.338,0,0,0,1.309,2.2l2.884-2.154-6.3-10.349,30.673-24.82V189.47l9.711-9.188L167,189.47l7.821,10.405,5.558,16.867-1.893,11.112,3.806.359c.018-.757.015-1.53-.009-2.3a.6.6,0,0,0,.313.056,14.477,14.477,0,0,0,6.18-2.285,5.3,5.3,0,0,0,1.6-1.627,2.422,2.422,0,0,0-.042-2.578,6.025,6.025,0,0,0,1.927-3.927c.167.008.338.013.509.013a22.847,22.847,0,0,0,7.285-1.55,69.634,69.634,0,0,0,8.476-3.764c2.6-1.344,5.363-2.907,8.2-4.647,2.863-1.757,5.087-3.253,6.45-4.2a20.026,20.026,0,0,0,4.852-5.749,37.671,37.671,0,0,0,3.033-6.933l.384-1.172.4-1.2.4-1.2a132.549,132.549,0,0,1,7.821-19.358c.052,0,.106-.013.153-.02h.009l.047-.007a3.337,3.337,0,0,0,2.3.846,10.242,10.242,0,0,0,2.67-.5,12.376,12.376,0,0,1,2.183-.476,1.886,1.886,0,0,0,1.273.543,1.316,1.316,0,0,0,1.129-.612l.042-.065-29.437-5.8-19.42-68.148L184.1,105.277l-9.078-1.351-23.973-8.649-27.882-7.245Z" transform="translate(344.759 256.368) rotate(180)"/><path class="c" d="M44.609,0h0c1.98,7.5,3.509,13.666,4.812,19.41.49,2.163.981,4.362,1.456,6.488v0c1.136,5.086,2.31,10.346,3.565,15.5,3.508,14.407,7.546,29.159,12,43.848.915,3.018,1.868,6.083,2.833,9.111l.677,2.118.521,1.688a20.1,20.1,0,0,0,1.5,3.752,7.461,7.461,0,0,0,2.67,2.886,13.383,13.383,0,0,0,3.673,1.43c1.315.328,2.684.543,4.009.751.7.109,1.355.213,2,.331l2.126.4c3.165.591,6.38,1.167,9.554,1.713,15.2,2.615,30.685,4.741,46.029,6.317,7.944.816,16.049,1.5,24.09,2.042,7.967.534,16.091.937,24.146,1.2l1.611.051-.877-4.888c-.207-.068-.42-.126-.635-.174-.267-2.827-.592-5.771-.965-8.751l-5.436-30.31C183,69.386,182.1,63.923,181.26,58.8l-1.171-5.774-.725-3.589c-1.477-7.331-3.034-15.219-4.421-23.222a3.811,3.811,0,0,0,.471-.935l-.1-.434-.071-.29-.073-.286A23.91,23.91,0,0,0,174.2,21.3a13.767,13.767,0,0,0-1.415-2.682,9.226,9.226,0,0,0-2.027-2.146,8.3,8.3,0,0,0-2.8-1.366,41.771,41.771,0,0,0-7.574-1.1c-.864-.072-1.757-.146-2.619-.237l-.373-.041L98.554,7.111c-6.193-.7-12.769-1.454-21.324-2.456l-6.16-.723c-1.484-.172-2.994-.34-4.455-.5l-.018,0C59.607,2.648,52.38,1.842,45.387.354A1.9,1.9,0,0,1,44.61,0Zm87.242,77.447a1.286,1.286,0,0,1-1.283-1.556l.041-.211a6.637,6.637,0,0,0-.411-3.734,9.479,9.479,0,0,0-2.142-3.146,12.053,12.053,0,0,0-1.9-1.423c-1.237-.808-2.515-1.644-3-3.017a2.688,2.688,0,0,1-.037-1.737,3.31,3.31,0,0,1,.943-1.429l-.2-.1-.2-.1-.193-.1-.188-.1-.183-.1a10.784,10.784,0,0,1-2.48-1.89,4.911,4.911,0,0,1-1.344-2.421,4.341,4.341,0,0,1,1.1-3.563,7.992,7.992,0,0,1,2.191-1.877,11.6,11.6,0,0,1,2.74-1.145,22.72,22.72,0,0,1,6.124-.727c.9,0,1.837.034,2.874.1l.3.021c3.309.248,9.254,1.334,11.886,5.818a4.958,4.958,0,0,1,.7,2.931,4.463,4.463,0,0,1-1.246,2.731,6.962,6.962,0,0,1-4.029,2.049,4.974,4.974,0,0,1-.33,2.337,4.02,4.02,0,0,1-1.615,1.8,4.774,4.774,0,0,1-2.366.715,8.327,8.327,0,0,1-1.183,4.272,32.7,32.7,0,0,1-2.615,3.9c-.145.195-.3.4-.44.594l-.189.258-.184.253a1.4,1.4,0,0,1-1.141.609ZM43.78.386h0a2.279,2.279,0,0,1-1.335.4h-.106A42.013,42.013,0,0,0,31.79,2.244,98.6,98.6,0,0,0,21.632,5.6l-1.018.388L17.776,7.079c-2.615,1-5.662,2.149-8.74,3.084l-1.194.361-.607.179A32.644,32.644,0,0,1,.317,12.1L0,12.115l.678.356a1.6,1.6,0,0,1,.263.173c.464-.034.9-.051,1.33-.051a14.4,14.4,0,0,1,2.585.226,24.264,24.264,0,0,1,7.28,2.573l1.013.549.415.22.274.142.273.138a13.664,13.664,0,0,0,2.188.9,8.024,8.024,0,0,0,2.331.353,8.423,8.423,0,0,0,1.752-.189,24.594,24.594,0,0,0,6.272-2.594c.487-.256.989-.521,1.485-.772l.447-.223.3-.145.306-.144.31-.142a15.2,15.2,0,0,1,5.949-1.59,3.915,3.915,0,0,1,4.178,3.034,6.357,6.357,0,0,1-.8,5.13c.061.005.123.008.185.008a10.224,10.224,0,0,0,3.271-.978,13.991,13.991,0,0,1,3.539-1.111l.15-.012L43.78.386Zm87.51,51.12a22.453,22.453,0,0,0-4.208.34,9.742,9.742,0,0,0-3.75,1.452,3.37,3.37,0,0,0-1.624,2.3,2.762,2.762,0,0,0,.852,2.2c.818.891,1.664,1.811,2.54,2.707a3.493,3.493,0,0,1,1.533-.36,5.532,5.532,0,0,1,2.246.577.151.151,0,0,1,.086.177.191.191,0,0,1-.176.158,5.586,5.586,0,0,0-2,.788c-.438.252-1.466.9-1.547,1.438-.108.722,1.067,1.336,1.845,1.742h0l.238.125.1.057.091.053a13.314,13.314,0,0,1,2.116,1.589,11.259,11.259,0,0,1,3.369,5.507l.046.19,1.689-6.329-.029-.052a1.137,1.137,0,0,1,.047-1.139,1.321,1.321,0,0,1,1.091-.655,1.036,1.036,0,0,1,.752.331l.093.1a1.209,1.209,0,0,0,.889.4,1.862,1.862,0,0,0,1.3-.658,2.132,2.132,0,0,0,.61-1.339,3.853,3.853,0,0,0-.692-2.253,6,6,0,0,0-1.7-1.629l-.092-.06-.243-.151a1.011,1.011,0,0,1-.459-1.17,1.243,1.243,0,0,1,1.188-.873,1.313,1.313,0,0,1,.2.015,4.9,4.9,0,0,1,3.42,2.849,7.731,7.731,0,0,1,.867-.177,4.914,4.914,0,0,0,1.667-.49,1.966,1.966,0,0,0,1.127-1.479,2.6,2.6,0,0,0-.422-1.588,6.265,6.265,0,0,0-1.182-1.421l-.056-.05-.112-.1a11.868,11.868,0,0,0-4.321-2.273,20.417,20.417,0,0,0-4.856-.781l-.186-.008C133.006,51.537,132.16,51.506,131.29,51.506Z" transform="translate(195.728 202.597) rotate(180)"/><path d="M224.73,0a1.307,1.307,0,0,0-.97.43,6.1,6.1,0,0,0-1.358,2.4,18.453,18.453,0,0,0-.562,2.727v.008c-.047.3-.095.616-.148.923-.368,2.152-.7,4.387-1.019,6.832-.669,5.143-1.037,9.377-1.157,13.325-.14,4.547-.086,9.164.16,13.721.12,2.221.273,4.609.581,7.021.142,1.111.265,2.043.405,2.98.052.35.111.7.179,1.081l-3.772-.426c-5.524-.617-11.418-1.227-17.395-1.32h-.033a1.885,1.885,0,0,0-1.534.761,2.165,2.165,0,0,0-1.923-1.029h-.011c-8.3.031-16.01,2.819-23.107,5.827-1.774.752-3.562,1.546-5.292,2.314l-.007,0c-1.907.847-3.879,1.722-5.836,2.543-1.438.6-2.941,1.144-4.395,1.668a63.929,63.929,0,0,0-6.22,2.488l-8.939-4.691a3.675,3.675,0,0,0-1.468-2.054,7.919,7.919,0,0,0-1.672-.9,6.946,6.946,0,0,0-2.676-.533,7.261,7.261,0,0,0-.749.039c-8.175-4.285-14.45-7.569-20.345-10.647l-6.787-3.539c-3.925-2.044-7.877-4.115-11.7-6.118-9.448-4.95-19.217-10.069-28.9-14.962l-1-.5a122.051,122.051,0,0,0-14.963-6.531,26.593,26.593,0,0,1,.077-4l.026-.3c.012-.127.025-.253.038-.387V9.136A12.038,12.038,0,0,0,52.34,6.7a3.059,3.059,0,0,0-.954-2.064,1.736,1.736,0,0,0-1.14-.427A1.346,1.346,0,0,0,49,4.949a4.7,4.7,0,0,0-.379,2.378,20.546,20.546,0,0,0,.366,2.616c.074.4.144.779.2,1.131a17.206,17.206,0,0,0,.385,1.955,53.269,53.269,0,0,0-6.429-1.508,39.82,39.82,0,0,0-6.5-.559,32.784,32.784,0,0,0-5.3.423,18.511,18.511,0,0,0-4.2,1.217A20.906,20.906,0,0,0,23.4,14.673a26.627,26.627,0,0,0-3.323,2.746,36.18,36.18,0,0,0-2.948,3.239,42.038,42.038,0,0,0-4.989,7.778,42.585,42.585,0,0,0-3.177,8.679A59.759,59.759,0,0,0,7.428,47.523c-.237,3.534-.251,7.151-.232,10.534.024,4.153.118,7.823.289,11.221.2,4.015.509,7.673.938,11.183a12.108,12.108,0,0,1-2.689.381c-.143,0-.283,0-.417-.014a2.159,2.159,0,0,0-.885-.788,2.6,2.6,0,0,0-1.142-.26,2.648,2.648,0,0,0-.311.018,1.4,1.4,0,0,1-.394-1.337c.177-.694.892-1.421,2.125-2.161a15.859,15.859,0,0,1,2.726-1.275.562.562,0,0,0,.357-.631.455.455,0,0,0-.469-.4H7.3l-.388.018c-2.418.129-4.847.55-6.234,2.744A4.218,4.218,0,0,0,.03,79.541a4.524,4.524,0,0,0,1.2,2.536,169.842,169.842,0,0,0,4.337,22.068l.011.046c.2.82.405,1.668.606,2.5,1.786,7.41,3.86,15.2,6.34,23.831l1.018,3.536c1.722,5.965,3.594,12.343,5.614,18.569,2.216,6.83,4.385,12.783,6.632,18.2,1.387,3.345,2.713,6.21,4.054,8.759a62.027,62.027,0,0,0,5.092,8.189,57.632,57.632,0,0,0,5.861,6.731,60.133,60.133,0,0,0,6.821,5.756,81.171,81.171,0,0,0,14.564,8.216c5.033,2.258,10.253,4.185,15.6,6.123l.468.169c5.209,1.885,10.774,3.925,16.181,6.07,2.449.971,4.883,2.094,7.237,3.181,2.2,1.016,4.476,2.066,6.755,2.987-.156.283-.3.567-.444.844l-.087-.074h0l-.043-.031a1.048,1.048,0,0,0-.6-.178,1.452,1.452,0,0,0-.961.38,1.924,1.924,0,0,0-.687,1.624,3.568,3.568,0,0,0,.693,1.653l.1.138c.687.963,1.327,1.983,1.946,2.97.182.29.388.619.589.935l.521.818a34,34,0,0,0,4.723,6.192,10.216,10.216,0,0,0,2.805,1.93.1.1,0,0,0,.015.095,1.016,1.016,0,0,0,.689.32.256.256,0,0,0,.172-.051,16.451,16.451,0,0,0,5.688.861c1.587,0,3.194-.137,4.576-.265l.658,2.091a3.519,3.519,0,0,0,1.248,1.641,2.9,2.9,0,0,0,1.659.518,3.045,3.045,0,0,0,2.934-2.236,3.755,3.755,0,0,0,.086-1.558,21,21,0,0,0-2.768-6.868,16.883,16.883,0,0,0-3.458-4.554c2.582-2.41,5.277-4.744,8.009-6.936a98.823,98.823,0,0,1,9.411-6.66c.881-.551,1.789-1.091,2.666-1.613a63.187,63.187,0,0,0,5.872-3.8,22.876,22.876,0,0,0,3.478-3.171,13.443,13.443,0,0,0,2.47-3.981,11.173,11.173,0,0,0,.7-4.806,21.954,21.954,0,0,0-.911-4.8l-.1-.358c-.11-.37-.226-.74-.349-1.131-.9-2.877-1.93-6.137.041-8.746a16.081,16.081,0,0,1,3.021-2.814c.4-.312.809-.634,1.2-.96a32.905,32.905,0,0,0,3.551-3.482,28.783,28.783,0,0,0,5.54-9.2l.109-.31a20.274,20.274,0,0,0,1.123-4.867,9.256,9.256,0,0,0-.725-4.826.9.9,0,0,0-.85-.518,1.127,1.127,0,0,0-1.093.772,20.624,20.624,0,0,0-.519,3.107,24.651,24.651,0,0,1-.4,2.638,21.73,21.73,0,0,1-2.17,5.635,30.516,30.516,0,0,1-7.461,8.858l-.9.735a20.229,20.229,0,0,0-3.2,3.117,8.585,8.585,0,0,0-1.794,4.067c-.409,2.738.395,5.4,1.172,7.976l0,.007c.192.637.391,1.3.567,1.942a11.045,11.045,0,0,1,.151,6.464,27.144,27.144,0,0,0-2.08-2.81c-.251-.31-.488-.6-.714-.893-1.356-1.738-2.738-3.487-4.074-5.178l-.181-.229-1-1.272c-1.993-2.527-3.7-4.809-5.226-6.976-.805-1.146-1.577-2.263-2.225-3.2-.3-.439-.677-.886-1.039-1.319l0,0c-.3-.362-.616-.736-.891-1.109a1.436,1.436,0,0,0-.13-1.3,2.426,2.426,0,0,0-1.929-1.159c-1.192,0-2.577,1.083-4.116,3.22a38.957,38.957,0,0,0-2.817,4.753l-.067.128-.025.048c-1.2,2.313-2.273,4.737-3.306,7.08-1.045,2.371-2.126,4.822-3.347,7.159a111.971,111.971,0,0,1-8.579,13.91c-.732,1.008-1.509,2.008-2.26,2.975-1.233,1.586-2.507,3.226-3.606,4.933a36.87,36.87,0,0,0-7.014-4.859c-2.6-1.438-5.408-2.718-7.663-3.747h0c-4.3-1.961-8.8-3.67-13.149-5.322l-.009,0c-1.244-.472-2.529-.961-3.79-1.447l-1.675-.651c-5.515-2.153-10.1-4.045-14.569-6.28a68.2,68.2,0,0,1-13.332-8.5,50.118,50.118,0,0,1-6.465-6.517,60.853,60.853,0,0,1-5.234-7.436,80.252,80.252,0,0,1-4.232-8.1c-1.19-2.606-2.322-5.387-3.461-8.5-2.265-6.192-4.457-12.756-6.7-20.068-1.851-6.028-3.716-12.487-5.871-20.329-1.926-7.006-3.751-14.047-5.425-20.928-.512-2.105-1-4.253-1.477-6.33v-.006c-.915-4.005-1.86-8.147-3-12.166.155.005.311.008.462.008a31.785,31.785,0,0,0,6.6-.973c1.249-.273,2.428-.531,3.486-.669,7.384-.967,14.05-2.152,20.379-3.622,3.428-.8,6.79-1.688,9.993-2.651,3.362-1.011,6.663-2.135,9.812-3.34a2.736,2.736,0,0,0,1.587-1.5,3.094,3.094,0,0,0,.126-2.008l1.1.313.041.012c.576.164,1.1.311,1.621.459-.823,1.261-.656,3.325-.522,4.983.03.376.059.731.074,1.05l.005.118c.054,1.5.181,3.032.3,4.509V80.8c.064.768.13,1.563.185,2.343.325,4.613.729,8.866,1.235,13l.135,1.082c.256,2.006.487,4.047.71,6.022v0c.3,2.665.613,5.42.99,8.119l.078.538c-.273,1.045-.6,2.147-1.065,3.573-.716,2.2-1.653,4.351-2.56,6.429-.39.894-.793,1.817-1.175,2.737a.28.28,0,0,0,.018.274.41.41,0,0,0,.338.164.363.363,0,0,0,.245-.088,21.538,21.538,0,0,0,2.9-3.233,30.468,30.468,0,0,0,2.317-3.706c.01.052.02.106.03.157s.025.136.04.205l.156.769a13.218,13.218,0,0,0,2,5.369.327.327,0,0,0,.255.134.256.256,0,0,0,.225-.134,8.788,8.788,0,0,0,1.01-2.879,28.766,28.766,0,0,0,.352-3.078c.01-.13.02-.258.03-.385.216-2.707.207-5.423.182-7.231-.053-3.76-.279-7.587-.5-11.288-.051-.868-.109-1.853-.164-2.815-.237-4.216-.7-8.706-1.422-13.727l-.125-.856c-.086-.586-.17-1.185-.251-1.764v0c-.219-1.568-.445-3.189-.753-4.762l-.119-.587c-.07-.332-.132-.706-.2-1.1a15.953,15.953,0,0,0-.617-2.73c11.047,3.082,22.737,6.27,34.743,9.476,5.955,1.59,12.011,3.189,17.868,4.735l7.3,1.929a9.448,9.448,0,0,0,1.682,2.21,9.075,9.075,0,0,0,2.41,1.706,6.23,6.23,0,0,0,2.675.635,5.562,5.562,0,0,0,2.941-.856.375.375,0,0,0,.175-.33.334.334,0,0,0-.175-.292c-.622-.34-1.123-.624-1.576-.893l5.038,1.365c1.11.3,2.245.63,3.343.949h0c2.638.765,5.367,1.557,8.083,2.058,6.961,3.436,14.492,5.961,21.775,8.4l.438.147.881.3c.509.174,1.04.357,1.508.518a71.675,71.675,0,0,0,10.237,2.974,10.181,10.181,0,0,0,1.827.169,7.338,7.338,0,0,0,3.36-.739,4.688,4.688,0,0,0,2.274-2.507,46.613,46.613,0,0,0,4.2-3.238c.683-.573,1.357-1.181,2.009-1.77l.008-.008c.269-.243.547-.494.822-.739l.174-.153.171-.147.007-.006a3.267,3.267,0,0,0,1.394-2.03,1.2,1.2,0,0,0-.245-.94.758.758,0,0,0-.594-.286.851.851,0,0,0-.091,0c-1.659.178-3.057,1.735-4.289,3.109h0c-.309.344-.6.669-.883.957-1.228,1.255-2.238,2.327-3.177,3.482a1.48,1.48,0,0,0-.7-.184,1.124,1.124,0,0,0-1.036.623,3.37,3.37,0,0,1-1.471,1.484,4.4,4.4,0,0,1-1.985.416,17.446,17.446,0,0,1-5.182-1.189h0c-.5-.171-.977-.332-1.4-.457L176.329,101c-1.72-.51-3.981-1.183-6.217-1.862-2.087-.634-4.2-1.3-6.241-1.953-3.544-1.126-7.209-2.289-10.848-3.3a1.2,1.2,0,0,0,.285-1.075,1.26,1.26,0,0,0-.818-.876A76.667,76.667,0,0,0,142.278,89h0c-1.277-.3-2.6-.618-3.874-.949-2.922-.758-5.895-1.534-8.837-2.308a7.2,7.2,0,0,1-1.021-2.821,21.115,21.115,0,0,1,.182-6.231,56.091,56.091,0,0,1,1.4-6.133l.159-.572a30.009,30.009,0,0,1,1.73-4.827,10.31,10.31,0,0,1,3.072-3.976,4.678,4.678,0,0,1,2.307-.879c5.287,2.723,10.459,5.385,15.606,8.029a1.452,1.452,0,0,0,.667.17,1.519,1.519,0,0,0,1.4-1.142,34.008,34.008,0,0,1,5.333,1.342A23.764,23.764,0,0,1,165,71.04c.965.582,1.962,1.184,3.014,1.687a9.145,9.145,0,0,0,4.03.9,14.39,14.39,0,0,0,5.039-1.042,49.076,49.076,0,0,0,4.812-2.213c.31-.156.63-.318.941-.473l1.048-.515a13.255,13.255,0,0,1,5.032-1.578,2.124,2.124,0,0,1,2.233,1.393,3.208,3.208,0,0,1,.049,1.971,5.729,5.729,0,0,1-.96,1.87,11.388,11.388,0,0,1-3.071,2.76,18.672,18.672,0,0,1-3.684,1.685c-1.358.468-2.738.819-3.909,1.1-1.52.366-3.036.656-4.508.864-.548.077-1.111.127-1.655.175a15.009,15.009,0,0,0-3.492.588,1.023,1.023,0,0,0-.663,1.014.813.813,0,0,0,.663.784,10.016,10.016,0,0,0,2.212.228,26.409,26.409,0,0,0,6.031-.927l1.389-.342a33.46,33.46,0,0,0,7.818-2.793,16.046,16.046,0,0,0,2.64-1.78,12.121,12.121,0,0,0,2.227-2.395,3.056,3.056,0,0,0,2.18.823,6.172,6.172,0,0,0,1.58-.236l.747-.208a9.172,9.172,0,0,1,2.458-.436,4.982,4.982,0,0,1,.976.1c.154.839.321,1.738.5,2.622,1.749,8.785,3.652,17.419,5.657,25.662,1.768,7.269,3.71,14.639,5.772,21.906,2.041,7.188,4.257,14.48,6.588,21.673l.468,1.437c.24.733.474,1.5.7,2.235l0,.007a37.274,37.274,0,0,0,2.969,7.647,10.609,10.609,0,0,0,3.135,3.43,13.856,13.856,0,0,0,4.245,1.942,82.87,82.87,0,0,0,8.118,1.687l.011,0c.9.156,1.83.317,2.737.485.481.089.982.178,1.424.258l.994.179a26.6,26.6,0,0,0-1.286,2.824c-.126.309-.244.6-.362.874l-.08.186c-1.073,2.447-2.018,4.932-2.721,6.825l-.638,1.726a86.354,86.354,0,0,1-5.3,12.135,31.262,31.262,0,0,1-3.979,5.6,33.087,33.087,0,0,1-5.1,4.607,85.186,85.186,0,0,1-11.459,6.7c-2.208,1.141-4.49,2.32-6.672,3.593a49.844,49.844,0,0,0-6.284,4.264.262.262,0,0,0-.095.3.385.385,0,0,0,.349.246.313.313,0,0,0,.142-.034,106.7,106.7,0,0,1,10.94-4.512h0c1.569-.58,3.191-1.18,4.768-1.8l1.033-.408a51.834,51.834,0,0,0,11.927-6.087,33.117,33.117,0,0,0,5.364-4.981,34.172,34.172,0,0,0,4.142-6.041,75.986,75.986,0,0,0,4.565-11.184v0c.293-.844.6-1.716.9-2.566l.44-1.228c.632-1.755,1.329-3.632,2.133-5.469.251-.572.584-1.169.937-1.8a16.776,16.776,0,0,0,1.377-2.871l.289.05.012,0c1.323.23,2.692.467,4.039.692,7.8,1.3,15.731,2.488,23.577,3.523s15.808,1.946,23.682,2.711,15.866,1.4,23.761,1.9,15.907.859,23.814,1.083h.054a1.557,1.557,0,0,0,1.227-.56,2.082,2.082,0,0,0,.423-1.677c-1.719-10.166-3.353-20.5-4.934-30.5l0-.021c-1.227-7.76-2.5-15.785-3.795-23.668-1.325-8.046-2.663-15.993-3.976-23.621-.294-1.705-.611-3.432-.918-5.1-.413-2.243-.839-4.562-1.212-6.849-.112-.689-.219-1.391-.323-2.069l0-.025a60.724,60.724,0,0,0-1.479-7.529,18.182,18.182,0,0,0-4.085-7.7,11.928,11.928,0,0,0-3.839-2.661,18.957,18.957,0,0,0-4.505-1.317c-5.429-.935-11.039-1.494-16.464-2.035-2.393-.239-4.867-.486-7.289-.761l-42.024-4.783c.3-2.71.469-5.438.525-8.341.051-2.65,0-5.394-.147-8.389l-.16-3.084c-.126-2.371-.279-4.9-.644-7.42a13.972,13.972,0,0,0-1.354-4.286,16.976,16.976,0,0,0-2.575-3.7,47.15,47.15,0,0,0-6.469-5.642,32.892,32.892,0,0,0-7.5-4.633l-.357-.142a35.458,35.458,0,0,0-3.974-1.291,19.379,19.379,0,0,0-4.724-.689,9.626,9.626,0,0,0-1.527.114c.083-.417.183-.847.28-1.264.414-1.783.842-3.626.245-5.35a1.624,1.624,0,0,0-.58-.776A1.525,1.525,0,0,0,224.73,0Zm27.808,54.96-4.4-.5c-5.163-.588-10.246-1.145-14.537-1.613L223.071,51.7c-.013-.3-.037-.584-.061-.862v0c-.023-.281-.046-.546-.052-.776-.071-2.428-.124-4.894-.169-7.014-.1-4.661.01-9.39.318-14.056.347-5.261.761-9.572,1.3-13.568l.125-.9.073-.473a2.07,2.07,0,0,0,1.4-.773,1.792,1.792,0,0,1,1.421-.465,13.358,13.358,0,0,1,3.952.883,25.876,25.876,0,0,1,5.82,3.231,36.562,36.562,0,0,1,4.86,4.139L243.3,22.3a15.889,15.889,0,0,1,3.235,4.088,17.7,17.7,0,0,1,1.314,5.734c.047.405.1.824.149,1.226.325,2.46.732,5.135,1.281,8.419l3.256,13.2ZM8.973,80.328l-.019-4.575c-.023-6.225-.018-12.852.318-19.434l.063-1.2c.377-7.045.96-14.5,3.545-21.369A40.819,40.819,0,0,1,16.9,25.811,36.62,36.62,0,0,1,22.6,19a21.7,21.7,0,0,1,3.461-2.672,15.124,15.124,0,0,1,4-1.732,22.447,22.447,0,0,1,5.875-.707c.782,0,1.582.029,2.445.089C49.94,14.783,60.4,20.334,70.519,25.7h0c1.531.812,3.114,1.652,4.661,2.454,18.129,9.389,37.453,19.394,56.875,29.405a9.309,9.309,0,0,0-1.435,1.209c-2.135,2.206-3.649,5.291-4.767,9.711a51.27,51.27,0,0,0-1.565,11.513l.425,4.473-.457-.12c-4.724-1.256-9.515-2.54-14.149-3.783C98.44,77.435,86.372,74.2,74.461,71.182c-4.747-1.2-9.585-2.374-14.263-3.506-3.441-.833-7-1.694-10.493-2.561l-1.335-.334c-6.393-1.616-13.054-3.592-18.069-8.344a.192.192,0,0,0-.133-.056.21.21,0,0,0-.185.127.185.185,0,0,0,.04.207,29.04,29.04,0,0,0,9.432,6.475,79.367,79.367,0,0,0,10.9,3.761c.746.213,1.505.428,2.239.635l.031.009c.524.148,1.175.332,1.8.508a238.47,238.47,0,0,1-30.459,8.855c-1.323.282-2.675.53-3.983.771h0c-1.33.244-2.7.5-4.049.785-1.2.256-2.4.591-3.554.915-.64.179-1.3.364-1.96.535Zm336.646,92.145c-8.327-.252-16.722-.654-24.953-1.2-8.313-.547-16.688-1.252-24.894-2.1-15.339-1.576-30.825-3.7-46.029-6.317-3.173-.546-6.387-1.122-9.554-1.713l-1.908-.359c-.711-.135-1.443-.25-2.218-.371-1.324-.208-2.694-.423-4.009-.751a13.382,13.382,0,0,1-3.673-1.43,7.723,7.723,0,0,1-2.872-3.267,26.1,26.1,0,0,1-1.554-4.2c-.117-.383-.238-.778-.361-1.161-1.161-3.612-2.31-7.288-3.414-10.928-4.455-14.684-8.493-29.437-12-43.848-1.253-5.145-2.425-10.4-3.559-15.476v-.007c-.476-2.133-.969-4.339-1.461-6.508-1.3-5.746-2.833-11.914-4.813-19.411a1.9,1.9,0,0,0,.778.354c6.994,1.488,14.223,2.294,21.213,3.074,1.463.163,2.975.332,4.469.5l.831.1c8.434.992,17.5,2.053,26.653,3.082l58.845,6.62c.983.11,2,.2,2.991.278a41.794,41.794,0,0,1,7.575,1.1,9.026,9.026,0,0,1,5.818,5.237,31.843,31.843,0,0,1,2.234,7.885l.029.155c1.737,9.244,3.288,18.69,4.788,27.826v.006c1.006,6.13,2.047,12.469,3.137,18.7ZM196.172,54.216h.008a2.274,2.274,0,0,0,1.334-.4l2.2,17.578a13.1,13.1,0,0,0-3.689,1.123,10.225,10.225,0,0,1-3.271.979c-.064,0-.126,0-.184-.008a6.358,6.358,0,0,0,.8-5.13,3.915,3.915,0,0,0-4.179-3.034,12.079,12.079,0,0,0-3.771.726,26.548,26.548,0,0,0-3.29,1.391c-.583.29-1.17.6-1.737.9a24.593,24.593,0,0,1-6.272,2.594,8.539,8.539,0,0,1-1.751.189c-2.266,0-4.084-.989-6.188-2.134l-.307-.167a24.271,24.271,0,0,0-7.28-2.573,14.412,14.412,0,0,0-2.585-.226c-.431,0-.866.017-1.33.051a1.585,1.585,0,0,0-.263-.173l-.678-.356A38.063,38.063,0,0,0,162.77,63.6c3.074-.933,6.124-2.081,8.74-3.084l2.838-1.091A106.477,106.477,0,0,1,185,55.818a42.666,42.666,0,0,1,11.077-1.6ZM117.954,242.353a7.851,7.851,0,0,1-1.783-1.408,29.1,29.1,0,0,1-4.053-6.118l-.07-.127c-.291-.532-.578-1.067-.856-1.585l0-.007c-.34-.633-.691-1.288-1.044-1.928-.306-.553-.621-1.1-.862-1.512a6.061,6.061,0,0,0-.41-.551l0,0h0c-.118-.148-.24-.3-.324-.421.205-.287.428-.587.683-.916.018-.023.28-.311.713-.789l.018-.02c1.775-1.953,5.93-6.528,7.63-8.608,1.662-2.034,3.223-4.116,4.641-6.189,1.472-2.152,2.839-4.367,4.062-6.581,1.451-2.628,2.718-5.393,3.944-8.068.843-1.841,1.715-3.744,2.641-5.589a34.493,34.493,0,0,1,4.022-6.472c.037-.045.076-.09.114-.133l0,0,0-.005.072-.083a15.645,15.645,0,0,0,2.465,3.828c.187.236.364.458.51.651l.073.1c1.579,2.129,3.334,4.336,5.523,6.945,1.688,2.011,3.484,4.057,5.34,6.082l.686.745c.231.25.468.516.719.8a16.176,16.176,0,0,0,4.025,3.61,8.989,8.989,0,0,1-.7,1.054,23.742,23.742,0,0,1-6.636,5.422l-1.576.959c-4.681,2.854-7.144,4.52-8.767,5.652a79.657,79.657,0,0,0-8.18,6.465,69.19,69.19,0,0,0-7.713,8l-.811,1.027Zm9.913,1.793c-.652-.055-1.329-.094-1.984-.133a23.551,23.551,0,0,1-6.373-.952c1.358-1.285,2.7-2.65,3.991-3.971.881-.9,1.793-1.829,2.7-2.722a33.074,33.074,0,0,0,.723,3.475c.075.3.152.619.226.929ZM127.153,17.3a1.438,1.438,0,0,0-1.178.722,1.36,1.36,0,0,0-.061,1.361A195.883,195.883,0,0,0,137,37.484l.516.768c1.776,2.645,3.613,5.38,5.438,8.059.986,1.446,1.794,2.6,2.545,3.644l.523.718,2.832,3.1a.255.255,0,0,0,.122.032.25.25,0,0,0,.247-.243,8.035,8.035,0,0,0-1.076-3.621c-.084-.176-.178-.377-.264-.564l-.063-.139c-.653-1.454-1.421-3.018-2.346-4.784-1.684-3.213-3.414-6.343-5.139-9.3a109.914,109.914,0,0,0-12.288-17.417A1.18,1.18,0,0,0,127.153,17.3Zm71.611,62.13c-1.488,0-2.92.762-4.507,2.4l-1.066,1.114a11.35,11.35,0,0,1-2.33,1.98,5.763,5.763,0,0,1-3.056.807c-.093,0-.189,0-.285-.005a45.156,45.156,0,0,1-5.412-.642h0c-1.022-.163-2.079-.332-3.115-.455-3.081-.364-6.319-.695-9.624-.981h-.012a.117.117,0,0,0-.114.111.128.128,0,0,0,.091.146l3.6.9,14,2.825a11.948,11.948,0,0,0,1.441.093,7.142,7.142,0,0,0,4.7-1.582,18.484,18.484,0,0,0,1.822-1.8,15.559,15.559,0,0,1,2.164-2.061,5.164,5.164,0,0,1,2.777-1.047.842.842,0,0,0,.794-.754.773.773,0,0,0-.577-.853A4.55,4.55,0,0,0,198.764,79.425Zm2.783,8.764a.546.546,0,0,0-.126.015,11.364,11.364,0,0,0-3.16,1.337,34.326,34.326,0,0,0-2.832,1.955c-.7.519-1.425,1.056-2.166,1.54a10.04,10.04,0,0,1-5.813,1.558c-1.125,0-2.266-.1-3.474-.209l-.212-.019c-3.464-.309-6.788-.729-9.88-1.25-1.067-.179-2.152-.4-3.2-.61a53.717,53.717,0,0,0-6.064-.984v.006a.405.405,0,0,0-.375.322.336.336,0,0,0,.18.393,41.319,41.319,0,0,0,10.007,2.992l.224.047,10.1,1.569.372.037c1.169.114,2.062.164,2.9.164a13.957,13.957,0,0,0,3.206-.337,10.6,10.6,0,0,0,3.1-1.261l.561-.34c2.595-1.578,5.5-3.48,7.162-6.093a.5.5,0,0,0,.016-.52A.6.6,0,0,0,201.547,88.189Zm83.615,14.305a22.716,22.716,0,0,0-6.124.727,11.6,11.6,0,0,0-2.74,1.146,7.994,7.994,0,0,0-2.191,1.877,4.292,4.292,0,0,0-1.074,3.689,5.373,5.373,0,0,0,1.738,2.709,12.816,12.816,0,0,0,3.024,1.987,3.308,3.308,0,0,0-.943,1.429,2.69,2.69,0,0,0,.037,1.738c.483,1.373,1.762,2.208,3,3.016a12.042,12.042,0,0,1,1.9,1.423,9.48,9.48,0,0,1,2.142,3.146,6.638,6.638,0,0,1,.411,3.735l-.028.141a1.346,1.346,0,0,0,.243,1.148,1.33,1.33,0,0,0,1.027.478,1.4,1.4,0,0,0,1.141-.609l.184-.253c.2-.274.406-.551.624-.844l.006-.008a32.694,32.694,0,0,0,2.615-3.9A8.327,8.327,0,0,0,291.338,121a4.777,4.777,0,0,0,2.366-.715,4.019,4.019,0,0,0,1.615-1.8,4.975,4.975,0,0,0,.33-2.338,6.962,6.962,0,0,0,4.029-2.049,4.464,4.464,0,0,0,1.246-2.731,4.959,4.959,0,0,0-.7-2.931c-2.632-4.484-8.577-5.57-11.886-5.818l-.155-.011C287.09,102.531,286.1,102.495,285.163,102.495Zm-6.328,11.44c-.872-.891-1.72-1.814-2.54-2.707a2.762,2.762,0,0,1-.852-2.2,3.371,3.371,0,0,1,1.624-2.3,9.742,9.742,0,0,1,3.75-1.452,22.463,22.463,0,0,1,4.208-.34h0c.869,0,1.714.031,2.354.059a20.751,20.751,0,0,1,4.951.763,11.922,11.922,0,0,1,4.412,2.3l.111.1a6.347,6.347,0,0,1,1.216,1.435,2.64,2.64,0,0,1,.445,1.616,1.962,1.962,0,0,1-1.128,1.487,4.915,4.915,0,0,1-1.666.49,7.719,7.719,0,0,0-.868.178,4.9,4.9,0,0,0-3.42-2.85,1.314,1.314,0,0,0-.2-.015,1.243,1.243,0,0,0-1.188.873,1.011,1.011,0,0,0,.46,1.17l.243.151a6.1,6.1,0,0,1,1.764,1.644,3.862,3.862,0,0,1,.722,2.3,2.132,2.132,0,0,1-.611,1.339,1.862,1.862,0,0,1-1.3.658,1.209,1.209,0,0,1-.889-.4l-.05-.054a1.048,1.048,0,0,0-.8-.377,1.321,1.321,0,0,0-1.091.655,1.137,1.137,0,0,0-.047,1.139l.029.052-1.689,6.329a10.485,10.485,0,0,0-1.257-3.071,12.047,12.047,0,0,0-2.158-2.626,13.317,13.317,0,0,0-2.115-1.588l-.091-.053c-.1-.055-.225-.121-.347-.185-.777-.406-1.952-1.019-1.844-1.741.082-.541,1.109-1.186,1.547-1.438a5.585,5.585,0,0,1,2-.788.191.191,0,0,0,.176-.158.151.151,0,0,0-.086-.177,5.536,5.536,0,0,0-2.246-.577A3.492,3.492,0,0,0,278.835,113.935ZM81.869,132.48a.979.979,0,0,0-1.032.845c-.63,4.06-1.258,8.182-1.864,12.169v0c-.717,4.714-1.459,9.588-2.209,14.378-.533,3.409-1.144,6.863-1.734,10.2v.006c-.179,1.014-.365,2.062-.547,3.107l-1.957,12.812a.24.24,0,0,0,.069.176.285.285,0,0,0,.2.082.245.245,0,0,0,.219-.125c1.907-3.356,2.982-7.324,4.022-11.162.118-.436.24-.886.361-1.327,1.059-3.855,2.016-8.022,3.013-13.115.877-4.477,1.551-8.98,2-13.384.459-4.473.708-9.019.739-13.512a1.059,1.059,0,0,0-.313-.769A1.386,1.386,0,0,0,81.869,132.48Zm14.363,12.736a1.511,1.511,0,0,0-1.136.534,1.34,1.34,0,0,0-.278,1.143l-1.184,32.575a.365.365,0,0,0,.044.339.412.412,0,0,0,.334.155.432.432,0,0,0,.411-.277,60.892,60.892,0,0,0,2.657-8.11,57.764,57.764,0,0,0,1.468-8.427A50.15,50.15,0,0,0,97.4,146.18,1.173,1.173,0,0,0,96.232,145.216Zm65.334,29.926a.651.651,0,0,0-.531.249,7.377,7.377,0,0,0-.464.7,3.735,3.735,0,0,1-.988,1.2,5.926,5.926,0,0,1-2.3.8c-.357.072-.725.146-1.068.245a8.251,8.251,0,0,0-3.722,2.218l-3.654,8.249a.316.316,0,0,0,.08.242.356.356,0,0,0,.26.1.4.4,0,0,0,.331-.163,24.948,24.948,0,0,0,1.611-2.747,20.948,20.948,0,0,1,1.912-3.145,7.13,7.13,0,0,1,2.9-2.272,12.234,12.234,0,0,1,2.106-.593,7.513,7.513,0,0,0,3.238-1.262,3.91,3.91,0,0,0,1.222-1.544,1.981,1.981,0,0,0-.156-1.866A.956.956,0,0,0,161.566,175.142Zm6.159,6.28a.931.931,0,0,0-.669.271c-.955,1.011-1.16,2.52-.607,4.486a19.789,19.789,0,0,0,2.035,4.431,25.784,25.784,0,0,0,5.88,6.367c.422.365.859.742,1.3,1.127,2.94,2.6,4.824,6.163,6.486,9.305.487.92.975,1.866,1.447,2.781l.01.019,0,.009c.578,1.121,1.175,2.279,1.78,3.41-.984.87-1.4,2.493-1.741,3.8-.06.232-.116.45-.174.66l-.036.126a50.574,50.574,0,0,0-1.485,6.9,37.834,37.834,0,0,0-.36,6.689l.024.573,1.1,4.107a.408.408,0,0,0,.543-.142.446.446,0,0,0-.066-.685,16.526,16.526,0,0,0,.734-2.471c.2-.9.426-1.825.678-2.819.238-.94.466-1.9.686-2.828l0-.012,0-.008c.221-.932.449-1.9.689-2.839.482-1.9,1.084-3.9,1.789-5.943.04-.117.087-.243.142-.387l.077-.2.019.03a.2.2,0,0,0,.173.1.218.218,0,0,0,.162-.077.235.235,0,0,0,.054-.191c-.019-.127-.042-.255-.065-.379v0l0-.009c-.014-.076-.028-.156-.042-.233l.071-.187c.443-1.193.742-2.441-.066-3.487a1.646,1.646,0,0,0-1.051-.693,60.233,60.233,0,0,0-2.4-6.419l-.262-.6a36.022,36.022,0,0,0-4.813-8.569,31.546,31.546,0,0,0-3.272-3.295,23.846,23.846,0,0,1-4.152-4.5,18.823,18.823,0,0,1-2.095-4.55l-.2-.613a4.895,4.895,0,0,0-1.872-2.92A.866.866,0,0,0,167.725,181.422Zm18.076,3.119a1.948,1.948,0,0,0-1.249.43l-2.4,1.99c-.4.335-.8.671-1.195,1-.364.306-.695.59-1.012.867l-.5.441c-.057.051-.162.16-.3.3a5.07,5.07,0,0,1-1.189,1.039.406.406,0,0,1-.063,0c-.637,0-1.913-1.33-2.6-2.045l0,0c-.092-.1-.171-.178-.236-.244l-.072-.071a29.274,29.274,0,0,1-2.908-3.343.227.227,0,0,0-.182-.1.214.214,0,0,0-.179.1.218.218,0,0,0-.006.215,29.867,29.867,0,0,0,2.831,4.88l.223.305c.124.168.256.357.4.558l.006.009c.686.989,1.54,2.219,2.613,2.461a2.122,2.122,0,0,0,.466.051c1.177,0,2.342-.948,3.279-1.71.2-.162.387-.315.566-.452l.073-.055c.6-.448,1.184-.9,1.628-1.25a21.215,21.215,0,0,0,.331,4.441,12.517,12.517,0,0,0,1.529,4.131,18.323,18.323,0,0,0,2.775,3.317c.443.452.9.918,1.33,1.4a18.7,18.7,0,0,1,2.12,3.126,22.954,22.954,0,0,0,1.643,2.551,1.061,1.061,0,0,0,.7.4c.042,1.131.182,2.283.318,3.4l0,.016c.038.311.077.632.113.946l.048.43c.024.225.052.452.082.692a7.354,7.354,0,0,1-.284,4.241,8.95,8.95,0,0,1-2.824,2.721h0c-.274.2-.534.384-.78.572l-1,.777-2.893,2.765a.366.366,0,0,0-.035.4.548.548,0,0,0,.466.285.426.426,0,0,0,.087-.009,19.4,19.4,0,0,0,5.263-2.3c.266-.148.567-.316.855-.473l.2-.111A8.626,8.626,0,0,0,197.7,220.2a10.837,10.837,0,0,0,.68-5.623l-.011-.177c-.031-.484-.057-.981-.082-1.462v-.01a34.11,34.11,0,0,0-.565-5.364,1.582,1.582,0,0,0-.59-.972,1.612,1.612,0,0,0-.975-.306,2.016,2.016,0,0,0-.59.089c-.774-2.445-2.587-4.42-4.341-6.329-.608-.662-1.237-1.346-1.8-2.028a9.744,9.744,0,0,1-2.07-5.31,32.162,32.162,0,0,1,.081-5.826q.026-.351.051-.7a1.448,1.448,0,0,0-.368-1.121A1.8,1.8,0,0,0,185.8,184.541Z" transform="translate(349.454 256.049) rotate(180)"/></g><g transform="translate(130.325 0)"><path class="a" d="M59.046,0C39.277,0,18.829,15.362,11.583,25.165,5.49,33.406,2.21,70.675,2.21,95.862c0,5.268-2.9,15.2-2.053,20.236,3.1,18.464,16.611,33.949,43.349,33.949s45.91-10.625,65.784-39.153c9.643,0,14.316-7.414,14.384-19.113a17.44,17.44,0,0,0-9.308-15.956s3.343-46.17-5.076-58.191S78.815,0,59.046,0Z" transform="translate(3.939 7.072)"/><path d="M83.8,0a46.879,46.879,0,0,0-8.678.789A38.168,38.168,0,0,0,66.9,3.294a31.014,31.014,0,0,0-7.275,4.43A28.25,28.25,0,0,0,53.8,14.287a.172.172,0,0,0-.014.18.216.216,0,0,0,.188.1.206.206,0,0,0,.133-.047,32.485,32.485,0,0,1,4.576-3.118,35.277,35.277,0,0,1,4.9-2.27A49.642,49.642,0,0,1,74.193,6.559a52.187,52.187,0,0,1,7.222-.5A54.173,54.173,0,0,1,89.5,6.67,52.49,52.49,0,0,1,97.424,8.5a47.891,47.891,0,0,1,7.48,3.066,42.188,42.188,0,0,1,6.744,4.309,28.111,28.111,0,0,1,6.287,6.969,29.975,29.975,0,0,1,2.225,4.165,29.62,29.62,0,0,1,1.536,4.451,28.228,28.228,0,0,1,.8,4.732,26.972,26.972,0,0,1-.037,4.8,25.023,25.023,0,0,1-1.641,6.088c-.35.964-.713,1.961-1.012,2.976a2.74,2.74,0,0,0,.648,2.677c.086,1.2.23,2.427.369,3.613.149,1.268.3,2.577.386,3.856.177,2.812.286,5.657.324,8.454.07,5.6-.152,11.5-.661,17.535-.54,6.416-1.636,12.844-2.7,19.061-.7,4.119-1.428,8.376-1.986,12.59a1.752,1.752,0,0,0-1.18-.473,1.847,1.847,0,0,0-.86.223l-.081.044-.425.244a.648.648,0,0,1-.077-.007c-.609-.059-1.238-.089-1.87-.089a22.963,22.963,0,0,0-6.838,1.081,25.6,25.6,0,0,0-8.036,4.164,36.545,36.545,0,0,1-.654-7.075,1.806,1.806,0,0,0-.579-1.347,1.937,1.937,0,0,0-1.314-.5,2.051,2.051,0,0,0-.927.224,118.045,118.045,0,0,0-15.814,9.7l-.366-1.88,0-.019c-.454-2.332-.924-4.744-1.389-7.119a1.516,1.516,0,0,0-.641-.965,1.958,1.958,0,0,0-1.112-.342,1.761,1.761,0,0,0-.89.231A33.475,33.475,0,0,0,63.5,122.4c-.629-1.207-1.134-2.169-1.587-3.028l-.8-1.51c-.808-1.516-1.864-3.129-3.579-3.6a3.177,3.177,0,0,0-.84-.116,3,3,0,0,0-1.917.708,4.1,4.1,0,0,0-1.219,1.758c-.181.5-.357,1.03-.522,1.581A92.4,92.4,0,0,0,47.718,107.8a124.6,124.6,0,0,0-9.186-12.782l-.963-1.228a1.406,1.406,0,0,0-1.122-.589,2.208,2.208,0,0,0-1.974,1.872c-.082.75-.155,1.529-.223,2.381-2.419-4.894-4.525-8.848-6.626-12.445l.339-1.332c.687-2.768,1.3-5.6,1.9-8.333.251-1.154.511-2.347.773-3.525a3.206,3.206,0,0,0-.477-2.4,2.05,2.05,0,0,0-1.4-.919,14.893,14.893,0,0,1-1.583-.351,9.543,9.543,0,0,0-2.369-.409,4.019,4.019,0,0,0-1.329.216c-1.552.534-2.137,1.714-2.756,2.964-.174.352-.354.714-.559,1.07a6.561,6.561,0,0,1-.639.907l-.06-.078a.188.188,0,0,0-.154-.076.29.29,0,0,0-.229.125.2.2,0,0,0-.024.188l.1.254a19.908,19.908,0,0,1-1.837,1.653c-.271.224-.55.455-.818.688a9.711,9.711,0,0,1-1.612.131,8.883,8.883,0,0,1-4.313-1.023,8.568,8.568,0,0,1-2.148-1.817,10.344,10.344,0,0,1-1.506-2.37,13.405,13.405,0,0,1-1.2-5.5A25.525,25.525,0,0,1,9.287,52.164a11.2,11.2,0,0,1,1.779-2.253,7.491,7.491,0,0,1,2.385-1.572,11.3,11.3,0,0,1,2.832-.611A12.033,12.033,0,0,0,19,47.166a2.342,2.342,0,0,0,1.4-1.381,1.873,1.873,0,0,0-.181-1.624c-.033-.057-.069-.11-.1-.163v0l-.051-.076L20.6,43.2c.342-.458.742-1,1.123-1.59.577-.666,1.183-1.327,1.769-1.967l0,0c.354-.386.719-.785,1.074-1.18,1.189-1.321,2.374-2.688,3.52-4.011l0,0c.533-.615,1.084-1.251,1.629-1.876,1.413-1.617,3.032-3.3,5.1-5.309.7-.686,1.5-1.337,2.263-1.966A26.166,26.166,0,0,0,40.1,22.541a4.947,4.947,0,0,0,1.007-1.8,3.73,3.73,0,0,0,.109-1.951,2.623,2.623,0,0,0-1.674-1.867,3.568,3.568,0,0,0-1.329-.261c-1.979,0-3.767,1.681-5.2,3.032-.134.126-.272.256-.406.38l-.077.071a50.48,50.48,0,0,0-8.768,10.5,7.7,7.7,0,0,0-4.3-1.3,6.818,6.818,0,0,0-3.88,1.142,7.156,7.156,0,0,0-2.666,3.848,5.609,5.609,0,0,0-1.234-.15h-.069c-.256-.149-.467-.266-.663-.368A4.031,4.031,0,0,0,9.1,33.353a3.18,3.18,0,0,0-1.7.472,3.028,3.028,0,0,0-1.189,1.446,4.768,4.768,0,0,0-.182,2.779,16.257,16.257,0,0,0,.867,2.731l.137.354a31.009,31.009,0,0,0,1.306,3.043,16.563,16.563,0,0,0-3.7,3.955A27.485,27.485,0,0,0,.813,57.17a30.664,30.664,0,0,0-.751,4.975A25.337,25.337,0,0,0,.18,66.952a17.59,17.59,0,0,0,1.629,5.476A15.789,15.789,0,0,0,3.3,74.9,13.492,13.492,0,0,0,5.224,77l-.1.272a41.2,41.2,0,0,0-1.991,6.205A64.235,64.235,0,0,0,2.067,91.13a73.457,73.457,0,0,0,.31,16.269,71.491,71.491,0,0,0,3.485,14.852,58.219,58.219,0,0,0,6.866,13.58,11.66,11.66,0,0,0-2,3.22,6.578,6.578,0,0,0-.426,1.806,5.912,5.912,0,0,0,.921,3.678,4.647,4.647,0,0,0,1.324,1.348,4.079,4.079,0,0,0,1.035.439,4.757,4.757,0,0,1,.842.328l.177.1c.158.092.145.123.077.291a3.087,3.087,0,0,0-.171.547,6.937,6.937,0,0,0,.1,3.928,4.151,4.151,0,0,0,2.873,2.522,5.142,5.142,0,0,0,1.488.221,6.153,6.153,0,0,0,3.278-1.024,10.229,10.229,0,0,0,2.594-2.4,32.1,32.1,0,0,0,7.54,3.808c2.619.968,5.314,1.725,8.075,2.478a111.562,111.562,0,0,0,18.087,3.236,108.836,108.836,0,0,0,10.944.543,127.871,127.871,0,0,0,13.051-.688c4.141-.421,8.4-1.028,13.018-1.855a2.021,2.021,0,0,0,1.671-1.532c3.469-.159,7-.379,10.407-.591,2.286-.143,4.65-.29,6.973-.418a2.921,2.921,0,0,0,1.384-.42,2.682,2.682,0,0,0,1.283-2.239,2.948,2.948,0,0,0-.335-1.414c-.2-.385-.4-.756-.592-1.1l.253.084a9.452,9.452,0,0,0,2.879.52,5.127,5.127,0,0,0,2.439-.573,4.826,4.826,0,0,0,2.252-2.524,5.969,5.969,0,0,0,.275-3.4,9.033,9.033,0,0,0-.56-1.7c.174.012.345.017.509.017a6.981,6.981,0,0,0,.915-.059,5.468,5.468,0,0,0,1.752-.537,5.036,5.036,0,0,0,2.774-4.315,11.044,11.044,0,0,0-1.449-5.732,19.5,19.5,0,0,0-3.808-4.9,4.916,4.916,0,0,0,.414-2.978,4.776,4.776,0,0,0-1.3-2.549,7.61,7.61,0,0,0-2.363-1.6,19.19,19.19,0,0,0,.884-7.338,1.829,1.829,0,0,0-.524-1.1,2.117,2.117,0,0,0-1.052-.6,87.414,87.414,0,0,0,3.386-12.283c.754-3.671,1.392-7.662,2.009-12.559A152.252,152.252,0,0,0,127.2,68.66c.022-2.7-.023-5.424-.135-8.092l-.046-1.011c-.029-.612-.053-1.237-.076-1.842a50.463,50.463,0,0,0-.593-7.017,24.322,24.322,0,0,0,2.8-10.219A31.522,31.522,0,0,0,127.6,27.9a34.775,34.775,0,0,0-5.493-10.295,40.831,40.831,0,0,0-8.34-8.058,48.542,48.542,0,0,0-10.247-5.683A51.839,51.839,0,0,0,92.311.7,52.808,52.808,0,0,0,83.8,0ZM20,59.257a2.41,2.41,0,0,0-1.352.435,13.137,13.137,0,0,0-3.4,3.972l-.3.458-.109.166c-.095.142-.189.289-.28.431l0,0a7.455,7.455,0,0,1-1.279,1.636l-.142.125a2,2,0,0,1-.728.434,1.4,1.4,0,0,1-.379.048,1.973,1.973,0,0,1-.829-.185,1.065,1.065,0,0,1-.567-.569l-.021-.066a.276.276,0,0,0-.276-.211.292.292,0,0,0-.3.288,3.173,3.173,0,0,0,.924,2.309,3.745,3.745,0,0,0,2.659,1.073,3.973,3.973,0,0,0,.686-.06,8.6,8.6,0,0,0,3.739-1.987l.546-.433.289-.227.009-.007a12.393,12.393,0,0,0,3.441-3.513,2.793,2.793,0,0,0-.129-2.761,2.972,2.972,0,0,0-.936-.977A2.344,2.344,0,0,0,20,59.257Z" transform="translate(129.847 160.902) rotate(180)"/></g><path d="M34.995,0a8.337,8.337,0,0,0-3.416.771,8.559,8.559,0,0,0-2.852,2.077,6.52,6.52,0,0,0-1.3,2.182,5.483,5.483,0,0,0-.258,2.564.884.884,0,0,0,.96.783,1.428,1.428,0,0,0,1.113-.515l.19-.255A10.742,10.742,0,0,1,31.511,5.4a4.457,4.457,0,0,1,2.755-1.017,4.053,4.053,0,0,1,3.3,1.685A4.736,4.736,0,0,1,38.3,7.81a5.833,5.833,0,0,0,.529,1.447A2.56,2.56,0,0,0,41.1,10.492,2.474,2.474,0,0,0,43.613,8.64a5.068,5.068,0,0,0-.1-2.573,6.9,6.9,0,0,0-1.242-2.321A10.145,10.145,0,0,0,35.172,0Zm2.266,16.609a21,21,0,0,0-7.47,1.637,1.957,1.957,0,0,0-1.011.91,1.794,1.794,0,0,0-.139,1.165,1.89,1.89,0,0,0,.588,1.019,1.724,1.724,0,0,0,1.161.434,2.21,2.21,0,0,0,.685-.115l.38-.156h0a17.941,17.941,0,0,1,6.191-1.677,4.6,4.6,0,0,1,1.9.365,3.253,3.253,0,0,1,1.442,1.28,3.238,3.238,0,0,1-.056,2.729A6.343,6.343,0,0,1,38.4,26.7a15.028,15.028,0,0,1-3.286,1.445.784.784,0,0,0-.468.882,1.049,1.049,0,0,0,1.14.794c.091,0,.182,0,.271,0a8.966,8.966,0,0,0,6-2.064,7.3,7.3,0,0,0,1.68-2.116,6.727,6.727,0,0,0,.744-2.426,5.926,5.926,0,0,0-.216-2.368,5.4,5.4,0,0,0-1.185-2.081c-.9-.984-2.639-2.158-5.823-2.158h0ZM2.45,30.1a.774.774,0,0,0-.691.5.519.519,0,0,0,.179.605A26.513,26.513,0,0,0,6.334,34.06a30.488,30.488,0,0,0,4.91,2.048,3.086,3.086,0,0,0-.456,1.263,2.607,2.607,0,0,0,.154,1.305c.054.179.122.351.181.5l.14.336a2.4,2.4,0,0,0,.089.468l.007.047,0,0A2.631,2.631,0,0,0,12,41.083a2.358,2.358,0,0,0,1.7.721,2.476,2.476,0,0,0,.962-.2,2.878,2.878,0,0,0,1.443-.745,3.209,3.209,0,0,0,.868-1.363c.025-.088.054-.176.084-.262l.048-.129-.13.327A2.071,2.071,0,0,1,17.2,38.9a2.618,2.618,0,0,0,.2-.443,3.482,3.482,0,0,0,.107-1.285c.4,0,.728-.018,1.035-.044l.333-.029c1.844-.169,3.9-.483,5.009-2.07a1.49,1.49,0,0,0,.251-.808,2.023,2.023,0,0,0-.173-.87,1.6,1.6,0,0,0-1.179-.99,4.179,4.179,0,0,0-.621-.046,8.412,8.412,0,0,0-2.412.471,11.258,11.258,0,0,1-1.976.459,15.532,15.532,0,0,1-1.688.09,18.755,18.755,0,0,1-3.321-.307,43.95,43.95,0,0,1-5.817-1.607c-1.275-.417-2.593-.847-3.92-1.189l-.446-.112v0A.571.571,0,0,0,2.45,30.1Zm52.276,2.6a1.277,1.277,0,0,0-1.2.75l-.03.066c-.4.908-1.48,1.368-3.225,1.368a13.713,13.713,0,0,1-1.564-.1,18.835,18.835,0,0,1-2.924-.629c-.349-.1-.689-.206-1-.306l-.333-.107c-.148-.047-.727-.355-.714-.434,0-.013.019-.019.052-.019a.735.735,0,0,1,.135.018.15.15,0,0,0,.03,0,.165.165,0,0,0,.155-.128.12.12,0,0,0-.072-.141.875.875,0,0,0-.375-.086.972.972,0,0,0-.693.314,1.1,1.1,0,0,0-.306.821c.07,1.113,1.655,1.782,2.7,2.225.14.059.272.115.389.167l.059.027c.386.176.781.34,1.174.487a5.6,5.6,0,0,0-.574,1.106,4.8,4.8,0,0,0-.3,1.144,1.1,1.1,0,0,0,0,.588l.008.056a1.8,1.8,0,0,0-.039.4l-.006.052h.006A1.9,1.9,0,0,0,46.6,41.6a1.676,1.676,0,0,0,1.2.5,2.18,2.18,0,0,0,1.281-.452l.1-.077a4.125,4.125,0,0,0,1.676-1.613,3.952,3.952,0,0,0,.674-2.032,6.115,6.115,0,0,0,4.682-1.905,1.779,1.779,0,0,0,.467-1.743l-.135-.36A2.027,2.027,0,0,0,54.726,32.706ZM.87,41.951a.783.783,0,0,0-.709.527,3.7,3.7,0,0,0,.08,2.38A10.39,10.39,0,0,0,1.3,47.074a11.827,11.827,0,0,0,3.89,3.757,21.112,21.112,0,0,0,5.41,2.194l.471.136c.346.1.7.21,1.039.317a11.7,11.7,0,0,0,3.367.713,3.975,3.975,0,0,0,2.711-1.007,2.43,2.43,0,0,0,.758-1.531,2.5,2.5,0,0,0-.339-1.668,3.694,3.694,0,0,0-2.051-1.576,9.879,9.879,0,0,0-2.538-.322c-.361-.016-.733-.032-1.109-.062a17.8,17.8,0,0,1-4.99-1.251A17.563,17.563,0,0,1,4.261,44.76a9.97,9.97,0,0,1-1.42-1.29,8.574,8.574,0,0,0-1.62-1.416A.666.666,0,0,0,.87,41.951Zm53.667,3.283a2.906,2.906,0,0,0-2.228,1.181l-.049.063A13.1,13.1,0,0,1,49.99,48.8,12.783,12.783,0,0,1,47.2,50.487a13.528,13.528,0,0,1-3.153.97l-.346.058a6.907,6.907,0,0,1-1.081.112,2.429,2.429,0,0,1-.4-.03,1.717,1.717,0,0,1-.649-.223.238.238,0,0,0-.022-.234.281.281,0,0,0-.231-.13.263.263,0,0,0-.126.033,1.252,1.252,0,0,0-.722.927,1.708,1.708,0,0,0,.67,1.4A4.959,4.959,0,0,0,43.56,54.4a14.668,14.668,0,0,0,2.692.219h0a12.372,12.372,0,0,0,5.9-1.55,13.289,13.289,0,0,0,4.53-4.044,2.18,2.18,0,0,0,.3-1.75,2.66,2.66,0,0,0-1.218-1.7A2.429,2.429,0,0,0,54.537,45.234Z" transform="translate(203.783 126.308) rotate(180)"/></svg>