<svg xmlns="http://www.w3.org/2000/svg" width="278.692" height="400.221" viewBox="0 0 278.692 400.221"><defs><style>.a{fill:#d08b5b;}.b{fill:#e86bbb;}.c{fill:#fff;}</style></defs><g transform="translate(-55.698 -70.183)"><g transform="translate(50.855 220.92)"><path class="a" d="M31.184,257.279q6.212.384,12.423.612c54.152,2.016,108.26-4.153,162.378-5.5a528.428,528.428,0,0,1,56.394,1.264c1.842.148,3.948-1.832,3.722-3.719-3.473-29.959-7.818-59.838-10.07-89.92a13.549,13.549,0,0,1,.751-4.679c.1-.118.638-1.435,1.114-1.517-.155.115.549-.087.1-.053,2.718-.445,5.383-3.376,3.411-6.182-20.318-31.121-48.055-59.526-56.978-96.491-2.108-9.994-9.723-10.611-17.836-14.734-2.531-1.5-8.72-5.672-9.728-8.569-2.406-10.442,1.831-20.672-10.548-24.9C158.146.628,143.7-1.288,135.434,1.1c-10.086,3.355-9.331,14.713-15.182,22.528-3.026,4.52-8.184,10.708-12.947,11.4-2.309.336-4.009-4.331-6.314-4.01C65.063,39.739,16.113,99.227.671,132.158c-3.48,10.364,7.743,7.237,7.053,17.654-.85,19.762-2.709,45.061-1.606,64.847,1.033,11.484.268,23.516,3.84,34.568-.961,1.166.42,2.345,1.547,2.852C12.926,254.492,26.9,256.944,31.184,257.279Z" transform="translate(8.36 -11.063)"/><path class="b" d="M100.991.01c2.15-.3,2.289,6.017,4.371,6.29C115.023,19.855,130,24.354,147.31,24.354q27.571,0,44.712-16.572l1.047.441c5.409,2.3,9.832,4.615,11.36,11.86,8.923,36.964,36.66,65.369,56.978,96.491,1.972,2.806-.693,5.737-3.411,6.182.448-.035-.256.167-.1.053-.476.082-1.011,1.4-1.114,1.517a11.928,11.928,0,0,0-.57,2.229s-22.762,4.819-28.881,4.951c-61.447,1.329-173.816-.569-173.816-.569L6.45,113.147c-2.692-4.039-8.4-4.2-5.779-12C16.113,68.219,65.063,8.731,100.991.01Z" transform="translate(8.36 19.946)"/><path d="M61.53,251.757c-2.508,0-4.777-.077-6.934-.234a.376.376,0,0,1-.256-.114,4.507,4.507,0,0,1-2.678-1.357A3.494,3.494,0,0,1,50.6,247.3l0-.036c.786-8.236,1.677-17.571,2.543-26.6,1.593-16.672,3.091-32.2,4.581-47.468l.223-2.284c.5-5.151,1.011-10.631,1.264-16.026-1.265-.09-2.541-.2-3.791-.342-3.331-.364-6.748-.9-10.158-1.6-3.253-.663-6.6-1.491-9.95-2.461-3.174-.919-6.453-1.995-9.746-3.2-3.092-1.13-6.3-2.412-9.546-3.811l-.51-.221c-.758-.33-1.553-.656-2.394-1l-.008,0c-.405-.166-.824-.338-1.247-.513.012,1.435-.011,2.893-.034,4.3-.015.959-.031,1.951-.036,2.926-.012,2.774,0,5.592.011,8.317v.011c0,1.175.01,2.391.013,3.586.021,7.094.25,14.659.744,24.53,1.126,22.683,2.1,35.01,2.83,43.216.151,1.7.331,3.436.505,5.111v0c.2,1.88.4,3.824.56,5.738a6.416,6.416,0,0,1-.3,2.9,4.151,4.151,0,0,1-1.907,2.136,2.207,2.207,0,0,1-1.116.324,3.667,3.667,0,0,1-1.545-.448,3.825,3.825,0,0,1-2.024-2.3,12.861,12.861,0,0,1-.548-3.131c-.016-.176-.031-.334-.046-.49-.185-1.848-.352-3.688-.478-5.086-.332-3.7-.613-7.36-.834-10.867-.462-7.383-.746-14.653-.843-21.61-.1-7.347,0-14.622.3-21.623.292-6.82.716-13.632,1.26-20.247l.13-1.554c.1-1.153.19-2.341.279-3.49v-.012c.331-4.274.674-8.694,1.415-12.948a29.264,29.264,0,0,1-5.439-3,12.054,12.054,0,0,1-3.9-4.407,7.5,7.5,0,0,1-.294-6.376,10.192,10.192,0,0,1,1.664-2.678A15.482,15.482,0,0,1,4.648,122.3a4.46,4.46,0,0,1,.1-1.331,94.614,94.614,0,0,1,4.38-12.989c1.684-4.283,3.542-8.48,5.522-12.474A155.889,155.889,0,0,1,28.93,72.183a158.829,158.829,0,0,1,18.107-20.5,138.825,138.825,0,0,1,21.4-16.854,123.3,123.3,0,0,1,11.728-6.579l.6-.29a46.877,46.877,0,0,1,9.08-3.568c.311-.231.642-.463.986-.688a2.285,2.285,0,0,1,1.27-.379,2.746,2.746,0,0,1,1.339.362,2.818,2.818,0,0,1,1.012.956,6.438,6.438,0,0,1,1.228-.733l.462-.211a17.951,17.951,0,0,1,7.047-1.888,8.226,8.226,0,0,1,2.16.277,6.029,6.029,0,0,1,4.045,3.675A43.237,43.237,0,0,0,113.9,23.1a37.4,37.4,0,0,0,6.428-5.784,35.546,35.546,0,0,0,4.933-6.951,31.091,31.091,0,0,0,2.979-7.974A2.964,2.964,0,0,1,129.371.569,3.121,3.121,0,0,1,131.227,0,3.985,3.985,0,0,1,132.9.375a3.58,3.58,0,0,1,1.336,1.054,3.03,3.03,0,0,1,.48,2.747,34.942,34.942,0,0,1-4.043,9.253,31.324,31.324,0,0,1-6.609,7.619,34.486,34.486,0,0,1-6.924,4.444,24.2,24.2,0,0,1-7.983,2.37c.268.261.535.536.794.8l0,0c.232.239.471.486.713.724a47.6,47.6,0,0,0,3.65,3.236,52.9,52.9,0,0,0,8.261,5.577,54.661,54.661,0,0,0,6.943,3.116,58.128,58.128,0,0,0,7.209,2.124,67.827,67.827,0,0,0,14.933,1.6,83.429,83.429,0,0,0,9.227-.528,93.463,93.463,0,0,0,9.382-1.489,59.547,59.547,0,0,0,9.1-2.68,32.257,32.257,0,0,0,7.715-4.2l.612-.459a13.031,13.031,0,0,0,3.639-3.669,3.046,3.046,0,0,1-.666.072,6.618,6.618,0,0,1-3.4-1.249,23.338,23.338,0,0,1-2.85-2.234,20.627,20.627,0,0,1-4.373-5.743,21.1,21.1,0,0,1-2.238-6.822,15.542,15.542,0,0,1-.092-3.593,12.156,12.156,0,0,1,.835-3.453.294.294,0,0,1,.269-.2.28.28,0,0,1,.274.268,29.568,29.568,0,0,0,1.627,7.4,19.554,19.554,0,0,0,1.636,3.358,17.74,17.74,0,0,0,2.366,3.042,19.424,19.424,0,0,0,5.76,4.093l.3.139a4.112,4.112,0,0,1,2.265,1.825,1.123,1.123,0,0,1,.128-.007,1.2,1.2,0,0,1,.312.042c.117.031.231.068.36.114a3.622,3.622,0,0,1-.367-1.791,2.147,2.147,0,0,1,.692-1.587,2.174,2.174,0,0,1,1.447-.526,2.316,2.316,0,0,1,1.361.435,2.128,2.128,0,0,1,.823,1.3c-.026-.088-.058-.141-.087-.141-.014,0-.024.013-.028.034a.189.189,0,0,0,.133.193h0a1.345,1.345,0,0,1,.022.135l0,.06,0-.05c0-.032-.007-.065-.013-.1l-.008-.044a.325.325,0,0,0,.139.028l.023.009.173.078h0c.119.054.253.115.308.137a7.967,7.967,0,0,0,1.076.284c.288.062.586.126.868.214a6.2,6.2,0,0,1,3.422,2.309,6.381,6.381,0,0,1,1.076,2.849,68.644,68.644,0,0,1,8.8,5.042,57.667,57.667,0,0,1,7.853,6.374,87.88,87.88,0,0,1,7.486,8.322,106.843,106.843,0,0,1,6.444,9.107A159.814,159.814,0,0,1,245.972,81.5c2.981,6.578,5.615,13.174,8.654,21.053l.431,1.118c2.3,5.976,3.31,9.3,3.934,11.527a61.813,61.813,0,0,1,2.217,11.955,2.944,2.944,0,0,1-.6,1.991,6.815,6.815,0,0,1,.2,1.832c0,.1-.011.2-.017.28h.059a3.5,3.5,0,0,1,2.8,1.549,1.967,1.967,0,0,1,.6-.094,1.845,1.845,0,0,1,.57.09c2.26.722,2.74,3.109,3.164,5.215q.041.2.081.4a35.015,35.015,0,0,1,.675,6.945,2.849,2.849,0,0,1-.34,1.3,2.078,2.078,0,0,1-.947.941c-.892.393-1.842.712-2.761,1.021-.651.219-1.323.445-1.975.7-1.218.47-2.418.905-3.567,1.293a10.685,10.685,0,0,1,.939,2.812v0c.1.417.192.81.3,1.175.537,1.816.995,3.7,1.4,5.767,1.441,7.4,2.655,14.975,3.829,22.3.929,5.792,1.889,11.78,2.955,17.647,1.243,6.854,2.68,13.577,4.044,19.876.729,3.358,1.491,6.629,2.263,9.721.431,1.728.88,3.463,1.335,5.155.127.476.26.965.406,1.5l.241.871a3.142,3.142,0,0,1,1.287,1.331,4.548,4.548,0,0,1,.4,3.318,4.121,4.121,0,0,1-.748,1.46,4.609,4.609,0,0,1-1.346,1.137,4.169,4.169,0,0,1-2.083.554,5.345,5.345,0,0,1-4.431-2.666,14.234,14.234,0,0,1-1.367-4.043v0c-.1-.44-.2-.856-.306-1.262-.48-1.809-.961-3.708-1.47-5.808-1.534-6.325-2.865-12.839-4.069-19.915-1.068-6.282-2.011-12.866-2.881-20.126l-.114-.961c-.791-6.687-1.607-13.8-2.124-20.833-.271-3.675-.46-7.033-.578-10.265-.063-1.775.04-3.565.139-5.3.015-.259.033-.532.049-.772v0c.034-.506.069-1.029.085-1.543l.008-.11v-.01c.006-.074.015-.174.022-.278l.008-.131c-2.277.712-4.718,1.35-7.254,1.894a61.445,61.445,0,0,1-13.038,1.514c-.942,0-1.884-.028-2.8-.083.813,9.653,1.812,18.244,3.055,26.265,1.294,8.342,2.807,16.779,4.5,25.076.811,4,1.7,8.087,2.73,12.5.192.819.4,1.651.594,2.454v0c.338,1.372.688,2.791.983,4.2a5.554,5.554,0,0,1-.194,3.679c.458,1.247.878,2.5,1.285,3.71v0l0,.011c.133.4.271.807.4,1.2l.161.471c.176.514.384,1.037.586,1.543a14.813,14.813,0,0,1,1.053,3.4,5.02,5.02,0,0,1-.043,1.691,4.5,4.5,0,0,1-.728,1.673,5.264,5.264,0,0,1-4.152,2.254l-.03.019h0c-.019.012-.038.024-.058.035a3.881,3.881,0,0,1-1.854.451,4.568,4.568,0,0,1-.934-.1c-1.668.327-3.033.579-4.3.8-3.391.585-6.885,1.089-10.679,1.542-6.171.734-12.87,1.224-20.48,1.5-5.285.19-10.92.283-17.228.283-8.006,0-16.147-.15-24.02-.3h-.042c-7.874-.146-16.016-.3-24.025-.3-3.5,0-6.716.028-9.843.085-11.631.211-24.148.723-38.266,1.566l-4.3.26c-4.845.295-9.855.6-14.785.843l-1.969.1C68.616,251.6,65.068,251.757,61.53,251.757ZM233.4,143.386c.221,3.35.463,6.637.72,9.77l3.676-.842c3.538-.811,7.3-1.693,10.975-2.757,2.493-.721,5.13-1.607,8.061-2.707,1.485-.558,2.838-1.1,4.134-1.67a20.9,20.9,0,0,0,1.943-1l.538-.306a30.7,30.7,0,0,0-.685-4.322c-.1-.44-.244-.9-.383-1.337-.1-.323-.207-.656-.3-.986a2.093,2.093,0,0,1-.582.084,2.034,2.034,0,0,1-.242-.014c.089.011.136.03.139.057.009.075-.312.2-.6.31-.141.055-.274.107-.352.147l-.021.012c-.543.31-1.057.592-1.571.861-1.13.594-2.367,1.178-3.781,1.784a45.8,45.8,0,0,1-7.822,2.506,41.139,41.139,0,0,1-8.061.992c-.237,0-.469.007-.692.007A18.781,18.781,0,0,1,233.4,143.386ZM6.1,125h0l-.1.194a7.915,7.915,0,0,0-.986,4.128,4.411,4.411,0,0,0,.635,1.93,5.829,5.829,0,0,0,1.7,1.724,32.065,32.065,0,0,0,4.483,2.53c2.243,1.067,4.61,1.97,6.9,2.842.566.216,1.152.439,1.72.659l.561.219c5.478,2.148,10.506,3.877,15.371,5.286,2.712.783,5.4,1.471,7.986,2.043,2.746.608,5.473,1.107,8.1,1.483,2.2.312,4.53.549,6.919.7.034-2.779.023-5.607.013-8.341v-.008q0-.495,0-.989l-.85-.109c-.521-.068-1.06-.137-1.578-.2-2.541-.3-4.888-.639-7.176-1.047a109.2,109.2,0,0,1-14.689-3.685,92.809,92.809,0,0,1-12.862-5.31,91.19,91.19,0,0,1-11.876-7.182,6.639,6.639,0,0,1-.971,2.075,3.008,3.008,0,0,1-1.845,1.2A2.74,2.74,0,0,1,7,125.2a2.034,2.034,0,0,1-.9-.2Zm98.062-99.8a12.392,12.392,0,0,0-4.628,1.032c-.725.309-1.474.629-2.187,1.016l-.137.077c-.825.475-.814.763-.417,1.7a28.2,28.2,0,0,0,1.891,3.51l.049.082A49.663,49.663,0,0,0,110.045,45.49a60.818,60.818,0,0,0,9.594,6.387,67.425,67.425,0,0,0,10.669,4.588,72.381,72.381,0,0,0,11.349,2.768,73.769,73.769,0,0,0,11.631.928h0a69.907,69.907,0,0,0,14.894-1.581A59.176,59.176,0,0,0,181.9,53.833a46.159,46.159,0,0,0,11.843-8.325l.635-.631a35.569,35.569,0,0,0,4.352-5.011,13.594,13.594,0,0,0,1.552-2.941,7.6,7.6,0,0,0,.49-3.086,2.039,2.039,0,0,0-.942-1.745,6.137,6.137,0,0,0-1.959-.641c-.175-.038-.355-.076-.534-.118a7.3,7.3,0,0,1-1.906-.7,3.053,3.053,0,0,1-.135,1.613,7.861,7.861,0,0,1-.838,1.724,16.252,16.252,0,0,1-2.258,2.783,31.348,31.348,0,0,1-9.153,6.092,54.732,54.732,0,0,1-9.916,3.292,96.067,96.067,0,0,1-10.313,1.786,83.4,83.4,0,0,1-10.254.646,73.619,73.619,0,0,1-13.375-1.2,59.569,59.569,0,0,1-9.989-2.748,50.037,50.037,0,0,1-9.28-4.581,42.589,42.589,0,0,1-7.531-5.877l-.474-.478c-.767-.777-1.654-1.689-2.464-2.677a13.9,13.9,0,0,1-1.979-3.058h-.135c-.318,0-.64-.011-.959-.032a.3.3,0,0,1-.268-.236.24.24,0,0,1,.13-.276c.272-.144.564-.3.861-.452-.053-.177-.093-.328-.125-.474a.174.174,0,0,1,.036-.145.16.16,0,0,1,.123-.061.151.151,0,0,1,.079.023c.162.1.326.205.5.331.044-.02.089-.044.135-.069A4.864,4.864,0,0,0,104.159,25.2Z" transform="translate(4.843 -2.273)"/></g><g transform="translate(128.694 62.231)"><path class="a" d="M67.214,0,70.2,3.551Q67.719,5.3,65.52,7.064v0A40.673,40.673,0,0,1,87.955,0c15.648,0,47.433,13.462,54.619,23.171,3.566,4.819,10.192,19.612,13.629,35.694,2.762,12.922,6.869,49.429,2.762,63.146-5.257,17.556-22.553,33.782-40.387,33.782S73.055,142.9,53.349,114.643c-.9-1.292-11.249-2.79-18.63-7.639l1.938,21.383,1.473,12.438-.325.885q-7.93,21.478-12.568,22.411-4.733.951-19.277-15.539L4.72,143.373Q0,123.446,0,121.981l0-.178c.046-2.248.82-14.974.836-18.4V52.076Q16.48,0,30.691,0Z" transform="translate(-14.046 20.514)"/><path d="M26.087,192.449a3.49,3.49,0,0,1-2.233-.813,3.19,3.19,0,0,1-1.144-2.151,4.486,4.486,0,0,1-1.36-1.723,8.028,8.028,0,0,1-.632-2.244c-.151-1.043-.261-2.093-.367-3.109-.13-1.244-.264-2.53-.474-3.794l-.146.137-.075.065-.024.166a3.423,3.423,0,0,1-1.686,2.4,7.488,7.488,0,0,1-1.407,5.495,3.667,3.667,0,0,1-2.811,1.236,3.8,3.8,0,0,1-.665-.058l-.084,0a1.17,1.17,0,0,1-.152-.009,4.491,4.491,0,0,1-1.846-.667A4.255,4.255,0,0,1,9.689,186.1a4.142,4.142,0,0,1-.494-3.442A6,6,0,0,1,8.03,180.38a5.67,5.67,0,0,1-.085-2.533,3.709,3.709,0,0,1-1.225-1.354,5.126,5.126,0,0,1-.542-1.776,9.9,9.9,0,0,1,.4-3.947,6.774,6.774,0,0,1-1.97-7.762,8.152,8.152,0,0,1-1.747-4.332,8.673,8.673,0,0,1,.813-4.6,4.655,4.655,0,0,1-1.673-3.58,4.771,4.771,0,0,1,1.667-3.692,12.2,12.2,0,0,1-1.242-3.729,5.664,5.664,0,0,1,.529-3.58A4.77,4.77,0,0,1,1.766,136a4.343,4.343,0,0,1,.929-2.379,6.493,6.493,0,0,1,1.968-1.626l.106-.582a1.274,1.274,0,0,0,1.077-.379,5.7,5.7,0,0,1,1.03-.792,1.331,1.331,0,0,0,.99-.46,6.923,6.923,0,0,1,2.173-.335,1.291,1.291,0,0,0,.974-.413,1.445,1.445,0,0,0,.355-.9,1.3,1.3,0,0,0-1.15-1.432,1.365,1.365,0,0,0-.974-.414H8.949a5.109,5.109,0,0,0-2.022.323,2.27,2.27,0,0,0-.969.773,1.926,1.926,0,0,1-.9,1.4,2.187,2.187,0,0,1-1.244.389,2.1,2.1,0,0,1-1.071-.289,1.785,1.785,0,0,1-.874-1.116,3.953,3.953,0,0,1-.029-1.428,9.517,9.517,0,0,0-.362-3.206,9.416,9.416,0,0,1-.354-3.367,5.253,5.253,0,0,1,1.012-2.568,6.051,6.051,0,0,1-.994-2.849,5.88,5.88,0,0,1,.528-2.975,6.332,6.332,0,0,1-1.622-3.559,6.913,6.913,0,0,1,.637-3.861c.008-.026.015-.052.021-.076s.017-.066.028-.1a5.9,5.9,0,0,1,.516-1.12A5.71,5.71,0,0,1,1.279,96.9,5.365,5.365,0,0,1,.043,93.56a5.715,5.715,0,0,1,1.01-3.448c.006-.125.018-.251.029-.374q.006-.061.011-.122a6.177,6.177,0,0,1-.386-2.623,6.445,6.445,0,0,1,.715-2.535,10.194,10.194,0,0,1-.663-2.179,12.743,12.743,0,0,1,.373-5.891c.085-.291.182-.593.3-.923.016-1.2.061-2.506.136-3.992a15.966,15.966,0,0,1-.311-3.5l0-.743c0-.145,0-.295,0-.449-.021-1.83-.049-4.335,1.054-5.82a5.006,5.006,0,0,1,.828-5.3,5.642,5.642,0,0,1-.767-2.518,5.041,5.041,0,0,1,.583-2.645,5.582,5.582,0,0,1,.5-.777,9.044,9.044,0,0,1,1.092-4.755,7.886,7.886,0,0,1,2.32-2.6c-.019-.235-.026-.438-.023-.622a7.763,7.763,0,0,1,.561-2.691,4.378,4.378,0,0,1-.538-3.5,5.634,5.634,0,0,1,2.769-3.374,28.176,28.176,0,0,1,.62-4.034,3.968,3.968,0,0,1-.338-1.43,4.312,4.312,0,0,1,.181-1.469A4.036,4.036,0,0,1,11.906,22.9a4.7,4.7,0,0,1,1.023-4.059,4,4,0,0,1,1.367-.964,5,5,0,0,1,1.031-4.134A4.663,4.663,0,0,1,16.8,12.593a4.8,4.8,0,0,1,1.785-.488,5.328,5.328,0,0,1,5.129-4.261c.094,0,.19,0,.283.008a4.026,4.026,0,0,1,.8-1.515,3.8,3.8,0,0,1,1.446-1.051,3.858,3.858,0,0,1,.907-.254,14.577,14.577,0,0,1,3.671-2.619,21.152,21.152,0,0,1,4.117-1.6,15.336,15.336,0,0,1,4-.562A10.6,10.6,0,0,1,42.6.863l.167.063L42.951.9c.776-.086,1.591-.141,2.423-.162A10.888,10.888,0,0,1,49.327,0,10.628,10.628,0,0,1,54.9,1.565c.2-.008.395-.013.591-.013a15.617,15.617,0,0,1,7.881,2.231,17.364,17.364,0,0,1,3.312,2.529,16.605,16.605,0,0,1,2.592,3.24l.063.069c.042.046.085.093.124.138l.631.737a20.079,20.079,0,0,1,1.728,2.28,7.641,7.641,0,0,0-3.338.8,7.107,7.107,0,0,0-2.57,2.272,1.14,1.14,0,0,0-.127,1.223,1.566,1.566,0,0,0,1.358.783,1.38,1.38,0,0,0,1.117-.561l.036-.05a4.2,4.2,0,0,1,3.58-1.7,1.3,1.3,0,0,0,.946-.4c.083.3.161.623.239.972a48.2,48.2,0,0,1,17.558-3.122c1.7,0,3.464.077,5.227.229a9.166,9.166,0,0,0-.844,1.764,1.215,1.215,0,0,0,.092.971,1.451,1.451,0,0,0,.872.73,1.382,1.382,0,0,0,.366.05,1.438,1.438,0,0,0,1.308-.951l.025-.066a4.943,4.943,0,0,1,1.439-2.136,76.718,76.718,0,0,1,10.822,2.3,118.5,118.5,0,0,1,12.59,4.426,3.23,3.23,0,0,0-1.723,1.511,1.3,1.3,0,0,0,0,1.329,1.557,1.557,0,0,0,1.293.751,1.206,1.206,0,0,0,1.059-.629l.031-.055a1.282,1.282,0,0,1,.218-.307l.02-.018.121-.056.226-.065.087-.021a1.1,1.1,0,0,1,.218-.022l.093,0c.241-.014.487-.014.724-.014h.082a1.254,1.254,0,0,0,1.219-.8c2.037.92,4.06,1.9,6.014,2.9l.469.243A46.988,46.988,0,0,1,141.3,30.7a30.831,30.831,0,0,1,3.642,3.614,25.418,25.418,0,0,1,2.93,4.262,2.131,2.131,0,0,1,.235,1.289c.694.833,1.389,1.721,2.067,2.641a49.431,49.431,0,0,1,4.906,8.982,96.756,96.756,0,0,1,6.2,19.323c1.551,6.97,2.773,14.056,3.663,19.451.693,4.208,1.19,7.667,1.563,10.888.459,3.957.729,7.544.826,10.966a74.44,74.44,0,0,1-1.872,19.388,58.832,58.832,0,0,1-3.013,9.216,52.481,52.481,0,0,1-10.131,15.554,49.043,49.043,0,0,1-6.6,5.868,43.988,43.988,0,0,1-7.566,4.495,39.812,39.812,0,0,1-8.391,2.815,43.1,43.1,0,0,1-8.989.956,39.9,39.9,0,0,1-13.142-2.182,36.563,36.563,0,0,1-11.67-6.637,3.118,3.118,0,0,1-1.052-2.294,4.1,4.1,0,0,1,.242-1.559,3.586,3.586,0,0,1,.81-1.305,3.421,3.421,0,0,1,2.463-1.029,4.2,4.2,0,0,1,2.687,1.029,28.423,28.423,0,0,0,9.4,5.241,33.415,33.415,0,0,0,10.634,1.689,36.437,36.437,0,0,0,12.225-2.118,34.3,34.3,0,0,0,6.952-3.446,39.725,39.725,0,0,0,6.075-4.832,45.9,45.9,0,0,0,5.119-5.882,49.636,49.636,0,0,0,7.55-15.21,60.553,60.553,0,0,0,1.946-9.036,77.8,77.8,0,0,0,.7-9.258c.053-2.927-.037-6.049-.27-9.281-.472-6.6-1.422-13.03-2.523-20.145l-.625-4.027c-.763-4.88-1.452-8.964-2.333-13.035l-.219-1.006c-.7-3.173-1.29-5.591-1.927-7.837a64.74,64.74,0,0,0-2.622-7.6c-1.1-2.6-2.439-5.135-3.725-7.489-.268-.49-.536-.974-.8-1.438a1.875,1.875,0,0,1-.62.105,2,2,0,0,1-.6-.1,50.379,50.379,0,0,0-11.6-2.226c-1.087-.073-2.206-.11-3.324-.11-.681,0-1.378.014-2.072.041-.591-.034-1.184-.052-1.762-.052a24.164,24.164,0,0,0-7.413,1.089c-.293-.252-.6-.506-.868-.729a2.05,2.05,0,0,1-.236-.03,2.277,2.277,0,0,1-1.591-1.352c-.018-.039-.034-.078-.046-.107-.357-.274-.74-.56-1.135-.849a1.378,1.378,0,0,1-.346.045,1.506,1.506,0,0,1-1.031-.436,2.088,2.088,0,0,1-.589-.993c-.15-.1-.3-.2-.454-.3l-.173-.113a3.085,3.085,0,0,1-.486.085c-.107.008-.213.012-.316.012a3.413,3.413,0,0,1-1.638-.395,3.6,3.6,0,0,1-1.589-1.843c-.094.006-.189.009-.281.009a5.685,5.685,0,0,1-3.1-1,10.271,10.271,0,0,1-2.132-2.083A71.558,71.558,0,0,0,91.1,26.231a72.575,72.575,0,0,0-12.7-1.932c-.843.162-1.684.357-2.5.578-.205.056-.5.169-.79.283a23.858,23.858,0,0,1,2.854-.178,20.572,20.572,0,0,1,2.928.207,27.923,27.923,0,0,1,12.5,5.47A76.861,76.861,0,0,1,103.6,40.044a1.58,1.58,0,0,1,.313-.031,1.927,1.927,0,0,1,1.721,1.206,1.5,1.5,0,0,1-.429,1.713l-10.666,9.9a1.445,1.445,0,0,1-.314,1.238,1.912,1.912,0,0,1-1.455.735,1.491,1.491,0,0,1-.347-.04c-1.712-.412-3.542-.841-5.594-1.312a6.048,6.048,0,0,1-2.624.6,5.8,5.8,0,0,1-3.538-1.182c-.05-.038-.137-.092-.229-.149h0c-.061-.038-.125-.077-.185-.116a4.049,4.049,0,0,1-.37.261l-.01.007-.037.024a2.882,2.882,0,0,1-1.6.464,3.36,3.36,0,0,1-.526-.042,4.326,4.326,0,0,1-2.023-.981,5.488,5.488,0,0,1-.53-.574c-.393-.46-.882-1.032-1.2-1.093l-.024,0a.045.045,0,0,1,.038.035c.036.18-.789.948-1.056,1.14a3.125,3.125,0,0,1-1.856.639,3.007,3.007,0,0,1-.328-.018,3.578,3.578,0,0,1-1.93-.93,6.863,6.863,0,0,1-1.389-1.707l-.052-.091-.022-.057-.018.061c0,.011-.007.023-.012.035a2.335,2.335,0,0,1-.65.8,2.652,2.652,0,0,1-1.774.7,2.726,2.726,0,0,1-.468-.041,3.2,3.2,0,0,1-1.774-1.065l-.074-.082c-.137-.154-1.069-1.41-.923-1.708l.017-.026-.046-.01a1.805,1.805,0,0,1-.43.054,1.469,1.469,0,0,1-.956-.346,52.841,52.841,0,0,1-5.7-1.551c-.154.433-.293.834-.425,1.228a17.141,17.141,0,0,1,1.821,1.369c.344.283.668.55.986.785l.022.016c1.5,1.109,3.2,2.365,4.863,3.6l6.442,4.759.737-.2a1.767,1.767,0,0,1,.458-.062,1.8,1.8,0,0,1,1.636,1.2l.029.073a6.289,6.289,0,0,0,.5,1.033c.051,0,.1,0,.148,0a3.377,3.377,0,0,1,3.267,2.349l.218,0a9.129,9.129,0,0,1,.993.054,1.96,1.96,0,0,1,1.388.733,1.733,1.733,0,0,1,.292,1.376l-.015.079L77.854,65a1.955,1.955,0,0,1,1.23,1.622,3.059,3.059,0,0,1,.405.868c.387,1.359-.159,2.973-.641,4.4-.105.311-.2.6-.291.886l-.038.124c-.334,1.113-.675,2.2-.964,3.113l-.816,2.572a78.486,78.486,0,0,0-2.855,10.989A27.963,27.963,0,0,0,74.1,100.82,1.345,1.345,0,0,1,73.886,102a1.407,1.407,0,0,1-1.107.519,1.456,1.456,0,0,1-1.2-.632,99.154,99.154,0,0,0-6.861-8.579l-.117-.019c-1.589-.32-2.268-1.4-2.987-2.534l-.145-.229a3.1,3.1,0,0,1-.875.127,2.929,2.929,0,0,1-.553-.052,3.515,3.515,0,0,1-1.8-1.026,4.04,4.04,0,0,1-.51-.767,2.75,2.75,0,0,0-.771-1.007,1.243,1.243,0,0,0-.6-.121,6.318,6.318,0,0,0-.87.087l-.011,0a6.239,6.239,0,0,1-.842.085,1.669,1.669,0,0,1-.245-.016,5.852,5.852,0,0,1-1.685-.548,9.368,9.368,0,0,0-1.8,4.644,3.846,3.846,0,0,1-.536,1.656c.18-.007.358-.01.528-.01a13.943,13.943,0,0,1,2.552.234,10.586,10.586,0,0,1,7.992,6.5.141.141,0,0,1-.009.135.132.132,0,0,1-.108.061.123.123,0,0,1-.1-.065,6.389,6.389,0,0,0-2.886-2.4,9.369,9.369,0,0,0-3.74-.715,12.761,12.761,0,0,0-4.1.689,9.231,9.231,0,0,0-4.467,3.281,11.465,11.465,0,0,0-1.368,2.419,14.293,14.293,0,0,0-.828,2.742,14.971,14.971,0,0,0-.278,3.171,16.653,16.653,0,0,0,.368,3.174,18.039,18.039,0,0,0,2.413,5.881,8.429,8.429,0,0,0,4.4,3.768,5.068,5.068,0,0,0,1.559.227,13.427,13.427,0,0,0,1.8-.163h.007a13.518,13.518,0,0,1,1.822-.164,5.351,5.351,0,0,1,1.5.2,2.721,2.721,0,0,1,1.7,1.353,3.314,3.314,0,0,1,.3,2.163,4.618,4.618,0,0,1-.607,1.583c.2.39.393.789.582,1.176l.005.01a41.531,41.531,0,0,0,2,3.751,37.865,37.865,0,0,0,5.358,6.451c2.477,2.5,4.446,4.374,6.386,6.071a38.005,38.005,0,0,0,3.962,2.909c.933.625,1.9,1.27,2.812,1.969a4.741,4.741,0,0,1,1.656,2.12,3.636,3.636,0,0,1-.092,2.662,3.926,3.926,0,0,1-1.387,1.688,3.719,3.719,0,0,1-2.107.725,2.644,2.644,0,0,1-1.015-.2,23.318,23.318,0,0,1-4.685-2.663,46.57,46.57,0,0,1-4.18-3.436,31.322,31.322,0,0,1-3.413-3.64,30.428,30.428,0,0,1-2.784-4.138,48.354,48.354,0,0,1-3.587-8.8l-.117-.372a41.143,41.143,0,0,1-1.218-4.619,9.588,9.588,0,0,1-4.483.991,12.8,12.8,0,0,1-1.751-.119,13.237,13.237,0,0,1-4.458-1.461,14.463,14.463,0,0,1-3.725-2.871,19.853,19.853,0,0,1-2.675-3.635c.055.63.091,1.236.127,1.821l0,.043q.014.225.027.442a8.241,8.241,0,0,1,1.886,7.433,5.432,5.432,0,0,1,1.432,2.775,5.567,5.567,0,0,1-.289,3.1,4.721,4.721,0,0,1,1.324,3.035,9.606,9.606,0,0,1-.449,3.583,6.244,6.244,0,0,1,1.133,1.833,6.845,6.845,0,0,1,.476,2.087,6.985,6.985,0,0,1-1,4.13l-.046.177a6.783,6.783,0,0,1,.8,2.046,7.071,7.071,0,0,1,.127,2.159,7.244,7.244,0,0,1-.523,2.1,7.139,7.139,0,0,1-1.144,1.877,6.83,6.83,0,0,1,.729,2.415,4.842,4.842,0,0,1-.313,2.361,3.659,3.659,0,0,1-.95,1.327,4.345,4.345,0,0,1-1.642.885,3.546,3.546,0,0,1-1.023.153,3.586,3.586,0,0,1-2.208-.773,35.354,35.354,0,0,1,.74,5.965,20.675,20.675,0,0,1-.65,5.978,3.671,3.671,0,0,1-1.341,1.955,3.742,3.742,0,0,1-2.239.773,3.411,3.411,0,0,1-1.761-.466,3.984,3.984,0,0,1-1.256-1.218,24.266,24.266,0,0,1-.466,6.023,3,3,0,0,1-.94,1.582,3.827,3.827,0,0,1-1.649.887,1.607,1.607,0,0,1,.19,1.934,3.578,3.578,0,0,1-1.318,1.373A3.212,3.212,0,0,1,26.087,192.449Zm-1.326-21.066a1.428,1.428,0,0,0-1.339,1.02,1.4,1.4,0,0,0,.964,1.7,9.046,9.046,0,0,0,2.753.348,1.4,1.4,0,0,0,1.381-1.383,1.4,1.4,0,0,0-1.381-1.383,6.252,6.252,0,0,1-2.019-.25A1.2,1.2,0,0,0,24.761,171.383Zm-5.973-14.632h0a3.783,3.783,0,0,0-2.766,1,1.354,1.354,0,0,0-.4,1,1.31,1.31,0,0,0,.4.959,1.457,1.457,0,0,0,.984.394,1.389,1.389,0,0,0,.91-.34l.107-.1.031-.029.016-.01c.039-.025.08-.051.122-.073l-.09.059c-.012.008-.017.013-.017.015h0a.794.794,0,0,0,.106-.045h0l.086-.039.028-.012.009,0,.071-.005c.126-.007.259-.007.365-.007h.033a1.436,1.436,0,0,0,1.012-.45,1.27,1.27,0,0,0,.369-.933,1.49,1.49,0,0,0-.412-.972,1.335,1.335,0,0,0-.967-.411ZM34.933,146h-.038a1.272,1.272,0,0,0-1,.433,1.457,1.457,0,0,0-.333.952,1.3,1.3,0,0,0,1.333,1.381h.3a7,7,0,0,0,3.684-.785,1.322,1.322,0,0,0,.584-.7,1.373,1.373,0,0,0,.013-.823A1.587,1.587,0,0,0,39,145.7a1.229,1.229,0,0,0-.814-.32,1.311,1.311,0,0,0-.647.181l-.054.032A3.773,3.773,0,0,1,35.45,146h-.517Zm-11.969-8.364a1.4,1.4,0,0,0-.872.329,3.988,3.988,0,0,0-1.1.673,1.156,1.156,0,0,0-.375,1.324,1.559,1.559,0,0,0,1.414.989,1.384,1.384,0,0,0,.914-.356,1.046,1.046,0,0,1,.256-.161l.074-.031h1.477a1.3,1.3,0,0,0,.393-.068c.379.052.733.122,1.018.178l.01,0,.2.039a1.572,1.572,0,0,0,.29.028,1.356,1.356,0,0,0,1-.436,1.632,1.632,0,0,0,.432-.954,1.147,1.147,0,0,0-.99-1.305,15.186,15.186,0,0,0-2.765-.315,7.58,7.58,0,0,0-.817.042l-.2.025Zm-.173-27h0a6.022,6.022,0,0,0-3.507,1.106,1.4,1.4,0,0,0-.56.761,1.494,1.494,0,0,0,.019.862,1.588,1.588,0,0,0,.459.715,1.139,1.139,0,0,0,.752.3,1.234,1.234,0,0,0,.672-.213l.052-.035a4.6,4.6,0,0,1,.55-.325,5.322,5.322,0,0,0,1.477.219,4.459,4.459,0,0,0,1.545-.273l.128-.049.076.03a1.463,1.463,0,0,0,.619.142,1.446,1.446,0,0,0,.949-.372,1.618,1.618,0,0,0,.509-.844,1.122,1.122,0,0,0-.683-1.314,7.235,7.235,0,0,0-3.057-.708Zm1.022-18.675h0c.261.006.535.024.813.052.7.072,1.385.2,2.146.353a1.57,1.57,0,0,0,.3.03A1.473,1.473,0,0,0,28.5,91.014a1.265,1.265,0,0,0-.189-.826,1.21,1.21,0,0,0-.8-.5l-.772-.153c-.3-.06-.554-.106-.786-.147a1.368,1.368,0,0,0-.508-.145l-.091,0h-.428a9.96,9.96,0,0,0-1.094-.065c-.12,0-.239,0-.354.008a3.066,3.066,0,0,0-1.092.261,1.955,1.955,0,0,0-.837.668,1.36,1.36,0,0,0-.112,1.277,1.386,1.386,0,0,0,1.351.939,1.544,1.544,0,0,0,1.028-.377ZM9.573,67.67A7.41,7.41,0,0,0,6.4,68.29a2.894,2.894,0,0,0-1.716,2.422,1.175,1.175,0,0,0,.272.929,1.309,1.309,0,0,0,.976.393,1.627,1.627,0,0,0,.861-.245,1.377,1.377,0,0,0,.578-.735,18.133,18.133,0,0,1,3.213-.289,17.888,17.888,0,0,1,1.956.108,1.558,1.558,0,0,0,.406-1.43,1.153,1.153,0,0,0-.834-.828,1.2,1.2,0,0,0-.907-.829l-.162-.022A11.567,11.567,0,0,0,9.573,67.67Zm53.919-5.3h0a1.277,1.277,0,0,0-.94.4,4.647,4.647,0,0,0-.762,1.077l-.135.267c-.025.048-.048.091-.07.132-.036.063-.077.127-.113.184l-.033.051-.033.033,0,0-.045.047a1.5,1.5,0,0,0-.4,1.065,1.255,1.255,0,0,0,.4.891,1.513,1.513,0,0,0,1.012.4,1.279,1.279,0,0,0,.941-.4,4.654,4.654,0,0,0,.762-1.077l.134-.266c.024-.047.047-.09.07-.132.033-.06.07-.118.106-.174l0-.006.035-.055.055-.055.026-.027a1.5,1.5,0,0,0,.4-1.065,1.255,1.255,0,0,0-.4-.891,1.515,1.515,0,0,0-1.013-.4Zm-29.783-.786c.038.02.074.044.109.066l.02.013.08.072a1.481,1.481,0,0,0,1.01.4,1.26,1.26,0,0,0,.928-.384,1.491,1.491,0,0,0,.924-1.2,1.394,1.394,0,0,0-.592-1.378,5.225,5.225,0,0,0-3-1.033,4.432,4.432,0,0,0-3.044,1.25,1.2,1.2,0,0,0-.343,1.372,1.542,1.542,0,0,0,1.376.965,1.329,1.329,0,0,0,.874-.34l.046-.041c.051-.047.1-.087.143-.12a1.325,1.325,0,0,0,.869.325h.057l.208,0,.132,0,.071.006.009,0,.062.026.053.024h0a.772.772,0,0,0,.105.045s-.029-.026-.1-.069Zm21.21-9.687a1.487,1.487,0,0,0-.408.06c-1.955.559-2.739,2.459-3.052,3.953a1.415,1.415,0,0,0,.964,1.7,1.288,1.288,0,0,0,.341.045,1.376,1.376,0,0,0,1.358-1.011,5.675,5.675,0,0,1,.429-1.361l.119-.232c.057-.107.076-.124.263-.288a1.3,1.3,0,0,1,.276-.129l.035-.011a1.3,1.3,0,0,0,.957-1.5,1.537,1.537,0,0,0-.406-.854A1.2,1.2,0,0,0,54.919,51.894Zm-30.879-11.5h0a4.221,4.221,0,0,0-1.625.285,2.586,2.586,0,0,0-1.24,1.059,1.232,1.232,0,0,0-.054,1.287,1.544,1.544,0,0,0,1.313.761,1.278,1.278,0,0,0,1.084-.6h.051l.031,0,.426-.035h.031a6.609,6.609,0,0,1,1.522.213,1.532,1.532,0,0,0,.352.043,1.275,1.275,0,0,0,.94-.4,1.573,1.573,0,0,0,.419-.9,1.334,1.334,0,0,0-.176-.859,1.253,1.253,0,0,0-.8-.544l-.267-.061a9.412,9.412,0,0,0-2.006-.249ZM84.948,27.707h0a1.291,1.291,0,0,0-.92.407,13.345,13.345,0,0,0-2.6,3.267,1.52,1.52,0,0,0-.13,1.048,1.333,1.333,0,0,0,.626.844,1.369,1.369,0,0,0,.692.18,1.315,1.315,0,0,0,1.2-.676,10.368,10.368,0,0,1,2.152-2.69l.018-.018a1.26,1.26,0,0,0,.3-1.423,1.5,1.5,0,0,0-1.336-.939ZM70.1,26.762a6.022,6.022,0,0,0-2.536,3.357,1.224,1.224,0,0,0,.1.976,1.448,1.448,0,0,0,.869.725,1.378,1.378,0,0,0,.365.05,1.432,1.432,0,0,0,1.309-.951l.025-.066a4.264,4.264,0,0,1,.6-1.155,2.2,2.2,0,0,1,.823-.667,1.443,1.443,0,0,0,1.006-1.453,2.242,2.242,0,0,1-.734.127A2.327,2.327,0,0,1,70.1,26.762Zm-39.652-4.3c.067.015.133.033.2.054l.079.028h0a.69.69,0,0,0,.127.1c.031.022.06.042.076.055l.009.008a1.341,1.341,0,0,0,.919.381,1.542,1.542,0,0,0,1.376-.964,1.2,1.2,0,0,0-.343-1.372,3.778,3.778,0,0,0-2.61-1.039,4.372,4.372,0,0,0-1.848.424,1.16,1.16,0,0,0-.6.729,1.491,1.491,0,0,0,.108,1.163,1.3,1.3,0,0,0,1.163.662,1.738,1.738,0,0,0,.707-.158c-.022.011-.033.018-.033.02h0a1.829,1.829,0,0,0,.2-.056h0l.122-.037a.248.248,0,0,0,.056,0l.134,0h.01l.106,0h.018l.091.006h0Zm29.633,90.25a1.477,1.477,0,0,1-1.091-.514l-.045-.05a15.586,15.586,0,0,0-4.28-3.473A14.182,14.182,0,0,0,49.419,107a1.761,1.761,0,0,1-1.269-.728,2.065,2.065,0,0,1-.374-1.3,1.639,1.639,0,0,1,.387-1,1.345,1.345,0,0,1,1.036-.435,1.982,1.982,0,0,1,.22.013,19.172,19.172,0,0,1,6.57,1.938,17.806,17.806,0,0,1,5.4,4.215,1.707,1.707,0,0,1,.281,1.89,2.037,2.037,0,0,1-.654.8A1.6,1.6,0,0,1,60.083,112.708Z" transform="translate(-16.915 7.952)"/></g><g transform="translate(183.7 126.536)"><ellipse class="c" cx="17.643" cy="17.978" rx="17.643" ry="17.978" transform="translate(41.514 23.164)"/><path d="M2.787,63.344a3.04,3.04,0,0,1-1.713-.556,2.346,2.346,0,0,1-.994-1.474,6.424,6.424,0,0,1,.434-3.361c.08-.25.163-.509.243-.781.28-.955.52-1.941.752-2.894.086-.352.174-.715.263-1.071.3-1.185.567-2.466.854-4.033a9.888,9.888,0,0,0,.117-1.208,6.233,6.233,0,0,1,.284-1.83.156.156,0,0,1,.141-.108.14.14,0,0,1,.039.006,2.68,2.68,0,0,1,1.685,2.172,12.439,12.439,0,0,1,.28,2.978v.08c0,.319,0,.635,0,.985l.713.156A47.608,47.608,0,0,0,16,53.711c.576,0,1.155-.016,1.72-.048a28.484,28.484,0,0,0,5.012-.775c1.624-.387,3.247-.881,4.817-1.359,1.245-.379,2.532-.771,3.828-1.113a13.972,13.972,0,0,1,.149-6.568.278.278,0,0,1,.532,0c.225.7.424,1.4.618,2.086a25.707,25.707,0,0,0,1.725,4.83,2.413,2.413,0,0,1,.589,1.045,20.078,20.078,0,0,0,1.783,2.508c.783.938,1.448,1.895,1,3.29a1.6,1.6,0,0,1-1.486,1.13l-.132,0a2.894,2.894,0,0,1-2.247-1.14,8.126,8.126,0,0,1-1.355-2.554,45.041,45.041,0,0,1-6.267,1.6,36.973,36.973,0,0,1-6.452.594c-.815,0-1.627-.031-2.411-.093a34.961,34.961,0,0,1-6.269-1.056A25.141,25.141,0,0,1,5.2,53.709c.017.62.04,1.251.061,1.861.006.17.012.339.018.507.02.559.091,1.149.159,1.719a12.687,12.687,0,0,1,.133,2.776,3.36,3.36,0,0,1-.72,1.824,2.673,2.673,0,0,1-1.706.922A2.454,2.454,0,0,1,2.787,63.344ZM21.5,40.047a25.913,25.913,0,0,1-5.323-.57,27.774,27.774,0,0,1-5.025-1.565A17.438,17.438,0,0,1,5.559,34.19a17.211,17.211,0,0,1-3.6-5.269A19.243,19.243,0,0,1,.4,22.659a21.718,21.718,0,0,1,.527-6.7A24.489,24.489,0,0,1,2.81,10.785a22.977,22.977,0,0,1,3.148-4.8A15.868,15.868,0,0,1,10.2,2.425,10.887,10.887,0,0,1,15.381.989,18.392,18.392,0,0,1,21.265,0c.277,0,.556.007.829.02a17.862,17.862,0,0,1,12.6,6.109A18.879,18.879,0,0,1,38.119,11.9a18.665,18.665,0,0,1,1.167,6.614,31.317,31.317,0,0,1-.929,7.284,27.64,27.64,0,0,1-2.66,6.844,13.69,13.69,0,0,1-6.093,5.7A16.7,16.7,0,0,1,25.7,39.64,21.084,21.084,0,0,1,21.5,40.047Zm-12.862-33a17.853,17.853,0,0,0-1.665,2.9,21.839,21.839,0,0,0-1.172,3.2,24.441,24.441,0,0,0-.908,6.644,18.579,18.579,0,0,0,.619,4.753A14.107,14.107,0,0,0,7.486,28.9c1.745,2.529,4.69,4.314,8.754,5.305a23.9,23.9,0,0,0,5.632.724,16.337,16.337,0,0,0,4.348-.558A9.152,9.152,0,0,0,30.4,31.888a12.335,12.335,0,0,0,2.584-4.166,23.119,23.119,0,0,0,1.677-10.736,14.386,14.386,0,0,0-1.476-5.043,13.207,13.207,0,0,0-3.516-4.267,12.61,12.61,0,0,0-3.837-2.1,13.314,13.314,0,0,0-4.3-.7c-.33,0-.665.012-1,.036a13.65,13.65,0,0,0-4.781,1.243,13.471,13.471,0,0,0-1.207.672c-.344.207-.7.421-1.064.6a11.644,11.644,0,0,1-1.326.527c-.274.1-.558.2-.831.306l-.266.113a1.9,1.9,0,0,1-.777.171,1.677,1.677,0,0,1-1.128-.427A1.536,1.536,0,0,1,8.638,7.049ZM20.98,26.458a3.494,3.494,0,0,1-.41-.025,2.863,2.863,0,0,1-1.275-.476,3.052,3.052,0,0,1-.912-.973l-.016.009a10.351,10.351,0,0,1-.915-3.975l-.074-1.024a5.348,5.348,0,0,1,.76-3.782,3.526,3.526,0,0,1,2.816-1.539,3.034,3.034,0,0,1,1.472.38,3.654,3.654,0,0,1,1.252,1.159A5.59,5.59,0,0,1,24.4,20.04q-.008.148-.015.3l-.014.343q-.006.179-.012.36a9.377,9.377,0,0,1-.478,3.232A3.1,3.1,0,0,1,20.98,26.458Z" transform="translate(38.747 21.089)"/></g></g></svg>